<?xml version="1.0" standalone="no"?>
<!DOCTYPE svg PUBLIC "-//W3C//DTD SVG 1.1//EN" "http://www.w3.org/Graphics/SVG/1.1/DTD/svg11.dtd" >
<svg>
<metadata>
Created by FontForge 20110222 at Sat Oct 11 20:58:30 2014
 By Orthosie Webhosting
Copyright (c) Emigre Inc, 2009. Designed by Zuzana Licko. All rights reserved.
</metadata>
<defs>
<font id="MrsEavesXLSerifNarOTRegItalic" horiz-adv-x="445" >
  <font-face 
    font-family="MrsEavesXLSerifNarOTRegItalic"
    font-weight="400"
    font-style="italic"
    font-stretch="semi-condensed"
    units-per-em="1000"
    panose-1="2 0 6 6 6 0 0 2 0 4"
    ascent="800"
    descent="-200"
    x-height="439"
    cap-height="600"
    bbox="-140.056 -254 936 839"
    underline-thickness="31"
    underline-position="-77"
    slope="-12"
    unicode-range="U+0020-FB02"
  />
<missing-glyph horiz-adv-x="500" 
 />
    <glyph glyph-name="uniFB01" unicode="fi" horiz-adv-x="438" 
d="M-121 -154q0 38 40 38q23 0 32 -24q7 -22 26 -22q24 0 36 25q11 26 27 115l74 419h-63l6 35h63q22 104 72 151q41 39 101 39q75 0 75 -45q0 -38 -40 -38q-23 0 -32 24q-7 22 -26 22q-27 0 -45 -25q-23 -31 -36 -105l-4 -23h163q51 0 51 -60q0 -6 -3 -21q-2 -15 -7 -38
l-43 -203q-5 -23 -7 -37q-3 -15 -3 -20q0 -26 15 -26q20 0 37 15l1 -20q-30 -31 -67 -31q-51 0 -51 60q0 6 3 22q2 14 7 37l43 204q5 23 7 36q3 16 3 21q0 26 -15 26h-140l-72 -409q-17 -95 -64 -144q-42 -43 -99 -43q-65 0 -65 45z" />
    <glyph glyph-name="uniFB02" unicode="fl" horiz-adv-x="439" 
d="M-121 -154q0 38 40 38q23 0 32 -24q7 -22 26 -22q24 0 36 25q11 26 27 115l74 419h-63l6 35h63q34 190 177 190q16 0 31 -4l23 -9l89 15l-97 -547q-9 -50 12 -50q20 0 37 15l1 -20q-30 -31 -67 -31q-63 0 -49 81l71 399q20 114 -60 114q-35 0 -57 -27q-27 -34 -44 -116
l-2 -10h83l-6 -35h-83l-72 -409q-17 -95 -64 -144q-42 -43 -99 -43q-65 0 -65 45z" />
    <glyph glyph-name=".notdef" horiz-adv-x="500" 
 />
    <glyph glyph-name=".null" horiz-adv-x="0" 
 />
    <glyph glyph-name="nonmarkingreturn" horiz-adv-x="333" 
 />
    <glyph glyph-name="space" unicode=" " horiz-adv-x="154" 
 />
    <glyph glyph-name="exclam" unicode="!" horiz-adv-x="250" 
d="M111 165q15 96 23 173l15 181q2 30 5 49q9 49 50 49q49 0 40 -49q-3 -19 -12 -49l-20 -70q-6 -24 -13 -49l-15 -62q-19 -77 -39 -173h-34zM57 42q6 50 55 50q51 0 45 -50q-5 -50 -55 -50t-45 50z" />
    <glyph glyph-name="quotedbl" unicode="&#x22;" horiz-adv-x="343" 
d="M127 398q4 36 3 68q0 24 -4 47q0 5 -1 10l-4 23q-2 14 -1 22q8 49 51 49q51 0 41 -49q-1 -8 -9 -22q-1 -3 -3 -7l-2 -4q-2 -3 -2 -4q-3 -5 -5 -8q-2 -5 -5 -10q-11 -23 -20 -47q-13 -32 -22 -68h-17zM279 398q4 36 3 68q-1 24 -4 47l-3 18q0 1 -1 4l-2 11q-2 14 -1 22
q8 49 51 49q51 0 41 -49q-1 -8 -9 -22l-16 -33q-12 -23 -21 -47q-12 -32 -21 -68h-17z" />
    <glyph glyph-name="numbersign" unicode="#" horiz-adv-x="373" 
d="M103 232h-79l15 52h77l36 126h-77l14 53h77l38 137h40l-38 -137h86l38 137h40l-38 -137h79l-15 -53h-78l-36 -126h78l-14 -52h-78l-37 -138h-40l38 138h-87l-37 -138h-40zM242 284l36 126h-86l-36 -126h86z" />
    <glyph glyph-name="dollar" unicode="$" horiz-adv-x="440" 
d="M227 280q-25 14 -44 29q-23 17 -38 36q-38 46 -38 108q0 68 51 114q48 45 114 45q9 0 13 -1l13 72h36l-14 -78q36 -11 66 -38q24 12 36 40h19l-34 -188h-23q5 54 -9 92q-17 45 -61 58l-40 -227q28 -16 46 -29q25 -17 42 -36q41 -46 41 -106q0 -87 -61 -138
q-52 -45 -121 -45h-9l-14 -76h-36l14 81q-30 6 -57 22q-22 13 -37 30q-31 -17 -44 -52h-19l36 212h23q-13 -146 104 -175zM218 25q49 0 85 31q39 35 39 90q0 35 -24 66q-20 24 -58 49zM279 575q-49 0 -82 -29q-32 -30 -32 -75q0 -32 22 -61q19 -25 54 -48z" />
    <glyph glyph-name="percent" unicode="%" horiz-adv-x="587" 
d="M54 0l492 618l33 -18l-492 -618zM96 372q-29 42 -21 101q8 60 50 102q43 42 96 42t82 -42t21 -102q-8 -59 -49 -101q-42 -42 -95 -42t-84 42zM237 392q18 31 26 81q7 50 -3 82q-11 36 -43 36t-55 -36q-20 -32 -27 -82q-7 -49 4 -81q12 -36 45 -36q31 0 53 36zM328 26
q-29 42 -21 101q8 60 50 102q43 42 96 42t82 -42t21 -102q-8 -59 -49 -101q-42 -42 -95 -42t-84 42zM469 46q18 31 26 81q7 50 -3 82q-12 36 -44 36t-54 -36q-20 -31 -27 -82q-7 -49 4 -81q12 -36 45 -36q31 0 53 36z" />
    <glyph glyph-name="ampersand" unicode="&#x26;" horiz-adv-x="640" 
d="M361 82q-42 53 -80 108q-33 49 -62 100q-40 -30 -62 -64q-26 -43 -26 -91q0 -45 25 -73q31 -33 92 -33q63 0 113 53zM93 35q-51 48 -37 130q7 43 48 87q38 42 95 75q-34 76 -22 146q11 65 66 106q52 38 118 38q70 0 104 -37q32 -33 23 -85q-10 -57 -68 -93l-23 31
q28 30 33 60q15 85 -73 85q-46 0 -75 -28q-27 -24 -32 -61q-13 -76 25 -157q17 -38 50 -89q27 -40 76 -107q8 15 26 51l4 8l4 8l24 47q32 64 102 64q46 0 68 -24q17 -19 13 -42l-4 -10q-3 -6 -7 -11q-11 -12 -27 -12q-27 0 -33 34q-6 33 -26 33q-38 0 -76 -77q-5 -9 -11 -23
l-11 -24q-14 -30 -25 -48l13 -18q47 -62 96 -62q35 0 68 35l14 -17q-46 -58 -110 -58q-35 0 -67 20q-27 16 -55 48q-34 -32 -70 -49q-41 -19 -90 -19q-81 0 -128 45z" />
    <glyph glyph-name="quotesingle" unicode="'" horiz-adv-x="193" 
d="M127 398q4 36 3 68q0 24 -4 47q0 5 -1 10l-4 23q-2 14 -1 22q8 49 51 49q51 0 41 -49q-1 -8 -9 -22q-1 -3 -3 -7l-2 -4q-2 -3 -2 -4q-3 -5 -5 -8q-2 -5 -5 -10q-11 -23 -20 -47q-13 -32 -22 -68h-17z" />
    <glyph glyph-name="parenleft" unicode="(" horiz-adv-x="292" 
d="M230 -111q-85 81 -118 178q-37 105 -15 228q43 246 266 406l15 -23q-30 -27 -57 -59q-35 -40 -63 -84q-34 -53 -57 -109q-26 -64 -38 -131t-7 -132q4 -56 22 -109q14 -45 36 -86q17 -31 38 -60z" />
    <glyph glyph-name="parenright" unicode=")" horiz-adv-x="292" 
d="M-29 -88q30 28 57 60q35 40 64 85q34 52 57 108q26 65 38 132t6 132q-4 55 -22 109q-14 43 -36 84q-17 31 -38 60l24 19q83 -81 117 -178q36 -105 14 -228q-44 -248 -266 -406z" />
    <glyph glyph-name="asterisk" unicode="*" horiz-adv-x="345" 
d="M178 322q1 7 6 17q2 3 6 10q2 3 3 5l4 6q8 15 14 29q8 20 12 44q-22 -13 -38 -28q-12 -11 -22 -25l-4 -6l-10 -14q-7 -9 -13 -13q-42 -23 -58 16q-16 38 22 58q6 3 17 4q3 1 11 1h6q3 0 6 1q17 1 33 4q20 5 43 16q-21 11 -41 16q-15 4 -31 5l-23 1q-10 1 -15 4
q-37 23 -10 58q28 37 62 16q5 -3 10 -12l9 -20q16 -31 48 -54q1 24 -2 44q-3 14 -8 29l-8 21q-4 10 -3 17q3 44 46 44q44 0 39 -44q-1 -7 -7 -17l-13 -21q-9 -15 -15 -30q-8 -20 -12 -44q21 14 38 29q12 11 22 24q3 4 8 11l6 9q7 9 13 12q39 22 58 -14q18 -37 -21 -59
q-7 -4 -18 -5h-23q-17 -1 -33 -5q-21 -4 -43 -15q20 -11 40 -15q15 -4 32 -4q3 -1 6 -1h17q10 -1 16 -4q35 -24 9 -60q-27 -37 -60 -14q-6 3 -11 12l-4 9q-4 7 -6 11q-17 30 -49 53q-1 -24 2 -44q3 -15 9 -30l5 -11q3 -7 4 -10q4 -10 4 -17q-4 -44 -49 -44q-42 0 -36 44z
" />
    <glyph glyph-name="plus" unicode="+" horiz-adv-x="430" 
d="M210 267h-157l8 44h157l28 157h44l-28 -157h157l-8 -44h-157l-28 -157h-44z" />
    <glyph glyph-name="comma" unicode="," horiz-adv-x="250" 
d="M32 -106q55 53 69 106q-1 -1 -4 -1h-4q-48 0 -42 49q6 48 53 48q53 0 46 -63q-4 -37 -31 -77q-31 -46 -77 -73z" />
    <glyph glyph-name="hyphen" unicode="-" horiz-adv-x="350" 
d="M87 272h212l-8 -44h-212z" />
    <glyph glyph-name="period" unicode="." horiz-adv-x="250" 
d="M55 44q6 52 57 52q53 0 47 -52q-5 -52 -57 -52t-47 52z" />
    <glyph glyph-name="slash" unicode="/" horiz-adv-x="300" 
d="M-35 -4l378 622l38 -14l-378 -622z" />
    <glyph glyph-name="zero" unicode="0" horiz-adv-x="476" 
d="M97 73q-40 87 -16 227q25 140 96 227q69 85 154 85t124 -85q40 -87 14 -227q-25 -140 -95 -227q-69 -85 -154 -85q-84 0 -123 85zM334 108q19 36 34 88q14 47 23 104q11 58 14 104q3 52 -3 88q-14 84 -77 84t-107 -84q-19 -36 -35 -88q-13 -46 -24 -104q-10 -58 -13 -104
q-3 -52 3 -88q14 -84 77 -84q64 0 108 84z" />
    <glyph glyph-name="one" unicode="1" horiz-adv-x="327" 
d="M25 18q51 0 69 23q16 20 29 94l56 318q13 70 -9 92q-17 18 -76 17l4 18l178 34l-85 -479q-14 -78 -4 -97q9 -20 61 -20l-3 -18h-223z" />
    <glyph glyph-name="two" unicode="2" horiz-adv-x="439" 
d="M15 24l188 199q40 42 64 70q29 34 46 62q37 60 37 120q0 45 -21 72q-24 30 -71 30q-45 0 -73 -32q-27 -31 -27 -77q0 -26 12 -49l-26 -29q-52 33 -52 84q0 56 42 95q47 43 128 43q87 0 130 -46q34 -37 34 -92q0 -66 -52 -133q-21 -26 -55 -60q-11 -12 -31 -31l-4 -4
q-1 0 -1 -1l-1 -1q-2 -1 -2 -2l-186 -183h152q64 0 89 16q22 13 42 60h18l-48 -135h-332v24z" />
    <glyph glyph-name="three" unicode="3" horiz-adv-x="448" 
d="M73 26q-40 32 -34 67q6 31 37 31q14 0 21 -20l7 -20q5 -11 10 -19q13 -18 30 -29q24 -15 56 -15q68 0 102 51q30 44 30 115q0 79 -85 98q-7 -5 -13 -13l-9 -12q-10 -13 -21 -13q-19 0 -19 18q0 11 32 36l67 51q86 65 86 139q0 86 -92 86q-104 0 -104 -106q0 -24 8 -45
l-28 -29q-47 32 -47 77q0 56 45 95q50 43 134 43q70 0 112 -30q45 -31 45 -85q0 -51 -27 -87q-23 -31 -79 -67l-52 -33q126 -28 126 -132q0 -81 -57 -135q-59 -55 -152 -55q-81 0 -129 38z" />
    <glyph glyph-name="four" unicode="4" horiz-adv-x="477" 
d="M247 205l48 273l-224 -273h176zM137 18q53 0 69 20q17 19 29 97l5 33h-226v19l346 422h23l-71 -404h4q66 0 90 16q20 12 38 57l8 20h17l-34 -130h-130l-5 -33q-12 -79 -4 -97q9 -20 61 -20l-3 -18h-220z" />
    <glyph glyph-name="five" unicode="5" horiz-adv-x="434" 
d="M72 26q-41 34 -35 68q6 30 37 30q13 0 21 -16l13 -35q10 -24 26 -36q20 -16 54 -16q68 0 105 68q32 58 32 142q0 52 -23 87q-25 36 -66 36q-85 0 -120 -103h-37l93 349h274l-22 -67h-232l-51 -191q50 49 111 49q70 0 111 -45q39 -43 39 -115q0 -103 -62 -173t-153 -70
q-69 0 -115 38z" />
    <glyph glyph-name="six" unicode="6" horiz-adv-x="443" 
d="M157 -3q-30 10 -52 31q-27 25 -41 63q-16 43 -16 102q0 152 70 277q36 66 85 102q53 40 116 40q59 0 97 -26q36 -24 31 -53t-32 -29q-13 0 -22 11q-4 4 -8 11l-4 6q-3 4 -4 7q-11 16 -23 24q-17 11 -42 11q-63 0 -109 -74q-40 -65 -65 -180q24 26 52 41q35 18 74 18
q151 0 151 -162q0 -99 -56 -164q-58 -65 -149 -65q-27 0 -53 9zM314 86q28 53 28 135q0 52 -20 85q-23 38 -70 38q-89 0 -124 -77q-23 -133 7 -195q25 -50 82 -50q64 0 97 64z" />
    <glyph glyph-name="seven" unicode="7" horiz-adv-x="386" 
d="M77 36q3 17 20 48q13 24 35 57l261 392h-160q-63 0 -90 -19q-18 -13 -35 -55l-8 -20h-21l54 161h320v-28l-186 -318q-44 -76 -66 -121q-20 -42 -33 -80q-21 -66 -53 -66q-46 0 -38 49z" />
    <glyph glyph-name="eight" unicode="8" horiz-adv-x="471" 
d="M391 486q5 37 -15 65q-21 31 -63 31q-40 0 -68 -31q-23 -26 -30 -60q-9 -50 12 -84q17 -28 59 -54q96 48 105 133zM321 57q34 34 42 81q11 58 -24 100q-15 18 -40 37q-18 13 -54 34q-51 -27 -82 -61q-34 -40 -44 -92q-10 -57 19 -95q31 -41 95 -41q51 0 88 37zM86 42
q-49 50 -37 119q12 64 61 106q21 18 50 34q24 13 56 26q-42 30 -61 65q-22 40 -14 88q11 61 62 97q49 35 115 35t107 -39q42 -40 32 -95q-8 -49 -48 -85q-33 -30 -95 -56q31 -17 52 -33q26 -19 42 -40q38 -50 26 -115q-12 -71 -73 -116q-59 -45 -134 -45q-90 0 -141 54z" />
    <glyph glyph-name="nine" unicode="9" horiz-adv-x="443" 
d="M76 14q-36 24 -31 53t32 29q13 0 22 -11q4 -4 8 -11l4 -6q2 -4 4 -7q11 -16 23 -24q16 -11 42 -11q63 0 109 75q40 64 65 179q-25 -26 -52 -41q-35 -18 -74 -18q-151 0 -151 162q0 99 56 164q58 65 149 65q27 0 52 -9q31 -10 53 -31q26 -25 41 -63q16 -43 16 -102
q0 -152 -70 -277q-37 -66 -85 -102q-54 -40 -116 -40q-59 0 -97 26zM364 333q23 133 -8 195q-24 50 -81 50q-65 0 -98 -63q-27 -54 -27 -136q0 -52 20 -85q23 -38 70 -38q89 0 124 77z" />
    <glyph glyph-name="colon" unicode=":" horiz-adv-x="250" 
d="M116 380q6 50 55 50q51 0 45 -50q-5 -50 -55 -50t-45 50zM56 42q6 50 55 50q51 0 45 -50q-5 -50 -55 -50t-45 50z" />
    <glyph glyph-name="semicolon" unicode=";" horiz-adv-x="250" 
d="M112 380q5 50 55 50t45 -50t-55 -50t-45 50zM37 -102q54 51 66 102q-1 -1 -4 -1h-3q-47 0 -41 47q6 46 51 46q51 0 44 -61q-4 -35 -30 -74q-29 -44 -73 -70z" />
    <glyph glyph-name="less" unicode="&#x3c;" horiz-adv-x="435" 
d="M72 290l352 217l17 -34l-289 -185l224 -185l-28 -31z" />
    <glyph glyph-name="equal" unicode="=" horiz-adv-x="430" 
d="M105 375h292l-8 -45h-292zM83 250h292l-8 -45h-292z" />
    <glyph glyph-name="greater" unicode="&#x3e;" horiz-adv-x="435" 
d="M37 107l288 185l-223 185l27 30l276 -217l-352 -218z" />
    <glyph glyph-name="question" unicode="?" horiz-adv-x="385" 
d="M147 170q-26 21 -26 58t40 73q16 14 40 30q18 12 45 27q103 58 103 133q0 86 -92 86q-104 0 -104 -106q0 -24 8 -45l-28 -24q-47 30 -47 72q0 56 45 95q49 43 134 43q69 0 112 -30q45 -31 45 -85q0 -55 -33 -94q-34 -40 -118 -83l-35 -18q-20 -11 -32 -20
q-33 -23 -38 -50q-8 -49 49 -49q29 0 67 22v-26q-16 -11 -34 -17q-24 -9 -48 -9q-32 0 -53 17zM114 42q5 50 55 50t45 -50t-55 -50t-45 50z" />
    <glyph glyph-name="at" unicode="@" horiz-adv-x="686" 
d="M427 149l50 177q-3 5 -8 9q-6 4 -13 8q-16 8 -39 8q-41 0 -79 -45q-34 -42 -53 -106q-18 -63 -8 -102q10 -42 51 -42q74 0 99 93zM115 -40q-85 88 -72 218q15 145 130 248t259 103q120 0 191 -72q73 -74 60 -191q-10 -95 -79 -172q-67 -74 -133 -74q-55 0 -60 51
q-45 -55 -105 -55q-61 0 -83 55q-21 51 1 129q22 76 81 129q59 54 121 54q34 0 62 -17h53l-71 -250q-16 -60 29 -60q41 0 91 62q53 67 61 146q11 105 -52 169q-60 60 -156 60q-127 0 -226 -93q-97 -91 -111 -219q-13 -124 55 -200q67 -75 184 -75q109 0 219 64l9 -18
q-120 -80 -239 -80q-135 0 -219 88z" />
    <glyph glyph-name="A" unicode="A" horiz-adv-x="500" 
d="M-54 18q44 0 64 17q16 13 46 70l263 504h23l87 -504q9 -55 22 -70q14 -17 56 -17l-3 -18h-225l3 18q91 0 77 76l-20 114h-192l-59 -114q-39 -76 49 -76l-3 -18h-191zM333 242l-42 244l-126 -244h168z" />
    <glyph glyph-name="B" unicode="B" horiz-adv-x="490" 
d="M275 335q49 0 80 34q26 30 35 81t-7 81q-18 35 -67 35h-70l-41 -231h70zM247 34q51 0 89 40q36 38 45 94q9 57 -12 95q-24 41 -74 41h-95l-29 -164q-13 -73 -3 -90q9 -16 60 -16h19zM2 18q50 0 66 17q16 16 27 76l66 378q11 61 1 77t-60 16l3 18h216q80 0 119 -44
q36 -41 24 -106q-14 -81 -94 -124q107 -38 85 -158q-13 -73 -66 -119q-56 -49 -136 -49h-254z" />
    <glyph glyph-name="C" unicode="C" horiz-adv-x="547" 
d="M124 84q-52 93 -28 226q23 131 106 216q83 86 187 86q96 0 139 -69q24 18 36 52h16l-35 -197h-17q-17 178 -136 178q-82 0 -144 -86q-54 -75 -72 -180q-20 -109 6 -189q31 -96 117 -96q121 0 195 177h17l-35 -197h-16q0 34 -18 52q-36 -38 -77 -54q-36 -15 -81 -15
q-107 0 -160 96z" />
    <glyph glyph-name="D" unicode="D" horiz-adv-x="595" 
d="M2 18q50 0 66 17q16 16 27 76l66 378q11 61 1 77t-60 16l3 18h233q134 0 193 -88q54 -81 31 -212t-106 -212q-90 -88 -224 -88h-233zM239 34q56 0 101 25q41 22 72 64q28 37 47 86q16 43 25 91t7 91q-1 49 -16 86q-36 89 -142 89h-87l-75 -426q-13 -73 -4 -90
q8 -16 54 -16h18z" />
    <glyph glyph-name="E" unicode="E" horiz-adv-x="480" 
d="M2 18q50 0 66 17q16 16 27 76l66 378q11 61 1 77t-60 16l3 18h381l-15 -129h-18v35q0 35 -16 47q-17 13 -70 13h-121l-41 -233h48q60 0 79 13q18 14 27 63h18l-33 -186h-18q9 50 -5 63t-74 13h-48l-31 -173q-10 -60 0 -76t60 -16h71q53 0 75 13q21 12 33 47l12 35h18
l-29 -129h-409z" />
    <glyph glyph-name="F" unicode="F" horiz-adv-x="454" 
d="M2 18q50 0 66 17q16 16 27 76l66 378q11 61 1 77t-60 16l3 18h395l-15 -129h-18v35q0 35 -16 47q-17 13 -70 13h-135l-41 -233h48q60 0 79 13q18 14 27 63h18l-33 -186h-18q9 50 -5 63t-74 13h-48l-33 -188q-11 -60 0 -76q10 -17 59 -17l-3 -18h-223z" />
    <glyph glyph-name="G" unicode="G" horiz-adv-x="576" 
d="M124 84q-52 93 -28 226q23 131 106 216q83 86 187 86q96 0 139 -69q24 18 36 52h16l-35 -197h-17q-14 178 -136 178q-82 0 -144 -86q-54 -75 -72 -180q-9 -50 -8 -97q0 -52 14 -92q31 -96 127 -96q115 0 138 128q9 50 0 63q-10 14 -52 14l3 18h187l-3 -18q-35 0 -49 -16
q-14 -18 -24 -77l-20 -112q-36 0 -63 -6q-11 -2 -23 -6l-39 -13q-11 -4 -21 -6q-26 -6 -59 -6q-107 0 -160 96z" />
    <glyph glyph-name="H" unicode="H" horiz-adv-x="626" 
d="M2 18q50 0 66 17q16 16 27 76l66 378q11 61 1 77t-60 16l3 18h223l-3 -18q-49 0 -66 -16q-16 -17 -27 -77l-27 -155h274l27 155q11 61 1 77t-60 16l3 18h223l-3 -18q-49 0 -66 -16q-16 -17 -27 -77l-66 -378q-11 -60 0 -76q10 -17 59 -17l-3 -18h-223l3 18q50 0 66 17
q16 16 27 76l33 189h-274l-33 -189q-11 -60 0 -76q10 -17 59 -17l-3 -18h-223z" />
    <glyph glyph-name="I" unicode="I" horiz-adv-x="282" 
d="M2 18q50 0 66 17q16 16 27 76l66 378q11 61 1 77t-60 16l3 18h223l-3 -18q-49 0 -66 -16q-16 -17 -27 -77l-66 -378q-11 -60 0 -76q10 -17 59 -17l-3 -18h-223z" />
    <glyph glyph-name="J" unicode="J" horiz-adv-x="282" 
d="M-71 -183q-24 16 -24 37q0 37 38 37q15 0 24 -8l7 -8l10 -17l6 -7q7 -7 19 -7q25 0 39 37q13 35 34 157l79 451q11 61 1 77t-60 16l3 18h223l-3 -18q-49 0 -66 -16q-16 -17 -27 -77l-80 -460q-21 -120 -70 -177q-42 -49 -103 -49q-27 0 -50 14z" />
    <glyph glyph-name="K" unicode="K" horiz-adv-x="570" 
d="M166 111q-11 -60 0 -76q10 -17 59 -17l-3 -18h-223l3 18q50 0 66 17q16 16 27 76l66 378q11 61 1 77t-60 16l3 18h223l-3 -18q-49 0 -66 -16q-16 -17 -27 -77l-29 -166l194 175q93 84 14 84l3 18h195l-3 -18q-47 0 -82 -20q-16 -9 -36 -26l-44 -38l-165 -148l165 -271
q22 -35 49 -49q23 -12 54 -12l-3 -18h-239l3 18q85 0 49 61l-131 223l-31 -28z" />
    <glyph glyph-name="L" unicode="L" horiz-adv-x="460" 
d="M2 18q50 0 66 17q16 16 27 76l66 378q11 61 1 77t-60 16l3 18h223l-3 -18q-49 0 -66 -16q-16 -17 -27 -77l-64 -363q-10 -60 0 -76t60 -16h78q53 0 75 13q21 12 33 47l12 35h18l-30 -129h-415z" />
    <glyph glyph-name="M" unicode="M" horiz-adv-x="704" 
d="M216 482l-101 -371q-16 -59 -7 -76q10 -17 60 -17l-3 -18h-181l3 18q45 0 61 17q15 15 32 76l102 378q15 56 3 75q-12 18 -62 18l3 18h143l74 -481l258 481h136l-3 -18q-50 0 -69 -18t-24 -75l-33 -378q-5 -63 2 -77q9 -16 57 -16l-3 -18h-216l3 18q51 0 67 16
q16 17 21 77l31 365l-263 -490h-12z" />
    <glyph glyph-name="N" unicode="N" horiz-adv-x="573" 
d="M431 140l61 349q11 61 1 77t-60 16l3 18h191l-3 -18q-49 0 -66 -16q-16 -17 -27 -77l-88 -501h-19l-227 485l-63 -362q-11 -60 0 -76q10 -17 59 -17l-3 -18h-191l3 18q50 0 66 17q16 16 27 76l66 378q11 61 1 77t-60 16l3 18h112z" />
    <glyph glyph-name="O" unicode="O" horiz-adv-x="590" 
d="M116 77q-58 91 -35 223t114 223q89 89 194 89t163 -89q58 -91 35 -223t-113 -223q-90 -89 -195 -89t-163 89zM431 110q56 77 76 190t-9 190q-32 86 -115 86t-146 -86q-56 -77 -76 -190t9 -190q32 -86 115 -86t146 86z" />
    <glyph glyph-name="P" unicode="P" horiz-adv-x="462" 
d="M271 296q113 0 137 135q25 135 -84 135h-78l-48 -270h73zM2 18q50 0 66 17q16 16 27 76l66 378q11 61 1 77t-60 16l3 18h225q81 0 124 -50q41 -47 29 -119q-12 -71 -71 -119q-60 -50 -142 -50h-78l-26 -151q-11 -60 0 -76q10 -17 59 -17l-3 -18h-223z" />
    <glyph glyph-name="Q" unicode="Q" horiz-adv-x="590" 
d="M408 -204q-16 9 -33 22l-61 51q-17 13 -29 22q-32 21 -57 21q-26 0 -45 -10q-14 -7 -27 -22l-18 -22q-9 -11 -18 -13q-12 -2 -21 7q-9 10 -6 25q4 24 43 58q43 38 96 58q-90 22 -132 109q-41 85 -21 198q23 132 113 223q90 89 195 89t163 -89q58 -91 35 -223
q-22 -128 -109 -218q-84 -86 -183 -94q-44 -3 -95 -52q55 13 101 2q33 -9 71 -34q6 -5 15 -11l15 -11q18 -13 31 -20q35 -20 71 -20q92 0 144 87l12 -8q-15 -32 -28 -52q-16 -28 -35 -47q-46 -47 -112 -47q-37 0 -75 21zM429 110q56 77 76 190q19 113 -9 190q-32 86 -115 86
q-84 0 -146 -86q-57 -77 -76 -190q-20 -113 9 -190q32 -86 115 -86t146 86z" />
    <glyph glyph-name="R" unicode="R" horiz-adv-x="524" 
d="M254 296q66 0 109 40q38 36 48 95q11 59 -13 95q-26 40 -92 40h-60l-48 -270h56zM331 57l-11 101q-5 43 -25 72q-23 33 -59 33h-43l-27 -152q-11 -60 0 -76q10 -17 59 -17l-3 -18h-223l3 18q50 0 66 17q16 16 27 76l66 378q11 61 1 77t-60 16l3 18h212q91 0 139 -50
q45 -47 33 -119q-22 -131 -171 -163q55 -32 73 -103l25 -101q10 -41 30 -41q5 0 12 2l14 6q14 7 21 14l1 -23q-37 -35 -85 -35q-71 0 -78 70z" />
    <glyph glyph-name="S" unicode="S" horiz-adv-x="440" 
d="M55 205h18q-7 -78 34 -129q42 -52 116 -52q45 0 79 33q37 35 37 89q0 42 -33 76q-24 25 -76 54q-55 31 -84 66q-39 48 -39 111q0 68 51 114q48 45 114 45q36 0 69 -14q27 -12 48 -31q24 12 36 40h16l-34 -188h-18q6 64 -18 106q-30 51 -96 51q-47 0 -77 -30t-30 -75
q0 -37 30 -70q24 -27 70 -53q29 -16 48 -30q26 -18 44 -37q43 -48 43 -110q0 -87 -61 -138q-52 -45 -121 -45q-46 0 -87 19q-35 15 -55 38q-30 -16 -43 -52h-17z" />
    <glyph glyph-name="T" unicode="T" horiz-adv-x="458" 
d="M91 18q50 0 66 17q16 16 27 76l80 455h-43q-76 0 -104 -22q-14 -10 -25 -29q-5 -8 -11 -20l-11 -24h-18l42 129h429l5 -129h-18q-7 58 -25 74q-23 21 -101 21h-49l-80 -455q-11 -60 0 -76q10 -17 59 -17l-3 -18h-223z" />
    <glyph glyph-name="U" unicode="U" horiz-adv-x="572" 
d="M141 42q-51 60 -31 171l49 276q10 61 1 77q-10 16 -60 16l3 18h223l-3 -18q-50 0 -66 -16q-17 -17 -27 -77l-49 -276q-16 -91 19 -139q31 -41 90 -41q60 0 102 41q48 47 65 139l49 276q10 60 0 77q-10 16 -59 16l3 18h191l-3 -18q-50 0 -67 -16q-16 -17 -26 -77l-49 -276
q-20 -113 -83 -171q-57 -54 -141 -54q-86 0 -131 54z" />
    <glyph glyph-name="V" unicode="V" horiz-adv-x="498" 
d="M207 -9l-87 504q-9 55 -22 70q-14 17 -56 17l3 18h225l-3 -18q-91 0 -77 -76l68 -392l203 392q39 76 -49 76l3 18h191l-3 -18q-44 0 -64 -16q-16 -14 -46 -71l-263 -504h-23z" />
    <glyph glyph-name="W" unicode="W" horiz-adv-x="787" 
d="M120 494q-8 56 -20 71q-14 17 -58 17l3 18h226l-3 -18q-89 0 -78 -77l54 -379l233 474h20l67 -474l185 379q38 77 -45 77l3 18h188l-3 -18q-46 0 -66 -18q-17 -15 -44 -70l-248 -503h-23l-66 467l-231 -467h-23z" />
    <glyph glyph-name="X" unicode="X" horiz-adv-x="509" 
d="M-43 18q38 0 74 28q14 11 30 29q11 12 28 33l155 194l-75 190q-19 47 -37 66q-23 24 -62 24l3 18h227l-3 -18q-88 0 -56 -79l59 -148l117 148q62 79 -28 79l3 18h189l-3 -18q-44 0 -74 -25q-12 -10 -28 -28l-163 -206l85 -215q19 -48 37 -67q23 -23 62 -23l-3 -18h-228
l3 18q87 0 56 79l-68 173l-138 -173q-64 -79 29 -79l-3 -18h-191z" />
    <glyph glyph-name="Y" unicode="Y" horiz-adv-x="500" 
d="M134 492q-17 52 -35 69q-20 18 -66 18l3 21h237l-3 -21q-87 0 -62 -76l70 -216l149 216q30 43 25 58q-6 18 -59 18l3 21h202l-3 -21q-51 0 -78 -21q-13 -9 -27 -27l-202 -289l-23 -131q-11 -60 0 -76q10 -17 59 -17l-3 -18h-223l3 18q50 0 66 17q16 16 27 76l23 131z" />
    <glyph glyph-name="Z" unicode="Z" horiz-adv-x="420" 
d="M-1 23l363 543h-132q-56 0 -80 -19q-18 -14 -35 -56l-8 -20h-19l31 129h339v-12l-371 -554h167q57 0 82 20q18 13 34 55l8 20h18l-30 -129h-367v23z" />
    <glyph glyph-name="bracketleft" unicode="[" horiz-adv-x="286" 
d="M186 678h162l-6 -32h-101l-124 -702h101l-6 -32h-162z" />
    <glyph glyph-name="backslash" unicode="\" horiz-adv-x="300" 
d="M72 604l42 14l158 -622l-42 -14z" />
    <glyph glyph-name="bracketright" unicode="]" horiz-adv-x="286" 
d="M-12 -56h102l124 702h-102l6 32h163l-136 -766h-163z" />
    <glyph glyph-name="asciicircum" unicode="^" horiz-adv-x="457" 
d="M58 338l250 279l151 -279l-19 -15l-150 182l-216 -182z" />
    <glyph glyph-name="underscore" unicode="_" horiz-adv-x="336" 
d="M-42 0h360l-8 -44h-360z" />
    <glyph glyph-name="grave" unicode="`" horiz-adv-x="300" 
d="M158 557q-22 8 -22 30q0 30 30 30q17 0 42 -24l92 -87l-4 -7z" />
    <glyph glyph-name="a" unicode="a" horiz-adv-x="436" 
d="M259 57q30 32 38 78l45 252q-27 24 -66 24q-51 0 -91 -58q-37 -54 -52 -136t2 -135q17 -55 61 -55q33 0 63 30zM75 53q-34 65 -17 164q17 100 82 165q63 62 138 62q20 0 39 -4q7 -1 16 -4l12 -3q3 -1 4 -1h66l-63 -353q-9 -50 12 -50q22 0 37 15l1 -20q-31 -31 -67 -31
q-46 0 -51 53q-46 -58 -107 -58q-68 0 -102 65z" />
    <glyph glyph-name="b" unicode="b" horiz-adv-x="424" 
d="M274 77q35 51 51 139q33 189 -63 189q-35 0 -67 -29q-35 -31 -42 -76l-29 -164q-10 -56 13 -87q19 -26 51 -26q50 0 86 54zM76 39q-27 42 -17 99l54 305q15 87 7 113t-51 26l3 18l138 24l-42 -240q45 60 113 60q73 0 106 -63q31 -62 13 -165q-19 -101 -83 -166
q-62 -62 -137 -62q-71 0 -104 51z" />
    <glyph glyph-name="c" unicode="c" horiz-adv-x="356" 
d="M79 48q-36 60 -18 158q20 111 87 178q60 60 124 60q52 0 77 -26q21 -20 17 -44q-6 -38 -40 -38q-33 0 -33 41q0 35 -27 35q-37 0 -72 -49q-40 -57 -58 -157q-33 -177 82 -177q52 0 108 57l11 -21q-68 -77 -148 -77q-74 0 -110 60z" />
    <glyph glyph-name="d" unicode="d" horiz-adv-x="442" 
d="M261 57q33 32 41 78l45 252q-28 23 -71 23q-51 0 -91 -58q-37 -53 -52 -135t2 -135q17 -55 61 -55q34 0 65 30zM75 53q-34 64 -17 164t82 165q63 62 138 62q41 0 76 -20l3 19q15 95 7 118q-7 21 -51 21l3 18l138 24l-97 -545q-9 -50 12 -50q22 0 37 15l1 -20
q-31 -31 -67 -31q-46 0 -51 53q-51 -58 -112 -58q-69 0 -102 65z" />
    <glyph glyph-name="e" unicode="e" horiz-adv-x="373" 
d="M240 260q44 43 51 83q11 66 -41 66q-41 0 -81 -66t-50 -148q71 17 121 65zM78 37q-36 46 -36 123q0 59 21 113q19 50 53 90q68 81 144 81q45 0 71 -29t19 -71q-8 -51 -67 -101q-67 -56 -167 -78q-1 -60 19 -96q24 -42 75 -42q58 0 110 59l13 -21q-62 -77 -152 -77
q-66 0 -103 49z" />
    <glyph glyph-name="f" unicode="f" horiz-adv-x="257" 
d="M-121 -154q0 38 40 38q23 0 32 -24q7 -22 26 -22q24 0 36 25q11 26 27 115l74 419h-63l6 35h63q22 105 67 151q38 39 96 39q65 0 65 -45q0 -38 -40 -38q-23 0 -32 24q-7 22 -26 22q-24 0 -35 -22q-11 -23 -26 -108l-4 -23h83l-6 -35h-83l-72 -409q-17 -95 -64 -144
q-42 -43 -99 -43q-65 0 -65 45z" />
    <glyph glyph-name="g" unicode="g" horiz-adv-x="376" 
d="M9 -170q-47 30 -39 74q3 21 26 42q22 19 45 26l16 -10q-39 -22 -42 -50q-6 -39 37 -59q35 -16 88 -16q123 0 136 72q11 65 -121 79q-137 15 -130 93q5 57 88 72q-66 42 -47 142q11 65 59 107t107 42q46 0 78 -32q40 32 78 32q62 0 53 -52q-6 -35 -35 -35q-14 0 -21 7
q-3 3 -5 8q-1 2 -3 8l-3 8q-2 5 -5 8q-6 7 -18 7q-11 0 -26 -10q28 -46 18 -110q-11 -62 -58 -105q-46 -43 -105 -45q-99 -4 -102 -35q-3 -30 96 -40q92 -9 131 -46q35 -33 27 -85q-10 -60 -69 -95q-55 -32 -129 -32q-78 0 -125 30zM277 289q22 125 -50 125q-74 0 -96 -125
q-23 -125 52 -125q71 0 94 125z" />
    <glyph glyph-name="h" unicode="h" 
d="M280 51q0 11 8 48q2 14 7 37l26 123q7 44 7 66q0 72 -53 72q-34 0 -75 -45q-23 -24 -39 -57q-18 -37 -26 -81l-37 -214h-65l78 443q16 88 8 114q-8 25 -52 25l3 18l138 24l-49 -279q55 99 143 99q91 0 91 -110q0 -26 -7 -72q-6 -34 -17 -86l-22 -105q-2 -13 -2 -18
q0 -26 15 -26q20 0 37 15l1 -20q-30 -31 -67 -31q-51 0 -51 60z" />
    <glyph glyph-name="i" unicode="i" horiz-adv-x="221" 
d="M54 51q0 6 3 22q2 14 7 38l45 209q5 24 7 38q3 16 3 21q0 26 -15 26q-20 0 -37 -15l-1 20q30 31 67 31q51 0 51 -60q0 -6 -3 -22q-2 -14 -7 -38l-45 -209q-5 -24 -7 -38q-3 -16 -3 -21q0 -26 15 -26q20 0 37 15l1 -20q-30 -31 -67 -31q-51 0 -51 60zM142 561q6 43 47 43
q43 0 37 -43t-47 -43q-43 0 -37 43z" />
    <glyph glyph-name="j" unicode="j" horiz-adv-x="210" 
d="M-117 -154q0 38 40 38q13 0 21 -8l7 -8l10 -17q3 -5 6 -8q7 -8 17 -8q23 0 36 38q10 31 30 146l59 336q9 50 -12 50q-20 0 -37 -15l-1 20q30 31 67 31q63 0 49 -81l-61 -348q-20 -117 -67 -168q-40 -43 -104 -43q-60 0 -60 45zM135 561q6 43 47 43q43 0 37 -43t-47 -43
q-43 0 -37 43z" />
    <glyph glyph-name="k" unicode="k" horiz-adv-x="406" 
d="M232 74l-3 126q-2 51 -39 51q-30 0 -52 -26l-40 -225h-65l78 443q16 88 8 113q-8 26 -52 26l3 18l138 24l-62 -351q32 42 52 65q27 33 49 54q52 49 96 49q35 0 55 -20q15 -16 15 -34q0 -42 -38 -42q-14 0 -21 8l-5 8l-6 18l-5 8q-7 8 -21 8q-44 0 -145 -125q18 9 40 9
q66 0 74 -69l14 -131q5 -50 27 -50q18 0 38 18l10 -16q-38 -38 -79 -38q-62 0 -64 81z" />
    <glyph glyph-name="l" unicode="l" horiz-adv-x="207" 
d="M57 72l66 371q16 88 8 113q-8 26 -52 26l3 18l138 24l-97 -547q-9 -50 12 -50q20 0 37 15l1 -20q-30 -31 -67 -31q-63 0 -49 81z" />
    <glyph glyph-name="m" unicode="m" horiz-adv-x="676" 
d="M511 51q0 11 8 48q2 14 7 37l26 123q7 44 7 66q0 72 -48 72q-33 0 -71 -45q-46 -54 -60 -138l-37 -214h-65l49 279q4 30 4 46q0 72 -48 72q-33 0 -71 -45q-46 -54 -60 -138l-37 -214h-65l62 353q9 50 -12 50q-22 0 -37 -15l-1 20q30 31 67 31q66 0 47 -94q55 99 131 99
q86 0 89 -104q59 104 139 104q89 0 89 -110q0 -26 -7 -72q-6 -34 -17 -86l-22 -105q-2 -13 -2 -18q0 -26 15 -26q20 0 37 15l1 -20q-30 -31 -67 -31q-51 0 -51 60z" />
    <glyph glyph-name="n" unicode="n" horiz-adv-x="462" 
d="M297 51q0 11 8 48q2 14 7 37l26 123q7 44 7 66q0 72 -53 72q-34 0 -76 -45q-22 -25 -38 -57q-19 -37 -26 -81l-37 -214h-65l62 353q9 50 -12 50q-22 0 -37 -15l-1 20q30 31 67 31q66 0 47 -94q55 99 143 99q91 0 91 -110q0 -26 -7 -72q-6 -34 -17 -86l-22 -105
q-2 -13 -2 -18q0 -26 15 -26q20 0 37 15l1 -20q-30 -31 -67 -31q-51 0 -51 60z" />
    <glyph glyph-name="o" unicode="o" horiz-adv-x="432" 
d="M290 80q32 53 47 136q15 82 1 136q-16 63 -68 63t-89 -63q-32 -52 -48 -136q-15 -82 -1 -136q16 -63 68 -63t90 63zM79 56q-37 68 -21 160q17 95 72 160q62 72 144 72q78 0 117 -72q38 -68 21 -160q-17 -95 -72 -160q-62 -72 -144 -72q-77 0 -117 72z" />
    <glyph glyph-name="p" unicode="p" horiz-adv-x="453" 
d="M-41 -173q44 0 62 24q19 26 34 111l59 333q-32 -68 -86 -134l-21 14q47 51 88 139q46 101 60 202h63l-17 -97q42 25 85 25q75 0 114 -62q40 -64 23 -165q-17 -104 -70 -166q-53 -63 -125 -63q-66 0 -93 59l-15 -85q-16 -90 -6 -114q9 -21 54 -21l-3 -18h-209zM303 79
q30 49 45 138q15 88 -3 139q-19 54 -69 54q-43 0 -82 -27l-43 -249q-8 -46 14 -78q21 -30 57 -30q48 0 81 53z" />
    <glyph glyph-name="q" unicode="q" horiz-adv-x="426" 
d="M261 57q33 32 41 78l45 252q-27 24 -71 24q-51 0 -91 -58q-37 -54 -52 -136t2 -135q17 -55 61 -55q34 0 65 30zM175 -173q45 0 62 23q19 25 34 112l14 79q-48 -53 -108 -53q-68 0 -102 65t-17 164q17 100 82 165q63 62 138 62q20 0 41 -4q14 -2 35 -8h66l-84 -470
q-15 -85 -5 -111q9 -24 53 -24l-3 -18h-209z" />
    <glyph glyph-name="r" unicode="r" horiz-adv-x="315" 
d="M112 353q9 50 -12 50q-22 0 -37 -15l-1 20q30 31 67 31q66 0 46 -98q40 103 113 103q34 0 49 -22q13 -17 10 -42q-5 -43 -42 -43q-32 0 -32 33q0 27 -15 27q-28 0 -58 -54q-36 -65 -56 -177l-30 -166h-65z" />
    <glyph glyph-name="s" unicode="s" horiz-adv-x="318" 
d="M36 18q-30 26 -26 54q5 30 35 30q22 0 32 -38q6 -19 17 -28q15 -13 47 -13q63 0 74 58q9 46 -43 98l-45 44q-56 55 -47 110q9 46 43 77q40 35 99 35q47 0 71 -22q19 -19 19 -44q0 -32 -28 -32q-18 0 -29 34q-9 34 -46 34q-56 0 -68 -57q-9 -45 37 -86l49 -42
q59 -51 47 -116q-10 -60 -55 -94q-41 -32 -94 -32q-56 0 -89 30z" />
    <glyph glyph-name="t" unicode="t" horiz-adv-x="262" 
d="M69 120l50 277h-74l6 35h74l21 119h65l-21 -119h91l-6 -35h-91l-50 -277q-16 -87 25 -87q7 0 12 1q6 2 13 6q16 9 40 37l1 -31q-24 -31 -51 -45q-22 -11 -44 -11q-85 0 -61 130z" />
    <glyph glyph-name="u" unicode="u" horiz-adv-x="457" 
d="M63 98q0 26 8 72q6 34 19 86l24 105q2 13 2 18q0 26 -15 26q-20 0 -37 -15l-1 20q30 31 67 31q51 0 51 -60q0 -11 -8 -48l-18 -77q-13 -52 -19 -83q-8 -44 -8 -66q0 -72 53 -72q34 0 76 45q22 25 38 57q19 37 26 81l37 214h65l-62 -353q-9 -50 12 -50q22 0 37 15l1 -20
q-30 -31 -67 -31q-66 0 -47 94q-55 -99 -143 -99q-91 0 -91 110z" />
    <glyph glyph-name="v" unicode="v" horiz-adv-x="404" 
d="M70 40q-24 44 -12 113q5 28 20 63q10 24 29 60l28 53q13 28 16 44q-83 45 -108 -3l-11 7q16 62 71 62q8 0 15 -1q6 0 12 -2q3 0 6 -1l13 -2q17 -3 39 11h23q-5 -28 -16 -62l-22 -65q-15 -42 -24 -74q-13 -45 -21 -91q-23 -126 61 -126q62 0 104 73t42 177q0 35 -7 61
q-5 19 -15 36l-14 23q-6 12 -5 22q3 26 33 26q22 0 34 -29q15 -37 15 -119q0 -126 -53 -214q-58 -95 -152 -95q-73 0 -101 53z" />
    <glyph glyph-name="w" unicode="w" horiz-adv-x="597" 
d="M368 252q17 64 17 103q0 44 -17 44q-18 0 -34 -60q-16 -61 -16 -134q0 -17 2 -37q1 -22 4 -32q26 47 44 116zM71 33q-27 45 -13 120q4 25 17 55q9 21 27 55l28 55q14 31 21 55q-84 44 -108 -3l-11 7q16 62 66 62q8 0 16 -1q6 0 12 -2l20 -3q20 -3 42 11h23
q-5 -28 -17 -65l-22 -68q-15 -45 -24 -75q-13 -44 -20 -84q-23 -126 57 -126q24 0 50 19q22 16 41 43q-10 22 -16 71q-5 39 -5 73q0 91 30 152t76 61q56 0 56 -90q0 -53 -23 -126q-25 -77 -61 -129q15 -74 74 -74q63 0 95 81q13 34 19 79q6 40 6 84q0 39 -7 66q-5 20 -15 36
l-6 9q-2 2 -2 3l-6 10q-6 11 -3 25q4 25 32 25q20 0 33 -32q15 -40 15 -127q0 -122 -41 -204q-47 -94 -133 -94q-68 0 -103 73q-63 -73 -130 -73q-62 0 -90 46z" />
    <glyph glyph-name="x" unicode="x" horiz-adv-x="374" 
d="M-17 42q0 43 37 38q16 -2 19 -24q3 -21 14 -21q14 0 47 52q29 47 67 126l-29 136q-10 51 -39 51q-18 0 -43 -28l-14 13q36 54 81 54q65 0 81 -81l16 -79l31 61q18 31 33 51q38 48 75 48q50 0 50 -46q0 -16 -12 -30q-13 -16 -30 -11q-16 4 -17 26q-1 19 -12 19
q-29 0 -107 -169l31 -145q10 -51 38 -51q18 0 44 28l14 -13q-36 -54 -81 -54q-65 0 -81 81l-18 92q-21 -43 -36 -69q-19 -33 -35 -55q-37 -49 -75 -49q-49 0 -49 49z" />
    <glyph glyph-name="y" unicode="y" horiz-adv-x="377" 
d="M-108 -174q-25 22 -18 47q8 31 38 26q9 -2 17 -10l16 -16q23 -23 58 -23q54 0 136 78q8 82 8 140q0 90 -9 159q-7 61 -21 102q-23 70 -54 70q-23 0 -38 -34l-13 16q11 59 73 59q60 0 92 -73q35 -80 35 -247q0 -59 -4 -108q47 72 75 150q31 83 31 149q0 31 -6 50l-5 16
l-6 10l-3 5q-1 0 -4 4t-5 7q-5 9 -5 21q0 28 29 28q48 0 48 -123q0 -81 -37 -176q-35 -90 -93 -170q-59 -82 -126 -130q-70 -51 -132 -51q-50 0 -77 24z" />
    <glyph glyph-name="z" unicode="z" horiz-adv-x="350" 
d="M216 -23q-8 6 -15 15l-26 36q-7 9 -14 15q-17 15 -38 15q-38 0 -63 -34l-13 -18q-3 -3 -4 -6q-9 -11 -18 -13q-12 -2 -20 7q-10 10 -6 29t38 67q30 41 78 97q98 115 156 165l-9 -2q-6 -1 -7 -2q-7 -1 -14 -1q-16 0 -50 14q-33 14 -56 14q-48 0 -57 -35h-20q4 46 32 77
q26 28 58 28q19 0 37 -10q12 -7 29 -22l25 -22q15 -10 28 -10q28 0 50 32q2 2 4 6q0 1 2 3l9 13q8 10 16 10q19 0 13 -22q-7 -32 -61 -86q-27 -27 -58 -63q-28 -32 -56 -69q-51 -67 -84 -120q22 8 32 8q29 0 51 -9q16 -7 35 -20l28 -21q16 -9 34 -9q36 0 46 45h21
q-7 -52 -27 -82q-24 -35 -65 -35q-23 0 -41 15z" />
    <glyph glyph-name="braceleft" unicode="{" horiz-adv-x="292" 
d="M209 -111q-60 38 -72 78q-13 43 5 147q16 94 -18 134q-13 15 -36 26l-20 9q-3 0 -6 1q-1 1 -5 2l-10 4l2 16l47 15q27 10 45 25q49 38 65 132q18 103 47 146q27 41 100 79l9 -23q-56 -35 -71 -76q-7 -18 -12 -52l-11 -72q-17 -98 -63 -140q-19 -18 -46 -28
q-19 -8 -53 -16q31 -8 48 -16q23 -10 36 -28q31 -42 14 -140l-14 -73q-7 -35 -8 -53q0 -44 44 -78z" />
    <glyph glyph-name="bar" unicode="|" horiz-adv-x="246" 
d="M192 686h44l-138 -782h-44z" />
    <glyph glyph-name="braceright" unicode="}" horiz-adv-x="292" 
d="M-30 -88q66 40 91 76q27 40 42 124q18 103 48 140q24 30 84 44q-55 14 -69 44q-16 37 2 140q15 82 -3 126q-15 36 -69 78l16 19l29 -18q15 -10 26 -19q28 -20 43 -42q36 -52 20 -146q-17 -97 3 -134q8 -16 26 -26q10 -7 37 -16l-3 -16l-23 -7l-20 -8q-21 -10 -35 -25
q-32 -35 -49 -132q-17 -96 -67 -147q-21 -21 -54 -42l-67 -36z" />
    <glyph glyph-name="asciitilde" unicode="~" horiz-adv-x="420" 
d="M247 206q-12 6 -32 20q-1 0 -2 1l-6 4q-5 3 -8 6l-16 9q-17 9 -32 9q-38 0 -59 -54h-19q13 103 87 103q16 0 34 -9q12 -6 33 -20l7 -5q5 -3 8 -6l16 -9q17 -9 32 -9q39 0 60 54h19q-15 -103 -88 -103q-16 0 -34 9z" />
    <glyph glyph-name="uni00A0" unicode="&#xa0;" horiz-adv-x="154" 
 />
    <glyph glyph-name="exclamdown" unicode="&#xa1;" horiz-adv-x="250" 
d="M121 396q5 50 55 50t45 -50t-55 -50t-45 50zM34 -130q3 19 12 49l20 70q7 24 13 49l16 62q18 77 38 173h34q-14 -96 -23 -173l-14 -181q-3 -30 -6 -49q-9 -49 -50 -49q-49 0 -40 49z" />
    <glyph glyph-name="cent" unicode="&#xa2;" horiz-adv-x="387" 
d="M179 39q-69 10 -102 71q-33 59 -17 145q17 92 80 160q55 60 118 76l23 126h36l-22 -122q53 -2 77 -29q19 -21 15 -47q-8 -40 -41 -40q-34 0 -34 43q0 36 -23 39l-67 -382h12q59 0 121 62l12 -23q-69 -76 -153 -81l-21 -120h-36zM252 455q-38 -18 -70 -67
q-37 -56 -51 -133q-23 -129 56 -166z" />
    <glyph glyph-name="sterling" unicode="&#xa3;" horiz-adv-x="477" 
d="M-2 21q61 0 82 21q19 21 33 96l29 160h-81l6 35h81l11 63q20 112 81 170q54 51 130 51q52 0 81 -28q25 -25 19 -56q-8 -38 -42 -38q-19 0 -27 14q-3 6 -4 15q-1 3 -1 8q-1 2 -1 5t-1 4q-3 22 -10 32q-10 14 -36 14q-43 0 -66 -42q-24 -42 -43 -149l-11 -63h125l-6 -35
h-125l-10 -53q-30 -163 -91 -198h153q64 0 92 20q22 15 38 56l8 20h21l-34 -143h-405z" />
    <glyph glyph-name="currency" unicode="&#xa4;" horiz-adv-x="524" 
d="M136 57q-45 66 -45 171h-57l6 35h53q2 23 6 47l3 14q1 8 3 13h-52l7 35h54q34 107 103 173q70 67 150 67q82 0 119 -69q23 18 37 57h18l-35 -197h-18q-13 173 -118 173q-58 0 -107 -63q-43 -54 -69 -141h171l-7 -35h-173l-5 -27q-4 -22 -6 -47h171l-6 -35h-168
q-3 -87 19 -140q27 -63 87 -63q103 0 175 172h18l-35 -197h-18q0 40 -17 57q-61 -69 -138 -69q-79 0 -126 69z" />
    <glyph glyph-name="yen" unicode="&#xa5;" horiz-adv-x="497" 
d="M262 111q-11 -60 0 -76q10 -17 59 -17l-3 -18h-220l3 18q50 0 66 17q16 16 27 76l9 49h-107l6 33h106l9 49l-5 15h-99l6 33h82l-67 202q-17 52 -35 69q-20 18 -66 18l3 21h234l-3 -21q-87 0 -62 -76l70 -216l149 216q30 43 25 59q-6 17 -59 17l3 21h202l-3 -21
q-51 0 -78 -21q-13 -9 -27 -27l-169 -241h86l-6 -33h-103l-10 -15l-9 -49h111l-6 -33h-110z" />
    <glyph glyph-name="brokenbar" unicode="&#xa6;" horiz-adv-x="246" 
d="M192 686h44l-59 -337h-44zM113 241h44l-59 -337h-44z" />
    <glyph glyph-name="section" unicode="&#xa7;" horiz-adv-x="435" 
d="M330 185q0 40 -31 72q-22 24 -71 51q-27 14 -50 33q-59 -32 -59 -100q0 -40 31 -72q22 -24 71 -51q27 -14 50 -33q59 32 59 100zM57 1h22q-6 -63 14 -105q25 -52 86 -52q101 0 101 98q0 35 -28 67q-23 25 -66 49q-27 15 -45 28q-24 17 -41 35q-41 45 -41 103q0 53 27 92
q22 33 63 53q-37 45 -37 105q0 59 48 102q46 41 107 41q34 0 64 -14q24 -11 43 -29q20 12 31 38h21l-34 -187h-22q6 63 -14 105q-25 52 -86 52q-101 0 -101 -98q0 -35 28 -67q23 -25 66 -49q27 -15 45 -28q24 -17 41 -35q41 -45 41 -103q0 -53 -27 -92q-22 -33 -63 -53
q37 -45 37 -105q0 -59 -47 -101t-108 -42q-34 0 -64 14q-24 11 -43 29q-20 -12 -31 -38h-21z" />
    <glyph glyph-name="dieresis" unicode="&#xa8;" horiz-adv-x="300" 
d="M265 542q3 39 44 39q39 0 36 -41q-4 -38 -44 -38t-36 40zM99 542q3 39 44 39q39 0 36 -41q-4 -38 -44 -38t-36 40z" />
    <glyph glyph-name="copyright" unicode="&#xa9;" horiz-adv-x="665" 
d="M125 77q-83 94 -69 225t117 223t234 92t214 -94t68 -225q-14 -131 -116 -223t-234 -92q-131 0 -214 94zM553 98q91 84 104 202t-61 202q-75 84 -193 84t-210 -84q-91 -83 -104 -202q-13 -118 62 -202q74 -84 192 -84t210 84zM216 154q-49 63 -34 150q16 86 87 146
q70 60 153 60q70 0 109 -59q13 13 23 44h17l-27 -156h-18q-3 137 -110 137q-69 0 -116 -59q-38 -49 -51 -117q-12 -68 10 -117q26 -59 95 -59q106 0 158 138h18l-27 -157h-17q0 13 -2 26q-3 14 -7 18q-59 -59 -129 -59q-83 0 -132 64z" />
    <glyph glyph-name="ordfeminine" unicode="&#xaa;" horiz-adv-x="351" 
d="M104 311q-26 49 -13 125q12 76 62 125q48 47 107 47q21 0 54 -9h52l-48 -267q-8 -35 7 -35q16 0 28 10l2 -16q-24 -25 -52 -25q-34 0 -40 37q-35 -41 -80 -41q-53 0 -79 49zM272 374l35 189q-21 16 -49 16q-38 0 -68 -43q-27 -39 -38 -100q-12 -61 0 -100q13 -41 46 -41
q58 0 74 79z" />
    <glyph glyph-name="guillemotleft" unicode="&#xab;" horiz-adv-x="452" 
d="M225 251l211 153l11 -18l-136 -136l88 -135l-17 -18zM57 251l262 198l11 -19l-187 -180l124 -179l-18 -19z" />
    <glyph glyph-name="logicalnot" unicode="&#xac;" horiz-adv-x="522" 
d="M398 268h-312l8 44h356l-30 -172h-44z" />
    <glyph glyph-name="registered" unicode="&#xae;" horiz-adv-x="484" 
d="M106 223q-61 67 -51 163q11 96 86 164q75 67 170 67q97 0 157 -67q61 -68 50 -164q-10 -96 -85 -163q-75 -68 -172 -68q-95 0 -155 68zM413 243q65 59 74 143q10 83 -42 142q-53 60 -137 60q-83 0 -148 -59q-65 -60 -74 -143t44 -143q52 -59 135 -59t148 59zM140 275
q52 0 62 64l17 99q8 41 1 53q-7 11 -39 11l2 14h135q104 0 91 -74q-10 -59 -87 -73l28 -38q38 -51 76 -56l-2 -15h-86l-66 108h-13l-5 -29q-7 -41 -1 -53q5 -11 31 -11l-2 -15h-144zM295 392q49 0 58 50q10 51 -40 51h-32l-18 -101h32z" />
    <glyph glyph-name="macron" unicode="&#xaf;" horiz-adv-x="300" 
d="M113 537h210v-35h-210v35z" />
    <glyph glyph-name="degree" unicode="&#xb0;" horiz-adv-x="372" 
d="M124 357q-40 46 -33 108q6 61 55 104q49 42 111 42t101 -46q40 -46 33 -108t-55 -104q-49 -42 -111 -42t-101 46zM304 388q32 31 37 73q4 42 -21 73q-27 31 -68 31q-42 0 -74 -31q-32 -30 -36 -73q-5 -42 21 -73q25 -31 67 -31q41 0 74 31z" />
    <glyph glyph-name="plusminus" unicode="&#xb1;" horiz-adv-x="400" 
d="M-2 39h358l-7 -39h-358zM195 267h-157l8 44h157l28 157h44l-28 -157h157l-8 -44h-157l-28 -157h-44z" />
    <glyph glyph-name="uni00B2" unicode="&#xb2;" horiz-adv-x="302" 
d="M66 300l107 106q35 35 55 68q17 28 21 50q12 64 -37 64q-50 0 -57 -44q-2 -18 7 -33l-19 -17q-42 19 -36 55q12 68 110 68q49 0 75 -28q23 -27 17 -64q-5 -29 -32 -61q-11 -14 -29 -31l-120 -109h78q52 0 71 41h18l-30 -83h-202z" />
    <glyph glyph-name="uni00B3" unicode="&#xb3;" horiz-adv-x="308" 
d="M97 297q-24 18 -20 37q3 21 24 21q8 0 13 -12l4 -11q3 -7 7 -11q3 -4 6 -6q4 -4 9 -6q13 -7 33 -7q57 0 68 66q10 57 -33 68l-19 -15q-10 -9 -17 -9q-6 0 -10 4t-3 11q1 9 20 22l47 31q32 21 40 62q8 46 -43 46q-50 0 -58 -44q-4 -15 4 -31l-21 -16q-38 16 -32 49
q12 71 112 71q44 0 71 -20q29 -22 24 -55q-4 -23 -23 -43q-14 -14 -41 -31l-22 -14q76 -18 65 -86q-7 -38 -44 -65q-37 -28 -85 -28t-76 22z" />
    <glyph glyph-name="acute" unicode="&#xb4;" horiz-adv-x="300" 
d="M137 506l92 87q26 24 42 24q30 0 30 -30q0 -22 -22 -30l-138 -58z" />
    <glyph glyph-name="uni00B5" unicode="&#xb5;" horiz-adv-x="457" 
d="M-61 -173q44 0 62 24q19 26 34 111l35 197q7 39 16 80l26 109q4 21 4 31q0 26 -15 26q-20 0 -37 -15l-1 20q30 31 67 31q51 0 51 -60q0 -11 -8 -48l-18 -77q-13 -52 -19 -83q-8 -44 -8 -66q0 -72 53 -72q34 0 76 45q22 25 38 57q19 37 26 81l37 214h65l-62 -353
q-9 -50 12 -50q22 0 37 15l1 -20q-30 -31 -67 -31q-66 0 -47 94q-55 -99 -143 -99q-27 0 -47 12l-7 -38q-16 -90 -6 -114q9 -21 54 -21l-3 -18h-209z" />
    <glyph glyph-name="paragraph" unicode="&#xb6;" horiz-adv-x="475" 
d="M25 -171q60 0 79 21q17 20 31 96l56 316q-62 7 -97 55t-24 113q12 70 71 120t129 50h261l-4 -21q-62 0 -82 -21q-20 -20 -34 -95l-92 -517q-14 -75 -2 -96t72 -21l-4 -20h-143l132 747h-77l-132 -747h-144z" />
    <glyph glyph-name="periodcentered" unicode="&#xb7;" horiz-adv-x="267" 
d="M104 265q6 52 57 52q53 0 47 -52q-5 -52 -57 -52t-47 52z" />
    <glyph glyph-name="cedilla" unicode="&#xb8;" horiz-adv-x="300" 
d="M44 -222q87 19 87 68q0 31 -34 42q-31 11 -69 -1v13l105 106h39l-73 -74q31 -2 56 -19q31 -22 31 -57q0 -47 -56 -75q-20 -10 -47 -17q-20 -6 -39 -8v22z" />
    <glyph glyph-name="uni00B9" unicode="&#xb9;" horiz-adv-x="242" 
d="M69 301q56 0 66 58l30 168q6 35 -9 46q-11 8 -46 8l3 16l126 20l-46 -258q-10 -58 46 -58l-3 -19h-170z" />
    <glyph glyph-name="ordmasculine" unicode="&#xba;" horiz-adv-x="348" 
d="M107 315q-29 51 -17 120q13 72 55 120q46 53 110 53q60 0 91 -53q30 -51 17 -120q-12 -71 -55 -120q-47 -53 -111 -53q-59 0 -90 53zM268 336q23 38 34 99t1 99q-12 45 -51 45t-66 -45q-24 -37 -35 -99q-11 -61 -1 -99q12 -45 50 -45q39 0 68 45z" />
    <glyph glyph-name="guillemotright" unicode="&#xbb;" horiz-adv-x="452" 
d="M151 71l186 179l-123 180l17 19l192 -198l-262 -199zM33 115l136 135l-88 136l17 18l157 -153l-211 -154z" />
    <glyph glyph-name="onequarter" unicode="&#xbc;" horiz-adv-x="674" 
d="M93 0l492 618l33 -18l-492 -618zM69 301q56 0 66 58l30 168q6 35 -9 46q-11 8 -46 8l3 16l126 20l-46 -258q-10 -58 46 -58l-3 -19h-170zM475 117l22 128l-111 -128h89zM403 19q36 0 47 10q12 10 18 48l2 13h-129l2 14l202 231h22l-38 -218q51 0 67 37l6 14h15l-20 -78
h-73l-2 -13q-6 -39 1 -48q7 -10 42 -10l-3 -19h-162z" />
    <glyph glyph-name="onehalf" unicode="&#xbd;" horiz-adv-x="687" 
d="M93 0l492 618l31 -18l-492 -618zM69 301q56 0 66 58l30 168q6 35 -9 46q-11 8 -46 8l3 16l126 20l-46 -258q-10 -58 46 -58l-3 -19h-170zM392 18l107 106q68 68 77 118q11 64 -38 64q-48 0 -57 -44q-3 -14 7 -33l-19 -17q-42 19 -36 55q12 68 110 68q49 0 75 -28
q23 -27 17 -64q-5 -29 -32 -61q-11 -14 -29 -31l-120 -109h78q52 0 72 41h18l-31 -83h-202z" />
    <glyph glyph-name="threequarters" unicode="&#xbe;" horiz-adv-x="690" 
d="M112 0l492 618l33 -18l-492 -618zM494 117l22 128l-111 -128h89zM422 19q36 0 47 10q12 10 18 48l2 13h-129l2 14l202 231h22l-38 -218q51 0 67 37l6 14h15l-20 -78h-73l-2 -13q-6 -39 0 -48q7 -10 43 -10l-3 -19h-162zM97 297q-24 18 -20 37q3 21 24 21q8 0 13 -12
l4 -11q3 -7 7 -11q3 -4 6 -6q4 -4 9 -6q13 -7 33 -7q57 0 68 66q10 57 -33 68l-19 -15q-10 -9 -17 -9q-6 0 -10 4t-3 11q1 9 20 22l47 31q32 21 40 62q8 46 -43 46q-50 0 -58 -44q-4 -15 4 -31l-21 -16q-38 16 -32 49q12 71 112 71q44 0 71 -20q29 -22 24 -55
q-4 -23 -23 -43q-14 -14 -41 -31l-22 -14q76 -18 65 -86q-7 -38 -44 -65q-37 -28 -85 -28t-76 22z" />
    <glyph glyph-name="questiondown" unicode="&#xbf;" horiz-adv-x="385" 
d="M288 396q-5 -50 -55 -50t-45 50t55 50t45 -50zM255 268q26 -21 26 -58t-40 -73q-16 -14 -40 -30q-18 -12 -45 -27q-103 -58 -103 -133q0 -86 92 -86q104 0 104 106q0 24 -8 45l28 24q47 -30 47 -72q0 -56 -44 -94q-50 -44 -135 -44q-69 0 -112 30q-45 31 -45 85
q0 55 33 94q34 40 118 83l35 18q20 11 32 20q33 23 38 50q8 49 -49 49q-29 0 -67 -22v26q16 11 34 17q24 9 48 9q32 0 53 -17z" />
    <glyph glyph-name="Agrave" unicode="&#xc0;" horiz-adv-x="500" 
d="M-54 18q44 0 64 17q16 13 46 70l263 504h23l87 -504q9 -55 22 -70q14 -17 56 -17l-3 -18h-225l3 18q91 0 77 76l-20 114h-192l-59 -114q-39 -76 49 -76l-3 -18h-191zM333 242l-42 244l-126 -244h168zM242 729q-22 8 -22 30q0 30 30 30q17 0 42 -24l92 -87l-4 -7z" />
    <glyph glyph-name="Aacute" unicode="&#xc1;" horiz-adv-x="500" 
d="M-54 18q44 0 64 17q16 13 46 70l263 504h23l87 -504q9 -55 22 -70q14 -17 56 -17l-3 -18h-225l3 18q91 0 77 76l-20 114h-192l-59 -114q-39 -76 49 -76l-3 -18h-191zM333 242l-42 244l-126 -244h168zM301 678l92 87q26 24 42 24q30 0 30 -30q0 -22 -22 -30l-138 -58z" />
    <glyph glyph-name="Acircumflex" unicode="&#xc2;" horiz-adv-x="500" 
d="M-54 18q44 0 64 17q16 13 46 70l263 504h23l87 -504q9 -55 22 -70q14 -17 56 -17l-3 -18h-225l3 18q91 0 77 76l-20 114h-192l-59 -114q-39 -76 49 -76l-3 -18h-191zM333 242l-42 244l-126 -244h168zM233 688l132 130l86 -130l-13 -11l-82 76l-110 -76z" />
    <glyph glyph-name="Atilde" unicode="&#xc3;" horiz-adv-x="500" 
d="M-54 18q44 0 64 17q16 13 46 70l263 504h23l87 -504q9 -55 22 -70q14 -17 56 -17l-3 -18h-225l3 18q91 0 77 76l-20 114h-192l-59 -114q-39 -76 49 -76l-3 -18h-191zM333 242l-42 244l-126 -244h168zM333 704q-34 26 -52 26q-32 0 -48 -48h-16q10 94 78 94q21 0 55 -26
q35 -26 52 -26q32 0 48 48h16q-10 -94 -78 -94q-20 0 -55 26z" />
    <glyph glyph-name="Adieresis" unicode="&#xc4;" horiz-adv-x="500" 
d="M-54 18q44 0 64 17q16 13 46 70l263 504h23l87 -504q9 -55 22 -70q14 -17 56 -17l-3 -18h-225l3 18q91 0 77 76l-20 114h-192l-59 -114q-39 -76 49 -76l-3 -18h-191zM333 242l-42 244l-126 -244h168zM385 714q4 39 44 39t36 -41q-3 -38 -44 -38q-40 0 -36 40zM219 714
q4 39 44 39t36 -41q-3 -38 -44 -38q-40 0 -36 40z" />
    <glyph glyph-name="Aring" unicode="&#xc5;" horiz-adv-x="500" 
d="M-54 18q44 0 64 17q16 13 46 70l263 504h23l87 -504q9 -55 22 -70q14 -17 56 -17l-3 -18h-225l3 18q91 0 77 76l-20 114h-192l-59 -114q-39 -76 49 -76l-3 -18h-191zM333 242l-42 244l-126 -244h168zM277 699q-22 25 -18 59q9 81 91 81q34 0 57 -25q22 -25 18 -60
q-9 -80 -91 -80q-35 0 -57 25zM390 754q6 52 -43 52q-48 0 -53 -48q-6 -51 43 -51q48 0 53 47z" />
    <glyph glyph-name="AE" unicode="&#xc6;" horiz-adv-x="719" 
d="M356 241l54 306l-211 -306h157zM-86 21q56 0 85 17t66 70l341 492h319l-15 -129h-18v35q0 35 -16 47q-17 13 -70 13h-121l-41 -233h48q60 0 79 13q18 14 27 63h18l-33 -186h-18q9 50 -5 63t-74 13h-48l-31 -173q-10 -60 0 -76t60 -16h71q53 0 75 13q21 12 33 47l12 35h18
l-29 -129h-428l4 21q62 0 82 21q19 19 33 96l13 70h-175l-77 -111q-30 -43 -20 -59q11 -17 69 -17l-4 -21h-234z" />
    <glyph glyph-name="Ccedilla" unicode="&#xc7;" horiz-adv-x="547" 
d="M265 -11q-98 9 -146 102q-47 92 -24 219q23 131 106 216q83 86 187 86q96 0 139 -69q24 18 36 52h16l-35 -197h-17q-17 178 -136 178q-82 0 -144 -86q-54 -75 -72 -180q-19 -109 6 -189q31 -96 117 -96q121 0 195 177h17l-35 -197h-16q0 34 -18 52q-59 -61 -137 -68
l-66 -67q31 -2 56 -19q31 -22 31 -57q0 -47 -56 -75q-21 -10 -47 -17q-20 -6 -39 -8v22q87 19 87 68q0 31 -34 42q-32 11 -69 -1v13z" />
    <glyph glyph-name="Egrave" unicode="&#xc8;" horiz-adv-x="480" 
d="M2 18q50 0 66 17q16 16 27 76l66 378q11 61 1 77t-60 16l3 18h381l-15 -129h-18v35q0 35 -16 47q-17 13 -70 13h-121l-41 -233h48q60 0 79 13q18 14 27 63h18l-33 -186h-18q9 50 -5 63t-74 13h-48l-31 -173q-10 -60 0 -76t60 -16h71q53 0 75 13q21 12 33 47l12 35h18
l-29 -129h-409zM259 729q-22 8 -22 30q0 30 30 30q17 0 42 -24l92 -87l-4 -7z" />
    <glyph glyph-name="Eacute" unicode="&#xc9;" horiz-adv-x="480" 
d="M2 18q50 0 66 17q16 16 27 76l66 378q11 61 1 77t-60 16l3 18h381l-15 -129h-18v35q0 35 -16 47q-17 13 -70 13h-121l-41 -233h48q60 0 79 13q18 14 27 63h18l-33 -186h-18q9 50 -5 63t-74 13h-48l-31 -173q-10 -60 0 -76t60 -16h71q53 0 75 13q21 12 33 47l12 35h18
l-29 -129h-409zM298 678l92 87q26 24 42 24q30 0 30 -30q0 -22 -22 -30l-138 -58z" />
    <glyph glyph-name="Ecircumflex" unicode="&#xca;" horiz-adv-x="480" 
d="M2 18q50 0 66 17q16 16 27 76l66 378q11 61 1 77t-60 16l3 18h381l-15 -129h-18v35q0 35 -16 47q-17 13 -70 13h-121l-41 -233h48q60 0 79 13q18 14 27 63h18l-33 -186h-18q9 50 -5 63t-74 13h-48l-31 -173q-10 -60 0 -76t60 -16h71q53 0 75 13q21 12 33 47l12 35h18
l-29 -129h-409zM230 685l132 130l86 -130l-13 -11l-82 76l-110 -76z" />
    <glyph glyph-name="Edieresis" unicode="&#xcb;" horiz-adv-x="480" 
d="M2 18q50 0 66 17q16 16 27 76l66 378q11 61 1 77t-60 16l3 18h381l-15 -129h-18v35q0 35 -16 47q-17 13 -70 13h-121l-41 -233h48q60 0 79 13q18 14 27 63h18l-33 -186h-18q9 50 -5 63t-74 13h-48l-31 -173q-10 -60 0 -76t60 -16h71q53 0 75 13q21 12 33 47l12 35h18
l-29 -129h-409zM392 714q4 39 44 39t36 -41q-3 -38 -44 -38q-40 0 -36 40zM226 714q4 39 44 39t36 -41q-3 -38 -44 -38q-40 0 -36 40z" />
    <glyph glyph-name="Igrave" unicode="&#xcc;" horiz-adv-x="282" 
d="M150 729q-22 8 -22 30q0 30 30 30q17 0 42 -24l92 -87l-4 -7zM2 18q50 0 66 17q16 16 27 76l66 378q11 61 1 77t-60 16l3 18h223l-3 -18q-49 0 -66 -16q-16 -17 -27 -77l-66 -378q-11 -60 0 -76q10 -17 59 -17l-3 -18h-223z" />
    <glyph glyph-name="Iacute" unicode="&#xcd;" horiz-adv-x="282" 
d="M179 678l92 87q26 24 42 24q30 0 30 -30q0 -22 -22 -30l-138 -58zM2 18q50 0 66 17q16 16 27 76l66 378q11 61 1 77t-60 16l3 18h223l-3 -18q-49 0 -66 -16q-16 -17 -27 -77l-66 -378q-11 -60 0 -76q10 -17 59 -17l-3 -18h-223z" />
    <glyph glyph-name="Icircumflex" unicode="&#xce;" horiz-adv-x="282" 
d="M121 685l132 130l86 -130l-13 -11l-82 76l-110 -76zM2 18q50 0 66 17q16 16 27 76l66 378q11 61 1 77t-60 16l3 18h223l-3 -18q-49 0 -66 -16q-16 -17 -27 -77l-66 -378q-11 -60 0 -76q10 -17 59 -17l-3 -18h-223z" />
    <glyph glyph-name="Idieresis" unicode="&#xcf;" horiz-adv-x="282" 
d="M283 714q4 39 44 39t36 -41q-3 -38 -44 -38q-40 0 -36 40zM117 714q4 39 44 39t36 -41q-3 -38 -44 -38q-40 0 -36 40zM2 18q50 0 66 17q16 16 27 76l66 378q11 61 1 77t-60 16l3 18h223l-3 -18q-49 0 -66 -16q-16 -17 -27 -77l-66 -378q-11 -60 0 -76q10 -17 59 -17
l-3 -18h-223z" />
    <glyph glyph-name="Eth" unicode="&#xd0;" horiz-adv-x="595" 
d="M2 18q50 0 66 17q16 16 27 76l29 169h-87l8 44h87l29 165q11 61 1 77t-60 16l3 18h233q134 0 193 -88q54 -81 31 -212t-106 -212q-90 -88 -224 -88h-233zM239 34q56 0 101 25q41 22 72 64q28 37 47 86q16 43 25 91t7 91q-1 49 -16 86q-36 89 -142 89h-87l-43 -242h93
l-8 -44h-93l-24 -140q-13 -73 -4 -90q8 -16 54 -16h18z" />
    <glyph glyph-name="Ntilde" unicode="&#xd1;" horiz-adv-x="573" 
d="M431 140l61 349q11 61 1 77t-60 16l3 18h191l-3 -18q-49 0 -66 -16q-16 -17 -27 -77l-88 -501h-19l-227 485l-63 -362q-11 -60 0 -76q10 -17 59 -17l-3 -18h-191l3 18q50 0 66 17q16 16 27 76l66 378q11 61 1 77t-60 16l3 18h112zM367 704q-34 26 -52 26q-32 0 -48 -48
h-16q10 94 78 94q21 0 55 -26q35 -26 52 -26q32 0 48 48h16q-10 -94 -78 -94q-20 0 -55 26z" />
    <glyph glyph-name="Ograve" unicode="&#xd2;" horiz-adv-x="590" 
d="M116 77q-58 91 -35 223t114 223q89 89 194 89t163 -89q58 -91 35 -223t-113 -223q-90 -89 -195 -89t-163 89zM431 110q56 77 76 190t-9 190q-32 86 -115 86t-146 -86q-56 -77 -76 -190t9 -190q32 -86 115 -86t146 86zM331 729q-22 8 -22 30q0 30 30 30q17 0 42 -24
l92 -87l-4 -7z" />
    <glyph glyph-name="Oacute" unicode="&#xd3;" horiz-adv-x="590" 
d="M116 77q-58 91 -35 223t114 223q89 89 194 89t163 -89q58 -91 35 -223t-113 -223q-90 -89 -195 -89t-163 89zM431 110q56 77 76 190t-9 190q-32 86 -115 86t-146 -86q-56 -77 -76 -190t9 -190q32 -86 115 -86t146 86zM350 678l92 87q26 24 42 24q30 0 30 -30
q0 -22 -22 -30l-138 -58z" />
    <glyph glyph-name="Ocircumflex" unicode="&#xd4;" horiz-adv-x="590" 
d="M116 77q-58 91 -35 223t114 223q89 89 194 89t163 -89q58 -91 35 -223t-113 -223q-90 -89 -195 -89t-163 89zM431 110q56 77 76 190t-9 190q-32 86 -115 86t-146 -86q-56 -77 -76 -190t9 -190q32 -86 115 -86t146 86zM302 685l132 130l86 -130l-13 -11l-82 76l-110 -76z
" />
    <glyph glyph-name="Otilde" unicode="&#xd5;" horiz-adv-x="590" 
d="M116 77q-58 91 -35 223t114 223q89 89 194 89t163 -89q58 -91 35 -223t-113 -223q-90 -89 -195 -89t-163 89zM431 110q56 77 76 190t-9 190q-32 86 -115 86t-146 -86q-56 -77 -76 -190t9 -190q32 -86 115 -86t146 86zM402 704q-34 26 -52 26q-32 0 -48 -48h-16
q11 94 78 94q21 0 55 -26q35 -26 52 -26q32 0 48 48h16q-10 -94 -78 -94q-20 0 -55 26z" />
    <glyph glyph-name="Odieresis" unicode="&#xd6;" horiz-adv-x="590" 
d="M116 77q-58 91 -35 223t114 223q89 89 194 89t163 -89q58 -91 35 -223t-113 -223q-90 -89 -195 -89t-163 89zM431 110q56 77 76 190t-9 190q-32 86 -115 86t-146 -86q-56 -77 -76 -190t9 -190q32 -86 115 -86t146 86zM454 714q4 39 44 39t36 -41q-3 -38 -44 -38
q-40 0 -36 40zM288 714q4 39 44 39t36 -41q-3 -38 -44 -38q-40 0 -36 40z" />
    <glyph glyph-name="multiply" unicode="&#xd7;" horiz-adv-x="430" 
d="M64 171l141 120l-99 119l35 29l98 -119l140 119l28 -33l-140 -119l99 -120l-36 -29l-98 120l-141 -120z" />
    <glyph glyph-name="Oslash" unicode="&#xd8;" horiz-adv-x="590" 
d="M481 532q-35 44 -93 44q-83 0 -146 -86q-56 -77 -76 -190q-21 -122 13 -200zM437 110q56 77 75 190q22 121 -13 200l-302 -432q35 -44 93 -44q84 0 147 86zM92 -25l51 74q-84 91 -57 251q23 132 114 223q89 89 194 89q66 0 116 -38l49 70l28 -19l-52 -74q85 -92 57 -251
q-23 -132 -113 -223q-89 -89 -195 -89q-65 0 -116 38l-49 -70z" />
    <glyph glyph-name="Ugrave" unicode="&#xd9;" horiz-adv-x="572" 
d="M141 42q-51 60 -31 171l49 276q10 61 1 77q-10 16 -60 16l3 18h223l-3 -18q-50 0 -66 -16q-17 -17 -27 -77l-49 -276q-16 -91 19 -139q31 -41 90 -41q60 0 102 41q48 47 65 139l49 276q10 60 0 77q-10 16 -59 16l3 18h191l-3 -18q-50 0 -67 -16q-16 -17 -26 -77l-49 -276
q-20 -113 -83 -171q-57 -54 -141 -54q-86 0 -131 54zM295 729q-22 8 -22 30q0 30 30 30q16 0 42 -24l92 -87l-4 -7z" />
    <glyph glyph-name="Uacute" unicode="&#xda;" horiz-adv-x="572" 
d="M141 42q-51 60 -31 171l49 276q10 61 1 77q-10 16 -60 16l3 18h223l-3 -18q-50 0 -66 -16q-17 -17 -27 -77l-49 -276q-16 -91 19 -139q31 -41 90 -41q60 0 102 41q48 47 65 139l49 276q10 60 0 77q-10 16 -59 16l3 18h191l-3 -18q-50 0 -67 -16q-16 -17 -26 -77l-49 -276
q-20 -113 -83 -171q-57 -54 -141 -54q-86 0 -131 54zM354 678l92 87q25 24 42 24q30 0 30 -30q0 -22 -22 -30l-138 -58z" />
    <glyph glyph-name="Ucircumflex" unicode="&#xdb;" horiz-adv-x="572" 
d="M141 42q-51 60 -31 171l49 276q10 61 1 77q-10 16 -60 16l3 18h223l-3 -18q-50 0 -66 -16q-17 -17 -27 -77l-49 -276q-16 -91 19 -139q31 -41 90 -41q60 0 102 41q48 47 65 139l49 276q10 60 0 77q-10 16 -59 16l3 18h191l-3 -18q-50 0 -67 -16q-16 -17 -26 -77l-49 -276
q-20 -113 -83 -171q-57 -54 -141 -54q-86 0 -131 54zM291 685l132 130l86 -130l-13 -11l-82 76l-110 -76z" />
    <glyph glyph-name="Udieresis" unicode="&#xdc;" horiz-adv-x="572" 
d="M141 42q-51 60 -31 171l49 276q10 61 1 77q-10 16 -60 16l3 18h223l-3 -18q-50 0 -66 -16q-17 -17 -27 -77l-49 -276q-16 -91 19 -139q31 -41 90 -41q60 0 102 41q48 47 65 139l49 276q10 60 0 77q-10 16 -59 16l3 18h191l-3 -18q-50 0 -67 -16q-16 -17 -26 -77l-49 -276
q-20 -113 -83 -171q-57 -54 -141 -54q-86 0 -131 54zM443 714q3 39 44 39q40 0 36 -41q-4 -38 -44 -38t-36 40zM277 714q3 39 44 39q40 0 36 -41q-4 -38 -44 -38t-36 40z" />
    <glyph glyph-name="Yacute" unicode="&#xdd;" horiz-adv-x="500" 
d="M134 492q-17 52 -35 69q-20 18 -66 18l3 21h237l-3 -21q-87 0 -62 -76l70 -216l149 216q30 43 25 58q-6 18 -59 18l3 21h202l-3 -21q-51 0 -78 -21q-13 -9 -27 -27l-202 -289l-23 -131q-11 -60 0 -76q10 -17 59 -17l-3 -18h-223l3 18q50 0 66 17q16 16 27 76l23 131z
M298 678l92 87q26 24 42 24q30 0 30 -30q0 -22 -22 -30l-138 -58z" />
    <glyph glyph-name="Thorn" unicode="&#xde;" horiz-adv-x="462" 
d="M251 181q114 0 137 130q24 130 -86 130h-78l-46 -260h73zM2 18q50 0 66 17q16 16 27 76l66 378q11 61 1 77t-60 16l3 18h223l-3 -18q-49 0 -66 -16q-16 -17 -27 -77l-2 -14h78q82 0 125 -47q42 -46 30 -117t-71 -117q-60 -47 -142 -47h-78l-6 -36q-11 -60 0 -76
q10 -17 59 -17l-3 -18h-223z" />
    <glyph glyph-name="germandbls" unicode="&#xdf;" horiz-adv-x="454" 
d="M-100 -154q0 38 40 38q13 0 21 -8l7 -8l10 -17q3 -5 6 -8q7 -8 17 -8q23 0 36 38q10 31 30 146l49 274h-90l4 25q59 0 79 21q19 19 31 90q17 98 69 145q47 43 120 43q64 0 97 -37q31 -35 22 -86q-5 -30 -28 -59l-23 -24q-8 -8 -25 -23t-25 -23q-13 -13 -21 -24
q-22 -27 -26 -55q-5 -35 27 -62l44 -37q50 -42 50 -97q0 -42 -34 -73q-36 -33 -93 -33q-53 0 -88 25q-30 21 -31 47q-2 31 30 34q20 2 28 -13q2 -3 3 -7l9 -24q16 -33 59 -33q58 0 58 58q0 35 -44 74l-43 38q-41 36 -31 96q5 31 25 60q7 11 19 24q6 8 21 23l21 22
q11 13 19 25q19 28 25 60q16 91 -56 91q-86 0 -113 -155l-74 -417q-20 -117 -67 -168q-40 -43 -104 -43q-60 0 -60 45z" />
    <glyph glyph-name="agrave" unicode="&#xe0;" horiz-adv-x="436" 
d="M259 57q30 32 38 78l45 252q-27 24 -66 24q-51 0 -91 -58q-37 -54 -52 -136t2 -135q17 -55 61 -55q33 0 63 30zM75 53q-34 65 -17 164q17 100 82 165q63 62 138 62q20 0 39 -4q7 -1 16 -4l12 -3q3 -1 4 -1h66l-63 -353q-9 -50 12 -50q22 0 37 15l1 -20q-31 -31 -67 -31
q-46 0 -51 53q-46 -58 -107 -58q-68 0 -102 65zM223 557q-22 8 -22 30q0 30 30 30q17 0 42 -24l92 -87l-4 -7z" />
    <glyph glyph-name="aacute" unicode="&#xe1;" horiz-adv-x="436" 
d="M259 57q30 32 38 78l45 252q-27 24 -66 24q-51 0 -91 -58q-37 -54 -52 -136t2 -135q17 -55 61 -55q33 0 63 30zM75 53q-34 65 -17 164q17 100 82 165q63 62 138 62q20 0 39 -4q7 -1 16 -4l12 -3q3 -1 4 -1h66l-63 -353q-9 -50 12 -50q22 0 37 15l1 -20q-31 -31 -67 -31
q-46 0 -51 53q-46 -58 -107 -58q-68 0 -102 65zM242 506l92 87q26 24 42 24q30 0 30 -30q0 -22 -22 -30l-138 -58z" />
    <glyph glyph-name="acircumflex" unicode="&#xe2;" horiz-adv-x="436" 
d="M259 57q30 32 38 78l45 252q-27 24 -66 24q-51 0 -91 -58q-37 -54 -52 -136t2 -135q17 -55 61 -55q33 0 63 30zM75 53q-34 65 -17 164q17 100 82 165q63 62 138 62q20 0 39 -4q7 -1 16 -4l12 -3q3 -1 4 -1h66l-63 -353q-9 -50 12 -50q22 0 37 15l1 -20q-31 -31 -67 -31
q-46 0 -51 53q-46 -58 -107 -58q-68 0 -102 65zM199 513l132 130l86 -130l-13 -11l-82 76l-110 -76z" />
    <glyph glyph-name="atilde" unicode="&#xe3;" horiz-adv-x="436" 
d="M259 57q30 32 38 78l45 252q-27 24 -66 24q-51 0 -91 -58q-37 -54 -52 -136t2 -135q17 -55 61 -55q33 0 63 30zM75 53q-34 65 -17 164q17 100 82 165q63 62 138 62q20 0 39 -4q7 -1 16 -4l12 -3q3 -1 4 -1h66l-63 -353q-9 -50 12 -50q22 0 37 15l1 -20q-31 -31 -67 -31
q-46 0 -51 53q-46 -58 -107 -58q-68 0 -102 65zM304 532q-34 26 -52 26q-32 0 -48 -48h-16q11 94 78 94q21 0 55 -26q35 -26 52 -26q32 0 48 48h16q-10 -94 -78 -94q-20 0 -55 26z" />
    <glyph glyph-name="adieresis" unicode="&#xe4;" horiz-adv-x="436" 
d="M259 57q30 32 38 78l45 252q-27 24 -66 24q-51 0 -91 -58q-37 -54 -52 -136t2 -135q17 -55 61 -55q33 0 63 30zM75 53q-34 65 -17 164q17 100 82 165q63 62 138 62q20 0 39 -4q7 -1 16 -4l12 -3q3 -1 4 -1h66l-63 -353q-9 -50 12 -50q22 0 37 15l1 -20q-31 -31 -67 -31
q-46 0 -51 53q-46 -58 -107 -58q-68 0 -102 65zM356 542q4 39 44 39t36 -41q-3 -38 -44 -38q-39 0 -36 40zM190 542q4 39 44 39t36 -41q-3 -38 -44 -38q-39 0 -36 40z" />
    <glyph glyph-name="aring" unicode="&#xe5;" horiz-adv-x="436" 
d="M259 57q30 32 38 78l45 252q-27 24 -66 24q-51 0 -91 -58q-37 -54 -52 -136t2 -135q17 -55 61 -55q33 0 63 30zM75 53q-34 65 -17 164q17 100 82 165q63 62 138 62q20 0 39 -4q7 -1 16 -4l12 -3q3 -1 4 -1h66l-63 -353q-9 -50 12 -50q22 0 37 15l1 -20q-31 -31 -67 -31
q-46 0 -51 53q-46 -58 -107 -58q-68 0 -102 65zM249 527q-23 25 -19 59q9 81 91 81q35 0 57 -25t18 -60q-8 -80 -91 -80q-34 0 -56 25zM361 582q6 52 -43 52q-47 0 -53 -48q-5 -51 43 -51t53 47z" />
    <glyph glyph-name="ae" unicode="&#xe6;" horiz-adv-x="585" 
d="M456 260q44 43 51 83q11 66 -41 66q-41 0 -81 -66t-50 -148q70 17 121 65zM277 73q-38 -42 -67 -59q-38 -23 -86 -23q-51 0 -76 33q-23 30 -18 75q7 69 76 113q60 39 165 56l5 29q19 112 -53 112q-68 0 -74 -59q-4 -38 -40 -38q-39 0 -34 38q4 38 51 66t106 28
q41 0 71 -20q32 -21 35 -54q66 74 138 74q45 0 71 -29t19 -71q-9 -51 -67 -101q-67 -56 -167 -78q-1 -60 19 -96q23 -42 75 -42q58 0 110 59l13 -21q-62 -77 -152 -77q-86 0 -120 85zM267 107q-3 10 -4 28q-1 15 -1 34q0 13 3 42l3 26q-155 -33 -164 -129q-7 -72 51 -72
q57 0 112 71z" />
    <glyph glyph-name="ccedilla" unicode="&#xe7;" horiz-adv-x="356" 
d="M160 -10q-61 11 -88 69q-29 59 -13 147q21 111 88 178q59 60 123 60q52 0 78 -26q20 -20 16 -44q-5 -38 -40 -38q-33 0 -33 41q0 35 -27 35q-36 0 -71 -49q-41 -57 -59 -157q-32 -177 82 -177q53 0 108 57l11 -21q-62 -71 -137 -77l-56 -56q32 -2 57 -19q30 -22 30 -57
q0 -47 -56 -75q-20 -10 -47 -17q-20 -6 -39 -8v22q87 19 87 68q0 31 -34 42q-31 11 -69 -1v13z" />
    <glyph glyph-name="egrave" unicode="&#xe8;" horiz-adv-x="373" 
d="M240 260q44 43 51 83q11 66 -41 66q-41 0 -81 -66t-50 -148q71 17 121 65zM78 37q-36 46 -36 123q0 59 21 113q19 50 53 90q68 81 144 81q45 0 71 -29t19 -71q-8 -51 -67 -101q-67 -56 -167 -78q-1 -60 19 -96q24 -42 75 -42q58 0 110 59l13 -21q-62 -77 -152 -77
q-66 0 -103 49zM184 557q-22 8 -22 30q0 30 30 30q17 0 42 -24l92 -87l-4 -7z" />
    <glyph glyph-name="eacute" unicode="&#xe9;" horiz-adv-x="373" 
d="M240 260q44 43 51 83q11 66 -41 66q-41 0 -81 -66t-50 -148q71 17 121 65zM78 37q-36 46 -36 123q0 59 21 113q19 50 53 90q68 81 144 81q45 0 71 -29t19 -71q-8 -51 -67 -101q-67 -56 -167 -78q-1 -60 19 -96q24 -42 75 -42q58 0 110 59l13 -21q-62 -77 -152 -77
q-66 0 -103 49zM188 506l92 87q26 24 42 24q30 0 30 -30q0 -22 -22 -30l-138 -58z" />
    <glyph glyph-name="ecircumflex" unicode="&#xea;" horiz-adv-x="373" 
d="M240 260q44 43 51 83q11 66 -41 66q-41 0 -81 -66t-50 -148q71 17 121 65zM78 37q-36 46 -36 123q0 59 21 113q19 50 53 90q68 81 144 81q45 0 71 -29t19 -71q-8 -51 -67 -101q-67 -56 -167 -78q-1 -60 19 -96q24 -42 75 -42q58 0 110 59l13 -21q-62 -77 -152 -77
q-66 0 -103 49zM145 513l132 130l86 -130l-13 -11l-82 76l-110 -76z" />
    <glyph glyph-name="edieresis" unicode="&#xeb;" horiz-adv-x="373" 
d="M240 260q44 43 51 83q11 66 -41 66q-41 0 -81 -66t-50 -148q71 17 121 65zM78 37q-36 46 -36 123q0 59 21 113q19 50 53 90q68 81 144 81q45 0 71 -29t19 -71q-8 -51 -67 -101q-67 -56 -167 -78q-1 -60 19 -96q24 -42 75 -42q58 0 110 59l13 -21q-62 -77 -152 -77
q-66 0 -103 49zM302 542q4 39 44 39t36 -41q-3 -38 -44 -38q-40 0 -36 40zM136 542q4 39 44 39t36 -41q-3 -38 -44 -38q-40 0 -36 40z" />
    <glyph glyph-name="igrave" unicode="&#xec;" horiz-adv-x="221" 
d="M54 51q0 6 3 22q2 14 7 38l45 209q5 24 7 38q3 16 3 21q0 26 -15 26q-20 0 -37 -15l-1 20q30 31 67 31q51 0 51 -60q0 -6 -3 -22q-2 -14 -7 -38l-45 -209q-5 -24 -7 -38q-3 -16 -3 -21q0 -26 15 -26q20 0 37 15l1 -20q-30 -31 -67 -31q-51 0 -51 60zM78 557q-22 8 -22 30
q0 30 30 30q17 0 42 -24l92 -87l-4 -7z" />
    <glyph glyph-name="iacute" unicode="&#xed;" horiz-adv-x="221" 
d="M54 51q0 6 3 22q2 14 7 38l45 209q5 24 7 38q3 16 3 21q0 26 -15 26q-20 0 -37 -15l-1 20q30 31 67 31q51 0 51 -60q0 -6 -3 -22q-2 -14 -7 -38l-45 -209q-5 -24 -7 -38q-3 -16 -3 -21q0 -26 15 -26q20 0 37 15l1 -20q-30 -31 -67 -31q-51 0 -51 60zM97 506l92 87
q26 24 42 24q30 0 30 -30q0 -22 -22 -30l-138 -58z" />
    <glyph glyph-name="icircumflex" unicode="&#xee;" horiz-adv-x="221" 
d="M54 51q0 6 3 22q2 14 7 38l45 209q5 24 7 38q3 16 3 21q0 26 -15 26q-20 0 -37 -15l-1 20q30 31 67 31q51 0 51 -60q0 -6 -3 -22q-2 -14 -7 -38l-45 -209q-5 -24 -7 -38q-3 -16 -3 -21q0 -26 15 -26q20 0 37 15l1 -20q-30 -31 -67 -31q-51 0 -51 60zM49 513l132 130
l86 -130l-13 -11l-82 76l-110 -76z" />
    <glyph glyph-name="idieresis" unicode="&#xef;" horiz-adv-x="221" 
d="M58 51q0 6 2 22q3 14 8 38l44 209q5 24 8 38q3 16 3 21q0 26 -15 26q-21 0 -37 -15l-1 20q29 31 67 31q51 0 51 -60q0 -6 -3 -22q-3 -14 -8 -38l-44 -209q-5 -24 -8 -38q-2 -16 -2 -21q0 -26 15 -26q20 0 37 15l1 -20q-30 -31 -67 -31q-51 0 -51 60zM210 542q3 39 44 39
q39 0 36 -41q-4 -38 -44 -38t-36 40zM44 542q3 39 44 39q39 0 36 -41q-4 -38 -44 -38t-36 40z" />
    <glyph glyph-name="eth" unicode="&#xf0;" horiz-adv-x="432" 
d="M290 80q32 53 47 136q15 82 1 136q-16 63 -68 63t-89 -63q-32 -52 -48 -136q-15 -82 -1 -136q16 -63 68 -63t90 63zM79 56q-37 68 -21 160q17 95 72 160q62 72 144 72q25 0 46 -10q-20 40 -56 81l-89 -56l-12 31l78 49q-28 30 -56 50l26 29l15 -11l17 -14q20 -16 35 -31
l84 52l12 -31l-73 -45q31 -34 50 -61q26 -36 42 -71q18 -41 24 -85q6 -48 -4 -101q-19 -102 -74 -168q-60 -72 -143 -72q-77 0 -117 72z" />
    <glyph glyph-name="ntilde" unicode="&#xf1;" horiz-adv-x="462" 
d="M297 51q0 11 8 48q2 14 7 37l26 123q7 44 7 66q0 72 -53 72q-34 0 -76 -45q-22 -25 -38 -57q-19 -37 -26 -81l-37 -214h-65l62 353q9 50 -12 50q-22 0 -37 -15l-1 20q30 31 67 31q66 0 47 -94q55 99 143 99q91 0 91 -110q0 -26 -7 -72q-6 -34 -17 -86l-22 -105
q-2 -13 -2 -18q0 -26 15 -26q20 0 37 15l1 -20q-30 -31 -67 -31q-51 0 -51 60zM290 532q-34 26 -52 26q-32 0 -48 -48h-16q10 94 78 94q21 0 55 -26q35 -26 52 -26q32 0 48 48h16q-10 -94 -78 -94q-20 0 -55 26z" />
    <glyph glyph-name="ograve" unicode="&#xf2;" horiz-adv-x="432" 
d="M290 80q32 53 47 136q15 82 1 136q-16 63 -68 63t-89 -63q-32 -52 -48 -136q-15 -82 -1 -136q16 -63 68 -63t90 63zM79 56q-37 68 -21 160q17 95 72 160q62 72 144 72q78 0 117 -72q38 -68 21 -160q-17 -95 -72 -160q-62 -72 -144 -72q-77 0 -117 72zM214 557
q-22 8 -22 30q0 30 30 30q17 0 42 -24l92 -87l-4 -7z" />
    <glyph glyph-name="oacute" unicode="&#xf3;" horiz-adv-x="432" 
d="M290 80q32 53 47 136q15 82 1 136q-16 63 -68 63t-89 -63q-32 -52 -48 -136q-15 -82 -1 -136q16 -63 68 -63t90 63zM79 56q-37 68 -21 160q17 95 72 160q62 72 144 72q78 0 117 -72q38 -68 21 -160q-17 -95 -72 -160q-62 -72 -144 -72q-77 0 -117 72zM238 506l92 87
q26 24 42 24q30 0 30 -30q0 -22 -22 -30l-138 -58z" />
    <glyph glyph-name="ocircumflex" unicode="&#xf4;" horiz-adv-x="432" 
d="M290 80q32 53 47 136q15 82 1 136q-16 63 -68 63t-89 -63q-32 -52 -48 -136q-15 -82 -1 -136q16 -63 68 -63t90 63zM79 56q-37 68 -21 160q17 95 72 160q62 72 144 72q78 0 117 -72q38 -68 21 -160q-17 -95 -72 -160q-62 -72 -144 -72q-77 0 -117 72zM180 513l132 130
l86 -130l-13 -11l-82 76l-110 -76z" />
    <glyph glyph-name="otilde" unicode="&#xf5;" horiz-adv-x="432" 
d="M290 80q32 53 47 136q15 82 1 136q-16 63 -68 63t-89 -63q-32 -52 -48 -136q-15 -82 -1 -136q16 -63 68 -63t90 63zM79 56q-37 68 -21 160q17 95 72 160q62 72 144 72q78 0 117 -72q38 -68 21 -160q-17 -95 -72 -160q-62 -72 -144 -72q-77 0 -117 72zM285 532
q-34 26 -52 26q-32 0 -48 -48h-16q11 94 78 94q21 0 55 -26q35 -26 52 -26q32 0 48 48h16q-10 -94 -78 -94q-20 0 -55 26z" />
    <glyph glyph-name="odieresis" unicode="&#xf6;" horiz-adv-x="432" 
d="M290 80q32 53 47 136q15 82 1 136q-16 63 -68 63t-89 -63q-32 -52 -48 -136q-15 -82 -1 -136q16 -63 68 -63t90 63zM79 56q-37 68 -21 160q17 95 72 160q62 72 144 72q78 0 117 -72q38 -68 21 -160q-17 -95 -72 -160q-62 -72 -144 -72q-77 0 -117 72zM337 542q4 39 44 39
t36 -41q-3 -38 -44 -38q-39 0 -36 40zM171 542q4 39 44 39t36 -41q-3 -38 -44 -38q-39 0 -36 40z" />
    <glyph glyph-name="divide" unicode="&#xf7;" horiz-adv-x="430" 
d="M61 312h358l-8 -44h-358zM165 153q9 49 55 49q49 0 40 -49q-9 -48 -57 -48q-47 0 -38 48zM213 427q9 49 55 49q49 0 40 -49q-10 -48 -57 -48q-48 0 -38 48z" />
    <glyph glyph-name="oslash" unicode="&#xf8;" horiz-adv-x="432" 
d="M333 379q-20 36 -58 36q-52 0 -90 -63q-32 -52 -47 -136q-14 -78 -3 -129zM147 53q20 -36 58 -36q52 0 90 63q32 53 47 136q13 74 3 127zM382 397q56 -70 35 -181q-17 -95 -73 -160q-61 -72 -143 -72q-48 0 -82 28l-37 -55l-24 17l41 59q-57 71 -36 183q17 95 72 160
q61 72 144 72q48 0 81 -28l38 55l25 -17z" />
    <glyph glyph-name="ugrave" unicode="&#xf9;" horiz-adv-x="457" 
d="M63 98q0 26 8 72q6 34 19 86l24 105q2 13 2 18q0 26 -15 26q-20 0 -37 -15l-1 20q30 31 67 31q51 0 51 -60q0 -11 -8 -48l-18 -77q-13 -52 -19 -83q-8 -44 -8 -66q0 -72 53 -72q34 0 76 45q22 25 38 57q19 37 26 81l37 214h65l-62 -353q-9 -50 12 -50q22 0 37 15l1 -20
q-30 -31 -67 -31q-66 0 -47 94q-55 -99 -143 -99q-91 0 -91 110zM192 557q-22 8 -22 30q0 30 30 30q17 0 42 -24l92 -87l-4 -7z" />
    <glyph glyph-name="uacute" unicode="&#xfa;" horiz-adv-x="457" 
d="M63 98q0 26 8 72q6 34 19 86l24 105q2 13 2 18q0 26 -15 26q-20 0 -37 -15l-1 20q30 31 67 31q51 0 51 -60q0 -11 -8 -48l-18 -77q-13 -52 -19 -83q-8 -44 -8 -66q0 -72 53 -72q34 0 76 45q22 25 38 57q19 37 26 81l37 214h65l-62 -353q-9 -50 12 -50q22 0 37 15l1 -20
q-30 -31 -67 -31q-66 0 -47 94q-55 -99 -143 -99q-91 0 -91 110zM226 506l92 87q26 24 42 24q30 0 30 -30q0 -22 -22 -30l-138 -58z" />
    <glyph glyph-name="ucircumflex" unicode="&#xfb;" horiz-adv-x="457" 
d="M63 98q0 26 8 72q6 34 19 86l24 105q2 13 2 18q0 26 -15 26q-20 0 -37 -15l-1 20q30 31 67 31q51 0 51 -60q0 -11 -8 -48l-18 -77q-13 -52 -19 -83q-8 -44 -8 -66q0 -72 53 -72q34 0 76 45q22 25 38 57q19 37 26 81l37 214h65l-62 -353q-9 -50 12 -50q22 0 37 15l1 -20
q-30 -31 -67 -31q-66 0 -47 94q-55 -99 -143 -99q-91 0 -91 110zM173 513l132 130l86 -130l-13 -11l-82 76l-110 -76z" />
    <glyph glyph-name="udieresis" unicode="&#xfc;" horiz-adv-x="457" 
d="M63 98q0 26 8 72q6 34 19 86l24 105q2 13 2 18q0 26 -15 26q-20 0 -37 -15l-1 20q30 31 67 31q51 0 51 -60q0 -11 -8 -48l-18 -77q-13 -52 -19 -83q-8 -44 -8 -66q0 -72 53 -72q34 0 76 45q22 25 38 57q19 37 26 81l37 214h65l-62 -353q-9 -50 12 -50q22 0 37 15l1 -20
q-30 -31 -67 -31q-66 0 -47 94q-55 -99 -143 -99q-91 0 -91 110zM330 542q4 39 44 39t36 -41q-3 -38 -44 -38q-40 0 -36 40zM164 542q4 39 44 39t36 -41q-3 -38 -44 -38q-40 0 -36 40z" />
    <glyph glyph-name="yacute" unicode="&#xfd;" horiz-adv-x="377" 
d="M-108 -174q-25 22 -18 47q8 31 38 26q9 -2 17 -10l16 -16q23 -23 58 -23q54 0 136 78q8 82 8 140q0 90 -9 159q-7 61 -21 102q-23 70 -54 70q-23 0 -38 -34l-13 16q11 59 73 59q60 0 92 -73q35 -80 35 -247q0 -59 -4 -108q47 72 75 150q31 83 31 149q0 31 -6 50l-5 16
l-6 10l-3 5q-1 0 -4 4t-5 7q-5 9 -5 21q0 28 29 28q48 0 48 -123q0 -81 -37 -176q-35 -90 -93 -170q-59 -82 -126 -130q-70 -51 -132 -51q-50 0 -77 24zM191 506l92 87q25 24 42 24q30 0 30 -30q0 -22 -22 -30l-138 -58z" />
    <glyph glyph-name="thorn" unicode="&#xfe;" horiz-adv-x="424" 
d="M269 79q30 49 45 138q15 88 -3 139q-19 54 -69 54q-43 0 -82 -27l-43 -249q-8 -46 14 -78q21 -30 57 -30q48 0 81 53zM-75 -173q44 0 62 24q19 26 34 111l85 481q16 87 8 113q-9 26 -52 26l3 18l138 24l-36 -205q42 25 85 25q75 0 114 -62q40 -64 23 -165
q-17 -104 -70 -166q-53 -63 -125 -63q-66 0 -93 59l-15 -85q-16 -90 -6 -114q9 -21 54 -21l-3 -18h-209z" />
    <glyph glyph-name="ydieresis" unicode="&#xff;" horiz-adv-x="377" 
d="M-108 -174q-25 22 -18 47q8 31 38 26q9 -2 17 -10l16 -16q23 -23 58 -23q54 0 136 78q8 82 8 140q0 90 -9 159q-7 61 -21 102q-23 70 -54 70q-23 0 -38 -34l-13 16q11 59 73 59q60 0 92 -73q35 -80 35 -247q0 -59 -4 -108q47 72 75 150q31 83 31 149q0 31 -6 50l-5 16
l-6 10l-3 5q-1 0 -4 4t-5 7q-5 9 -5 21q0 28 29 28q48 0 48 -123q0 -81 -37 -176q-35 -90 -93 -170q-59 -82 -126 -130q-70 -51 -132 -51q-50 0 -77 24zM290 542q3 39 44 39q39 0 36 -41q-4 -38 -44 -38t-36 40zM124 542q3 39 44 39q39 0 36 -41q-4 -38 -44 -38t-36 40z" />
    <glyph glyph-name="dotlessi" unicode="&#x131;" horiz-adv-x="221" 
d="M54 51q0 6 3 22q2 14 7 38l45 209q5 24 7 38q3 16 3 21q0 26 -15 26q-20 0 -37 -15l-1 20q30 31 67 31q51 0 51 -60q0 -6 -3 -22q-2 -14 -7 -38l-45 -209q-5 -24 -7 -38q-3 -16 -3 -21q0 -26 15 -26q20 0 37 15l1 -20q-30 -31 -67 -31q-51 0 -51 60z" />
    <glyph glyph-name="Lslash" unicode="&#x141;" horiz-adv-x="460" 
d="M2 18q50 0 66 17q16 16 27 76l27 156l-76 -51l-18 29l102 69l31 175q11 61 1 77t-60 16l3 18h223l-3 -18q-49 0 -66 -16q-16 -17 -27 -77l-21 -120l82 56l19 -29l-109 -74l-35 -196q-10 -60 0 -76t60 -16h78q53 0 75 13q21 12 33 47l12 35h18l-30 -129h-415z" />
    <glyph glyph-name="lslash" unicode="&#x142;" horiz-adv-x="207" 
d="M45 72l34 194l-63 -46l-18 29l90 66l23 128q16 88 8 113q-8 26 -52 26l3 18l138 24l-45 -254l70 51l19 -29l-98 -71l-43 -244q-9 -50 12 -50q20 0 37 15l1 -20q-30 -31 -67 -31q-63 0 -49 81z" />
    <glyph glyph-name="OE" unicode="&#x152;" horiz-adv-x="778" 
d="M303 0q-133 0 -193 93q-54 85 -31 217q23 129 106 207q89 83 224 83h391l-15 -129h-18v35q0 35 -15 47q-18 13 -71 13h-121l-41 -233h48q60 0 79 13q18 14 27 63h18l-33 -186h-18q9 50 -5 63q-13 13 -74 13h-48l-31 -173q-10 -60 0 -76q11 -16 60 -16h71q53 0 76 13
q20 12 32 47l12 35h18l-29 -129h-419zM395 34l75 426q13 73 4 91q-8 15 -54 15h-18q-56 0 -101 -24q-41 -21 -72 -60q-28 -35 -47 -83q-16 -41 -25 -89q-8 -48 -7 -92q2 -52 16 -90q17 -44 50 -67q37 -27 92 -27h87z" />
    <glyph glyph-name="oe" unicode="&#x153;" horiz-adv-x="648" 
d="M79 56q-37 68 -21 160q17 95 72 160q62 72 144 72q85 0 123 -93q70 89 149 89q46 0 72 -29q25 -29 18 -71q-8 -51 -66 -101q-67 -56 -168 -78q0 -60 19 -96q24 -42 75 -42q59 0 110 59l13 -21q-62 -77 -152 -77q-84 0 -120 81q-30 -39 -66 -61q-40 -24 -85 -24
q-77 0 -117 72zM527 260q44 43 50 83q12 66 -41 66q-41 0 -81 -66t-50 -148q71 17 122 65zM290 80q32 53 47 136q15 82 1 136q-16 63 -68 63t-89 -63q-32 -52 -48 -136q-15 -82 -1 -136q16 -63 68 -63t90 63z" />
    <glyph glyph-name="Scaron" unicode="&#x160;" horiz-adv-x="440" 
d="M210 803l13 11l82 -76l110 76l13 -11l-132 -130zM55 205h18q-7 -78 34 -129q42 -52 116 -52q45 0 79 33q37 35 37 89q0 42 -33 76q-24 25 -76 54q-55 31 -84 66q-39 48 -39 111q0 68 51 114q48 45 114 45q36 0 69 -14q27 -12 48 -31q24 12 36 40h16l-34 -188h-18
q6 64 -18 106q-30 51 -96 51q-47 0 -77 -30t-30 -75q0 -37 30 -70q24 -27 70 -53q29 -16 48 -30q26 -18 44 -37q43 -48 43 -110q0 -87 -61 -138q-52 -45 -121 -45q-46 0 -87 19q-35 15 -55 38q-30 -16 -43 -52h-17z" />
    <glyph glyph-name="scaron" unicode="&#x161;" horiz-adv-x="318" 
d="M122 631l13 11l82 -76l110 76l13 -11l-132 -130zM36 18q-30 26 -26 54q5 30 35 30q22 0 32 -38q6 -19 17 -28q15 -13 47 -13q63 0 74 58q9 46 -43 98l-45 44q-56 55 -47 110q9 46 43 77q40 35 99 35q47 0 71 -22q19 -19 19 -44q0 -32 -28 -32q-18 0 -29 34q-9 34 -46 34
q-56 0 -68 -57q-9 -45 37 -86l49 -42q59 -51 47 -116q-10 -60 -55 -94q-41 -32 -94 -32q-56 0 -89 30z" />
    <glyph glyph-name="Ydieresis" unicode="&#x178;" horiz-adv-x="500" 
d="M134 492q-17 52 -35 69q-20 18 -66 18l3 21h237l-3 -21q-87 0 -62 -76l70 -216l149 216q30 43 25 58q-6 18 -59 18l3 21h202l-3 -21q-51 0 -78 -21q-13 -9 -27 -27l-202 -289l-23 -131q-11 -60 0 -76q10 -17 59 -17l-3 -18h-223l3 18q50 0 66 17q16 16 27 76l23 131z
M382 714q4 39 44 39t36 -41q-3 -38 -44 -38q-40 0 -36 40zM216 714q4 39 44 39t36 -41q-3 -38 -44 -38q-40 0 -36 40z" />
    <glyph glyph-name="Zcaron" unicode="&#x17d;" horiz-adv-x="420" 
d="M-1 23l363 543h-132q-56 0 -80 -19q-18 -14 -35 -56l-8 -20h-19l31 129h339v-12l-371 -554h167q57 0 82 20q18 13 34 55l8 20h18l-30 -129h-367v23zM217 803l13 11l82 -76l110 76l13 -11l-132 -130z" />
    <glyph glyph-name="zcaron" unicode="&#x17e;" horiz-adv-x="350" 
d="M153 631l13 11l82 -76l110 76l13 -11l-132 -130zM216 -23q-8 6 -15 15l-26 36q-7 9 -14 15q-17 15 -38 15q-38 0 -63 -34l-13 -18q-3 -3 -4 -6q-9 -11 -18 -13q-12 -2 -20 7q-10 10 -6 29t38 67q30 41 78 97q98 115 156 165l-9 -2q-6 -1 -7 -2q-7 -1 -14 -1q-16 0 -50 14
q-33 14 -56 14q-48 0 -57 -35h-20q4 46 32 77q26 28 58 28q19 0 37 -10q12 -7 29 -22l25 -22q15 -10 28 -10q28 0 50 32q2 2 4 6q0 1 2 3l9 13q8 10 16 10q19 0 13 -22q-7 -32 -61 -86q-27 -27 -58 -63q-28 -32 -56 -69q-51 -67 -84 -120q22 8 32 8q29 0 51 -9q16 -7 35 -20
l28 -21q16 -9 34 -9q36 0 46 45h21q-7 -52 -27 -82q-24 -35 -65 -35q-23 0 -41 15z" />
    <glyph glyph-name="florin" unicode="&#x192;" horiz-adv-x="288" 
d="M-118 -151q2 41 43 41q25 0 34 -26q8 -23 27 -23q41 0 70 149l59 308h-80l7 35h81l14 80q16 96 70 154q50 55 109 55q70 0 68 -48q-2 -41 -43 -41q-14 0 -22 9q-4 3 -7 8l-4 9q-9 23 -29 23q-26 0 -39 -27q-13 -28 -29 -111l-21 -111h100l-7 -35h-100l-57 -298
q-19 -102 -70 -153q-45 -46 -106 -46q-70 0 -68 48z" />
    <glyph glyph-name="circumflex" unicode="&#x2c6;" horiz-adv-x="300" 
d="M104 513l132 130l86 -130l-13 -11l-82 76l-110 -76z" />
    <glyph glyph-name="caron" unicode="&#x2c7;" horiz-adv-x="300" 
d="M109 631l13 11l82 -76l110 76l13 -11l-132 -130z" />
    <glyph glyph-name="breve" unicode="&#x2d8;" horiz-adv-x="300" 
d="M131 592h16q17 -48 71 -48q56 0 71 48h16q0 -90 -87 -90t-87 90z" />
    <glyph glyph-name="dotaccent" unicode="&#x2d9;" horiz-adv-x="300" 
d="M182 542q3 39 44 39q39 0 36 -41q-4 -38 -44 -38t-36 40z" />
    <glyph glyph-name="ring" unicode="&#x2da;" horiz-adv-x="300" 
d="M156 527q-22 25 -18 59q9 81 91 81q34 0 56 -25q23 -25 19 -60q-9 -80 -91 -80q-35 0 -57 25zM269 582q6 52 -43 52q-48 0 -53 -48q-6 -51 43 -51q48 0 53 47z" />
    <glyph glyph-name="ogonek" unicode="&#x2db;" horiz-adv-x="300" 
d="M-13 -65q0 36 34 60q33 24 69 13l8 -1l-5 -13h-7q-52 0 -52 -42q0 -45 42 -45q30 0 41 23l7 15l8 -22q-8 -58 -75 -58q-70 0 -70 70z" />
    <glyph glyph-name="tilde" unicode="&#x2dc;" horiz-adv-x="300" 
d="M209 532q-34 26 -52 26q-32 0 -48 -48h-16q10 94 78 94q21 0 55 -26q35 -26 52 -26q32 0 48 48h16q-10 -94 -78 -94q-20 0 -55 26z" />
    <glyph glyph-name="hungarumlaut" unicode="&#x2dd;" horiz-adv-x="300" 
d="M187 508l93 87q26 24 45 24q28 0 28 -28q0 -22 -23 -31l-138 -59zM70 508l93 87q26 24 45 24q28 0 28 -28q0 -22 -23 -31l-138 -59z" />
    <glyph glyph-name="Delta" unicode="&#x394;" horiz-adv-x="529" 
d="M388 43l-77 442l-240 -442h317zM338 617h21l109 -617h-467z" />
    <glyph glyph-name="Omega" unicode="&#x3a9;" horiz-adv-x="527" 
d="M51 158h24l-1 -20q-2 -44 11 -59q15 -17 64 -17h17l19 109q-59 26 -88 84q-27 57 -16 123q16 91 86 156q75 69 173 69t148 -69q48 -65 32 -156q-26 -149 -178 -206l-19 -110h17q49 0 70 17q15 14 31 59l7 20h24l-34 -158h-164l36 204q58 16 94 73q29 44 40 104q6 32 5 62
q-2 33 -12 59q-26 62 -104 62t-127 -62q-19 -25 -33 -59q-11 -30 -17 -62q-11 -59 3 -104q16 -57 69 -73l-36 -204h-163z" />
    <glyph glyph-name="pi" unicode="&#x3c0;" horiz-adv-x="535" 
d="M51 29l12 27q2 -5 5 -10l8 -11q11 -14 19 -14q23 0 35 48l75 299h-57q-35 0 -49 -21q-12 -16 -9 -42l-21 -5q-16 55 12 94q28 38 82 38h318q35 0 49 21q11 17 8 43l22 5q16 -56 -13 -95q-28 -38 -82 -38h-59l-51 -290q-9 -49 13 -49q9 0 25 10q14 9 22 17l-1 -27
q-38 -41 -75 -41q-64 0 -50 81l53 299h-97l-75 -299q-21 -81 -71 -81q-31 0 -48 41z" />
    <glyph glyph-name="endash" unicode="&#x2013;" horiz-adv-x="377" 
d="M13 270h386l-7 -40h-386z" />
    <glyph glyph-name="emdash" unicode="&#x2014;" horiz-adv-x="609" 
d="M13 270h618l-7 -40h-618z" />
    <glyph glyph-name="quoteleft" unicode="&#x2018;" horiz-adv-x="203" 
d="M112 474q4 35 30 74q29 44 73 70l10 -11q-54 -51 -66 -102q1 1 4 1h3q47 0 41 -47q-5 -46 -51 -46q-51 0 -44 61z" />
    <glyph glyph-name="quoteright" unicode="&#x2019;" horiz-adv-x="203" 
d="M106 423q54 51 66 102q-1 -1 -4 -1h-3q-47 0 -41 47q6 46 51 46q51 0 44 -61q-4 -35 -30 -74q-29 -44 -73 -70z" />
    <glyph glyph-name="quotesinglbase" unicode="&#x201a;" horiz-adv-x="203" 
d="M14 -100q54 51 66 102q-1 -1 -4 -1h-3q-47 0 -41 47q6 46 51 46q51 0 44 -61q-4 -35 -30 -74q-29 -44 -73 -70z" />
    <glyph glyph-name="quotedblleft" unicode="&#x201c;" horiz-adv-x="355" 
d="M264 474q4 35 30 74q29 44 73 70l10 -11q-54 -51 -66 -102q1 1 4 1h3q47 0 41 -47q-5 -46 -51 -46q-51 0 -44 61zM112 474q4 35 30 74q29 44 73 70l10 -11q-54 -51 -66 -102q1 1 4 1h3q47 0 41 -47q-5 -46 -51 -46q-51 0 -44 61z" />
    <glyph glyph-name="quotedblright" unicode="&#x201d;" horiz-adv-x="355" 
d="M258 423q54 51 66 102q-1 -1 -4 -1h-3q-47 0 -41 47q6 46 51 46q51 0 44 -61q-4 -35 -30 -74q-29 -44 -73 -70zM106 423q54 51 66 102q-1 -1 -4 -1h-3q-47 0 -41 47q6 46 51 46q51 0 44 -61q-4 -35 -30 -74q-29 -44 -73 -70z" />
    <glyph glyph-name="quotedblbase" unicode="&#x201e;" horiz-adv-x="355" 
d="M166 -100q54 51 66 102q-1 -1 -4 -1h-3q-47 0 -41 47q6 46 51 46q51 0 44 -61q-4 -35 -30 -74q-29 -44 -73 -70zM14 -100q54 51 66 102q-1 -1 -4 -1h-3q-47 0 -41 47q6 46 51 46q51 0 44 -61q-4 -35 -30 -74q-29 -44 -73 -70z" />
    <glyph glyph-name="dagger" unicode="&#x2020;" horiz-adv-x="410" 
d="M176 218l68 217l-94 -29q-22 -7 -38 9q-15 16 -10 39q10 56 63 39l85 -28l-16 97q-7 55 50 55q23 0 35 -17q12 -18 3 -38l-49 -97l93 28q21 7 37 -8q15 -16 11 -39q-5 -22 -25 -35q-19 -12 -38 -5l-82 28l-11 -216l-107 -415h-14z" />
    <glyph glyph-name="daggerdbl" unicode="&#x2021;" horiz-adv-x="410" 
d="M112 -178q-12 17 -3 37l50 97l-95 -29q-21 -6 -36 10q-15 15 -11 38q3 23 23 35t40 5l84 -29l12 224l67 225l-95 -30q-21 -7 -36 10q-15 15 -11 39q3 23 23 35q20 11 40 4l85 -29l-16 98q-3 20 12 37q15 18 38 18t35 -18q13 -17 3 -37l-49 -98l93 29q21 7 37 -9
q15 -15 11 -38q-5 -22 -25 -35t-39 -6l-81 29l-14 -223l-65 -224l92 28q21 6 36 -9q16 -16 12 -39q-4 -22 -25 -35q-20 -12 -39 -5l-83 29l15 -97q3 -20 -12 -37q-16 -18 -38 -18q-23 0 -35 18z" />
    <glyph glyph-name="bullet" unicode="&#x2022;" horiz-adv-x="242" 
d="M85 235q-21 23 -17 54q9 77 86 77t68 -77q-9 -76 -85 -76q-32 0 -52 22z" />
    <glyph glyph-name="ellipsis" unicode="&#x2026;" horiz-adv-x="750" 
d="M55 44q6 52 57 52q53 0 47 -52q-5 -52 -57 -52t-47 52zM305 44q6 52 57 52q53 0 47 -52q-5 -52 -57 -52t-47 52zM555 44q6 52 57 52q53 0 47 -52q-5 -52 -57 -52t-47 52z" />
    <glyph glyph-name="perthousand" unicode="&#x2030;" horiz-adv-x="927" 
d="M74 0l492 618l33 -18l-492 -618zM113 372q-29 42 -18 101q11 60 54 102q44 42 97 42t81 -42t17 -102q-11 -59 -53 -101q-43 -42 -96 -42t-82 42zM253 394q19 29 28 79t1 80q-9 34 -41 34t-55 -34q-20 -30 -29 -80q-9 -49 0 -79q11 -34 43 -34t53 34zM645 26
q-29 42 -18 101q11 60 54 102q44 42 97 42t81 -42t17 -102q-11 -59 -53 -101q-43 -42 -96 -42t-82 42zM785 48q19 29 28 79t1 80q-10 34 -42 34t-55 -34q-19 -30 -28 -80q-9 -49 0 -79q11 -34 43 -34t53 34zM345 26q-29 42 -18 101q11 60 54 102q44 42 97 42t81 -42t17 -102
q-11 -59 -53 -101q-43 -42 -96 -42t-82 42zM485 48q19 29 28 79t1 80q-10 34 -42 34t-55 -34q-19 -30 -28 -80q-9 -49 0 -79q11 -34 43 -34t53 34z" />
    <glyph glyph-name="guilsinglleft" unicode="&#x2039;" horiz-adv-x="326" 
d="M57 251l262 198l11 -19l-187 -180l124 -179l-18 -19z" />
    <glyph glyph-name="guilsinglright" unicode="&#x203a;" horiz-adv-x="326" 
d="M25 71l186 179l-123 180l17 19l192 -198l-262 -199z" />
    <glyph glyph-name="fraction" unicode="&#x2044;" horiz-adv-x="220" 
d="M-75 -4l378 622l38 -14l-378 -622z" />
    <glyph glyph-name="Euro" unicode="&#x20ac;" horiz-adv-x="524" 
d="M136 57q-45 66 -45 171h-57l6 35h53q2 23 6 47l3 14q1 8 3 13h-52l7 35h54q34 107 103 173q70 67 150 67q82 0 119 -69q23 18 37 57h18l-35 -197h-18q-13 173 -118 173q-58 0 -107 -63q-43 -54 -69 -141h171l-7 -35h-173l-5 -27q-4 -22 -6 -47h171l-6 -35h-168
q-3 -87 19 -140q27 -63 87 -63q103 0 175 172h18l-35 -197h-18q0 40 -17 57q-61 -69 -138 -69q-79 0 -126 69z" />
    <glyph glyph-name="trademark" unicode="&#x2122;" horiz-adv-x="885" 
d="M92 243q43 0 59 18q16 19 27 83l39 224h-18q-54 0 -74 -14q-8 -6 -15 -17l-5 -11q-1 -3 -3 -6q-1 -1 -2 -4q0 -2 -1 -3l-8 -19h-17l25 106h304l-12 -106h-19l-1 19q-2 35 -11 43q-14 12 -69 12h-17l-39 -224q-11 -64 -2 -83q9 -18 53 -18l-3 -17h-194zM538 526l-32 -182
q-11 -66 -4 -83q7 -18 50 -18l-3 -17h-165l3 17q44 0 60 18q16 19 27 83l24 138q11 64 2 83q-9 18 -53 18l3 17h132l67 -282l168 282h119l-3 -17q-43 0 -58 -18q-16 -19 -27 -83l-24 -138q-11 -65 -2 -83q8 -18 51 -18l-3 -17h-188l3 17q42 0 56 18q14 17 25 83l29 169
l-172 -291h-12z" />
    <glyph glyph-name="partialdiff" unicode="&#x2202;" horiz-adv-x="443" 
d="M54 58q-39 66 -11 166q45 157 197 157q39 0 69 -18q24 -15 41 -41q8 115 -15 180q-25 74 -88 74q-25 0 -45 -11q-14 -8 -29 -24l-23 -24q-13 -11 -26 -11q-27 0 -24 29q4 29 47 53q45 26 104 26q63 0 105 -40q38 -36 56 -102q34 -125 -8 -277q-16 -59 -44 -102
q-25 -38 -59 -63q-28 -21 -62 -31q-27 -9 -55 -9q-91 0 -130 68zM283 74q47 62 61 195q-11 77 -102 77q-46 0 -81 -38q-29 -32 -44 -85q-23 -82 -10 -135q16 -64 80 -64q57 0 96 50z" />
    <glyph glyph-name="product" unicode="&#x220f;" horiz-adv-x="644" 
d="M-2 21q61 0 82 21q19 21 33 96l58 325q14 75 0 95q-13 21 -75 21l4 21h596l-4 -21q-62 0 -82 -21q-20 -20 -34 -95l-58 -325q-14 -74 0 -96q14 -21 76 -21l-4 -21h-266l4 21q62 0 82 21q19 20 33 96l74 418h-255l-74 -418q-13 -76 0 -96q14 -21 76 -21l-4 -21h-266z" />
    <glyph glyph-name="summation" unicode="&#x2211;" horiz-adv-x="540" 
d="M-22 -153l308 386l-176 350l3 17h452l-14 -132h-21l-2 20q-4 43 -19 56q-20 19 -84 19h-228l174 -344l-281 -352h238q64 0 92 19q20 14 37 56l8 20h21l-32 -132h-479z" />
    <glyph glyph-name="minus" unicode="&#x2212;" horiz-adv-x="430" 
d="M91 311h298l-8 -44h-298z" />
    <glyph glyph-name="radical" unicode="&#x221a;" horiz-adv-x="421" 
d="M38 268l60 26l47 -205l357 652h41l-419 -763h-15z" />
    <glyph glyph-name="infinity" unicode="&#x221e;" horiz-adv-x="685" 
d="M85 196q-33 37 -27 92q6 56 47 93q41 38 102 38q37 0 88 -34q41 -27 77 -67q43 39 91 67q58 34 96 34q61 0 94 -38q33 -37 27 -93q-6 -55 -47 -92q-42 -38 -102 -38q-38 0 -88 33q-43 28 -77 67q-44 -39 -92 -67q-58 -33 -95 -33q-61 0 -94 38zM259 233q18 11 39 27
l34 28q-35 37 -63 57q-39 28 -70 28q-82 0 -91 -85q-4 -35 17 -59q21 -26 56 -26q30 0 78 30zM630 288q9 85 -73 85q-31 0 -77 -28q-33 -21 -75 -57l29 -28q17 -16 33 -27q42 -30 72 -30q82 0 91 85z" />
    <glyph glyph-name="integral" unicode="&#x222b;" horiz-adv-x="233" 
d="M-140 -151q2 41 43 41q25 0 34 -26q8 -23 27 -23q41 0 70 149l87 453q18 96 71 154q49 55 108 55q70 0 68 -48q-2 -41 -43 -41q-14 0 -22 9q-4 3 -7 8l-4 9q-9 23 -29 23q-26 0 -39 -27q-13 -28 -29 -111l-91 -474q-19 -102 -70 -153q-45 -46 -106 -46q-70 0 -68 48z" />
    <glyph glyph-name="approxequal" unicode="&#x2248;" horiz-adv-x="420" 
d="M104 356q0 3 24 17q30 16 54 16q17 0 35 -5l62 -23q16 -5 30 -5q24 0 53 17q25 13 25 16l-8 -45q0 -3 -24 -16q-30 -17 -54 -17q-17 0 -35 5l-62 23q-16 5 -30 5q-24 0 -53 -16q-25 -14 -25 -17zM82 231q0 3 24 17q30 16 54 16q17 0 35 -5l62 -23q16 -5 30 -5q24 0 53 17
q25 13 25 16l-8 -45q0 -3 -24 -16q-30 -17 -54 -17q-17 0 -35 5l-62 23q-16 5 -30 5q-24 0 -53 -16q-25 -14 -25 -17z" />
    <glyph glyph-name="notequal" unicode="&#x2260;" horiz-adv-x="430" 
d="M63 118l76 87h-64l8 45h96l70 80h-152l8 45h184l95 108l25 -22l-76 -86h64l-8 -45h-96l-70 -80h152l-8 -45h-184l-95 -108z" />
    <glyph glyph-name="lessequal" unicode="&#x2264;" horiz-adv-x="400" 
d="M53 268l336 165l7 -35l-258 -132l211 -132l-18 -32zM-2 39h358l-7 -39h-358z" />
    <glyph glyph-name="greaterequal" unicode="&#x2265;" horiz-adv-x="400" 
d="M-2 39h358l-7 -39h-358zM39 138l257 132l-210 132l17 31l278 -165l-336 -166z" />
    <glyph glyph-name="lozenge" unicode="&#x25ca;" horiz-adv-x="466" 
d="M66 295l250 331l134 -331l-252 -341zM401 296l-99 251l-188 -251l98 -262z" />
    <glyph glyph-name="glyph13" horiz-adv-x="472" 
d="M39 136l92 78q-21 35 -16 79q4 44 36 82l-58 71l39 33l59 -72q38 22 79 22q45 0 80 -29l93 79l31 -36l-94 -80q20 -36 15 -78q-4 -44 -37 -82l60 -72l-39 -32l-60 72q-37 -21 -79 -21q-46 0 -79 28l-93 -79zM314 223q30 27 34 66t-20 67t-63 28t-69 -28t-34 -67t20 -66
q24 -28 63 -28t69 28z" />
    <glyph glyph-name="zero.oldstyle" horiz-adv-x="472" 
d="M318 76q39 55 55 140q16 84 -6 140q-23 59 -77 59t-96 -59q-39 -55 -55 -140q-15 -84 6 -140q23 -59 77 -59t96 59zM92 53q-45 69 -28 165q18 98 80 163q65 67 150 67q80 0 126 -69q46 -70 28 -165q-17 -98 -80 -163q-65 -67 -150 -67q-80 0 -126 69z" />
    <glyph glyph-name="one.oldstyle" horiz-adv-x="327" 
d="M33 18q51 0 69 23q16 20 29 94l26 150q12 71 -9 93q-17 17 -76 16l4 18l178 34l-55 -311q-14 -78 -4 -97q9 -20 61 -20l-3 -18h-223z" />
    <glyph glyph-name="two.oldstyle" horiz-adv-x="440" 
d="M301 -86q10 55 -9 70q-19 16 -99 16h-169v26l189 135q117 84 117 156q0 92 -92 92q-99 0 -99 -93q0 -28 16 -46l-28 -25q-55 21 -55 79q0 49 47 84q49 36 122 36q80 0 123 -37q39 -34 39 -92q0 -47 -30 -86q-24 -31 -71 -59l-175 -108h243l-51 -148h-18z" />
    <glyph glyph-name="three.oldstyle" horiz-adv-x="448" 
d="M42 -160q-40 32 -34 67q6 31 37 31q14 0 21 -20l7 -20q5 -11 10 -19q13 -18 30 -29q24 -15 56 -15q67 0 103 55q30 48 30 120q0 88 -85 107q-7 -5 -13 -13l-9 -12q-10 -13 -21 -13q-19 0 -19 18q0 11 32 36l67 51q86 65 86 139q0 86 -92 86q-104 0 -104 -106q0 -24 8 -45
l-28 -29q-47 32 -47 77q0 56 45 95q50 43 134 43q70 0 112 -30q45 -31 45 -85q0 -51 -27 -87q-23 -31 -79 -67l-52 -33q126 -28 126 -141q0 -82 -58 -140q-60 -59 -152 -59q-81 0 -129 38z" />
    <glyph glyph-name="four.oldstyle" horiz-adv-x="477" 
d="M217 37l48 273l-224 -273h176zM102 -173q53 0 69 19q17 20 29 98l10 56h-226v19l346 422h23l-71 -404h4q65 0 90 16q20 13 38 57l8 20h17l-34 -130h-130l-10 -56q-12 -80 -4 -98q9 -19 61 -19l-3 -18h-220z" />
    <glyph glyph-name="five.oldstyle" horiz-adv-x="434" 
d="M41 -160q-41 34 -35 68q6 30 37 30q13 0 21 -16l13 -35q10 -24 26 -36q20 -16 54 -16q67 0 105 74q32 62 32 147q0 53 -23 90q-24 40 -65 40q-85 0 -120 -103h-37l93 349h151q66 0 89 14q20 11 39 55h18l-45 -136h-232l-51 -191q50 49 111 49q69 0 110 -48
q39 -46 39 -119q0 -105 -62 -179q-62 -75 -153 -75q-69 0 -115 38z" />
    <glyph glyph-name="six.oldstyle" horiz-adv-x="443" 
d="M157 -3q-30 10 -52 31q-27 25 -41 63q-16 43 -16 102q0 152 70 277q36 66 85 102q53 40 116 40q59 0 97 -26q36 -24 31 -53t-32 -29q-13 0 -22 11q-4 4 -8 11l-4 6q-3 4 -4 7q-11 16 -23 24q-17 11 -42 11q-63 0 -109 -74q-40 -65 -65 -180q24 26 52 41q35 18 74 18
q151 0 151 -162q0 -99 -56 -164q-58 -65 -149 -65q-27 0 -53 9zM314 86q28 53 28 135q0 52 -20 85q-23 38 -70 38q-89 0 -124 -77q-23 -133 7 -195q25 -50 82 -50q64 0 97 64z" />
    <glyph glyph-name="seven.oldstyle" horiz-adv-x="386" 
d="M47 -150q3 17 20 48l26 43l270 424h-161q-64 0 -86 -14q-16 -10 -34 -50l-9 -20h-21l76 220h16q-8 -43 11 -56q20 -13 94 -13h174v-28l-186 -336q-81 -145 -99 -201q-21 -66 -53 -66q-46 0 -38 49z" />
    <glyph glyph-name="eight.oldstyle" horiz-adv-x="471" 
d="M391 486q5 37 -15 65q-21 31 -63 31q-40 0 -68 -31q-23 -26 -30 -60q-9 -50 12 -84q17 -28 59 -54q96 48 105 133zM321 57q34 34 42 81q11 58 -24 100q-15 18 -40 37q-18 13 -54 34q-51 -27 -82 -61q-34 -40 -44 -92q-10 -57 19 -95q31 -41 95 -41q51 0 88 37zM86 42
q-49 50 -37 119q12 64 61 106q21 18 50 34q24 13 56 26q-42 30 -61 65q-22 40 -14 88q11 61 62 97q49 35 115 35t107 -39q42 -40 32 -95q-8 -49 -48 -85q-33 -30 -95 -56q31 -17 52 -33q26 -19 42 -40q38 -50 26 -115q-12 -71 -73 -116q-59 -45 -134 -45q-90 0 -141 54z" />
    <glyph glyph-name="nine.oldstyle" horiz-adv-x="443" 
d="M45 -172q-36 24 -31 53t32 29q13 0 22 -11q4 -4 8 -11l4 -6q2 -4 4 -7q11 -16 23 -24q16 -11 42 -11q62 0 109 84q21 36 38 86q16 46 28 102q-25 -26 -52 -41q-35 -18 -74 -18q-151 0 -151 162q0 99 56 164q58 65 149 65q27 0 52 -9q31 -10 53 -31q26 -25 41 -63
q16 -43 16 -102q0 -154 -71 -286q-37 -69 -85 -108q-54 -43 -116 -43q-59 0 -97 26zM334 165q23 133 -8 195q-24 50 -81 50q-65 0 -98 -63q-27 -54 -27 -136q0 -52 20 -85q23 -38 70 -38q89 0 124 77z" />
    <glyph glyph-name="zero.oldstyle.tnum" 
d="M297 76q34 53 50 140q16 85 -1 140q-18 59 -69 59q-50 0 -87 -59q-35 -53 -51 -140q-15 -85 2 -140q18 -59 68 -59t88 59zM88 53q-41 69 -24 165q18 99 75 163q61 67 142 67q76 0 118 -69q41 -69 23 -165q-17 -99 -76 -163q-60 -67 -141 -67q-76 0 -117 69z" />
    <glyph glyph-name="one.oldstyle.tnum" 
d="M82 18q53 0 74 23q21 22 34 94l26 150q12 70 -14 93q-20 17 -81 16l4 18l188 34l-55 -311q-13 -75 1 -97q12 -20 66 -20l-3 -18h-243z" />
    <glyph glyph-name="two.oldstyle.tnum" 
d="M303 -86q10 55 -9 70q-19 16 -99 16h-169v26l189 135q117 84 117 156q0 92 -92 92q-99 0 -99 -93q0 -28 16 -46l-28 -25q-55 21 -55 79q0 49 47 84q49 36 122 36q80 0 123 -37q39 -34 39 -92q0 -47 -30 -86q-24 -31 -71 -59l-175 -108h243l-51 -148h-18z" />
    <glyph glyph-name="three.oldstyle.tnum" 
d="M41 -160q-40 32 -34 67q6 31 37 31q14 0 21 -20l7 -20q5 -11 10 -19q13 -18 30 -29q24 -15 56 -15q67 0 103 55q30 48 30 120q0 88 -85 107q-7 -5 -13 -13l-9 -12q-10 -13 -21 -13q-19 0 -19 18q0 11 32 36l67 51q86 65 86 139q0 86 -92 86q-104 0 -104 -106q0 -24 8 -45
l-28 -29q-47 32 -47 77q0 56 45 95q50 43 134 43q70 0 112 -30q45 -31 45 -85q0 -51 -27 -87q-23 -31 -79 -67l-52 -33q126 -28 126 -141q0 -82 -58 -140q-60 -59 -152 -59q-81 0 -129 38z" />
    <glyph glyph-name="four.oldstyle.tnum" 
d="M217 37l48 273l-224 -273h176zM102 -173q53 0 69 19q17 20 29 98l10 56h-226v19l346 422h23l-71 -404h4q47 0 68 16q18 14 35 57l8 20h17l-34 -130h-105l-10 -56q-12 -80 -4 -98q9 -19 61 -19l-3 -18h-220z" />
    <glyph glyph-name="five.oldstyle.tnum" 
d="M46 -160q-41 34 -35 68q6 30 37 30q13 0 21 -16l13 -35q10 -24 26 -36q20 -16 54 -16q67 0 105 74q32 62 32 147q0 53 -23 90q-24 40 -65 40q-85 0 -120 -103h-37l93 349h151q66 0 89 14q20 11 39 55h18l-45 -136h-232l-51 -191q50 49 111 49q69 0 110 -48
q39 -46 39 -119q0 -105 -62 -179q-62 -75 -153 -75q-69 0 -115 38z" />
    <glyph glyph-name="six.oldstyle.tnum" 
d="M158 -3q-30 10 -52 31q-27 25 -41 63q-16 43 -16 102q0 152 70 277q36 66 85 102q53 40 116 40q59 0 97 -26q36 -24 31 -53t-32 -29q-13 0 -22 11q-4 4 -8 11l-4 6q-3 4 -4 7q-11 16 -23 24q-17 11 -42 11q-63 0 -109 -74q-40 -65 -65 -180q24 26 52 41q35 18 74 18
q151 0 151 -162q0 -99 -56 -164q-58 -65 -149 -65q-27 0 -53 9zM315 86q28 53 28 135q0 52 -20 85q-23 38 -70 38q-89 0 -124 -77q-23 -133 7 -195q25 -50 82 -50q64 0 97 64z" />
    <glyph glyph-name="seven.oldstyle.tnum" 
d="M71 -150q3 17 19 48q14 25 36 57l276 410h-181q-64 0 -86 -14q-16 -10 -34 -50l-9 -20h-21l76 220h16q-8 -43 11 -56q20 -13 94 -13h194v-28l-201 -336q-43 -72 -67 -121q-18 -39 -32 -80q-21 -66 -53 -66q-46 0 -38 49z" />
    <glyph glyph-name="eight.oldstyle.tnum" 
d="M365 486q5 38 -10 65q-17 31 -55 31q-36 0 -60 -31q-18 -24 -25 -60q-16 -92 58 -138q82 41 92 133zM300 57q29 33 37 81q11 60 -18 100q-22 31 -87 71q-94 -49 -113 -153q-10 -56 16 -95q28 -41 85 -41q47 0 80 37zM83 42q-46 51 -34 119q12 65 55 106q34 34 99 60
q-38 35 -53 67q-17 38 -9 86q11 60 59 97q46 35 105 35t97 -39q39 -40 29 -95q-15 -93 -130 -141q61 -34 87 -73q32 -48 20 -115q-12 -70 -70 -116q-56 -45 -124 -45q-83 0 -131 54z" />
    <glyph glyph-name="nine.oldstyle.tnum" 
d="M46 -172q-36 24 -31 53t32 29q13 0 22 -11q4 -4 8 -11l4 -6q2 -4 4 -7q11 -16 23 -24q16 -11 42 -11q62 0 109 84q21 36 38 86q16 46 28 102q-25 -26 -52 -41q-35 -18 -74 -18q-151 0 -151 162q0 99 56 164q58 65 149 65q27 0 52 -9q31 -10 53 -31q26 -25 41 -63
q16 -43 16 -102q0 -154 -71 -286q-37 -69 -85 -108q-54 -43 -116 -43q-59 0 -97 26zM335 165q23 133 -8 195q-24 50 -81 50q-65 0 -98 -63q-27 -54 -27 -136q0 -52 20 -85q23 -38 70 -38q89 0 124 77z" />
    <glyph glyph-name="zero.tnum" 
d="M89 73q-33 84 -8 227t88 227q63 85 147 85q83 0 116 -85q33 -84 7 -227t-88 -227q-63 -85 -146 -85t-116 85zM307 108q17 36 31 88q13 46 23 104q10 59 14 104q4 52 0 88q-9 84 -65 84q-57 0 -97 -84q-17 -36 -31 -88q-12 -45 -23 -104q-11 -58 -14 -104q-5 -52 -1 -88
q10 -84 67 -84q56 0 96 84z" />
    <glyph glyph-name="one.tnum" 
d="M74 18q53 0 74 23q21 22 34 94l56 318q12 69 -14 92q-20 18 -81 17l4 18l188 34l-85 -479q-13 -75 1 -97q12 -20 66 -20l-3 -18h-243z" />
    <glyph glyph-name="two.tnum" 
d="M18 24l188 199q40 42 64 70q29 34 46 62q37 60 37 120q0 45 -21 72q-24 30 -71 30q-45 0 -73 -32q-27 -31 -27 -77q0 -26 12 -49l-26 -29q-52 33 -52 84q0 56 42 95q47 43 128 43q87 0 130 -46q34 -37 34 -92q0 -66 -52 -133q-21 -26 -55 -60q-11 -12 -31 -31l-4 -4
q-1 0 -1 -1l-1 -1q-2 -1 -2 -2l-186 -183h152q64 0 89 16q22 13 42 60h18l-48 -135h-332v24z" />
    <glyph glyph-name="three.tnum" 
d="M72 26q-40 32 -34 67q6 31 37 31q14 0 21 -20l7 -20q5 -11 10 -19q13 -18 30 -29q24 -15 56 -15q68 0 102 51q30 44 30 115q0 79 -85 98q-7 -5 -13 -13l-9 -12q-10 -13 -21 -13q-19 0 -19 18q0 11 32 36l67 51q86 65 86 139q0 86 -92 86q-104 0 -104 -106q0 -24 8 -45
l-28 -29q-47 32 -47 77q0 56 45 95q50 43 134 43q70 0 112 -30q45 -31 45 -85q0 -51 -27 -87q-23 -31 -79 -67l-52 -33q126 -28 126 -132q0 -81 -57 -135q-59 -55 -152 -55q-81 0 -129 38z" />
    <glyph glyph-name="four.tnum" 
d="M247 205l48 273l-224 -273h176zM137 18q53 0 69 20q17 19 29 97l5 33h-226v19l346 422h23l-71 -404h4q48 0 68 16q17 12 35 57l8 20h17l-34 -130h-105l-5 -33q-12 -79 -4 -97q9 -20 61 -20l-3 -18h-220z" />
    <glyph glyph-name="five.tnum" 
d="M77 26q-41 34 -35 68q6 30 37 30q13 0 21 -16l13 -35q10 -24 26 -36q20 -16 54 -16q68 0 105 68q32 58 32 142q0 52 -23 87q-25 36 -66 36q-85 0 -120 -103h-37l93 349h274l-22 -67h-232l-51 -191q50 49 111 49q70 0 111 -45q39 -43 39 -115q0 -103 -62 -173t-153 -70
q-69 0 -115 38z" />
    <glyph glyph-name="six.tnum" 
d="M158 -3q-30 10 -52 31q-27 25 -41 63q-16 43 -16 102q0 152 70 277q36 66 85 102q53 40 116 40q59 0 97 -26q36 -24 31 -53t-32 -29q-13 0 -22 11q-4 4 -8 11l-4 6q-3 4 -4 7q-11 16 -23 24q-17 11 -42 11q-63 0 -109 -74q-40 -65 -65 -180q24 26 52 41q35 18 74 18
q151 0 151 -162q0 -99 -56 -164q-58 -65 -149 -65q-27 0 -53 9zM315 86q28 53 28 135q0 52 -20 85q-23 38 -70 38q-89 0 -124 -77q-23 -133 7 -195q25 -50 82 -50q64 0 97 64z" />
    <glyph glyph-name="seven.tnum" 
d="M99 36q3 18 19 48q15 27 36 57l276 392h-180q-63 0 -90 -19q-18 -13 -35 -55l-8 -20h-21l54 161h340v-28l-201 -318q-42 -67 -67 -119q-17 -38 -32 -82q-21 -66 -53 -66q-46 0 -38 49z" />
    <glyph glyph-name="eight.tnum" 
d="M365 486q5 38 -10 65q-17 31 -55 31q-36 0 -60 -31q-18 -24 -25 -60q-16 -92 58 -138q82 41 92 133zM300 57q29 33 37 81q11 60 -18 100q-22 31 -87 71q-94 -49 -113 -153q-10 -56 16 -95q28 -41 85 -41q47 0 80 37zM83 42q-46 51 -34 119q12 65 55 106q34 34 99 60
q-38 35 -53 67q-17 38 -9 86q11 60 59 97q46 35 105 35t97 -39q39 -40 29 -95q-15 -93 -130 -141q61 -34 87 -73q32 -48 20 -115q-12 -70 -70 -116q-56 -45 -124 -45q-83 0 -131 54z" />
    <glyph glyph-name="nine.tnum" 
d="M77 14q-36 24 -31 53t32 29q13 0 22 -11q4 -4 8 -11l4 -6q2 -4 4 -7q11 -16 23 -24q16 -11 42 -11q63 0 109 75q40 64 65 179q-25 -26 -52 -41q-35 -18 -74 -18q-151 0 -151 162q0 99 56 164q58 65 149 65q27 0 52 -9q31 -10 53 -31q26 -25 41 -63q16 -43 16 -102
q0 -152 -70 -277q-37 -66 -85 -102q-54 -40 -116 -40q-59 0 -97 26zM365 333q23 133 -8 195q-24 50 -81 50q-65 0 -98 -63q-27 -54 -27 -136q0 -52 20 -85q23 -38 70 -38q89 0 124 77z" />
    <glyph glyph-name="questiondown.aalt" horiz-adv-x="385" 
d="M318 563q-5 -50 -55 -50t-45 50t55 50t45 -50zM285 435q26 -21 26 -58t-40 -73q-16 -14 -40 -30q-18 -12 -45 -27q-103 -58 -103 -133q0 -86 92 -86q104 0 104 106q0 24 -8 45l28 24q47 -30 47 -72q0 -56 -44 -94q-50 -44 -135 -44q-69 0 -112 30q-45 31 -45 85
q0 55 33 94q34 40 118 83l35 18q20 11 32 20q33 23 38 50q8 49 -49 49q-29 0 -67 -22v26q16 11 34 17q24 9 48 9q32 0 53 -17z" />
    <glyph glyph-name="exclamdown.aalt" horiz-adv-x="250" 
d="M151 563q5 50 55 50t45 -50t-55 -50t-45 50zM64 37q3 19 12 49l20 70q7 24 13 49l16 62q18 77 38 173h34q-14 -96 -23 -173l-14 -181q-3 -30 -6 -49q-9 -49 -50 -49q-49 0 -40 49z" />
    <glyph glyph-name="at.aalt" horiz-adv-x="686" 
d="M443 237l50 177q-3 5 -8 9q-6 4 -13 8q-16 8 -39 8q-41 0 -79 -45q-34 -42 -53 -106q-18 -63 -8 -102q10 -42 51 -42q74 0 99 93zM131 48q-85 88 -72 218q15 145 130 248t259 103q120 0 191 -72q73 -74 60 -191q-10 -95 -79 -172q-67 -74 -133 -74q-55 0 -60 51
q-45 -55 -105 -55q-61 0 -83 55q-21 51 1 129q22 76 81 129q59 54 121 54q34 0 62 -17h53l-71 -250q-16 -60 29 -60q41 0 91 62q53 67 61 146q11 105 -52 169q-60 60 -156 60q-127 0 -226 -93q-97 -91 -111 -219q-13 -124 55 -200q67 -75 184 -75q109 0 219 64l9 -18
q-120 -80 -239 -80q-135 0 -219 88z" />
    <glyph glyph-name="K.salt" horiz-adv-x="548" 
d="M339 63l-7 62q-2 13 -3 32l-2 32q-3 36 -8 56q-13 55 -58 55q-37 0 -68 -37l-27 -152q-11 -60 0 -76q10 -17 59 -17l-3 -18h-223l3 18q50 0 66 17q16 16 27 76l66 378q11 61 1 77t-60 16l3 18h223l-3 -18q-49 0 -66 -16q-16 -17 -27 -77l-29 -169l69 95q70 97 131 142
q56 41 108 41q35 0 55 -19q15 -16 15 -35q0 -42 -38 -42q-14 0 -21 8l-5 8l-6 18l-5 8q-7 8 -21 8q-43 0 -105 -59q-22 -22 -47 -52l-92 -115q22 10 42 10q67 0 94 -62q11 -25 19 -65l25 -145q7 -41 30 -41q5 0 13 2l13 6q13 7 21 14l1 -23q-37 -35 -77 -35q-75 0 -83 76z
" />
    <glyph glyph-name="N.salt" horiz-adv-x="585" 
d="M-22 4q-16 17 -12 36q7 27 32 26q13 -1 20 -8l5 -8l3 -8q7 -21 23 -21q22 0 37 40q13 32 24 97l58 331q11 60 1 77q-11 16 -60 16l3 18h115l212 -464l53 305q17 97 48 137q26 34 73 34q28 0 43 -19q14 -17 10 -37q-2 -11 -10 -19q-10 -9 -25 -7q-18 3 -23 24
q-4 21 -15 21q-22 0 -39 -42q-13 -33 -23 -90l-79 -452h-23l-224 488l-56 -319q-17 -99 -46 -139q-26 -36 -73 -36q-33 0 -52 19z" />
    <glyph glyph-name="Ntilde.salt" horiz-adv-x="585" 
d="M-22 4q-16 17 -12 36q7 27 32 26q13 -1 20 -8l5 -8l3 -8q7 -21 23 -21q22 0 37 40q13 32 24 97l58 331q11 60 1 77q-11 16 -60 16l3 18h115l212 -464l53 305q17 97 48 137q26 34 73 34q28 0 43 -19q14 -17 10 -37q-2 -11 -10 -19q-10 -9 -25 -7q-18 3 -23 24
q-4 21 -15 21q-22 0 -39 -42q-13 -33 -23 -90l-79 -452h-23l-224 488l-56 -319q-17 -99 -46 -139q-26 -36 -73 -36q-33 0 -52 19zM384 704q-34 26 -52 26q-32 0 -48 -48h-16q11 94 78 94q21 0 55 -26q35 -26 52 -26q32 0 48 48h16q-10 -94 -78 -94q-20 0 -55 26z" />
    <glyph glyph-name="glyph281" horiz-adv-x="450" 
d="M385 600q76 0 104 22q14 10 25 29q5 8 11 20l11 24h18l-42 -129h-177l-80 -455q-11 -60 0 -76q10 -17 59 -17l-3 -18h-223l3 18q50 0 66 17q16 16 27 76l80 455h-43q-76 0 -105 -22q-13 -10 -25 -29l-11 -20l-11 -24h-18l43 129h291z" />
    <glyph glyph-name="Y.salt" horiz-adv-x="480" 
d="M80 18q50 0 66 17q16 16 27 76l14 81q17 95 17 151q0 230 -81 230q-22 0 -38 -19q-12 -15 -21 -41l-18 20q21 77 95 77q67 0 97 -58q33 -64 31 -209q27 62 46 101q26 51 51 85q59 80 129 80q35 0 55 -19q15 -16 15 -35q0 -42 -38 -42q-14 0 -21 8l-5 8l-6 18l-5 8
q-7 8 -21 8q-49 0 -120 -127q-70 -125 -91 -244l-14 -81q-11 -60 0 -76q10 -17 59 -17l-3 -18h-223z" />
    <glyph glyph-name="Yacute.salt" horiz-adv-x="480" 
d="M80 18q50 0 66 17q16 16 27 76l14 81q17 95 17 151q0 230 -81 230q-22 0 -38 -19q-12 -15 -21 -41l-18 20q21 77 95 77q67 0 97 -58q33 -64 31 -209q27 62 46 101q26 51 51 85q59 80 129 80q35 0 55 -19q15 -16 15 -35q0 -42 -38 -42q-14 0 -21 8l-5 8l-6 18l-5 8
q-7 8 -21 8q-49 0 -120 -127q-70 -125 -91 -244l-14 -81q-11 -60 0 -76q10 -17 59 -17l-3 -18h-223zM278 678l92 87q26 24 42 24q30 0 30 -30q0 -22 -22 -30l-138 -58z" />
    <glyph glyph-name="Ydieresis.salt" horiz-adv-x="480" 
d="M80 18q50 0 66 17q16 16 27 76l14 81q17 95 17 151q0 230 -81 230q-22 0 -38 -19q-12 -15 -21 -41l-18 20q21 77 95 77q67 0 97 -58q33 -64 31 -209q27 62 46 101q26 51 51 85q59 80 129 80q35 0 55 -19q15 -16 15 -35q0 -42 -38 -42q-14 0 -21 8l-5 8l-6 18l-5 8
q-7 8 -21 8q-49 0 -120 -127q-70 -125 -91 -244l-14 -81q-11 -60 0 -76q10 -17 59 -17l-3 -18h-223zM372 714q4 39 44 39t36 -41q-3 -38 -44 -38q-40 0 -36 40zM206 714q4 39 44 39t36 -41q-3 -38 -44 -38q-40 0 -36 40z" />
    <glyph glyph-name="Z.salt" horiz-adv-x="440" 
d="M341 -140q-14 16 -28 41q-9 17 -22 47l-22 48q-12 26 -22 42q-28 42 -63 46t-60 -9q-19 -10 -34 -32l-6 -10q-2 -3 -5 -9l-2 -2l-9 -15q-11 -18 -23 -20q-44 -10 -37 39q5 28 50 92q41 58 107 135q140 162 240 245q-40 -18 -70 -18q-24 0 -45 10l-18 10q-3 2 -8 5l-24 17
l-17 10q-21 10 -44 10q-46 0 -78 -51l-17 5q15 46 46 77q35 34 74 34q28 0 54 -13q17 -9 41 -29l19 -16q10 -9 19 -14q21 -13 41 -13q40 0 64 41q2 3 4 8q2 3 4 7l4 8q2 3 3 6q8 14 16 15q30 6 23 -29q-3 -18 -20 -42q-21 -29 -62 -67q-40 -38 -83 -87q-39 -44 -78 -95
q-35 -46 -68 -94q-30 -43 -55 -84q29 12 56 12q61 0 101 -35q16 -14 30 -36q10 -15 23 -40l15 -31l5 -10q12 -23 23 -36q28 -35 70 -35q56 0 116 60l14 -11q-37 -60 -71 -90q-43 -37 -92 -37q-46 0 -79 40z" />
    <glyph glyph-name="Zcaron.salt" horiz-adv-x="440" 
d="M260 803l13 11l82 -76l110 76l13 -11l-132 -130zM341 -140q-14 16 -28 41q-9 17 -22 47l-22 48q-12 26 -22 42q-28 42 -63 46t-60 -9q-19 -10 -34 -32l-6 -10q-2 -3 -5 -9l-2 -2l-9 -15q-11 -18 -23 -20q-44 -10 -37 39q5 28 50 92q41 58 107 135q140 162 240 245
q-40 -18 -70 -18q-24 0 -45 10l-18 10q-3 2 -8 5l-24 17l-17 10q-21 10 -44 10q-46 0 -78 -51l-17 5q15 46 46 77q35 34 74 34q28 0 54 -13q17 -9 41 -29l19 -16q10 -9 19 -14q21 -13 41 -13q40 0 64 41q2 3 4 8q2 3 4 7l4 8q2 3 3 6q8 14 16 15q30 6 23 -29q-3 -18 -20 -42
q-21 -29 -62 -67q-40 -38 -83 -87q-39 -44 -78 -95q-35 -46 -68 -94q-30 -43 -55 -84q29 12 56 12q61 0 101 -35q16 -14 30 -36q10 -15 23 -40l15 -31l5 -10q12 -23 23 -36q28 -35 70 -35q56 0 116 60l14 -11q-37 -60 -71 -90q-43 -37 -92 -37q-46 0 -79 40z" />
    <glyph glyph-name="glyph287" horiz-adv-x="413" 
d="M-81 -173q44 0 62 24q19 26 34 111l98 554h65l-17 -97q42 25 85 25q75 0 114 -62q40 -64 23 -165q-17 -104 -70 -166q-53 -63 -125 -63q-66 0 -93 59l-15 -85q-16 -90 -6 -114q9 -21 54 -21l-3 -18h-209zM263 79q30 49 45 138q15 88 -3 139q-19 54 -69 54q-43 0 -82 -27
l-43 -249q-8 -46 14 -78q21 -30 57 -30q48 0 81 53z" />
    <glyph glyph-name="yen.aalt" horiz-adv-x="480" 
d="M80 18q50 0 66 17q16 16 27 76l8 49h-107l6 33h107q3 15 5 32l5 32h-106l6 33h104q3 32 3 53q0 230 -81 230q-22 0 -38 -19q-12 -15 -21 -41l-18 20q21 77 95 77q67 0 97 -58q33 -64 31 -209q27 62 46 101q26 51 51 85q59 80 129 80q35 0 55 -19q15 -16 15 -35
q0 -42 -38 -42q-14 0 -21 8l-5 8l-6 18l-5 8q-7 8 -21 8q-39 0 -95 -86q-54 -82 -90 -187h98l-6 -33h-103l-9 -33q-4 -18 -6 -31h107l-6 -33h-107l-8 -49q-11 -60 0 -76q10 -17 59 -17l-3 -18h-223z" />
    <glyph glyph-name="z.salt" horiz-adv-x="335" 
d="M59 24l-17 -24q-9 -11 -17 -13q-12 -2 -20 7q-10 10 -6 29t38 67q30 41 78 97q98 115 156 165l-9 -2q-6 -1 -7 -2q-7 -1 -14 -1q-16 0 -50 14q-33 14 -56 14q-48 0 -57 -35h-20q4 46 32 77q26 28 58 28q19 0 37 -10q12 -7 29 -22l25 -22q15 -10 28 -10q28 0 50 32
q2 2 4 6q0 1 2 3l9 13q8 10 16 10q19 0 13 -22q-7 -32 -61 -86q-53 -53 -115 -134q-54 -70 -85 -122q21 7 34 7q31 0 55 -23q15 -14 38 -50q12 -19 18 -27q10 -14 19 -23q23 -23 53 -23q40 0 71 34l14 -14q-45 -95 -118 -95q-35 0 -60 30q-17 20 -36 66q-2 3 -4 8l-11 27
q-9 19 -16 30q-20 30 -46 30q-29 0 -52 -34z" />
    <glyph glyph-name="glyph290" horiz-adv-x="340" 
d="M-1 17l269 384h-54q-67 0 -94 -15q-20 -11 -34 -47l-9 -23h-18l28 116h262v-16l-267 -383h68q66 0 91 14q19 11 35 47l10 23h18l-29 -117h-276v17z" />
    <glyph glyph-name="zcaron.salt" horiz-adv-x="335" 
d="M153 631l13 11l82 -76l110 76l13 -11l-132 -130zM59 24l-17 -24q-9 -11 -17 -13q-12 -2 -20 7q-10 10 -6 29t38 67q30 41 78 97q98 115 156 165l-9 -2q-6 -1 -7 -2q-7 -1 -14 -1q-16 0 -50 14q-33 14 -56 14q-48 0 -57 -35h-20q4 46 32 77q26 28 58 28q19 0 37 -10
q12 -7 29 -22l25 -22q15 -10 28 -10q28 0 50 32q2 2 4 6q0 1 2 3l9 13q8 10 16 10q19 0 13 -22q-7 -32 -61 -86q-53 -53 -115 -134q-54 -70 -85 -122q21 7 34 7q31 0 55 -23q15 -14 38 -50q12 -19 18 -27q10 -14 19 -23q23 -23 53 -23q40 0 71 34l14 -14q-45 -95 -118 -95
q-35 0 -60 30q-17 20 -36 66q-2 3 -4 8l-11 27q-9 19 -16 30q-20 30 -46 30q-29 0 -52 -34z" />
    <glyph glyph-name="glyph292" horiz-adv-x="340" 
d="M-1 17l269 384h-54q-67 0 -94 -15q-20 -11 -34 -47l-9 -23h-18l28 116h262v-16l-267 -383h68q66 0 91 14q19 11 35 47l10 23h18l-29 -117h-276v17zM151 631l13 11l82 -76l110 76l13 -11l-132 -130z" />
    <glyph glyph-name="uniFB01.aalt" horiz-adv-x="438" 
d="M120 432q17 100 81 149q53 41 124 41q98 0 98 -47q0 -40 -42 -40q-13 0 -21 7q-4 3 -7 8q-3 3 -6 8l-3 5q-1 2 -3 4q-3 5 -8 8q-11 8 -32 8q-41 0 -66 -25q-31 -32 -46 -110l-3 -16h162q51 0 51 -60q0 -6 -3 -21q-2 -15 -7 -38l-43 -203q-5 -23 -7 -37q-3 -15 -3 -20
q0 -26 15 -26q20 0 37 15l1 -20q-30 -31 -67 -31q-51 0 -51 60q0 6 3 22q2 14 7 37l43 204q5 23 7 36q3 16 3 21q0 26 -15 26h-140l-72 -409q-17 -95 -64 -144q-42 -43 -99 -43q-65 0 -65 45q0 38 40 38q23 0 32 -24q7 -22 26 -22q24 0 36 25q11 26 27 115l74 419h-60l5 35
h61z" />
    </font>
</defs>
</svg>
