<?xml version="1.0" standalone="no"?>
<!DOCTYPE svg PUBLIC "-//W3C//DTD SVG 1.1//EN" "http://www.w3.org/Graphics/SVG/1.1/DTD/svg11.dtd" >
<svg>
<metadata>
Created by FontForge 20110222 at Sat Oct 11 20:58:05 2014
 By Orthosie Webhosting
Copyright (c) Emigre Inc, 2009. Designed by Zuzana Licko. All rights reserved.
</metadata>
<defs>
<font id="MrsEavesXLSerifNarOTReg" horiz-adv-x="480" >
  <font-face 
    font-family="MrsEavesXLSerifNarOTReg"
    font-weight="400"
    font-stretch="semi-condensed"
    units-per-em="1000"
    panose-1="2 0 6 6 6 0 0 2 0 4"
    ascent="800"
    descent="-200"
    x-height="432"
    cap-height="600"
    bbox="-139 -254 884 839"
    underline-thickness="31"
    underline-position="-77"
    unicode-range="U+0020-FB02"
  />
<missing-glyph horiz-adv-x="500" 
 />
    <glyph glyph-name="uniFB01" unicode="fi" horiz-adv-x="580" 
d="M30 20q50 0 63 21q13 20 13 96v260h-85v35h85q0 95 46 146q40 44 100 44q67 0 67 -51q0 -43 -44 -43q-21 0 -35 32q-12 27 -25 27q-36 0 -36 -133v-22h105v-35h-105v-260q0 -76 13 -96q13 -21 63 -21v-20h-225v20zM335 20q50 0 63 21q13 20 13 96v148q0 76 -12 96
q-13 21 -64 21v20l149 23v-308q0 -76 13 -96q13 -21 63 -21v-20h-225v20zM398 561q0 44 44 44t44 -44t-44 -44t-44 44z" />
    <glyph glyph-name="uniFB02" unicode="fl" horiz-adv-x="559" 
d="M106 432q0 88 50 140q48 50 131 50q21 0 42 -6l32 -12l101 20v-487q0 -75 12 -96q13 -21 59 -21v-20h-215v20q46 0 58 21q13 21 13 96v325q0 70 -32 101q-26 26 -71 26q-107 0 -107 -145v-12h105v-35h-105v-260q0 -76 13 -96q13 -21 63 -21v-20h-225v20q50 0 63 21
q13 20 13 96v260h-85v35h85z" />
    <glyph glyph-name=".notdef" horiz-adv-x="500" 
 />
    <glyph glyph-name=".null" horiz-adv-x="0" 
 />
    <glyph glyph-name="nonmarkingreturn" horiz-adv-x="333" 
 />
    <glyph glyph-name="space" unicode=" " horiz-adv-x="192" 
 />
    <glyph glyph-name="exclam" unicode="!" horiz-adv-x="267" 
d="M116 160q-3 96 -8 174q-2 33 -5 63q-2 25 -5 50l-8 72q-4 31 -4 49q0 49 47 49t47 -49q0 -18 -4 -49l-8 -72q-3 -25 -5 -50q-3 -30 -5 -63q-5 -78 -8 -174h-34zM83 42q0 50 50 50t50 -50t-50 -50t-50 50z" />
    <glyph glyph-name="quotedbl" unicode="&#x22;" horiz-adv-x="368" 
d="M97 398q-3 36 -9 68q-5 24 -12 47l-11 33q-5 14 -5 22q0 49 46 49t46 -49q0 -8 -5 -22l-8 -23q-2 -5 -3 -10q-8 -23 -13 -47q-6 -32 -9 -68h-17zM254 398q-3 36 -9 68q-5 24 -13 47q-1 5 -3 10l-8 23q-5 14 -5 22q0 49 46 49t46 -49q0 -8 -5 -22l-7 -23q-2 -5 -3 -10
q-8 -23 -13 -47q-6 -32 -9 -68h-17z" />
    <glyph glyph-name="numbersign" unicode="#" horiz-adv-x="393" 
d="M94 232h-79l10 52h77l22 126h-77l9 53h77l23 137h40l-23 -137h86l23 137h40l-23 -137h79l-10 -53h-78l-22 -126h78l-9 -52h-78l-22 -138h-40l23 138h-87l-22 -138h-40zM228 284l22 126h-86l-22 -126h86z" />
    <glyph glyph-name="dollar" unicode="$" horiz-adv-x="460" 
d="M210 281l-46 23q-108 53 -108 159q0 63 43 107q45 46 111 47v66h36v-69q23 -4 45 -15q15 -8 36 -24q20 16 29 42h18v-193h-21q-5 56 -30 94q-28 43 -77 54v-218l70 -35q109 -57 109 -156q0 -80 -51 -130q-50 -49 -128 -50v-71h-36v73q-36 5 -70 22q-12 5 -25 13l-19 12
q-23 -19 -30 -44h-18v213h21l3 -24q3 -13 7 -25q4 -16 11 -30q16 -35 42 -59q32 -28 78 -36v254zM246 24q117 2 117 104q0 78 -117 135v-239zM210 576q-38 0 -65 -25q-27 -26 -27 -63q0 -64 92 -115v203z" />
    <glyph glyph-name="percent" unicode="%" horiz-adv-x="627" 
d="M104 0l383 618l36 -18l-383 -618zM78 372q-36 42 -36 101q0 60 36 102t89 42t89 -42q35 -42 35 -102q0 -59 -35 -101q-36 -42 -89 -42t-89 42zM214 394q14 29 14 79t-14 80q-15 34 -47 34t-49 -34q-14 -30 -14 -80q0 -49 14 -79q17 -34 49 -34t47 34zM371 26
q-36 42 -36 101q0 60 36 102t89 42t89 -42q35 -42 35 -102q0 -59 -35 -101q-36 -42 -89 -42t-89 42zM507 48q14 29 14 79t-14 80q-15 34 -47 34t-49 -34q-14 -30 -14 -80q0 -49 14 -79q17 -34 49 -34t47 34z" />
    <glyph glyph-name="ampersand" unicode="&#x26;" horiz-adv-x="632" 
d="M277 381q24 17 41 34q38 39 38 87q0 76 -79 76q-45 0 -71 -30q-22 -25 -22 -59q0 -62 45 -138q29 16 48 30zM125 150q0 -51 36 -88q37 -40 95 -40q65 0 108 41q-40 40 -88 98q-53 65 -92 123q-59 -57 -59 -134zM405 124q12 28 17 66q7 55 -9 72q-17 18 -79 18v21h226v-21
q-60 0 -80 -19q-16 -15 -24 -71q-6 -49 -27 -93q71 -74 122 -74q38 0 65 35l17 -17q-37 -58 -101 -58q-79 0 -142 56q-53 -56 -142 -56q-83 0 -139 43q-63 47 -63 132q0 51 35 93q27 31 83 65q-54 89 -54 157q0 61 49 103q49 41 118 41q59 0 101 -32q44 -33 44 -83
q0 -53 -58 -100q-20 -16 -57 -39l-31 -19q-19 -11 -31 -19q32 -48 82 -109l41 -50z" />
    <glyph glyph-name="quotesingle" unicode="'" horiz-adv-x="214" 
d="M98 398q-3 36 -9 68q-5 24 -12 47l-11 33q-5 14 -5 22q0 49 46 49t46 -49q0 -8 -5 -22l-8 -23q-2 -5 -3 -10q-8 -23 -13 -47q-6 -32 -9 -68h-17z" />
    <glyph glyph-name="parenleft" unicode="(" horiz-adv-x="312" 
d="M277 -111q-99 81 -150 178q-55 105 -55 228t55 228q51 97 149 178l19 -21q-26 -29 -48 -60q-30 -41 -51 -84q-27 -54 -41 -109q-17 -65 -17 -132t17 -132q14 -55 41 -108q21 -44 51 -85q22 -31 48 -60z" />
    <glyph glyph-name="parenright" unicode=")" horiz-adv-x="312" 
d="M17 -90q26 29 48 60q30 41 52 85q27 53 41 108q17 65 17 132t-17 132q-14 55 -41 109q-22 43 -52 84q-22 31 -48 60l20 21q98 -81 149 -178q54 -104 54 -228t-54 -228q-51 -97 -150 -178z" />
    <glyph glyph-name="asterisk" unicode="*" horiz-adv-x="365" 
d="M155 311q0 8 5 18q1 3 5 10l6 12q7 15 11 30q6 21 8 45q-21 -14 -36 -29q-12 -12 -21 -26l-12 -21q-6 -9 -12 -13q-39 -25 -62 17q-21 38 17 60q6 3 17 4q3 1 11 1h6q4 0 7 1q17 1 33 5q21 5 43 16q-23 11 -44 17q-16 4 -33 5l-24 1q-11 1 -16 4q-39 24 -17 60
q25 41 62 17q6 -4 12 -13l12 -21q9 -14 21 -26q15 -15 36 -29q-2 24 -8 45q-4 15 -11 31l-6 11q-4 7 -5 10q-5 10 -5 18q0 46 43 46q46 0 46 -46q0 -8 -5 -18l-12 -22q-8 -15 -12 -30q-7 -21 -8 -46q21 14 36 29q11 12 21 26l13 20q6 9 12 13q38 24 61 -15q22 -37 -16 -61
q-6 -4 -18 -5h-24q-17 -1 -33 -5q-21 -5 -43 -16q22 -11 43 -16q16 -3 34 -4h13q7 0 11 -1q11 0 17 -4q38 -25 16 -62q-23 -39 -61 -15q-6 4 -12 13l-13 20q-10 14 -21 26q-16 15 -37 29q2 -25 8 -46q5 -15 13 -30l12 -22q5 -10 5 -18q0 -46 -46 -46q-43 0 -43 46z" />
    <glyph glyph-name="plus" unicode="+" horiz-adv-x="430" 
d="M193 267h-157v44h157v157h44v-157h157v-44h-157v-157h-44v157z" />
    <glyph glyph-name="comma" unicode="," horiz-adv-x="267" 
d="M82 -106q49 53 57 106q-1 -1 -4 -1h-4q-47 0 -47 49q0 48 48 48q53 0 53 -63q0 -37 -23 -77q-26 -46 -69 -73z" />
    <glyph glyph-name="hyphen" unicode="-" horiz-adv-x="370" 
d="M69 272h232v-44h-232v44z" />
    <glyph glyph-name="period" unicode="." horiz-adv-x="267" 
d="M83 44q0 52 52 52t52 -52t-52 -52t-52 52z" />
    <glyph glyph-name="slash" unicode="/" horiz-adv-x="300" 
d="M-4 -4l268 622l40 -14l-268 -622z" />
    <glyph glyph-name="zero" unicode="0" horiz-adv-x="516" 
d="M404 73q-60 -87 -146 -87t-146 87q-63 91 -63 229t63 228q60 87 146 87t146 -87q63 -90 63 -228t-63 -229zM162 494q-28 -72 -28 -192t28 -192q32 -84 96 -84t96 84q28 72 28 192q0 119 -28 192q-32 83 -96 83t-96 -83z" />
    <glyph glyph-name="one" unicode="1" horiz-adv-x="347" 
d="M212 138q0 -74 18 -96q16 -21 71 -21v-21h-256v21q55 0 72 21q17 22 17 96v316q0 71 -25 92q-20 18 -79 17v20l182 34v-479z" />
    <glyph glyph-name="two" unicode="2" horiz-adv-x="467" 
d="M46 24l158 199q111 140 111 227q0 56 -26 91q-28 38 -79 38q-94 0 -94 -92q0 -29 22 -63l-23 -26q-74 34 -74 98q0 50 42 84q47 37 128 37q85 0 137 -51q48 -47 48 -115q0 -54 -37 -114q-16 -26 -42 -58l-52 -61l-136 -153h156q64 0 86 16q19 13 32 60h21l-25 -141h-353
v24z" />
    <glyph glyph-name="three" unicode="3" horiz-adv-x="478" 
d="M230 276l-7 -8q-4 -4 -6 -7q-16 -17 -28 -17q-21 0 -21 22q0 15 26 36l74 58q64 50 64 123q0 96 -107 96q-97 0 -97 -93q0 -26 16 -57l-25 -26q-66 31 -66 88q0 52 43 87q48 39 129 39q77 0 130 -36q56 -38 56 -98q0 -27 -14 -55q-10 -21 -29 -41q-14 -15 -30 -27
l-60 -45q151 -31 151 -160q0 -70 -55 -119q-56 -50 -139 -50q-82 0 -137 38q-48 32 -48 67q0 31 31 31q13 0 25 -20l17 -30q3 -5 7 -9q15 -18 34 -28q27 -13 63 -13q59 0 89 40q27 34 27 93q0 48 -22 83q-26 41 -77 52q-6 -5 -14 -14z" />
    <glyph glyph-name="four" unicode="4" horiz-adv-x="500" 
d="M322 205h4q66 0 86 14q16 12 28 60l5 20h20l-11 -131h-132v-30q0 -74 17 -96q16 -21 72 -21v-21h-252v21q56 0 72 21q17 22 17 96v30h-231v19l286 431h19v-413zM248 472l-177 -267h177v267z" />
    <glyph glyph-name="five" unicode="5" horiz-adv-x="465" 
d="M111 344q37 47 112 47q85 0 139 -58q54 -57 54 -144q0 -85 -59 -144t-143 -59q-69 0 -119 38q-44 33 -44 68q0 30 31 30q13 0 23 -15l20 -34q14 -22 31 -34q23 -15 58 -15q59 0 90 47q29 44 29 118q0 160 -119 160q-43 0 -72 -22q-32 -25 -40 -76h-37l31 349h295l-12 -73
h-253z" />
    <glyph glyph-name="six" unicode="6" horiz-adv-x="485" 
d="M101 507q61 110 169 110q59 0 103 -26q41 -24 41 -53t-27 -29q-13 0 -25 11q-4 4 -10 12l-10 13q-14 17 -28 25q-19 11 -44 11q-76 0 -109 -77q-15 -33 -22 -82q-6 -41 -9 -100q44 58 127 58q81 0 132 -53q52 -54 52 -143q0 -88 -58 -144q-55 -54 -136 -54q-33 0 -63 11
q-37 14 -64 43q-33 34 -51 86q-20 61 -20 143q0 142 52 238zM140 147q10 -45 28 -75q31 -50 79 -50q56 0 86 48q27 44 27 115q0 66 -24 108q-28 49 -84 49q-40 0 -77 -22t-46 -53q0 -69 11 -120z" />
    <glyph glyph-name="seven" unicode="7" horiz-adv-x="404" 
d="M146 -15q-41 0 -41 44q0 40 35 110l195 388h-171q-64 0 -85 -18q-15 -12 -27 -58l-5 -20h-21l29 169h333v-28l-130 -319q-30 -73 -44 -120q-14 -44 -19 -82q-9 -66 -49 -66z" />
    <glyph glyph-name="eight" unicode="8" horiz-adv-x="501" 
d="M343 491q0 34 -21 60q-25 30 -69 30t-70 -30q-22 -26 -22 -60q0 -45 30 -79q23 -26 72 -53q80 44 80 132zM345 62q32 35 32 79q0 54 -48 98q-20 17 -50 35q-12 8 -28 17l-21 12q-4 3 -7 4q-97 -55 -97 -158q0 -50 31 -86q35 -41 93 -41t95 40zM108 33q-59 47 -59 116
q0 70 44 115q18 19 45 35q21 13 53 26q-51 31 -76 63q-32 40 -32 87q0 61 51 102q49 40 119 40q69 0 117 -39t48 -95q0 -48 -37 -85q-28 -28 -87 -55q38 -19 58 -31q31 -19 51 -38q49 -48 49 -117q0 -74 -59 -123q-58 -48 -143 -48q-84 0 -142 47z" />
    <glyph glyph-name="nine" unicode="9" horiz-adv-x="485" 
d="M384 96q-61 -110 -169 -110q-59 0 -103 26q-41 24 -41 53t27 29q13 0 25 -11q4 -4 10 -12l10 -13q14 -17 28 -25q19 -11 44 -11q76 0 109 77q15 33 22 82q6 41 9 100q-44 -58 -127 -58q-81 0 -132 53q-52 54 -52 143q0 88 58 144q55 54 136 54q33 0 63 -11q37 -14 65 -43
q32 -34 50 -86q20 -61 20 -143q0 -142 -52 -238zM345 456q-10 45 -28 75q-31 50 -79 50q-56 0 -86 -48q-27 -44 -27 -115q0 -66 24 -108q28 -49 84 -49q40 0 77 22t46 53q0 69 -11 120z" />
    <glyph glyph-name="colon" unicode=":" horiz-adv-x="267" 
d="M85 42q0 50 50 50t50 -50t-50 -50t-50 50zM85 380q0 50 50 50t50 -50t-50 -50t-50 50z" />
    <glyph glyph-name="semicolon" unicode=";" horiz-adv-x="267" 
d="M85 380q0 50 50 50t50 -50t-50 -50t-50 50zM86 -102q46 50 54 102q-1 -1 -4 -1h-3q-46 0 -46 47q0 46 47 46q50 0 50 -61q0 -35 -21 -74q-25 -44 -67 -70z" />
    <glyph glyph-name="less" unicode="&#x3c;" horiz-adv-x="435" 
d="M51 290l314 217l22 -32l-256 -185l256 -185l-22 -33z" />
    <glyph glyph-name="equal" unicode="=" horiz-adv-x="436" 
d="M72 375h292v-44h-292v44zM72 249h292v-44h-292v44z" />
    <glyph glyph-name="greater" unicode="&#x3e;" horiz-adv-x="435" 
d="M48 105l256 185l-256 185l22 32l314 -217l-314 -218z" />
    <glyph glyph-name="question" unicode="?" horiz-adv-x="448" 
d="M234 334q85 62 85 138q0 104 -107 104q-99 0 -99 -87q0 -30 17 -56l-28 -29q-63 30 -63 92q0 47 45 82q49 39 128 39q85 0 137 -40t52 -104q0 -47 -34 -91q-31 -40 -84 -73l-54 -34v-115h-44v138zM157 42q0 50 50 50t50 -50t-50 -50t-50 50z" />
    <glyph glyph-name="at" unicode="@" horiz-adv-x="686" 
d="M415 149l31 177q-4 5 -9 9l-13 8q-18 8 -40 8q-42 0 -74 -45q-31 -43 -42 -106q-11 -64 2 -102q15 -42 56 -42q74 0 89 93zM122 -40q-94 88 -94 218q0 145 104 248q103 103 248 103q120 0 198 -72q81 -74 81 -191q0 -95 -61 -172q-59 -74 -125 -74q-56 0 -66 51
q-40 -55 -99 -55q-61 0 -89 55q-26 51 -12 129q14 76 66 129q53 54 116 54q34 0 64 -17h53l-44 -250q-11 -60 35 -60q41 0 84 62q46 67 46 146q0 105 -70 169q-66 60 -162 60q-128 0 -216 -93q-88 -92 -88 -219q0 -124 76 -200q74 -75 192 -75q108 0 212 64l11 -18
q-112 -80 -231 -80q-135 0 -229 88z" />
    <glyph glyph-name="A" unicode="A" horiz-adv-x="545" 
d="M106 97q-17 -43 -3 -59q15 -17 76 -17v-21h-225v21q53 0 74 17q18 14 40 70l194 500h23l195 -500q22 -57 39 -71q20 -16 73 -16v-21h-268v21q61 0 76 17q13 16 -3 59l-42 110h-207zM253 480l-90 -237h178z" />
    <glyph glyph-name="B" unicode="B" horiz-adv-x="534" 
d="M294 35q62 0 94 40q29 35 29 93q0 59 -29 94q-32 40 -94 40h-96v-151q0 -77 14 -95q15 -21 76 -21h6zM262 337q54 0 83 33q27 31 27 80q0 50 -24 81q-28 34 -81 34h-69v-228h64zM29 21q61 0 76 21q14 19 14 96v325q0 77 -14 96q-15 20 -76 20v21h233q92 0 144 -44
q49 -41 49 -106q0 -78 -78 -124q123 -38 123 -158q0 -73 -53 -119q-57 -49 -157 -49h-261v21z" />
    <glyph glyph-name="C" unicode="C" horiz-adv-x="602" 
d="M132 76q-75 91 -75 224t75 224q78 93 195 93q109 0 170 -73q21 16 27 47h18v-208h-20q-41 191 -186 191q-99 0 -149 -90q-21 -38 -31 -89q-9 -45 -9 -95t9 -95q10 -51 31 -88q50 -91 149 -91q144 0 186 191h20v-208h-18q-7 33 -27 47q-61 -73 -170 -73q-117 0 -195 93z
" />
    <glyph glyph-name="D" unicode="D" horiz-adv-x="634" 
d="M29 21q61 0 76 21q14 19 14 96v325q0 77 -14 96q-15 20 -76 20v21h264q139 0 215 -88q70 -81 70 -212t-70 -212q-76 -88 -215 -88h-264v21zM294 37q55 0 96 25q36 22 59 63q21 36 30 85q9 42 9 90t-9 90q-9 49 -30 85q-23 41 -59 63q-41 25 -96 25h-96v-410q0 -76 15 -95
q15 -21 74 -21h7z" />
    <glyph glyph-name="E" unicode="E" horiz-adv-x="517" 
d="M29 21q61 0 76 21q14 19 14 96v325q0 77 -14 96q-15 20 -76 20v21h413l9 -131h-19l-5 20q-11 42 -28 56q-23 18 -85 18h-116v-227h40q76 0 93 13q18 14 18 76h21v-215h-21q0 62 -18 76q-17 13 -93 13h-40v-148q0 -76 14 -94q15 -20 76 -20h59q62 0 85 19q17 14 28 57
l5 20h19l-8 -133h-447v21z" />
    <glyph glyph-name="F" unicode="F" horiz-adv-x="483" 
d="M29 21q61 0 76 21q14 19 14 96v325q0 77 -14 96q-15 20 -76 20v21h429l8 -131h-19l-5 20q-11 43 -27 56q-22 18 -83 18h-134v-227h36q76 0 93 14q18 14 18 77h21v-219h-21q0 63 -18 77q-17 14 -93 14h-36v-161q0 -77 14 -96q15 -21 76 -21v-21h-259v21z" />
    <glyph glyph-name="G" unicode="G" horiz-adv-x="630" 
d="M135 76q-78 92 -78 224q0 133 75 224q78 93 195 93q109 0 164 -73q21 15 27 47h18v-208h-20q-40 191 -180 191q-99 0 -149 -90q-21 -38 -31 -89q-9 -45 -9 -95q0 -51 8 -95q10 -51 31 -89q23 -43 58 -65q40 -26 94 -26q141 0 141 137q0 65 -79 65v21h217v-21
q-44 0 -57 -20q-13 -22 -13 -96v-76q-32 0 -61 -8q-18 -5 -47 -18q-30 -13 -47 -18q-28 -8 -60 -8q-118 0 -197 93z" />
    <glyph glyph-name="H" unicode="H" horiz-adv-x="688" 
d="M29 21q61 0 76 21q14 19 14 96v325q0 77 -14 96q-15 20 -76 20v21h259v-21q-61 0 -76 -20q-14 -19 -14 -96v-126h291v126q0 76 -14 96q-16 20 -77 20v21h261v-21q-62 0 -77 -20q-14 -19 -14 -96v-325q0 -77 14 -96q15 -21 77 -21v-21h-261v21q61 0 77 21q14 19 14 96v162
h-291v-162q0 -77 14 -96q15 -21 76 -21v-21h-259v21z" />
    <glyph glyph-name="I" unicode="I" horiz-adv-x="317" 
d="M29 21q61 0 76 21q14 19 14 96v325q0 77 -14 96q-15 20 -76 20v21h259v-21q-61 0 -76 -20q-14 -19 -14 -96v-325q0 -77 14 -96q15 -21 76 -21v-21h-259v21z" />
    <glyph glyph-name="J" unicode="J" horiz-adv-x="313" 
d="M-38 -149q0 44 45 44q14 0 23 -8q4 -3 8 -8l13 -20q3 -5 7 -8q9 -8 22 -8q26 0 32 46q4 23 4 67q1 20 1 48v459q0 77 -14 96q-15 20 -76 20v21h259v-21q-61 0 -76 -20q-14 -19 -14 -96v-409q0 -132 -53 -198q-45 -55 -115 -55q-66 0 -66 50z" />
    <glyph glyph-name="K" unicode="K" horiz-adv-x="642" 
d="M517 79q26 -30 67 -45q31 -13 57 -13v-21h-272v21q93 0 43 58l-190 221l-24 -23v-139q0 -77 14 -96q15 -21 76 -21v-21h-259v21q61 0 76 21q14 19 14 96v325q0 77 -14 96q-15 20 -76 20v21h259v-21q-61 0 -76 -20q-14 -19 -14 -96v-140l183 175q85 81 -1 81v21h220v-21
q-55 0 -89 -18q-28 -14 -79 -63l-155 -147z" />
    <glyph glyph-name="L" unicode="L" horiz-adv-x="500" 
d="M29 21q61 0 76 21q14 19 14 96v325q0 77 -14 96q-15 20 -76 20v21h259v-21q-61 0 -76 -20q-14 -19 -14 -96v-310q0 -77 14 -95q15 -21 76 -21h67q61 0 83 19q16 14 27 57l5 20h18l-8 -133h-451v21z" />
    <glyph glyph-name="M" unicode="M" horiz-adv-x="784" 
d="M160 494v-356q0 -77 14 -96q16 -21 77 -21v-21h-222v21q61 0 76 21q14 19 14 96v325q0 77 -14 96q-15 20 -76 20v21h173l194 -483l195 483h165v-21q-62 0 -77 -20q-14 -19 -14 -96v-325q0 -77 14 -96q15 -21 77 -21v-21h-259v21q61 0 76 21q14 19 14 96v356l-203 -502
h-21z" />
    <glyph glyph-name="N" unicode="N" horiz-adv-x="646" 
d="M160 467v-329q0 -77 14 -96q16 -21 77 -21v-21h-222v21q61 0 76 21q14 19 14 96v325q0 77 -14 96q-15 20 -76 20v21h131l334 -452v315q0 77 -14 96q-15 20 -76 20v21h222v-21q-61 0 -77 -20q-14 -20 -14 -96v-475h-21z" />
    <glyph glyph-name="O" unicode="O" horiz-adv-x="636" 
d="M119 76q-79 92 -79 224t79 224q80 93 199 93q118 0 198 -93q80 -92 80 -224t-80 -224q-80 -93 -198 -93q-119 0 -199 93zM464 116q21 38 32 89q10 46 10 95t-10 95q-11 51 -32 90q-51 91 -146 91q-97 0 -147 -91q-21 -39 -32 -90q-9 -45 -9 -95t10 -95q10 -51 31 -89
q50 -92 147 -92q95 0 146 92z" />
    <glyph glyph-name="P" unicode="P" horiz-adv-x="492" 
d="M29 21q61 0 76 21q14 19 14 96v325q0 77 -14 96q-15 20 -76 20v21h236q100 0 156 -50q52 -46 52 -119t-52 -119q-56 -50 -156 -50h-67v-124q0 -77 14 -96q15 -21 76 -21v-21h-259v21zM264 298q62 0 96 39q30 36 30 94t-30 94q-34 39 -96 39h-66v-266h66z" />
    <glyph glyph-name="Q" unicode="Q" horiz-adv-x="636" 
d="M247 -72q59 13 109 0q36 -10 78 -38l25 -18l9 -5q19 -14 34 -22q39 -22 78 -22q97 0 140 97l16 -7q-9 -30 -22 -55q-15 -32 -35 -54q-49 -57 -120 -57q-38 0 -79 25q-16 10 -35 25q-13 10 -33 29q-3 2 -8 7t-8 7q-9 9 -16 14q-18 16 -31 25q-35 25 -64 25t-49 -10
q-14 -7 -25 -22l-16 -22q-8 -11 -18 -13q-30 -5 -30 28q0 27 38 62q40 38 97 58q-107 15 -175 107q-67 89 -67 208q0 132 79 224q80 93 199 93q118 0 198 -93q80 -92 80 -224q0 -119 -68 -209q-67 -89 -170 -105q-63 -9 -111 -58zM464 116q21 38 32 89q10 46 10 95t-10 95
q-11 51 -32 90q-51 91 -146 91q-97 0 -147 -91q-21 -39 -32 -90q-9 -45 -9 -95t10 -95q10 -51 31 -89q50 -92 147 -92q95 0 146 92z" />
    <glyph glyph-name="R" unicode="R" horiz-adv-x="566" 
d="M266 298q62 0 97 39q31 36 31 94q0 57 -31 94q-35 39 -97 39h-68v-266h68zM29 21q61 0 76 21q14 19 14 96v325q0 77 -14 96q-15 20 -76 20v21h238q100 0 157 -50q53 -46 53 -119q0 -149 -178 -168l98 -115q48 -56 91 -87q47 -35 90 -40v-21h-154l-198 263h-28v-125
q0 -77 14 -96q15 -21 76 -21v-21h-259v21z" />
    <glyph glyph-name="S" unicode="S" horiz-adv-x="460" 
d="M48 201h20q2 -26 10 -52q11 -33 29 -58q22 -31 53 -47q36 -20 84 -20q117 0 117 104q0 40 -30 72q-27 27 -82 56l-86 43q-107 53 -107 164q0 64 44 108q45 46 113 46q36 0 66 -13q20 -8 48 -29q20 16 29 42h18v-193h-20q-6 66 -39 106q-39 46 -105 46q-90 0 -90 -88
q0 -65 116 -125l85 -43q53 -28 80 -72q24 -40 24 -85q0 -81 -52 -131q-51 -49 -129 -49q-49 0 -93 19q-16 6 -32 16l-23 14q-23 -19 -30 -44h-18v213z" />
    <glyph glyph-name="T" unicode="T" horiz-adv-x="508" 
d="M123 21q61 0 77 21q14 19 14 96v425h-83q-62 0 -85 -17q-18 -14 -29 -56l-5 -20h-18l9 130h501l9 -130h-18l-5 20q-11 42 -28 56q-24 17 -86 17h-83v-425q0 -77 14 -96q16 -21 77 -21v-21h-261v21z" />
    <glyph glyph-name="U" unicode="U" horiz-adv-x="642" 
d="M168 44q-64 65 -64 179v240q0 77 -14 96q-15 20 -76 20v21h259v-21q-61 0 -76 -20q-14 -19 -14 -96v-245q0 -92 46 -143q42 -47 110 -47q70 0 112 47q44 51 44 143v245q0 76 -14 96q-16 20 -77 20v21h226v-21q-61 0 -77 -20q-14 -20 -14 -96v-240q0 -114 -61 -179
q-58 -61 -154 -61t-156 61z" />
    <glyph glyph-name="V" unicode="V" horiz-adv-x="545" 
d="M439 503q16 43 3 59q-15 17 -76 17v21h225v-21q-53 0 -74 -16q-18 -15 -40 -71l-194 -500h-23l-195 500q-22 57 -39 71q-20 16 -73 16v21h268v-21q-61 0 -75 -17q-14 -16 2 -59l145 -379z" />
    <glyph glyph-name="W" unicode="W" horiz-adv-x="792" 
d="M252 -8h-23l-164 500q-18 54 -37 70q-21 17 -75 17v21h266v-21q-55 0 -69 -16q-13 -15 1 -60l112 -353l144 450h23l144 -450l112 353q14 45 4 59q-12 17 -67 17v21h217v-21q-55 0 -77 -17q-19 -16 -37 -70l-163 -500h-23l-145 446z" />
    <glyph glyph-name="X" unicode="X" horiz-adv-x="600" 
d="M462 108q51 -87 139 -87v-21h-273v21q56 0 65 19q7 16 -17 57l-94 162l-106 -162q-24 -37 -18 -54q9 -22 66 -22v-21h-226v21q49 0 85 26q27 19 55 61l123 187l-115 197q-27 47 -53 65q-31 22 -81 22v21h272v-21q-59 0 -68 -20q-9 -16 15 -56l83 -144l94 144q27 41 20 57
q-9 19 -68 19v21h226v-21q-57 0 -87 -22q-13 -10 -26 -28q-6 -7 -13 -17l-124 -189z" />
    <glyph glyph-name="Y" unicode="Y" horiz-adv-x="554" 
d="M148 21q61 0 76 21q14 19 14 96v104l-143 250q-30 53 -53 69q-26 18 -78 18v21h270v-21q-97 0 -54 -76l122 -216l124 216q24 43 15 59q-10 17 -69 17v21h223v-21q-58 0 -84 -20q-12 -10 -24 -27l-170 -290v-104q0 -77 14 -96q15 -21 76 -21v-21h-259v21z" />
    <glyph glyph-name="Z" unicode="Z" horiz-adv-x="484" 
d="M29 23l299 540h-146q-64 0 -88 -18q-17 -14 -28 -56l-5 -20h-21l9 131h383v-12l-305 -551h185q64 0 88 19q17 14 28 57l5 20h21l-8 -133h-417v23z" />
    <glyph glyph-name="bracketleft" unicode="[" horiz-adv-x="306" 
d="M106 678h162v-32h-101v-702h101v-32h-162v766z" />
    <glyph glyph-name="backslash" unicode="\" horiz-adv-x="300" 
d="M-5 604l40 14l268 -622l-40 -14z" />
    <glyph glyph-name="bracketright" unicode="]" horiz-adv-x="306" 
d="M38 -56h102v702h-102v32h163v-766h-163v32z" />
    <glyph glyph-name="asciicircum" unicode="^" horiz-adv-x="457" 
d="M28 338l201 279l200 -279l-18 -15l-182 182l-184 -182z" />
    <glyph glyph-name="underscore" unicode="_" horiz-adv-x="336" 
d="M-12 0h360v-44h-360v44z" />
    <glyph glyph-name="grave" unicode="`" horiz-adv-x="300" 
d="M90 557q-22 8 -22 30q0 30 30 30q17 0 42 -24l92 -87l-4 -7z" />
    <glyph glyph-name="a" unicode="a" horiz-adv-x="451" 
d="M41 96q0 70 70 114q61 39 178 58v29q0 113 -77 113q-26 0 -49 -15q-26 -18 -26 -44q0 -37 -35 -37q-36 0 -36 37q0 36 46 65q45 28 101 28q149 0 149 -147v-224q0 -45 26 -45q15 0 32 17l15 -19q-29 -33 -77 -33q-57 0 -67 67q-77 -69 -136 -69q-114 0 -114 105zM225 47
q27 12 64 45v146q-171 -35 -171 -133q0 -68 65 -68q21 0 42 10z" />
    <glyph glyph-name="b" unicode="b" horiz-adv-x="506" 
d="M78 463q0 76 -12 96q-13 21 -64 21v20l149 24v-260q44 80 135 80q83 0 133 -63q49 -62 49 -165t-49 -165q-50 -63 -133 -63q-93 0 -145 88l-43 -88h-20v475zM360 85q26 49 26 131t-26 132q-30 56 -89 56q-84 0 -120 -102v-172q36 -102 120 -102q59 0 89 57z" />
    <glyph glyph-name="c" unicode="c" horiz-adv-x="408" 
d="M83 52q-45 58 -45 155q0 104 62 173q57 64 136 64q68 0 102 -28q28 -23 28 -57q0 -16 -10 -28q-13 -17 -36 -17q-40 0 -40 42q0 56 -44 56q-54 0 -86 -60q-30 -56 -30 -145q0 -79 30 -125q33 -51 98 -51q60 0 113 59l20 -25q-64 -77 -157 -77q-91 0 -141 64z" />
    <glyph glyph-name="d" unicode="d" horiz-adv-x="525" 
d="M355 130v172q-36 102 -120 102q-59 0 -89 -56q-26 -50 -26 -132t26 -131q30 -57 89 -57q84 0 120 102zM87 51q-49 62 -49 165t49 165q50 63 133 63q91 0 135 -80v99q0 76 -12 96q-13 21 -64 21v20l149 24v-473q0 -77 12 -96q12 -21 63 -21v-20l-128 -23q-12 23 -20 76
q-48 -79 -135 -79q-83 0 -133 63z" />
    <glyph glyph-name="e" unicode="e" horiz-adv-x="443" 
d="M317 285q1 6 1 12q1 8 1 15q0 92 -83 92q-86 0 -113 -119h194zM91 54q-53 63 -53 164q0 99 61 164q57 62 135 62q71 0 116 -45q43 -44 43 -112q0 -17 -5 -39h-271q-1 -10 -1 -30q0 -37 6 -67q7 -35 22 -60q36 -60 116 -60q71 0 126 59l20 -25q-31 -36 -67 -55
q-44 -22 -98 -22q-94 0 -150 66z" />
    <glyph glyph-name="f" unicode="f" horiz-adv-x="303" 
d="M30 20q50 0 63 21q13 20 13 96v260h-85v35h85q0 95 46 146q40 44 100 44q67 0 67 -51q0 -43 -44 -43q-21 0 -35 32q-12 27 -25 27q-36 0 -36 -133v-22h105v-35h-105v-260q0 -76 13 -96q13 -21 63 -21v-20h-225v20z" />
    <glyph glyph-name="g" unicode="g" horiz-adv-x="446" 
d="M67 -167q-48 30 -48 73q0 61 73 74l15 -13q-37 -19 -37 -54q0 -31 37 -52q38 -20 94 -20q63 0 103 26q39 25 39 60q0 37 -33 53q-35 17 -124 20q-80 3 -114 24q-31 19 -31 54q0 31 30 50q25 16 69 24q-99 36 -99 140q0 65 48 109q47 43 115 43q69 0 113 -42q31 42 78 42
q62 0 62 -55q0 -37 -33 -37q-20 0 -34 30q-9 20 -25 20q-18 0 -31 -18q33 -36 33 -92q0 -62 -46 -106q-41 -39 -95 -45q-76 -8 -104 -18q-22 -9 -22 -25q0 -12 16 -17q19 -6 76 -8q206 -7 206 -126q0 -63 -53 -104q-55 -42 -144 -42q-83 0 -134 32zM269 208q22 32 22 84
q0 119 -87 119t-87 -119q0 -51 23 -84q23 -35 64 -35t65 35z" />
    <glyph glyph-name="h" unicode="h" horiz-adv-x="540" 
d="M25 20q46 0 59 21q12 21 12 96v326q0 76 -12 96q-13 21 -64 21v20l149 24v-273q26 39 64 64q44 29 90 29q67 0 100 -48q30 -42 30 -114v-145q0 -76 13 -96q13 -21 63 -21v-20h-225v20q50 0 63 21q13 20 13 96v145q0 115 -82 115q-48 0 -87 -39q-42 -41 -42 -98v-123
q0 -76 13 -96q13 -21 63 -21v-20h-220v20z" />
    <glyph glyph-name="i" unicode="i" horiz-adv-x="277" 
d="M32 20q50 0 63 21q13 20 13 96v148q0 76 -12 96q-13 21 -64 21v20l149 23v-308q0 -76 13 -96q13 -21 63 -21v-20h-225v20zM95 561q0 44 44 44t44 -44t-44 -44t-44 44z" />
    <glyph glyph-name="j" unicode="j" horiz-adv-x="242" 
d="M-44 -152q0 43 44 43q13 0 21 -9q3 -3 6 -8l8 -20q2 -6 5 -9q7 -9 20 -9q25 0 31 43q3 22 4 62q1 17 1 42v302q0 76 -12 96q-13 21 -64 21v20l149 23v-401q0 -128 -45 -190q-38 -53 -104 -53q-64 0 -64 47zM83 561q0 44 44 44t44 -44t-44 -44t-44 44z" />
    <glyph glyph-name="k" unicode="k" horiz-adv-x="469" 
d="M25 20q46 0 59 21q12 21 12 96v326q0 76 -12 96q-13 21 -64 21v20l149 24v-382l123 116q58 54 -24 54v20h189v-20q-55 0 -96 -38l-125 -115l167 -213q20 -26 62 -26v-20h-116l-163 213l-17 -15v-61q0 -75 12 -96q13 -21 59 -21v-20h-215v20z" />
    <glyph glyph-name="l" unicode="l" horiz-adv-x="266" 
d="M25 20q46 0 58 21q13 21 13 96v326q0 76 -12 96q-13 21 -64 21v20l149 24v-487q0 -75 13 -96q12 -21 58 -21v-20h-215v20z" />
    <glyph glyph-name="m" unicode="m" horiz-adv-x="810" 
d="M32 20q50 0 63 21q13 20 13 96v148q0 77 -12 96q-12 21 -63 21v20l128 23q6 -13 13 -39q7 -32 7 -55q24 38 60 64q42 29 84 29q53 0 85 -30q27 -25 37 -69q19 37 56 65q45 34 93 34q66 0 99 -45q28 -39 28 -107v-155q0 -76 13 -96q13 -21 63 -21v-20h-225v20q50 0 63 21
q13 20 13 96v155q0 105 -74 105q-40 0 -80 -39q-44 -43 -44 -98v-123q0 -76 13 -96q13 -21 63 -21v-20h-225v20q50 0 63 21q13 20 13 96v155q0 105 -74 105q-40 0 -80 -39q-44 -43 -44 -98v-123q0 -76 13 -96q13 -21 63 -21v-20h-225v20z" />
    <glyph glyph-name="n" unicode="n" horiz-adv-x="552" 
d="M32 20q50 0 63 21q13 20 13 96v148q0 77 -12 96q-12 21 -63 21v20l128 23q6 -13 13 -39q7 -32 7 -55q26 39 64 64q44 29 90 29q67 0 100 -48q30 -42 30 -114v-145q0 -76 13 -96q13 -21 63 -21v-20h-225v20q50 0 63 21q13 20 13 96v145q0 115 -82 115q-48 0 -87 -39
q-42 -41 -42 -98v-123q0 -76 13 -96q13 -21 63 -21v-20h-225v20z" />
    <glyph glyph-name="o" unicode="o" horiz-adv-x="470" 
d="M89 49q-57 65 -57 167t57 167t146 65q88 0 145 -65q58 -66 58 -167t-58 -167q-57 -65 -145 -65q-89 0 -146 65zM356 216q0 90 -30 141q-31 54 -91 54t-92 -54q-29 -51 -29 -141q0 -195 121 -195t121 195z" />
    <glyph glyph-name="p" unicode="p" horiz-adv-x="524" 
d="M378 85q26 49 26 131t-26 132q-30 56 -89 56q-84 0 -120 -102v-172q36 -102 120 -102q59 0 89 57zM20 -171q50 0 63 21q13 20 13 96v339q0 77 -12 96q-12 21 -63 21v20l128 23q16 -38 20 -80q48 79 135 79q83 0 133 -63q49 -62 49 -165t-49 -165q-50 -63 -133 -63
q-91 0 -135 80v-122q0 -76 13 -96q13 -21 63 -21v-20h-225v20z" />
    <glyph glyph-name="q" unicode="q" horiz-adv-x="506" 
d="M355 130v172q-36 102 -120 102q-59 0 -89 -56q-26 -50 -26 -132t26 -131q30 -57 89 -57q84 0 120 102zM279 -171q50 0 63 21q13 20 13 96v122q-44 -80 -135 -80q-83 0 -133 63q-49 62 -49 165t49 165q50 63 133 63q93 0 145 -88l43 88h20v-498q0 -76 13 -96
q13 -21 63 -21v-20h-225v20z" />
    <glyph glyph-name="r" unicode="r" horiz-adv-x="384" 
d="M32 20q50 0 63 21q13 20 13 96v148q0 77 -12 96q-12 21 -63 21v20l128 23q6 -12 12 -38q8 -31 8 -56q37 93 107 93q44 0 67 -27q18 -20 18 -46q0 -50 -42 -50q-36 0 -36 38q0 43 -36 43q-24 0 -49 -40q-29 -46 -29 -109v-116q0 -76 13 -96q13 -21 63 -21v-20h-225v20z
" />
    <glyph glyph-name="s" unicode="s" horiz-adv-x="371" 
d="M38 146h20q4 -45 40 -81q41 -40 100 -40q75 0 75 70q0 46 -76 83l-69 34q-80 39 -80 120q0 49 39 81q37 31 91 31q36 0 66 -14q10 -5 20 -12l13 -11q9 12 13 32h17v-119h-20q-5 89 -104 89q-71 0 -71 -64q0 -42 77 -79l61 -29q86 -41 86 -122q0 -56 -40 -92
q-40 -35 -103 -35q-68 0 -117 47q-18 -16 -21 -42h-17v153z" />
    <glyph glyph-name="t" unicode="t" horiz-adv-x="307" 
d="M90 114v283h-65v27q49 11 71 46q20 29 26 90h41v-128h91v-35h-91v-283q0 -79 45 -79q30 0 63 37l18 -18q-48 -64 -108 -64q-91 0 -91 124z" />
    <glyph glyph-name="u" unicode="u" horiz-adv-x="540" 
d="M390 -13q-6 13 -13 40q-7 31 -7 54q-26 -39 -64 -64q-44 -29 -90 -29q-67 0 -100 48q-30 42 -30 114v145q0 76 -13 96q-13 21 -63 21v20h149v-282q0 -115 82 -115q48 0 87 39q42 41 42 98v123q0 76 -13 96q-13 21 -63 21v20h149v-285q0 -77 12 -96q12 -21 63 -21v-20z
" />
    <glyph glyph-name="v" unicode="v" horiz-adv-x="433" 
d="M62 346q-27 66 -83 66v20h204v-20q-40 0 -48 -13q-9 -13 7 -53l94 -241l94 241q15 39 7 53q-8 13 -45 13v20h166v-20q-60 0 -87 -66l-144 -353h-21z" />
    <glyph glyph-name="w" unicode="w" horiz-adv-x="666" 
d="M62 346q-25 66 -83 66v20h204v-20q-39 0 -47 -13t6 -53l82 -230l118 316h21l118 -316l82 230q15 41 7 54q-7 12 -45 12v20h166v-20q-62 0 -87 -66l-132 -353h-21l-118 314l-118 -314h-21z" />
    <glyph glyph-name="x" unicode="x" horiz-adv-x="492" 
d="M9 20q52 0 102 65l96 124l-89 138q-26 41 -50 54q-18 11 -50 11v20h225v-20q-80 0 -45 -55l59 -92l71 92q41 55 -35 55v20h186v-20q-31 0 -55 -12q-29 -15 -58 -53l-88 -114l96 -148q25 -39 50 -53q22 -12 59 -12v-20h-235v20q83 0 49 51l-69 106l-82 -106
q-38 -51 39 -51v-20h-176v20z" />
    <glyph glyph-name="y" unicode="y" horiz-adv-x="427" 
d="M66 -162q0 24 30 37q27 12 46 30q23 23 37 59l16 42l-134 341q-26 65 -82 65v20h204v-20q-39 0 -48 -13t6 -52l91 -242l92 242q25 65 -38 65v20h166v-20q-61 0 -87 -65l-186 -473q-17 -42 -39 -60q-17 -13 -38 -13q-36 0 -36 37z" />
    <glyph glyph-name="z" unicode="z" horiz-adv-x="374" 
d="M26 17l226 384h-61q-76 0 -101 -14q-20 -11 -30 -48l-6 -23h-20l9 116h298v-16l-225 -383h76q76 0 101 13q20 11 30 48l6 23h20l-9 -117h-314v17z" />
    <glyph glyph-name="braceleft" unicode="{" horiz-adv-x="312" 
d="M264 -111q-66 38 -86 78q-21 43 -21 147q0 95 -36 133q-14 15 -37 25l-21 9l-22 7v16l22 7l21 9q23 10 37 25q36 38 36 133q0 104 21 146q20 41 86 79l13 -21q-50 -34 -57 -77q-3 -18 -3 -52q1 -6 1 -16l1 -57q0 -99 -33 -140q-15 -18 -38 -28q-18 -9 -49 -16
q31 -7 49 -16q23 -10 38 -28q33 -41 33 -140l-1 -57q0 -10 -1 -16q0 -34 3 -52q7 -43 57 -77z" />
    <glyph glyph-name="bar" unicode="|" horiz-adv-x="246" 
d="M101 686h44v-782h-44v782z" />
    <glyph glyph-name="braceright" unicode="}" horiz-adv-x="312" 
d="M35 -90q50 34 58 77q2 18 2 52q-1 6 -1 16l-1 57q0 99 33 140q15 18 38 28q18 9 49 16q-31 7 -49 16q-23 10 -38 28q-33 41 -33 140l1 57q0 10 1 16q0 34 -2 52q-8 43 -58 77l13 21q66 -38 86 -79q21 -42 21 -146q0 -95 36 -133q14 -15 37 -25l21 -9l22 -7v-16l-22 -7
l-21 -9q-23 -10 -37 -25q-36 -38 -36 -133q0 -104 -21 -147q-20 -40 -86 -78z" />
    <glyph glyph-name="asciitilde" unicode="~" horiz-adv-x="414" 
d="M240 202q-8 4 -17 10l-52 32q-19 9 -34 9q-38 0 -52 -56h-19q0 111 81 111q16 0 36 -9q8 -4 17 -10l52 -32q19 -9 34 -9q38 0 52 56h19q0 -111 -81 -111q-16 0 -36 9z" />
    <glyph glyph-name="uni00A0" unicode="&#xa0;" horiz-adv-x="192" 
 />
    <glyph glyph-name="exclamdown" unicode="&#xa1;" horiz-adv-x="267" 
d="M183 396q0 -50 -50 -50t-50 50t50 50t50 -50zM150 278q3 -96 8 -174q2 -33 5 -63q2 -25 5 -50l8 -72q4 -31 4 -49q0 -49 -47 -49t-47 49q0 18 4 49l8 72q3 25 5 50q3 30 5 63q5 78 8 174h34z" />
    <glyph glyph-name="cent" unicode="&#xa2;" horiz-adv-x="430" 
d="M242 -83h-36v124q-77 12 -120 73q-42 58 -42 144q0 87 49 152q45 60 113 79v128h36v-122h10q68 0 102 -28q28 -23 28 -57q0 -16 -10 -28q-13 -17 -36 -17q-40 0 -40 42q0 56 -44 56h-5q-3 0 -5 -1v-378l11 -1q6 -1 11 -1q60 0 113 59l20 -25q-63 -76 -155 -77v-122z
M206 450q-86 -47 -86 -192q0 -123 86 -164v356z" />
    <glyph glyph-name="sterling" unicode="&#xa3;" horiz-adv-x="487" 
d="M24 21q62 0 79 21q16 21 16 96v160h-81v35h81v63q0 112 56 171q49 50 126 50q52 0 86 -28q29 -25 29 -56q0 -38 -35 -38q-19 0 -29 14q-4 6 -8 15l-5 17q-7 22 -16 32q-13 14 -39 14q-44 0 -64 -42q-21 -45 -21 -149v-63h135v-35h-135v-53q0 -161 -56 -198h163
q64 0 88 19q18 14 28 57l5 20h21l-9 -143h-415v21z" />
    <glyph glyph-name="currency" unicode="&#xa4;" horiz-adv-x="526" 
d="M156 50q-57 66 -74 178h-58v35h54l-1 37q0 25 1 37h-54v35h58q17 112 74 178q58 67 140 67q77 0 130 -72q23 19 28 52h20v-207h-21q-35 184 -150 184q-116 0 -138 -202h178v-35h-180q-1 -12 -1 -37t1 -37h180v-35h-178q20 -201 138 -201q114 0 150 183h21v-208h-20
q-6 35 -28 53q-51 -72 -130 -72q-82 0 -140 67z" />
    <glyph glyph-name="yen" unicode="&#xa5;" horiz-adv-x="534" 
d="M307 192h129v-33h-129v-21q0 -77 14 -96q15 -21 76 -21v-21h-259v21q61 0 76 21q14 19 14 96v21h-129v33h129v66h-129v33h111l-115 201q-30 53 -53 69q-26 18 -78 18v21h270v-21q-97 0 -54 -76l112 -198l114 198q24 43 15 59q-10 17 -69 17v21h223v-21q-58 0 -84 -20
q-12 -10 -24 -27l-141 -241h110v-33h-129v-66z" />
    <glyph glyph-name="brokenbar" unicode="&#xa6;" horiz-adv-x="246" 
d="M101 686h44v-337h-44v337zM101 241h44v-337h-44v337z" />
    <glyph glyph-name="section" unicode="&#xa7;" horiz-adv-x="460" 
d="M60 471q0 63 44 104q45 42 114 42q78 0 115 -41q19 16 28 41h18v-183h-21q-19 143 -143 143q-89 0 -89 -86q0 -67 112 -124l57 -29q113 -57 113 -147q0 -27 -9 -53q-7 -21 -19 -39q-5 -8 -11 -15l-9 -10q-9 -9 -9 -8q48 -50 48 -111q0 -63 -44 -104q-45 -42 -114 -42
q-78 0 -115 41q-19 -16 -28 -41h-18v183h21q19 -143 143 -143q89 0 89 86q0 67 -112 124l-57 29q-113 57 -113 147q0 28 9 54q7 20 20 39q4 7 10 14l9 10q9 9 9 8q-48 50 -48 111zM246 277l-92 48q-10 5 -15 9q-2 -1 -6 -6q-6 -6 -10 -14q-13 -25 -13 -56q0 -55 103 -109
l92 -48q10 -5 15 -9q2 1 6 6q6 6 10 15q13 24 13 55q0 57 -103 109z" />
    <glyph glyph-name="dieresis" unicode="&#xa8;" horiz-adv-x="300" 
d="M273 541q0 -39 -40 -39t-40 39q0 40 40 40t40 -40zM107 541q0 -39 -40 -39t-40 39q0 40 40 40t40 -40z" />
    <glyph glyph-name="copyright" unicode="&#xa9;" horiz-adv-x="665" 
d="M114 76q-93 93 -93 224t93 224t224 93t224 -93q92 -93 92 -224t-92 -224q-93 -93 -224 -93t-224 93zM539 99q84 83 84 201t-84 202q-83 83 -201 83t-202 -83q-83 -83 -83 -202q0 -118 83 -201q84 -84 202 -84t201 84zM207 152q-60 61 -60 148q0 86 60 148t143 62
q71 0 119 -59q9 11 16 44h17v-156h-18q-28 137 -134 137q-69 0 -106 -59q-30 -49 -30 -117t30 -117q37 -59 106 -59q106 0 134 138h18v-157h-17q-6 34 -16 44q-48 -59 -119 -59q-83 0 -143 62z" />
    <glyph glyph-name="ordfeminine" unicode="&#xaa;" horiz-adv-x="363" 
d="M92 440q46 30 136 44v20q0 83 -57 83q-19 0 -36 -11q-19 -13 -19 -32q0 -29 -28 -29q-30 0 -30 29q0 28 36 50q35 22 78 22q115 0 115 -112v-168q0 -32 18 -32q5 0 13 4q5 3 11 8l13 -15q-23 -27 -60 -27q-44 0 -52 49q-56 -51 -102 -51q-89 0 -89 81q0 54 53 87z
M228 458q-126 -26 -126 -98q0 -49 47 -49q32 0 79 40v107z" />
    <glyph glyph-name="guillemotleft" unicode="&#xab;" horiz-adv-x="452" 
d="M211 251l184 153l14 -18l-112 -136l112 -135l-14 -18zM43 251l227 198l14 -19l-155 -180l155 -179l-14 -19z" />
    <glyph glyph-name="logicalnot" unicode="&#xac;" horiz-adv-x="522" 
d="M381 268h-312v44h356v-172h-44v128z" />
    <glyph glyph-name="registered" unicode="&#xae;" horiz-adv-x="484" 
d="M78 223q-68 67 -68 163t68 164q68 67 163 67q96 0 164 -67q68 -68 68 -164t-68 -163q-68 -68 -164 -68q-95 0 -163 68zM248 392q49 0 49 50q0 51 -49 51h-32v-101h32zM398 260h-84l-85 108h-13v-29q0 -64 42 -64v-15h-144v15q32 0 41 12t9 52v99q0 41 -9 53q-9 11 -41 11
v14h135q104 0 104 -74q0 -59 -74 -73l35 -38q47 -51 86 -56v-12q43 56 43 123q0 83 -59 142t-143 59q-83 0 -142 -59t-59 -142t59 -142t142 -59q95 0 157 75z" />
    <glyph glyph-name="macron" unicode="&#xaf;" horiz-adv-x="300" 
d="M45 537h210v-35h-210v35z" />
    <glyph glyph-name="degree" unicode="&#xb0;" horiz-adv-x="372" 
d="M79 355q-44 44 -44 106t44 106q45 44 106 44q62 0 106 -44t44 -106t-44 -106t-106 -44t-106 44zM257 389q30 30 30 72t-30 72t-72 30t-71 -30q-30 -30 -30 -72t30 -72q29 -30 71 -30t72 30z" />
    <glyph glyph-name="plusminus" unicode="&#xb1;" horiz-adv-x="400" 
d="M21 39h358v-39h-358v39zM178 267h-157v44h157v157h44v-157h157v-44h-157v-157h-44v157z" />
    <glyph glyph-name="uni00B2" unicode="&#xb2;" horiz-adv-x="302" 
d="M131 476q29 36 43 68q12 27 12 50q0 66 -50 66q-47 0 -47 -46q0 -16 13 -33l-16 -17q-46 19 -46 55q0 68 98 68q108 0 108 -89q0 -30 -20 -61q-15 -23 -55 -67l-70 -76h79q52 0 64 41h17l-16 -83h-202v18z" />
    <glyph glyph-name="uni00B3" unicode="&#xb3;" horiz-adv-x="308" 
d="M116 486q-5 4 -5 11q0 9 16 22l24 18q46 35 46 75q0 48 -51 48q-50 0 -50 -46q0 -18 10 -31l-19 -16q-40 16 -40 49q0 71 99 71q45 0 75 -19q33 -21 33 -54q0 -26 -18 -48q-7 -8 -17 -16l-35 -26q80 -18 80 -86q0 -38 -32 -65q-32 -28 -80 -28t-80 22q-27 18 -27 37
q0 21 20 21q8 0 15 -12l7 -11q4 -7 8 -11t8 -6q5 -4 11 -6q14 -7 33 -7q56 0 56 66q0 57 -45 68l-16 -15q-9 -9 -16 -9q-5 0 -10 4z" />
    <glyph glyph-name="acute" unicode="&#xb4;" horiz-adv-x="300" 
d="M69 506l92 87q26 24 42 24q30 0 30 -30q0 -22 -22 -30l-138 -58z" />
    <glyph glyph-name="uni00B5" unicode="&#xb5;" horiz-adv-x="540" 
d="M159 -54q0 -75 13 -96q12 -21 58 -21v-20h-215v20q46 0 58 21q13 21 13 96v349q0 76 -13 96q-13 21 -63 21v20h149v-282q0 -115 82 -115q48 0 87 39q42 41 42 98v123q0 76 -13 96q-13 21 -63 21v20h149v-285q0 -77 12 -96q12 -21 63 -21v-20l-128 -23q-6 13 -13 40
q-7 31 -7 54q-26 -39 -64 -64q-44 -29 -90 -29q-32 0 -57 11v-53z" />
    <glyph glyph-name="paragraph" unicode="&#xb6;" horiz-adv-x="475" 
d="M85 -171q60 0 76 21q14 19 14 96v316q-64 7 -107 55q-44 48 -44 113q0 70 50 120t120 50h261v-21q-62 0 -79 -20q-17 -21 -17 -96v-517q0 -76 15 -96q15 -21 75 -21v-20h-143v747h-77v-747h-144v20z" />
    <glyph glyph-name="periodcentered" unicode="&#xb7;" horiz-adv-x="267" 
d="M83 265q0 52 52 52t52 -52t-52 -52t-52 52z" />
    <glyph glyph-name="cedilla" unicode="&#xb8;" horiz-adv-x="300" 
d="M84 -222q87 19 87 68q0 31 -34 42q-31 11 -69 -1v13l105 106h39l-73 -74q31 -2 56 -19q31 -22 31 -57q0 -47 -56 -75q-20 -10 -47 -17q-20 -6 -39 -8v22z" />
    <glyph glyph-name="uni00B9" unicode="&#xb9;" horiz-adv-x="237" 
d="M208 352h-168v19q56 0 56 58v168q0 35 -17 46q-12 8 -47 8v16l120 20v-258q0 -58 56 -58v-19z" />
    <glyph glyph-name="ordmasculine" unicode="&#xba;" horiz-adv-x="377" 
d="M76 568q44 48 113 48q67 0 111 -48q45 -49 45 -125t-45 -125q-44 -48 -111 -48q-69 0 -113 48t-44 125t44 125zM189 584q-90 0 -90 -141q0 -140 90 -140t90 140q0 141 -90 141z" />
    <glyph glyph-name="guillemotright" unicode="&#xbb;" horiz-adv-x="452" 
d="M168 71l155 179l-155 180l14 19l227 -198l-227 -199zM43 115l112 135l-112 136l14 18l184 -153l-184 -154z" />
    <glyph glyph-name="onequarter" unicode="&#xbc;" horiz-adv-x="669" 
d="M118 0l383 618l36 -18l-383 -618zM388 117h91v126zM533 117q34 0 44 7q9 5 16 29l4 13h15l-6 -76h-73v-13q0 -38 9 -48q10 -10 45 -10v-19h-162v19q35 0 45 10q9 10 9 48v13h-129v14l167 231h16v-218zM214 282h-168v19q56 0 56 58v168q0 35 -17 46q-12 8 -47 8v16l120 20
v-258q0 -58 56 -58v-19z" />
    <glyph glyph-name="onehalf" unicode="&#xbd;" horiz-adv-x="682" 
d="M118 0l383 618l34 -18l-383 -618zM502 124q29 36 43 68q12 27 12 50q0 66 -50 66q-47 0 -47 -46q0 -16 13 -33l-16 -17q-46 19 -46 55q0 68 98 68q108 0 108 -89q0 -30 -20 -61q-15 -23 -55 -67l-70 -76h79q52 0 64 41h17l-16 -83h-202v18zM214 282h-168v19q56 0 56 58
v168q0 35 -17 46q-12 8 -47 8v16l120 20v-258q0 -58 56 -58v-19z" />
    <glyph glyph-name="threequarters" unicode="&#xbe;" horiz-adv-x="690" 
d="M139 0l383 618l36 -18l-383 -618zM409 117h91v126zM554 117q34 0 44 7q9 5 16 29l4 13h15l-6 -76h-73v-13q0 -38 9 -48q10 -10 45 -10v-19h-162v19q35 0 45 10q9 10 9 48v13h-129v14l167 231h16v-218zM116 416q-5 4 -5 11q0 9 16 22l24 18q46 35 46 75q0 48 -51 48
q-50 0 -50 -46q0 -18 10 -31l-19 -16q-40 16 -40 49q0 71 99 71q45 0 75 -19q33 -21 33 -54q0 -26 -18 -48q-7 -8 -17 -16l-35 -26q80 -18 80 -86q0 -38 -32 -65q-32 -28 -80 -28t-80 22q-27 18 -27 37q0 21 20 21q8 0 15 -12l7 -11q4 -7 8 -11t8 -6q5 -4 11 -6q14 -7 33 -7
q56 0 56 66q0 57 -45 68l-16 -15q-9 -9 -16 -9q-5 0 -10 4z" />
    <glyph glyph-name="questiondown" unicode="&#xbf;" horiz-adv-x="448" 
d="M293 394q0 -52 -52 -52t-52 52t52 52t52 -52zM214 104q-85 -62 -85 -138q0 -104 107 -104q99 0 99 87q0 30 -17 56l28 29q63 -30 63 -92q0 -47 -44 -82q-50 -39 -129 -39q-85 0 -137 40t-52 104q0 47 34 91q31 40 84 73l54 34v115h44v-138z" />
    <glyph glyph-name="Agrave" unicode="&#xc0;" horiz-adv-x="545" 
d="M106 97q-17 -43 -3 -59q15 -17 76 -17v-21h-225v21q53 0 74 17q18 14 40 70l194 500h23l195 -500q22 -57 39 -71q20 -16 73 -16v-21h-268v21q61 0 76 17q13 16 -3 59l-42 110h-207zM253 480l-90 -237h178zM172 729q-22 8 -22 30q0 30 30 30q17 0 42 -24l92 -87l-4 -7z
" />
    <glyph glyph-name="Aacute" unicode="&#xc1;" horiz-adv-x="545" 
d="M106 97q-17 -43 -3 -59q15 -17 76 -17v-21h-225v21q53 0 74 17q18 14 40 70l194 500h23l195 -500q22 -57 39 -71q20 -16 73 -16v-21h-268v21q61 0 76 17q13 16 -3 59l-42 110h-207zM253 480l-90 -237h178zM231 678l92 87q26 24 42 24q30 0 30 -30q0 -22 -22 -30l-138 -58
z" />
    <glyph glyph-name="Acircumflex" unicode="&#xc2;" horiz-adv-x="545" 
d="M106 97q-17 -43 -3 -59q15 -17 76 -17v-21h-225v21q53 0 74 17q18 14 40 70l194 500h23l195 -500q22 -57 39 -71q20 -16 73 -16v-21h-268v21q61 0 76 17q13 16 -3 59l-42 110h-207zM253 480l-90 -237h178zM153 685l119 130l119 -130l-13 -11l-106 76l-106 -76z" />
    <glyph glyph-name="Atilde" unicode="&#xc3;" horiz-adv-x="545" 
d="M106 97q-17 -43 -3 -59q15 -17 76 -17v-21h-225v21q53 0 74 17q18 14 40 70l194 500h23l195 -500q22 -57 39 -71q20 -16 73 -16v-21h-268v21q61 0 76 17q13 16 -3 59l-42 110h-207zM253 480l-90 -237h178zM297 686q-11 5 -31 18q-1 0 -2 1l-29 17q-17 8 -29 8
q-32 0 -43 -48h-16q0 94 68 94q13 0 31 -8q11 -5 32 -18l15 -10l15 -8q17 -8 29 -8q32 0 43 48h16q0 -94 -68 -94q-13 0 -31 8z" />
    <glyph glyph-name="Adieresis" unicode="&#xc4;" horiz-adv-x="545" 
d="M106 97q-17 -43 -3 -59q15 -17 76 -17v-21h-225v21q53 0 74 17q18 14 40 70l194 500h23l195 -500q22 -57 39 -71q20 -16 73 -16v-21h-268v21q61 0 76 17q13 16 -3 59l-42 110h-207zM253 480l-90 -237h178zM395 713q0 -39 -40 -39t-40 39q0 40 40 40t40 -40zM229 713
q0 -39 -40 -39t-40 39q0 40 40 40t40 -40z" />
    <glyph glyph-name="Aring" unicode="&#xc5;" horiz-adv-x="545" 
d="M106 97q-17 -43 -3 -59q15 -17 76 -17v-21h-225v21q53 0 74 17q18 14 40 70l194 500h23l195 -500q22 -57 39 -71q20 -16 73 -16v-21h-268v21q61 0 76 17q13 16 -3 59l-42 110h-207zM253 480l-90 -237h178zM355 756q0 -82 -83 -82t-83 82q0 83 83 83t83 -83zM223 756
q0 -48 49 -48t49 48q0 49 -49 49t-49 -49z" />
    <glyph glyph-name="AE" unicode="&#xc6;" horiz-adv-x="742" 
d="M344 243v304l-157 -304h157zM676 469h-19l-5 20q-11 42 -28 56q-23 18 -85 18h-116v-227h40q76 0 93 13q18 14 18 76h21v-215h-21q0 62 -18 76q-17 13 -93 13h-40v-148q0 -76 14 -94q15 -20 76 -20h59q62 0 85 19q17 14 28 57l5 20h19l-8 -133h-452v21q62 0 79 21
q16 21 16 96v70h-175l-57 -111q-22 -43 -9 -59q13 -17 71 -17v-21h-234v21q55 0 82 17q26 17 54 70l254 492h337z" />
    <glyph glyph-name="Ccedilla" unicode="&#xc7;" horiz-adv-x="602" 
d="M311 -16q-112 7 -184 98q-70 90 -70 218q0 133 75 224q78 93 195 93q109 0 170 -73q21 16 27 47h18v-208h-20q-41 191 -186 191q-99 0 -149 -90q-21 -38 -31 -89q-9 -45 -9 -95t9 -95q10 -51 31 -88q50 -91 149 -91q144 0 186 191h20v-208h-18q-7 33 -27 47
q-54 -64 -147 -72l-61 -62q31 -2 56 -19q31 -22 31 -57q0 -47 -56 -75q-20 -10 -47 -17q-20 -6 -39 -8v22q87 19 87 68q0 31 -34 42q-31 11 -69 -1v13z" />
    <glyph glyph-name="Egrave" unicode="&#xc8;" horiz-adv-x="517" 
d="M178 729q-22 8 -22 30q0 30 30 30q17 0 42 -24l92 -87l-4 -7zM29 21q61 0 76 21q14 19 14 96v325q0 77 -14 96q-15 20 -76 20v21h413l9 -131h-19l-5 20q-11 42 -28 56q-23 18 -85 18h-116v-227h40q76 0 93 13q18 14 18 76h21v-215h-21q0 62 -18 76q-17 13 -93 13h-40
v-148q0 -76 14 -94q15 -20 76 -20h59q62 0 85 19q17 14 28 57l5 20h19l-8 -133h-447v21z" />
    <glyph glyph-name="Eacute" unicode="&#xc9;" horiz-adv-x="517" 
d="M217 678l92 87q26 24 42 24q30 0 30 -30q0 -22 -22 -30l-138 -58zM29 21q61 0 76 21q14 19 14 96v325q0 77 -14 96q-15 20 -76 20v21h413l9 -131h-19l-5 20q-11 42 -28 56q-23 18 -85 18h-116v-227h40q76 0 93 13q18 14 18 76h21v-215h-21q0 62 -18 76q-17 13 -93 13h-40
v-148q0 -76 14 -94q15 -20 76 -20h59q62 0 85 19q17 14 28 57l5 20h19l-8 -133h-447v21z" />
    <glyph glyph-name="Ecircumflex" unicode="&#xca;" horiz-adv-x="517" 
d="M139 685l119 130l119 -130l-13 -11l-106 76l-106 -76zM29 21q61 0 76 21q14 19 14 96v325q0 77 -14 96q-15 20 -76 20v21h413l9 -131h-19l-5 20q-11 42 -28 56q-23 18 -85 18h-116v-227h40q76 0 93 13q18 14 18 76h21v-215h-21q0 62 -18 76q-17 13 -93 13h-40v-148
q0 -76 14 -94q15 -20 76 -20h59q62 0 85 19q17 14 28 57l5 20h19l-8 -133h-447v21z" />
    <glyph glyph-name="Edieresis" unicode="&#xcb;" horiz-adv-x="517" 
d="M391 713q0 -39 -40 -39t-40 39q0 40 40 40t40 -40zM225 713q0 -39 -40 -39t-40 39q0 40 40 40t40 -40zM29 21q61 0 76 21q14 19 14 96v325q0 77 -14 96q-15 20 -76 20v21h413l9 -131h-19l-5 20q-11 42 -28 56q-23 18 -85 18h-116v-227h40q76 0 93 13q18 14 18 76h21v-215
h-21q0 62 -18 76q-17 13 -93 13h-40v-148q0 -76 14 -94q15 -20 76 -20h59q62 0 85 19q17 14 28 57l5 20h19l-8 -133h-447v21z" />
    <glyph glyph-name="Igrave" unicode="&#xcc;" horiz-adv-x="317" 
d="M79 729q-22 8 -22 30q0 30 30 30q17 0 42 -24l92 -87l-4 -7zM29 21q61 0 76 21q14 19 14 96v325q0 77 -14 96q-15 20 -76 20v21h259v-21q-61 0 -76 -20q-14 -19 -14 -96v-325q0 -77 14 -96q15 -21 76 -21v-21h-259v21z" />
    <glyph glyph-name="Iacute" unicode="&#xcd;" horiz-adv-x="317" 
d="M98 678l92 87q26 24 42 24q30 0 30 -30q0 -22 -22 -30l-138 -58zM29 21q61 0 76 21q14 19 14 96v325q0 77 -14 96q-15 20 -76 20v21h259v-21q-61 0 -76 -20q-14 -19 -14 -96v-325q0 -77 14 -96q15 -21 76 -21v-21h-259v21z" />
    <glyph glyph-name="Icircumflex" unicode="&#xce;" horiz-adv-x="317" 
d="M40 685l119 130l119 -130l-13 -11l-106 76l-106 -76zM29 21q61 0 76 21q14 19 14 96v325q0 77 -14 96q-15 20 -76 20v21h259v-21q-61 0 -76 -20q-14 -19 -14 -96v-325q0 -77 14 -96q15 -21 76 -21v-21h-259v21z" />
    <glyph glyph-name="Idieresis" unicode="&#xcf;" horiz-adv-x="317" 
d="M282 713q0 -39 -40 -39t-40 39q0 40 40 40t40 -40zM116 713q0 -39 -40 -39t-40 39q0 40 40 40t40 -40zM29 21q61 0 76 21q14 19 14 96v325q0 77 -14 96q-15 20 -76 20v21h259v-21q-61 0 -76 -20q-14 -19 -14 -96v-325q0 -77 14 -96q15 -21 76 -21v-21h-259v21z" />
    <glyph glyph-name="Eth" unicode="&#xd0;" horiz-adv-x="634" 
d="M28 280v44h91v139q0 77 -14 96q-15 20 -76 20v21h264q139 0 215 -88q70 -81 70 -212t-70 -212q-76 -88 -215 -88h-264v21q61 0 76 21q14 19 14 96v142h-91zM294 324v-44h-96v-127q0 -76 15 -95q15 -21 74 -21h7q55 0 96 25q36 22 59 63q21 36 30 85q9 42 9 90t-9 90
q-9 49 -30 85q-23 41 -59 63q-41 25 -96 25h-96v-239h96z" />
    <glyph glyph-name="Ntilde" unicode="&#xd1;" horiz-adv-x="646" 
d="M160 467v-329q0 -77 14 -96q16 -21 77 -21v-21h-222v21q61 0 76 21q14 19 14 96v325q0 77 -14 96q-15 20 -76 20v21h131l334 -452v315q0 77 -14 96q-15 20 -76 20v21h222v-21q-61 0 -77 -20q-14 -20 -14 -96v-475h-21zM348 686q-11 5 -31 18q-1 0 -2 1l-29 17
q-17 8 -29 8q-32 0 -43 -48h-16q0 94 68 94q13 0 31 -8q11 -5 32 -18l15 -10l15 -8q17 -8 29 -8q32 0 43 48h16q0 -94 -68 -94q-13 0 -31 8z" />
    <glyph glyph-name="Ograve" unicode="&#xd2;" horiz-adv-x="636" 
d="M119 76q-79 92 -79 224t79 224q80 93 199 93q118 0 198 -93q80 -92 80 -224t-80 -224q-80 -93 -198 -93q-119 0 -199 93zM239 729q-22 8 -22 30q0 30 30 30q17 0 42 -24l92 -87l-4 -7zM464 116q21 38 32 89q10 46 10 95t-10 95q-11 51 -32 90q-51 91 -146 91
q-97 0 -147 -91q-21 -39 -32 -90q-9 -45 -9 -95t10 -95q10 -51 31 -89q50 -92 147 -92q95 0 146 92z" />
    <glyph glyph-name="Oacute" unicode="&#xd3;" horiz-adv-x="636" 
d="M119 76q-79 92 -79 224t79 224q80 93 199 93q118 0 198 -93q80 -92 80 -224t-80 -224q-80 -93 -198 -93q-119 0 -199 93zM258 678l92 87q26 24 42 24q30 0 30 -30q0 -22 -22 -30l-138 -58zM464 116q21 38 32 89q10 46 10 95t-10 95q-11 51 -32 90q-51 91 -146 91
q-97 0 -147 -91q-21 -39 -32 -90q-9 -45 -9 -95t10 -95q10 -51 31 -89q50 -92 147 -92q95 0 146 92z" />
    <glyph glyph-name="Ocircumflex" unicode="&#xd4;" horiz-adv-x="636" 
d="M119 76q-79 92 -79 224t79 224q80 93 199 93q118 0 198 -93q80 -92 80 -224t-80 -224q-80 -93 -198 -93q-119 0 -199 93zM200 685l119 130l119 -130l-13 -11l-106 76l-106 -76zM464 116q21 38 32 89q10 46 10 95t-10 95q-11 51 -32 90q-51 91 -146 91q-97 0 -147 -91
q-21 -39 -32 -90q-9 -45 -9 -95t10 -95q10 -51 31 -89q50 -92 147 -92q95 0 146 92z" />
    <glyph glyph-name="Otilde" unicode="&#xd5;" horiz-adv-x="636" 
d="M119 76q-79 92 -79 224t79 224q80 93 199 93q118 0 198 -93q80 -92 80 -224t-80 -224q-80 -93 -198 -93q-119 0 -199 93zM344 686q-11 5 -31 18q-1 0 -2 1l-29 17q-17 8 -29 8q-32 0 -43 -48h-16q0 94 68 94q13 0 31 -8q11 -5 32 -18l15 -10l15 -8q17 -8 29 -8
q32 0 43 48h16q0 -94 -68 -94q-13 0 -31 8zM464 116q21 38 32 89q10 46 10 95t-10 95q-11 51 -32 90q-51 91 -146 91q-97 0 -147 -91q-21 -39 -32 -90q-9 -45 -9 -95t10 -95q10 -51 31 -89q50 -92 147 -92q95 0 146 92z" />
    <glyph glyph-name="Odieresis" unicode="&#xd6;" horiz-adv-x="636" 
d="M119 76q-79 92 -79 224t79 224q80 93 199 93q118 0 198 -93q80 -92 80 -224t-80 -224q-80 -93 -198 -93q-119 0 -199 93zM442 713q0 -39 -40 -39t-40 39q0 40 40 40t40 -40zM276 713q0 -39 -40 -39t-40 39q0 40 40 40t40 -40zM464 116q21 38 32 89q10 46 10 95t-10 95
q-11 51 -32 90q-51 91 -146 91q-97 0 -147 -91q-21 -39 -32 -90q-9 -45 -9 -95t10 -95q10 -51 31 -89q50 -92 147 -92q95 0 146 92z" />
    <glyph glyph-name="multiply" unicode="&#xd7;" horiz-adv-x="430" 
d="M64 169l120 120l-120 119l32 31l119 -119l119 119l31 -31l-119 -119l120 -120l-32 -31l-119 120l-120 -120z" />
    <glyph glyph-name="Oslash" unicode="&#xd8;" horiz-adv-x="636" 
d="M425 536q-47 40 -107 40q-97 0 -147 -91q-21 -39 -32 -90q-9 -45 -9 -95q0 -57 13 -109q14 -59 42 -98zM211 64q45 -40 107 -40q95 0 146 92q21 38 32 89q10 46 10 95q0 57 -13 109q-15 58 -43 98zM479 560q117 -94 117 -260q0 -132 -80 -224q-80 -93 -198 -93
q-72 0 -131 36l-33 -60l-32 16l35 65q-117 93 -117 260q0 132 79 224q80 93 199 93q70 0 131 -36l33 60l32 -16z" />
    <glyph glyph-name="Ugrave" unicode="&#xd9;" horiz-adv-x="642" 
d="M168 44q-64 65 -64 179v240q0 77 -14 96q-15 20 -76 20v21h259v-21q-61 0 -76 -20q-14 -19 -14 -96v-245q0 -92 46 -143q42 -47 110 -47q70 0 112 47q44 51 44 143v245q0 76 -14 96q-16 20 -77 20v21h226v-21q-61 0 -77 -20q-14 -20 -14 -96v-240q0 -114 -61 -179
q-58 -61 -154 -61t-156 61zM231 729q-22 8 -22 30q0 30 30 30q17 0 42 -24l92 -87l-4 -7z" />
    <glyph glyph-name="Uacute" unicode="&#xda;" horiz-adv-x="642" 
d="M168 44q-64 65 -64 179v240q0 77 -14 96q-15 20 -76 20v21h259v-21q-61 0 -76 -20q-14 -19 -14 -96v-245q0 -92 46 -143q42 -47 110 -47q70 0 112 47q44 51 44 143v245q0 76 -14 96q-16 20 -77 20v21h226v-21q-61 0 -77 -20q-14 -20 -14 -96v-240q0 -114 -61 -179
q-58 -61 -154 -61t-156 61zM280 678l92 87q26 24 42 24q30 0 30 -30q0 -22 -22 -30l-138 -58z" />
    <glyph glyph-name="Ucircumflex" unicode="&#xdb;" horiz-adv-x="642" 
d="M168 44q-64 65 -64 179v240q0 77 -14 96q-15 20 -76 20v21h259v-21q-61 0 -76 -20q-14 -19 -14 -96v-245q0 -92 46 -143q42 -47 110 -47q70 0 112 47q44 51 44 143v245q0 76 -14 96q-16 20 -77 20v21h226v-21q-61 0 -77 -20q-14 -20 -14 -96v-240q0 -114 -61 -179
q-58 -61 -154 -61t-156 61zM212 685l119 130l119 -130l-13 -11l-106 76l-106 -76z" />
    <glyph glyph-name="Udieresis" unicode="&#xdc;" horiz-adv-x="642" 
d="M168 44q-64 65 -64 179v240q0 77 -14 96q-15 20 -76 20v21h259v-21q-61 0 -76 -20q-14 -19 -14 -96v-245q0 -92 46 -143q42 -47 110 -47q70 0 112 47q44 51 44 143v245q0 76 -14 96q-16 20 -77 20v21h226v-21q-61 0 -77 -20q-14 -20 -14 -96v-240q0 -114 -61 -179
q-58 -61 -154 -61t-156 61zM454 713q0 -39 -40 -39t-40 39q0 40 40 40t40 -40zM288 713q0 -39 -40 -39t-40 39q0 40 40 40t40 -40z" />
    <glyph glyph-name="Yacute" unicode="&#xdd;" horiz-adv-x="554" 
d="M148 21q61 0 76 21q14 19 14 96v104l-143 250q-30 53 -53 69q-26 18 -78 18v21h270v-21q-97 0 -54 -76l122 -216l124 216q24 43 15 59q-10 17 -69 17v21h223v-21q-58 0 -84 -20q-12 -10 -24 -27l-170 -290v-104q0 -77 14 -96q15 -21 76 -21v-21h-259v21zM236 678l92 87
q26 24 42 24q30 0 30 -30q0 -22 -22 -30l-138 -58z" />
    <glyph glyph-name="Thorn" unicode="&#xde;" horiz-adv-x="492" 
d="M264 183q126 0 126 128q0 57 -30 91q-34 37 -96 37h-66v-256h66zM119 475q-1 68 -15 85q-16 19 -75 19v21h259v-21q-59 0 -75 -19q-14 -17 -15 -85h67q101 0 156 -47q52 -44 52 -117t-52 -117q-55 -47 -156 -47h-67v-9q0 -77 14 -96q15 -21 76 -21v-21h-259v21
q61 0 76 21q14 19 14 96v337z" />
    <glyph glyph-name="germandbls" unicode="&#xdf;" horiz-adv-x="485" 
d="M232 129h20q0 -40 23 -73q28 -39 76 -39q56 0 56 58q0 42 -55 82l-56 41q-57 42 -57 111q0 29 15 54q5 10 14 22l18 21q22 27 31 45q15 28 15 61q0 72 -71 72q-41 0 -64 -34q-25 -39 -25 -121v-429h-140v20q47 0 59 21q12 20 12 96v176h-79v20q45 0 60 15q19 19 19 81
q0 95 49 145q43 43 110 43q58 0 95 -32q36 -32 36 -81q0 -31 -15 -56q-9 -16 -32 -39l-9 -9q-5 -5 -8 -9q-10 -10 -15 -18q-15 -22 -15 -47q0 -40 51 -78l48 -36q69 -51 69 -113q0 -116 -119 -116q-22 0 -44 11l-17 9q-2 2 -7 5l-6 4q-22 15 -22 -24h-20v141z" />
    <glyph glyph-name="agrave" unicode="&#xe0;" horiz-adv-x="451" 
d="M41 96q0 70 70 114q61 39 178 58v29q0 113 -77 113q-26 0 -49 -15q-26 -18 -26 -44q0 -37 -35 -37q-36 0 -36 37q0 36 46 65q45 28 101 28q149 0 149 -147v-224q0 -45 26 -45q15 0 32 17l15 -19q-29 -33 -77 -33q-57 0 -67 67q-77 -69 -136 -69q-114 0 -114 105zM225 47
q27 12 64 45v146q-171 -35 -171 -133q0 -68 65 -68q21 0 42 10zM146 557q-22 8 -22 30q0 30 30 30q17 0 42 -24l92 -87l-4 -7z" />
    <glyph glyph-name="aacute" unicode="&#xe1;" horiz-adv-x="451" 
d="M41 96q0 70 70 114q61 39 178 58v29q0 113 -77 113q-26 0 -49 -15q-26 -18 -26 -44q0 -37 -35 -37q-36 0 -36 37q0 36 46 65q45 28 101 28q149 0 149 -147v-224q0 -45 26 -45q15 0 32 17l15 -19q-29 -33 -77 -33q-57 0 -67 67q-77 -69 -136 -69q-114 0 -114 105zM225 47
q27 12 64 45v146q-171 -35 -171 -133q0 -68 65 -68q21 0 42 10zM145 506l92 87q26 24 42 24q30 0 30 -30q0 -22 -22 -30l-138 -58z" />
    <glyph glyph-name="acircumflex" unicode="&#xe2;" horiz-adv-x="451" 
d="M41 96q0 70 70 114q61 39 178 58v29q0 113 -77 113q-26 0 -49 -15q-26 -18 -26 -44q0 -37 -35 -37q-36 0 -36 37q0 36 46 65q45 28 101 28q149 0 149 -147v-224q0 -45 26 -45q15 0 32 17l15 -19q-29 -33 -77 -33q-57 0 -67 67q-77 -69 -136 -69q-114 0 -114 105zM225 47
q27 12 64 45v146q-171 -35 -171 -133q0 -68 65 -68q21 0 42 10zM97 513l119 130l119 -130l-13 -11l-106 76l-106 -76z" />
    <glyph glyph-name="atilde" unicode="&#xe3;" horiz-adv-x="451" 
d="M41 96q0 70 70 114q61 39 178 58v29q0 113 -77 113q-26 0 -49 -15q-26 -18 -26 -44q0 -37 -35 -37q-36 0 -36 37q0 36 46 65q45 28 101 28q149 0 149 -147v-224q0 -45 26 -45q15 0 32 17l15 -19q-29 -33 -77 -33q-57 0 -67 67q-77 -69 -136 -69q-114 0 -114 105zM225 47
q27 12 64 45v146q-171 -35 -171 -133q0 -68 65 -68q21 0 42 10zM241 514q-11 5 -31 18q-1 0 -2 1l-29 17q-17 8 -29 8q-32 0 -43 -48h-16q0 94 68 94q13 0 31 -8q11 -5 32 -18l15 -10l15 -8q17 -8 29 -8q32 0 43 48h16q0 -94 -68 -94q-13 0 -31 8z" />
    <glyph glyph-name="adieresis" unicode="&#xe4;" horiz-adv-x="451" 
d="M41 96q0 70 70 114q61 39 178 58v29q0 113 -77 113q-26 0 -49 -15q-26 -18 -26 -44q0 -37 -35 -37q-36 0 -36 37q0 36 46 65q45 28 101 28q149 0 149 -147v-224q0 -45 26 -45q15 0 32 17l15 -19q-29 -33 -77 -33q-57 0 -67 67q-77 -69 -136 -69q-114 0 -114 105zM225 47
q27 12 64 45v146q-171 -35 -171 -133q0 -68 65 -68q21 0 42 10zM339 541q0 -39 -40 -39t-40 39q0 40 40 40t40 -40zM173 541q0 -39 -40 -39t-40 39q0 40 40 40t40 -40z" />
    <glyph glyph-name="aring" unicode="&#xe5;" horiz-adv-x="451" 
d="M41 96q0 70 70 114q61 39 178 58v29q0 113 -77 113q-26 0 -49 -15q-26 -18 -26 -44q0 -37 -35 -37q-36 0 -36 37q0 36 46 65q45 28 101 28q149 0 149 -147v-224q0 -45 26 -45q15 0 32 17l15 -19q-29 -33 -77 -33q-57 0 -67 67q-77 -69 -136 -69q-114 0 -114 105zM225 47
q27 12 64 45v146q-171 -35 -171 -133q0 -68 65 -68q21 0 42 10zM299 584q0 -82 -83 -82t-83 82q0 83 83 83t83 -83zM167 584q0 -48 49 -48t49 48q0 49 -49 49t-49 -49z" />
    <glyph glyph-name="ae" unicode="&#xe6;" horiz-adv-x="694" 
d="M568 285q1 6 1 12q1 8 1 15q0 92 -83 92q-86 0 -113 -119h194zM289 238q-171 -35 -171 -133q0 -68 65 -68q56 0 125 76q-19 45 -19 105v20zM485 444q71 0 116 -45q43 -44 43 -112q0 -17 -5 -39h-271q-1 -10 -1 -30q0 -37 6 -67q7 -35 22 -60q36 -60 116 -60q71 0 126 59
l20 -25q-31 -36 -67 -55q-44 -22 -98 -22q-115 0 -171 96l-41 -38q-21 -18 -38 -29q-40 -26 -87 -26q-114 0 -114 105q0 70 70 114q61 39 178 58v29q0 113 -77 113q-26 0 -49 -15q-26 -18 -26 -44q0 -37 -35 -37q-36 0 -36 37q0 36 46 65q45 28 101 28q103 0 134 -65
q57 65 138 65z" />
    <glyph glyph-name="ccedilla" unicode="&#xe7;" horiz-adv-x="408" 
d="M210 -12q-84 6 -130 69q-42 58 -42 150q0 104 62 173q57 64 136 64q68 0 102 -28q28 -23 28 -57q0 -16 -10 -28q-13 -17 -36 -17q-40 0 -40 42q0 56 -44 56q-54 0 -86 -60q-30 -56 -30 -145q0 -79 30 -125q33 -51 98 -51q60 0 113 59l20 -25q-57 -67 -131 -75l-57 -58
q31 -2 56 -19q31 -22 31 -57q0 -47 -56 -75q-20 -10 -47 -17q-20 -6 -39 -8v22q87 19 87 68q0 31 -34 42q-31 11 -69 -1v13z" />
    <glyph glyph-name="egrave" unicode="&#xe8;" horiz-adv-x="443" 
d="M317 285q1 6 1 12q1 8 1 15q0 92 -83 92q-86 0 -113 -119h194zM91 54q-53 63 -53 164q0 99 61 164q57 62 135 62q71 0 116 -45q43 -44 43 -112q0 -17 -5 -39h-271q-1 -10 -1 -30q0 -37 6 -67q7 -35 22 -60q36 -60 116 -60q71 0 126 59l20 -25q-31 -36 -67 -55
q-44 -22 -98 -22q-94 0 -150 66zM151 557q-22 8 -22 30q0 30 30 30q17 0 42 -24l92 -87l-4 -7z" />
    <glyph glyph-name="eacute" unicode="&#xe9;" horiz-adv-x="443" 
d="M317 285q1 6 1 12q1 8 1 15q0 92 -83 92q-86 0 -113 -119h194zM91 54q-53 63 -53 164q0 99 61 164q57 62 135 62q71 0 116 -45q43 -44 43 -112q0 -17 -5 -39h-271q-1 -10 -1 -30q0 -37 6 -67q7 -35 22 -60q36 -60 116 -60q71 0 126 59l20 -25q-31 -36 -67 -55
q-44 -22 -98 -22q-94 0 -150 66zM150 506l92 87q26 24 42 24q30 0 30 -30q0 -22 -22 -30l-138 -58z" />
    <glyph glyph-name="ecircumflex" unicode="&#xea;" horiz-adv-x="443" 
d="M317 285q1 6 1 12q1 8 1 15q0 92 -83 92q-86 0 -113 -119h194zM91 54q-53 63 -53 164q0 99 61 164q57 62 135 62q71 0 116 -45q43 -44 43 -112q0 -17 -5 -39h-271q-1 -10 -1 -30q0 -37 6 -67q7 -35 22 -60q36 -60 116 -60q71 0 126 59l20 -25q-31 -36 -67 -55
q-44 -22 -98 -22q-94 0 -150 66zM102 513l119 130l119 -130l-13 -11l-106 76l-106 -76z" />
    <glyph glyph-name="edieresis" unicode="&#xeb;" horiz-adv-x="443" 
d="M317 285q1 6 1 12q1 8 1 15q0 92 -83 92q-86 0 -113 -119h194zM91 54q-53 63 -53 164q0 99 61 164q57 62 135 62q71 0 116 -45q43 -44 43 -112q0 -17 -5 -39h-271q-1 -10 -1 -30q0 -37 6 -67q7 -35 22 -60q36 -60 116 -60q71 0 126 59l20 -25q-31 -36 -67 -55
q-44 -22 -98 -22q-94 0 -150 66zM344 541q0 -39 -40 -39t-40 39q0 40 40 40t40 -40zM178 541q0 -39 -40 -39t-40 39q0 40 40 40t40 -40z" />
    <glyph glyph-name="igrave" unicode="&#xec;" horiz-adv-x="277" 
d="M32 20q50 0 63 21q13 20 13 96v148q0 76 -12 96q-13 21 -64 21v20l149 23v-308q0 -76 13 -96q13 -21 63 -21v-20h-225v20zM58 557q-22 8 -22 30q0 30 30 30q17 0 42 -24l92 -87l-4 -7z" />
    <glyph glyph-name="iacute" unicode="&#xed;" horiz-adv-x="277" 
d="M32 20q50 0 63 21q13 20 13 96v148q0 76 -12 96q-13 21 -64 21v20l149 23v-308q0 -76 13 -96q13 -21 63 -21v-20h-225v20zM57 506l92 87q26 24 42 24q30 0 30 -30q0 -22 -22 -30l-138 -58z" />
    <glyph glyph-name="icircumflex" unicode="&#xee;" horiz-adv-x="277" 
d="M32 20q50 0 63 21q13 20 13 96v148q0 76 -12 96q-13 21 -64 21v20l149 23v-308q0 -76 13 -96q13 -21 63 -21v-20h-225v20zM14 513l119 130l119 -130l-13 -11l-106 76l-106 -76z" />
    <glyph glyph-name="idieresis" unicode="&#xef;" horiz-adv-x="277" 
d="M32 20q50 0 63 21q13 20 13 96v148q0 76 -12 96q-13 21 -64 21v20l149 23v-308q0 -76 13 -96q13 -21 63 -21v-20h-225v20zM256 541q0 -39 -40 -39t-40 39q0 40 40 40t40 -40zM90 541q0 -39 -40 -39t-40 39q0 40 40 40t40 -40z" />
    <glyph glyph-name="eth" unicode="&#xf0;" horiz-adv-x="470" 
d="M356 216q0 90 -30 141q-31 53 -91 53t-92 -53q-29 -51 -29 -141q0 -194 121 -194t121 194zM214 519l-93 -56l-18 31l81 49q-34 27 -74 50l25 29q21 -12 41 -25q24 -15 46 -31l87 52l19 -31l-76 -45q1 0 2 -2l15 -12q9 -7 16 -14q19 -15 33 -29q36 -34 60 -67
q29 -41 43 -87q17 -53 17 -115q0 -101 -58 -167q-57 -65 -145 -65q-89 0 -146 65t-57 167t57 167t146 65q25 0 59 -12q-33 44 -80 83z" />
    <glyph glyph-name="ntilde" unicode="&#xf1;" horiz-adv-x="552" 
d="M32 20q50 0 63 21q13 20 13 96v148q0 77 -12 96q-12 21 -63 21v20l128 23q6 -13 13 -39q7 -32 7 -55q26 39 64 64q44 29 90 29q67 0 100 -48q30 -42 30 -114v-145q0 -76 13 -96q13 -21 63 -21v-20h-225v20q50 0 63 21q13 20 13 96v145q0 115 -82 115q-48 0 -87 -39
q-42 -41 -42 -98v-123q0 -76 13 -96q13 -21 63 -21v-20h-225v20zM301 514q-11 5 -31 18q-1 0 -2 1l-29 17q-17 8 -29 8q-32 0 -43 -48h-16q0 94 68 94q13 0 31 -8q11 -5 32 -18l15 -10l15 -8q17 -8 29 -8q32 0 43 48h16q0 -94 -68 -94q-13 0 -31 8z" />
    <glyph glyph-name="ograve" unicode="&#xf2;" horiz-adv-x="470" 
d="M89 49q-57 65 -57 167t57 167t146 65q88 0 145 -65q58 -66 58 -167t-58 -167q-57 -65 -145 -65q-89 0 -146 65zM155 557q-22 8 -22 30q0 30 30 30q17 0 42 -24l92 -87l-4 -7zM356 216q0 90 -30 141q-31 54 -91 54t-92 -54q-29 -51 -29 -141q0 -195 121 -195t121 195z" />
    <glyph glyph-name="oacute" unicode="&#xf3;" horiz-adv-x="470" 
d="M89 49q-57 65 -57 167t57 167t146 65q88 0 145 -65q58 -66 58 -167t-58 -167q-57 -65 -145 -65q-89 0 -146 65zM174 506l92 87q26 24 42 24q30 0 30 -30q0 -22 -22 -30l-138 -58zM356 216q0 90 -30 141q-31 54 -91 54t-92 -54q-29 -51 -29 -141q0 -195 121 -195t121 195z
" />
    <glyph glyph-name="ocircumflex" unicode="&#xf4;" horiz-adv-x="470" 
d="M89 49q-57 65 -57 167t57 167t146 65q88 0 145 -65q58 -66 58 -167t-58 -167q-57 -65 -145 -65q-89 0 -146 65zM116 513l119 130l119 -130l-13 -11l-106 76l-106 -76zM356 216q0 90 -30 141q-31 54 -91 54t-92 -54q-29 -51 -29 -141q0 -195 121 -195t121 195z" />
    <glyph glyph-name="otilde" unicode="&#xf5;" horiz-adv-x="470" 
d="M89 49q-57 65 -57 167t57 167t146 65q88 0 145 -65q58 -66 58 -167t-58 -167q-57 -65 -145 -65q-89 0 -146 65zM260 514q-11 5 -31 18q-1 0 -2 1l-29 17q-17 8 -29 8q-32 0 -43 -48h-16q0 94 68 94q13 0 31 -8q11 -5 32 -18l15 -10l15 -8q17 -8 29 -8q32 0 43 48h16
q0 -94 -68 -94q-13 0 -31 8zM356 216q0 90 -30 141q-31 54 -91 54t-92 -54q-29 -51 -29 -141q0 -195 121 -195t121 195z" />
    <glyph glyph-name="odieresis" unicode="&#xf6;" horiz-adv-x="470" 
d="M89 49q-57 65 -57 167t57 167t146 65q88 0 145 -65q58 -66 58 -167t-58 -167q-57 -65 -145 -65q-89 0 -146 65zM358 541q0 -39 -40 -39t-40 39q0 40 40 40t40 -40zM192 541q0 -39 -40 -39t-40 39q0 40 40 40t40 -40zM356 216q0 90 -30 141q-31 54 -91 54t-92 -54
q-29 -51 -29 -141q0 -195 121 -195t121 195z" />
    <glyph glyph-name="divide" unicode="&#xf7;" horiz-adv-x="430" 
d="M36 312h358v-44h-358v44zM168 153q0 49 46 49q49 0 49 -49q0 -48 -49 -48q-46 0 -46 48zM168 427q0 49 46 49q49 0 49 -49q0 -48 -49 -48q-46 0 -46 48z" />
    <glyph glyph-name="oslash" unicode="&#xf8;" horiz-adv-x="470" 
d="M300 388q-26 23 -65 23q-60 0 -92 -54q-29 -51 -29 -141q0 -94 31 -144zM170 43q28 -22 65 -22q121 0 121 195q0 93 -31 143zM350 411q88 -65 88 -195q0 -101 -58 -167q-57 -65 -145 -65q-44 0 -85 19l-21 -43l-32 14l23 47q-88 64 -88 195q0 102 57 167t146 65
q44 0 85 -19l21 43l32 -14z" />
    <glyph glyph-name="ugrave" unicode="&#xf9;" horiz-adv-x="540" 
d="M390 -13q-6 13 -13 40q-7 31 -7 54q-26 -39 -64 -64q-44 -29 -90 -29q-67 0 -100 48q-30 42 -30 114v145q0 76 -13 96q-13 21 -63 21v20h149v-282q0 -115 82 -115q48 0 87 39q42 41 42 98v123q0 76 -13 96q-13 21 -63 21v20h149v-285q0 -77 12 -96q12 -21 63 -21v-20z
M170 557q-22 8 -22 30q0 30 30 30q17 0 42 -24l92 -87l-4 -7z" />
    <glyph glyph-name="uacute" unicode="&#xfa;" horiz-adv-x="540" 
d="M390 -13q-6 13 -13 40q-7 31 -7 54q-26 -39 -64 -64q-44 -29 -90 -29q-67 0 -100 48q-30 42 -30 114v145q0 76 -13 96q-13 21 -63 21v20h149v-282q0 -115 82 -115q48 0 87 39q42 41 42 98v123q0 76 -13 96q-13 21 -63 21v20h149v-285q0 -77 12 -96q12 -21 63 -21v-20z
M199 506l92 87q26 24 42 24q30 0 30 -30q0 -22 -22 -30l-138 -58z" />
    <glyph glyph-name="ucircumflex" unicode="&#xfb;" horiz-adv-x="540" 
d="M390 -13q-6 13 -13 40q-7 31 -7 54q-26 -39 -64 -64q-44 -29 -90 -29q-67 0 -100 48q-30 42 -30 114v145q0 76 -13 96q-13 21 -63 21v20h149v-282q0 -115 82 -115q48 0 87 39q42 41 42 98v123q0 76 -13 96q-13 21 -63 21v20h149v-285q0 -77 12 -96q12 -21 63 -21v-20z
M141 513l119 130l119 -130l-13 -11l-106 76l-106 -76z" />
    <glyph glyph-name="udieresis" unicode="&#xfc;" horiz-adv-x="540" 
d="M390 -13q-6 13 -13 40q-7 31 -7 54q-26 -39 -64 -64q-44 -29 -90 -29q-67 0 -100 48q-30 42 -30 114v145q0 76 -13 96q-13 21 -63 21v20h149v-282q0 -115 82 -115q48 0 87 39q42 41 42 98v123q0 76 -13 96q-13 21 -63 21v20h149v-285q0 -77 12 -96q12 -21 63 -21v-20z
M383 541q0 -39 -40 -39t-40 39q0 40 40 40t40 -40zM217 541q0 -39 -40 -39t-40 39q0 40 40 40t40 -40z" />
    <glyph glyph-name="yacute" unicode="&#xfd;" horiz-adv-x="427" 
d="M66 -162q0 24 30 37q27 12 46 30q23 23 37 59l16 42l-134 341q-26 65 -82 65v20h204v-20q-39 0 -48 -13t6 -52l91 -242l92 242q25 65 -38 65v20h166v-20q-61 0 -87 -65l-186 -473q-17 -42 -39 -60q-17 -13 -38 -13q-36 0 -36 37zM166 506l92 87q26 24 42 24q30 0 30 -30
q0 -22 -22 -30l-138 -58z" />
    <glyph glyph-name="thorn" unicode="&#xfe;" horiz-adv-x="506" 
d="M360 85q26 49 26 131t-26 132q-30 56 -89 56q-84 0 -120 -102v-172q36 -102 120 -102q59 0 89 57zM151 -54q0 -75 13 -96q12 -21 58 -21v-20h-215v20q46 0 58 21q13 21 13 96v517q0 76 -12 96q-13 21 -64 21v20l149 24v-260q44 80 135 80q83 0 133 -63q49 -62 49 -165
t-49 -165q-50 -63 -133 -63q-90 0 -135 80v-122z" />
    <glyph glyph-name="ydieresis" unicode="&#xff;" horiz-adv-x="427" 
d="M66 -162q0 24 30 37q27 12 46 30q23 23 37 59l16 42l-134 341q-26 65 -82 65v20h204v-20q-39 0 -48 -13t6 -52l91 -242l92 242q25 65 -38 65v20h166v-20q-61 0 -87 -65l-186 -473q-17 -42 -39 -60q-17 -13 -38 -13q-36 0 -36 37zM345 541q0 -39 -40 -39t-40 39
q0 40 40 40t40 -40zM179 541q0 -39 -40 -39t-40 39q0 40 40 40t40 -40z" />
    <glyph glyph-name="dotlessi" unicode="&#x131;" horiz-adv-x="277" 
d="M32 20q50 0 63 21q13 20 13 96v148q0 76 -12 96q-13 21 -64 21v20l149 23v-308q0 -76 13 -96q13 -21 63 -21v-20h-225v20z" />
    <glyph glyph-name="Lslash" unicode="&#x141;" horiz-adv-x="500" 
d="M198 153q0 -77 14 -95q15 -21 76 -21h67q61 0 83 19q16 14 27 57l5 20h18l-8 -133h-451v21q61 0 76 21q14 19 14 96v126l-67 -51l-23 29l90 69v152q0 77 -14 96q-15 20 -76 20v21h259v-21q-61 0 -76 -20q-14 -19 -14 -96v-92l74 57l24 -29l-98 -75v-171z" />
    <glyph glyph-name="lslash" unicode="&#x142;" horiz-adv-x="266" 
d="M169 137q0 -75 13 -96q12 -21 58 -21v-20h-215v20q46 0 58 21q13 21 13 96v126l-61 -50l-23 29l84 70v151q0 76 -12 96q-13 21 -64 21v20l149 24v-251l66 55l24 -29l-90 -75v-187z" />
    <glyph glyph-name="OE" unicode="&#x152;" horiz-adv-x="808" 
d="M335 37q40 0 56 18q19 22 19 83v332q0 56 -21 76q-18 17 -60 17q-59 0 -101 -25q-37 -22 -60 -63q-21 -35 -30 -85q-8 -41 -8 -90t8 -90q9 -50 30 -85q23 -41 60 -63q42 -25 101 -25h6zM742 469h-19l-5 20q-11 42 -28 56q-23 18 -85 18h-116v-227h40q76 0 93 13
q18 14 18 76h21v-215h-21q0 62 -18 76q-17 13 -93 13h-40v-148q0 -76 14 -94q15 -20 76 -20h59q62 0 85 19q17 14 28 57l5 20h19l-8 -133h-437q-145 0 -221 88q-69 80 -69 212t69 212q76 88 221 88h403z" />
    <glyph glyph-name="oe" unicode="&#x153;" horiz-adv-x="761" 
d="M235 -16q-89 0 -146 65t-57 167t57 167t146 65q103 0 162 -89q60 85 155 85q71 0 116 -45q43 -44 43 -112q0 -17 -5 -39h-271q-1 -10 -1 -30q0 -37 6 -67q7 -35 22 -60q36 -60 116 -60q71 0 126 59l20 -25q-31 -36 -67 -55q-44 -22 -98 -22q-108 0 -163 83
q-62 -87 -161 -87zM635 285q1 6 1 12q1 8 1 15q0 92 -83 92q-86 0 -113 -119h194zM356 216q0 90 -30 141q-31 54 -91 54t-92 -54q-29 -51 -29 -141q0 -195 121 -195t121 195z" />
    <glyph glyph-name="Scaron" unicode="&#x160;" horiz-adv-x="460" 
d="M229 738l106 76l13 -11l-119 -130l-119 130l13 11zM48 201h20q2 -26 10 -52q11 -33 29 -58q22 -31 53 -47q36 -20 84 -20q117 0 117 104q0 40 -30 72q-27 27 -82 56l-86 43q-107 53 -107 164q0 64 44 108q45 46 113 46q36 0 66 -13q20 -8 48 -29q20 16 29 42h18v-193h-20
q-6 66 -39 106q-39 46 -105 46q-90 0 -90 -88q0 -65 116 -125l85 -43q53 -28 80 -72q24 -40 24 -85q0 -81 -52 -131q-51 -49 -129 -49q-49 0 -93 19q-16 6 -32 16l-23 14q-23 -19 -30 -44h-18v213z" />
    <glyph glyph-name="scaron" unicode="&#x161;" horiz-adv-x="371" 
d="M186 566l106 76l13 -11l-119 -130l-119 130l13 11zM38 146h20q4 -45 40 -81q41 -40 100 -40q75 0 75 70q0 46 -76 83l-69 34q-80 39 -80 120q0 49 39 81q37 31 91 31q36 0 66 -14q10 -5 20 -12l13 -11q9 12 13 32h17v-119h-20q-5 89 -104 89q-71 0 -71 -64q0 -42 77 -79
l61 -29q86 -41 86 -122q0 -56 -40 -92q-40 -35 -103 -35q-68 0 -117 47q-18 -16 -21 -42h-17v153z" />
    <glyph glyph-name="Ydieresis" unicode="&#x178;" horiz-adv-x="554" 
d="M148 21q61 0 76 21q14 19 14 96v104l-143 250q-30 53 -53 69q-26 18 -78 18v21h270v-21q-97 0 -54 -76l122 -216l124 216q24 43 15 59q-10 17 -69 17v21h223v-21q-58 0 -84 -20q-12 -10 -24 -27l-170 -290v-104q0 -77 14 -96q15 -21 76 -21v-21h-259v21zM425 713
q0 -39 -40 -39t-40 39q0 40 40 40t40 -40zM259 713q0 -39 -40 -39t-40 39q0 40 40 40t40 -40z" />
    <glyph glyph-name="Zcaron" unicode="&#x17d;" horiz-adv-x="484" 
d="M242 738l106 76l13 -11l-119 -130l-119 130l13 11zM29 23l299 540h-146q-64 0 -88 -18q-17 -14 -28 -56l-5 -20h-21l9 131h383v-12l-305 -551h185q64 0 88 19q17 14 28 57l5 20h21l-8 -133h-417v23z" />
    <glyph glyph-name="zcaron" unicode="&#x17e;" horiz-adv-x="374" 
d="M26 17l226 384h-61q-76 0 -101 -14q-20 -11 -30 -48l-6 -23h-20l9 116h298v-16l-225 -383h76q76 0 101 13q20 11 30 48l6 23h20l-9 -117h-314v17zM187 566l106 76l13 -11l-119 -130l-119 130l13 11z" />
    <glyph glyph-name="florin" unicode="&#x192;" horiz-adv-x="288" 
d="M-74 -151q-4 41 39 41q25 0 36 -26q8 -23 30 -23q40 0 54 149l27 308h-80l3 35h81l6 80q7 96 54 154q44 55 103 55q69 0 73 -48q3 -41 -39 -41q-14 0 -24 9q-4 3 -7 8l-5 9q-11 23 -31 23q-26 0 -36 -27q-11 -27 -17 -111l-10 -111h100l-3 -35h-100l-26 -298
q-10 -101 -55 -153q-40 -46 -100 -46q-70 0 -73 48z" />
    <glyph glyph-name="circumflex" unicode="&#x2c6;" horiz-adv-x="300" 
d="M31 513l119 130l119 -130l-13 -11l-106 76l-106 -76z" />
    <glyph glyph-name="caron" unicode="&#x2c7;" horiz-adv-x="300" 
d="M150 566l106 76l13 -11l-119 -130l-119 130l13 11z" />
    <glyph glyph-name="breve" unicode="&#x2d8;" horiz-adv-x="300" 
d="M63 592h16q17 -48 71 -48q56 0 71 48h16q0 -90 -87 -90t-87 90z" />
    <glyph glyph-name="dotaccent" unicode="&#x2d9;" horiz-adv-x="300" 
d="M190 541q0 -39 -40 -39t-40 39q0 40 40 40t40 -40z" />
    <glyph glyph-name="ring" unicode="&#x2da;" horiz-adv-x="300" 
d="M233 584q0 -82 -83 -82t-83 82q0 83 83 83t83 -83zM101 584q0 -48 49 -48t49 48q0 49 -49 49t-49 -49z" />
    <glyph glyph-name="ogonek" unicode="&#x2db;" horiz-adv-x="300" 
d="M27 -65q0 36 34 60q33 24 69 13l8 -1l-5 -13h-7q-52 0 -52 -42q0 -45 42 -45q30 0 41 23l7 15l8 -22q-8 -58 -75 -58q-70 0 -70 70z" />
    <glyph glyph-name="tilde" unicode="&#x2dc;" horiz-adv-x="300" 
d="M175 514q-11 5 -31 18q-1 0 -2 1l-29 17q-17 8 -29 8q-32 0 -43 -48h-16q0 94 68 94q13 0 31 -8q11 -5 32 -18l15 -10l15 -8q17 -8 29 -8q32 0 43 48h16q0 -94 -68 -94q-13 0 -31 8z" />
    <glyph glyph-name="hungarumlaut" unicode="&#x2dd;" horiz-adv-x="300" 
d="M119 508l93 87q26 24 45 24q28 0 28 -28q0 -22 -23 -31l-138 -59zM2 508l93 87q26 24 45 24q28 0 28 -28q0 -22 -23 -31l-138 -59z" />
    <glyph glyph-name="Delta" unicode="&#x394;" horiz-adv-x="529" 
d="M410 43l-155 442l-162 -442h317zM259 617h21l218 -617h-467z" />
    <glyph glyph-name="Omega" unicode="&#x3a9;" horiz-adv-x="527" 
d="M53 158h24l3 -20q6 -44 21 -59q18 -17 67 -17h17v109q-141 57 -141 207q0 91 59 156q63 69 161 69t160 -69q59 -65 59 -156q0 -150 -141 -206v-110h17q50 0 67 17q15 15 21 59l3 20h24l-6 -158h-164v204q55 16 82 73q21 44 21 104q0 32 -6 62q-7 34 -22 59
q-37 62 -115 62t-116 -62q-15 -25 -23 -59q-6 -30 -6 -62q0 -60 21 -104q27 -57 82 -73v-204h-163z" />
    <glyph glyph-name="pi" unicode="&#x3c0;" horiz-adv-x="535" 
d="M88 29l7 27q3 -5 7 -10l10 -11q6 -6 11 -10q6 -4 10 -4q24 0 27 48l22 299h-57q-35 0 -46 -21q-8 -16 -1 -42l-20 -5q-26 55 -4 94q21 38 75 38h318q35 0 45 21q8 17 1 43l21 5q25 -56 3 -95q-21 -38 -75 -38h-59v-290q0 -49 22 -49q9 0 23 10q13 9 19 17l4 -27
q-31 -41 -68 -41q-64 0 -64 81v299h-97l-22 -299q-6 -81 -57 -81q-31 0 -55 41z" />
    <glyph glyph-name="endash" unicode="&#x2013;" horiz-adv-x="377" 
d="M-5 270h386v-40h-386v40z" />
    <glyph glyph-name="emdash" unicode="&#x2014;" horiz-adv-x="609" 
d="M-5 270h618v-40h-618v40z" />
    <glyph glyph-name="quoteleft" unicode="&#x2018;" horiz-adv-x="223" 
d="M160 607q-45 -49 -54 -107q1 1 4 1h3q46 0 46 -47q0 -46 -47 -46q-50 0 -50 61q0 36 22 76q24 47 66 73z" />
    <glyph glyph-name="quoteright" unicode="&#x2019;" horiz-adv-x="223" 
d="M63 418q45 49 54 107q-1 -1 -4 -1h-3q-46 0 -46 47q0 46 47 46q50 0 50 -61q0 -36 -21 -76q-25 -47 -67 -73z" />
    <glyph glyph-name="quotesinglbase" unicode="&#x201a;" horiz-adv-x="223" 
d="M63 -102q45 49 54 107q-1 -1 -4 -1h-3q-46 0 -46 47q0 46 47 46q50 0 50 -61q0 -36 -21 -76q-25 -47 -67 -73z" />
    <glyph glyph-name="quotedblleft" unicode="&#x201c;" horiz-adv-x="375" 
d="M312 607q-45 -49 -54 -107q1 1 4 1h3q46 0 46 -47q0 -46 -47 -46q-50 0 -50 61q0 36 22 76q24 47 66 73zM160 607q-45 -49 -54 -107q1 1 4 1h3q46 0 46 -47q0 -46 -47 -46q-50 0 -50 61q0 36 22 76q24 47 66 73z" />
    <glyph glyph-name="quotedblright" unicode="&#x201d;" horiz-adv-x="375" 
d="M215 418q45 49 54 107q-1 -1 -4 -1h-3q-46 0 -46 47q0 46 47 46q50 0 50 -61q0 -36 -21 -76q-25 -47 -67 -73zM63 418q45 49 54 107q-1 -1 -4 -1h-3q-46 0 -46 47q0 46 47 46q50 0 50 -61q0 -36 -21 -76q-25 -47 -67 -73z" />
    <glyph glyph-name="quotedblbase" unicode="&#x201e;" horiz-adv-x="375" 
d="M215 -102q45 49 54 107q-1 -1 -4 -1h-3q-46 0 -46 47q0 46 47 46q50 0 50 -61q0 -36 -21 -76q-25 -47 -67 -73zM63 -102q45 49 54 107q-1 -1 -4 -1h-3q-46 0 -46 47q0 46 47 46q50 0 50 -61q0 -36 -21 -76q-25 -47 -67 -73z" />
    <glyph glyph-name="dagger" unicode="&#x2020;" horiz-adv-x="410" 
d="M164 218l29 217l-89 -29q-20 -7 -38 7q-17 14 -17 37t18 36q17 13 37 7l90 -28l-33 97q-6 20 7 38q14 17 37 17t37 -17q13 -18 7 -38l-32 -97l88 28q20 7 38 -6q18 -14 18 -37t-18 -37t-38 -7l-87 28l28 -216l-34 -415h-14z" />
    <glyph glyph-name="daggerdbl" unicode="&#x2021;" horiz-adv-x="410" 
d="M168 -178q-13 17 -7 37l33 97l-90 -29q-20 -7 -38 7q-17 14 -17 37t17 37q18 14 38 7l89 -29l-27 224l27 225l-89 -30q-20 -7 -38 8q-17 14 -17 37t17 36q18 14 38 7l90 -29l-33 98q-7 20 7 37q14 18 37 18t37 -18q13 -17 7 -37l-32 -98l88 29q20 7 38 -7t18 -36
q0 -23 -18 -37q-18 -15 -38 -8l-87 29l26 -223l-26 -224l87 28q20 7 38 -7t18 -37q0 -22 -18 -37q-18 -14 -38 -7l-88 29l32 -97q6 -20 -7 -37q-14 -18 -37 -18t-37 18z" />
    <glyph glyph-name="bullet" unicode="&#x2022;" horiz-adv-x="242" 
d="M44 289q0 77 77 77t77 -77q0 -76 -77 -76t-77 76z" />
    <glyph glyph-name="ellipsis" unicode="&#x2026;" horiz-adv-x="801" 
d="M83 44q0 52 52 52t52 -52t-52 -52t-52 52zM350 44q0 52 52 52t52 -52t-52 -52t-52 52zM617 44q0 52 52 52t52 -52t-52 -52t-52 52z" />
    <glyph glyph-name="perthousand" unicode="&#x2030;" horiz-adv-x="927" 
d="M104 0l383 618l36 -18l-383 -618zM78 372q-36 42 -36 101q0 60 36 102t89 42t89 -42q35 -42 35 -102q0 -59 -35 -101q-36 -42 -89 -42t-89 42zM214 394q14 29 14 79t-14 80q-15 34 -47 34t-49 -34q-14 -30 -14 -80q0 -49 14 -79q17 -34 49 -34t47 34zM671 26
q-36 42 -36 101q0 60 36 102t89 42t89 -42q35 -42 35 -102q0 -59 -35 -101q-36 -42 -89 -42t-89 42zM807 48q14 29 14 79t-14 80q-15 34 -47 34t-49 -34q-14 -30 -14 -80q0 -49 14 -79q17 -34 49 -34t47 34zM371 26q-36 42 -36 101q0 60 36 102t89 42t89 -42q35 -42 35 -102
q0 -59 -35 -101q-36 -42 -89 -42t-89 42zM507 48q14 29 14 79t-14 80q-15 34 -47 34t-49 -34q-14 -30 -14 -80q0 -49 14 -79q17 -34 49 -34t47 34z" />
    <glyph glyph-name="guilsinglleft" unicode="&#x2039;" horiz-adv-x="326" 
d="M43 251l227 198l14 -19l-155 -180l155 -179l-14 -19z" />
    <glyph glyph-name="guilsinglright" unicode="&#x203a;" horiz-adv-x="326" 
d="M42 71l155 179l-155 180l14 19l227 -198l-227 -199z" />
    <glyph glyph-name="fraction" unicode="&#x2044;" horiz-adv-x="141" 
d="M-139 0l383 618l36 -18l-383 -618z" />
    <glyph glyph-name="uni2070" unicode="&#x2070;" horiz-adv-x="329" 
d="M80 392q-36 50 -36 124t36 124q35 47 84 47q50 0 85 -47q37 -49 37 -124t-37 -124q-35 -47 -85 -47q-49 0 -84 47zM116 417q14 -43 48 -43t49 43q11 34 11 99t-11 99q-15 44 -49 44t-48 -44q-10 -33 -10 -99t10 -99z" />
    <glyph glyph-name="uni2074" unicode="&#x2074;" horiz-adv-x="326" 
d="M65 469h91v126zM210 469q33 0 44 8q9 5 16 28l4 13h15l-6 -76h-73v-13q0 -38 9 -48q10 -10 45 -10v-19h-162v19q35 0 45 10q9 10 9 48v13h-129v14l167 231h16v-218z" />
    <glyph glyph-name="uni2075" unicode="&#x2075;" horiz-adv-x="300" 
d="M226 535q31 -31 31 -79q0 -46 -34 -79q-35 -32 -83 -32q-40 0 -69 22q-25 19 -25 38q0 20 20 20q7 0 13 -8l8 -13q1 -3 3 -5l7 -10l10 -8q14 -8 33 -8q57 0 57 83q0 82 -57 82q-54 0 -63 -51h-24l18 191h172l-11 -52h-139l-7 -79q23 20 59 20q49 0 81 -32z" />
    <glyph glyph-name="uni2076" unicode="&#x2076;" horiz-adv-x="312" 
d="M256 641q0 -20 -20 -20q-7 0 -14 6l-18 21l-8 6q-11 6 -25 6q-39 0 -55 -36q-6 -16 -10 -40q-2 -17 -4 -48q29 25 70 25q99 0 99 -107q0 -48 -34 -79q-32 -30 -79 -30q-43 0 -73 29q-41 40 -41 125q0 77 30 129q35 59 97 59q85 0 85 -46zM213 454q0 35 -10 55
q-13 25 -42 25q-48 0 -60 -36q0 -69 18 -100q14 -26 39 -26q55 0 55 82z" />
    <glyph glyph-name="uni2077" unicode="&#x2077;" horiz-adv-x="266" 
d="M76 371q0 27 19 61l107 194h-90q-33 0 -45 -10q-8 -6 -15 -28l-4 -13h-17l18 103h191v-19l-73 -170q-29 -67 -35 -107t-31 -40t-25 29z" />
    <glyph glyph-name="uni2078" unicode="&#x2078;" horiz-adv-x="321" 
d="M65 495q17 18 51 31q-53 35 -53 82q0 34 30 57q28 22 69 22q40 0 68 -22t28 -53q0 -44 -62 -72q38 -18 57 -38q24 -26 24 -63q0 -41 -34 -68q-34 -26 -83 -26q-48 0 -82 26t-34 64q0 37 21 60zM162 661q-45 0 -45 -45q0 -22 16 -38q11 -11 37 -26q36 23 36 64
q0 45 -44 45zM199 479q-11 8 -27 18l-30 16q-44 -28 -44 -78q0 -63 62 -63q65 0 65 59q0 27 -26 48z" />
    <glyph glyph-name="uni2079" unicode="&#x2079;" horiz-adv-x="312" 
d="M56 391q0 20 20 20q7 0 14 -6l18 -21l8 -6q11 -6 25 -6q39 0 55 37q6 15 10 39q2 17 4 48q-29 -25 -70 -25q-99 0 -99 107q0 48 34 79q32 30 79 30q43 0 73 -29q41 -40 41 -125q0 -77 -30 -128q-35 -60 -97 -60q-85 0 -85 46zM99 578q0 -35 10 -55q13 -25 42 -25
q48 0 60 36q0 69 -18 101q-14 25 -39 25q-55 0 -55 -82z" />
    <glyph glyph-name="uni2080" unicode="&#x2080;" horiz-adv-x="329" 
d="M80 -70q-36 50 -36 124t36 124q35 47 84 47q50 0 85 -47q37 -49 37 -124t-37 -124q-35 -47 -85 -47q-49 0 -84 47zM116 -45q14 -43 48 -43t49 43q11 34 11 99t-11 99q-15 44 -49 44t-48 -44q-10 -33 -10 -99t10 -99z" />
    <glyph glyph-name="uni2081" unicode="&#x2081;" horiz-adv-x="237" 
d="M208 -110h-168v19q56 0 56 58v168q0 35 -17 46q-12 8 -47 8v16l120 20v-258q0 -58 56 -58v-19z" />
    <glyph glyph-name="uni2082" unicode="&#x2082;" horiz-adv-x="302" 
d="M131 14q29 36 43 68q12 27 12 50q0 66 -50 66q-47 0 -47 -46q0 -16 13 -33l-16 -17q-46 19 -46 55q0 68 98 68q108 0 108 -89q0 -30 -20 -61q-15 -23 -55 -67l-70 -76h79q52 0 64 41h17l-16 -83h-202v18z" />
    <glyph glyph-name="uni2083" unicode="&#x2083;" horiz-adv-x="308" 
d="M116 24q-5 4 -5 11q0 9 16 22l24 18q46 35 46 75q0 48 -51 48q-50 0 -50 -46q0 -18 10 -31l-19 -16q-40 16 -40 49q0 71 99 71q45 0 75 -19q33 -21 33 -54q0 -26 -18 -48q-7 -8 -17 -16l-35 -26q80 -18 80 -86q0 -38 -32 -65q-32 -28 -80 -28t-80 22q-27 18 -27 37
q0 21 20 21q8 0 15 -12l7 -11q4 -7 8 -11t8 -6q5 -4 11 -6q14 -7 33 -7q56 0 56 66q0 57 -45 68l-16 -15q-9 -9 -16 -9q-5 0 -10 4z" />
    <glyph glyph-name="uni2084" unicode="&#x2084;" horiz-adv-x="326" 
d="M65 7h91v126zM210 7q33 0 45 8q8 6 15 28l4 13h15l-6 -76h-73v-13q0 -38 9 -48q10 -10 45 -10v-19h-162v19q35 0 45 10q9 10 9 48v13h-129v14l167 231h16v-218z" />
    <glyph glyph-name="uni2085" unicode="&#x2085;" horiz-adv-x="300" 
d="M226 73q31 -31 31 -79q0 -46 -34 -79q-35 -32 -83 -32q-40 0 -69 22q-25 19 -25 38q0 20 20 20q7 0 13 -8l8 -13q1 -3 3 -5l7 -10l10 -8q14 -8 33 -8q57 0 57 83q0 82 -57 82q-54 0 -63 -51h-24l18 191h172l-11 -52h-139l-7 -79q23 20 59 20q49 0 81 -32z" />
    <glyph glyph-name="uni2086" unicode="&#x2086;" horiz-adv-x="312" 
d="M256 179q0 -20 -20 -20q-7 0 -14 6l-18 21l-8 6q-11 6 -25 6q-39 0 -55 -36q-6 -16 -10 -40q-2 -17 -4 -48q29 25 70 25q99 0 99 -107q0 -48 -34 -79q-32 -30 -79 -30q-43 0 -73 29q-41 40 -41 125q0 77 30 129q35 59 97 59q85 0 85 -46zM213 -8q0 35 -10 55
q-13 25 -42 25q-48 0 -60 -36q0 -69 18 -100q14 -26 39 -26q55 0 55 82z" />
    <glyph glyph-name="uni2087" unicode="&#x2087;" horiz-adv-x="266" 
d="M76 -91q0 27 19 61l107 194h-90q-33 0 -46 -10q-8 -7 -14 -28l-4 -13h-17l18 103h191v-19l-73 -170q-29 -67 -35 -107t-31 -40t-25 29z" />
    <glyph glyph-name="uni2088" unicode="&#x2088;" horiz-adv-x="321" 
d="M65 33q17 18 51 31q-53 35 -53 82q0 34 30 57q28 22 69 22q40 0 68 -22t28 -53q0 -44 -62 -72q38 -18 57 -38q24 -26 24 -63q0 -41 -34 -68q-34 -26 -83 -26q-48 0 -82 26t-34 64q0 37 21 60zM162 199q-45 0 -45 -45q0 -22 16 -38q11 -11 37 -26q36 23 36 64q0 45 -44 45
zM199 17q-11 8 -27 18l-30 16q-44 -28 -44 -78q0 -63 62 -63q65 0 65 59q0 27 -26 48z" />
    <glyph glyph-name="uni2089" unicode="&#x2089;" horiz-adv-x="312" 
d="M56 -71q0 20 20 20q7 0 14 -6l18 -21l8 -6q11 -6 25 -6q39 0 55 37q6 15 10 39q2 17 4 48q-29 -25 -70 -25q-99 0 -99 107q0 48 34 79q32 30 79 30q43 0 73 -29q41 -40 41 -125q0 -77 -30 -128q-35 -60 -97 -60q-85 0 -85 46zM99 116q0 -35 10 -55q13 -25 42 -25
q48 0 60 36q0 69 -18 101q-14 25 -39 25q-55 0 -55 -82z" />
    <glyph glyph-name="Euro" unicode="&#x20ac;" horiz-adv-x="526" 
d="M156 50q-57 66 -74 178h-58v35h54l-1 37q0 25 1 37h-54v35h58q17 112 74 178q58 67 140 67q77 0 130 -72q23 19 28 52h20v-207h-21q-35 184 -150 184q-116 0 -138 -202h178v-35h-180q-1 -12 -1 -37t1 -37h180v-35h-178q20 -201 138 -201q114 0 150 183h21v-208h-20
q-6 35 -28 53q-51 -72 -130 -72q-82 0 -140 67z" />
    <glyph glyph-name="trademark" unicode="&#x2122;" horiz-adv-x="885" 
d="M79 243q43 0 55 18q13 19 13 83v224h-18q-54 0 -71 -13q-7 -6 -12 -17l-12 -44h-17l6 106h304l7 -106h-19l-4 19q-8 34 -19 43q-16 12 -71 12h-17v-224q0 -64 13 -83q12 -18 56 -18v-17h-194v17zM475 526v-182q0 -66 10 -83q11 -18 54 -18v-17h-165v17q44 0 56 18
q13 19 13 83v138q0 64 -13 83q-12 18 -56 18v17h132l117 -282l118 282h119v-17q-43 0 -55 -18q-12 -19 -12 -83v-138q0 -64 12 -83q12 -18 55 -18v-17h-188v17q42 0 53 18q10 17 10 83v169l-121 -291h-12z" />
    <glyph glyph-name="partialdiff" unicode="&#x2202;" horiz-adv-x="485" 
d="M408 126q-23 -52 -59 -86q-31 -29 -69 -43q-32 -11 -64 -11q-81 0 -132 57q-52 58 -42 146q9 89 67 141q56 50 138 50t121 -58q3 58 1 100q-2 49 -13 82q-25 77 -101 77q-26 0 -46 -11q-14 -8 -30 -25l-23 -25q-12 -11 -25 -11q-26 0 -24 29t46 53q46 26 106 26
q108 0 156 -110q43 -96 28 -238q-9 -82 -35 -143zM322 320q-34 22 -74 22q-57 0 -90 -49q-29 -41 -35 -108q-8 -71 15 -114q26 -47 82 -47q48 0 83 49q22 29 36 75q16 50 24 119q-6 31 -41 53z" />
    <glyph glyph-name="product" unicode="&#x220f;" horiz-adv-x="644" 
d="M24 21q62 0 79 21q16 21 16 96v325q0 75 -16 96q-17 20 -79 20v21h596v-21q-62 0 -79 -20q-17 -21 -17 -96v-325q0 -75 17 -96t79 -21v-21h-266v21q62 0 79 21q16 21 16 96v418h-255v-418q0 -75 17 -96t79 -21v-21h-266v21z" />
    <glyph glyph-name="summation" unicode="&#x2211;" horiz-adv-x="540" 
d="M35 -153l240 386l-238 350v17h452l9 -132h-21l-5 20q-11 43 -28 56q-24 19 -88 19h-228l234 -344l-219 -352h238q64 0 88 19q17 13 28 56l5 20h21l-9 -132h-479v17z" />
    <glyph glyph-name="minus" unicode="&#x2212;" horiz-adv-x="430" 
d="M66 311h298v-44h-298v44z" />
    <glyph glyph-name="radical" unicode="&#x221a;" horiz-adv-x="421" 
d="M21 268l55 26l83 -205l242 652h41l-284 -763h-15z" />
    <glyph glyph-name="infinity" unicode="&#x221e;" horiz-adv-x="685" 
d="M68 196q-36 37 -36 92q0 56 36 93q38 38 99 38q37 0 91 -34q44 -27 85 -67q38 39 84 67q54 34 92 34q60 0 98 -38q37 -37 37 -93q0 -55 -37 -92q-38 -38 -98 -38q-38 0 -92 33q-46 28 -84 67q-40 -39 -85 -67q-54 -33 -91 -33q-61 0 -99 38zM238 233q17 11 37 27
q14 12 31 28q-39 37 -69 57q-42 28 -73 28q-82 0 -82 -85q0 -35 23 -59q24 -26 59 -26q30 0 74 30zM581 229q23 24 23 59q0 85 -82 85q-31 0 -74 -28q-31 -21 -69 -57q17 -16 31 -28q20 -16 37 -27q45 -30 75 -30q35 0 59 26z" />
    <glyph glyph-name="integral" unicode="&#x222b;" horiz-adv-x="233" 
d="M-79 -152q0 47 44 47q13 0 22 -8q4 -3 8 -8l9 -14q1 -2 3 -4q3 -5 7 -8q9 -8 21 -8q24 0 31 36q5 30 5 142v407q0 116 51 174q42 48 108 48q64 0 64 -47t-44 -47q-13 0 -22 8q-4 3 -8 8l-9 14q-1 2 -3 4q-3 5 -7 8q-9 8 -21 8q-24 0 -31 -36q-5 -30 -5 -142v-407
q0 -116 -51 -174q-42 -48 -108 -48q-64 0 -64 47z" />
    <glyph glyph-name="approxequal" unicode="&#x2248;" horiz-adv-x="420" 
d="M71 356q0 3 21 17q12 7 23 11q15 5 28 5q17 0 36 -5l66 -23q17 -5 31 -5q13 0 27 5q12 4 23 12q22 13 22 16v-45q0 -3 -21 -16q-12 -8 -23 -12q-15 -5 -28 -5q-17 0 -36 5l-66 23q-17 5 -31 5q-13 0 -27 -5q-12 -4 -23 -11q-22 -14 -22 -17v45zM71 231q0 3 21 17
q12 7 23 11q15 5 28 5q17 0 36 -5l66 -23q17 -5 31 -5q13 0 27 5q12 4 23 12q22 13 22 16v-45q0 -3 -21 -16q-12 -8 -23 -12q-15 -5 -28 -5q-17 0 -36 5l-66 23q-17 5 -31 5q-13 0 -27 -5q-12 -4 -23 -11q-22 -14 -22 -17v45z" />
    <glyph glyph-name="notequal" unicode="&#x2260;" horiz-adv-x="430" 
d="M72 118l61 87h-64v45h96l56 80h-152v45h184l76 108l29 -22l-61 -86h64v-45h-96l-56 -80h152v-45h-184l-76 -108z" />
    <glyph glyph-name="lessequal" unicode="&#x2264;" horiz-adv-x="400" 
d="M36 268l307 165l12 -33l-234 -132l234 -132l-12 -34zM21 0v39h358v-39h-358z" />
    <glyph glyph-name="greaterequal" unicode="&#x2265;" horiz-adv-x="400" 
d="M45 136l234 132l-234 132l12 33l307 -165l-307 -166zM21 39h358v-39h-358v39z" />
    <glyph glyph-name="lozenge" unicode="&#x25ca;" horiz-adv-x="466" 
d="M44 295l192 331l192 -331l-192 -341zM379 296l-143 251l-144 -251l144 -262z" />
    <glyph glyph-name="uniF6F9" unicode="&#xf6f9;" horiz-adv-x="431" 
d="M180 119q0 -54 10 -68q11 -15 55 -15h62q43 0 61 18q7 7 12 19l4 11l8 32h19l-7 -116h-370v20q47 0 60 20q11 17 11 73v74l-53 -39l-20 27l73 54v135q0 56 -11 72q-13 20 -60 20v20h218v-20q-48 0 -61 -20q-11 -16 -11 -72v-78l65 48l21 -27l-86 -64v-124z" />
    <glyph glyph-name="uniF6FA" unicode="&#xf6fa;" horiz-adv-x="664" 
d="M273 34q52 0 52 71v272q0 65 -57 65q-84 0 -122 -69q-16 -28 -23 -66q-6 -32 -6 -69t6 -69q7 -38 23 -66q38 -69 122 -69h5zM601 361h-19l-5 21q-7 31 -20 43q-18 17 -62 17h-95v-174h34q54 0 68 12t14 61h21v-179h-21q0 48 -14 60t-68 12h-34v-119q0 -54 10 -67
q11 -14 55 -14h56q43 0 62 18q7 8 12 20q4 8 8 24l5 20h19l-6 -116h-352q-118 0 -180 70q-56 63 -56 168t56 168q62 70 180 70h325z" />
    <glyph glyph-name="uniF6FD" unicode="&#xf6fd;" horiz-adv-x="399" 
d="M69 165q5 -50 34 -88q40 -52 108 -52q88 0 88 77q0 54 -87 96l-68 33q-89 42 -89 133q0 51 37 88q38 37 94 37q33 0 61 -13q11 -5 21 -13l17 -13q10 8 20 39h15v-159h-19q-6 52 -33 85q-31 36 -81 36q-70 0 -70 -62q0 -51 90 -96l68 -34q44 -22 66 -58q20 -32 20 -68
q0 -65 -43 -106q-42 -40 -107 -40q-43 0 -79 17q-13 6 -26 15q-5 3 -10 7l-9 7q-18 -18 -23 -42h-15v174h20zM198 610l106 76l13 -11l-119 -130l-119 130l13 11z" />
    <glyph glyph-name="uniF6FF" unicode="&#xf6ff;" horiz-adv-x="418" 
d="M272 440h-120q-46 0 -65 -16q-13 -11 -20 -42l-5 -21h-19l7 115h317v-17l-244 -423h151q45 0 65 18q13 12 20 42l5 20h20l-7 -116h-343v27zM212 610l106 76l13 -11l-119 -130l-119 130l13 11z" />
    <glyph glyph-name="uniF761" unicode="&#xf761;" horiz-adv-x="465" 
d="M97 79q-22 -59 57 -59v-20h-179v20q42 0 60 17q12 12 30 56l156 389h25l155 -389q18 -44 30 -56q18 -17 60 -17v-20h-225v20q84 0 59 59l-33 85h-161zM144 196h135l-66 172z" />
    <glyph glyph-name="uniF762" unicode="&#xf762;" horiz-adv-x="448" 
d="M34 20q47 0 60 20q11 17 11 73v251q0 56 -11 72q-13 20 -60 20v20h191q76 0 119 -35q40 -32 40 -84q0 -61 -52 -97q88 -35 88 -124q0 -59 -43 -96q-47 -40 -130 -40h-213v20zM221 269q85 0 85 88q0 87 -81 87h-45v-175h41zM251 32q45 0 69 33q21 28 21 71t-21 70
q-24 31 -69 31h-71v-123q0 -54 10 -67q11 -15 55 -15h6z" />
    <glyph glyph-name="uniF763" unicode="&#xf763;" horiz-adv-x="502" 
d="M108 415q63 74 158 74q46 0 83 -18q32 -16 56 -43q13 10 21 41h17v-174h-19q-34 154 -151 154q-75 0 -113 -71q-30 -57 -30 -140t30 -140q38 -71 113 -71q117 0 151 154h19v-174h-17q-7 27 -21 41q-26 -28 -57 -43q-37 -18 -82 -18q-95 0 -158 74q-62 72 -62 177t62 177z
" />
    <glyph glyph-name="uniF764" unicode="&#xf764;" horiz-adv-x="527" 
d="M34 20q47 0 60 20q11 17 11 73v251q0 56 -11 72q-13 20 -60 20v20h215q113 0 176 -70q57 -64 57 -168t-57 -168q-63 -70 -176 -70h-215v20zM250 34q80 0 118 69q16 29 23 66q7 33 7 69t-7 69q-7 37 -23 66q-38 69 -118 69h-70v-325q0 -54 10 -68q11 -15 54 -15h6z" />
    <glyph glyph-name="uniF765" unicode="&#xf765;" horiz-adv-x="444" 
d="M34 20q48 0 60 15q11 14 11 68v261q0 56 -11 72q-13 20 -60 20v20h340l7 -115h-19l-5 21q-7 31 -20 43q-18 17 -62 17h-95v-174h34q54 0 68 12t14 61h21v-179h-21q0 48 -14 60t-68 12h-34v-119q0 -54 10 -67q11 -14 55 -14h56q43 0 62 18q7 8 12 20q4 8 8 24l5 20h19
l-6 -116h-367v20z" />
    <glyph glyph-name="uniF766" unicode="&#xf766;" horiz-adv-x="418" 
d="M34 20q47 0 60 20q11 17 11 73v251q0 56 -11 72q-13 20 -60 20v20h353l6 -115h-19l-5 21q-7 32 -19 43q-17 17 -61 17h-109v-174h23q56 0 72 13q18 14 18 62h21v-183h-21q0 48 -18 62q-16 12 -72 12h-23v-121q0 -56 11 -73q13 -20 61 -20v-20h-218v20z" />
    <glyph glyph-name="uniF767" unicode="&#xf767;" horiz-adv-x="524" 
d="M109 415q63 74 159 74q42 0 78 -18q30 -15 54 -43q6 6 12 16q7 13 9 25h17v-174h-19q-34 154 -144 154q-75 0 -114 -71q-31 -58 -31 -140q0 -38 6 -72q8 -39 23 -69q38 -72 116 -72q104 0 104 107q0 53 -62 53v20h185v-20q-35 0 -45 -20q-10 -18 -10 -73v-60
q-28 0 -53 -7l-77 -31q-22 -7 -47 -7q-96 0 -161 74q-63 72 -63 177t63 177z" />
    <glyph glyph-name="uniF768" unicode="&#xf768;" horiz-adv-x="580" 
d="M34 20q47 0 60 20q11 17 11 73v251q0 56 -11 72q-13 20 -60 20v20h218v-20q-48 0 -61 -20q-11 -16 -11 -72v-94h219v94q0 56 -11 72q-13 20 -61 20v20h219v-20q-48 0 -61 -20q-11 -15 -11 -72v-251q0 -57 11 -73q13 -20 61 -20v-20h-219v20q48 0 61 20q11 17 11 73v121
h-219v-121q0 -56 11 -73q13 -20 61 -20v-20h-218v20z" />
    <glyph glyph-name="uniF769" unicode="&#xf769;" horiz-adv-x="286" 
d="M34 20q47 0 60 20q11 17 11 73v251q0 56 -11 72q-13 20 -60 20v20h218v-20q-48 0 -61 -20q-11 -16 -11 -72v-251q0 -56 11 -73q13 -20 61 -20v-20h-218v20z" />
    <glyph glyph-name="uniF76A" unicode="&#xf76a;" horiz-adv-x="281" 
d="M24 -67q11 0 18 -6l6 -7q2 -2 5 -7t5 -7l6 -7q7 -6 17 -6q19 0 22 35q1 15 1 49q-1 7 -1 17v370q0 56 -10 72q-13 20 -61 20v20h217v-20q-48 0 -61 -20q-10 -16 -10 -72v-315q0 -106 -43 -158q-37 -44 -95 -44q-59 0 -59 45q0 41 43 41z" />
    <glyph glyph-name="uniF76B" unicode="&#xf76b;" horiz-adv-x="543" 
d="M431 73q47 -53 100 -53v-20h-223v20q72 0 35 43l-144 170l-19 -17v-103q0 -56 11 -73q13 -20 61 -20v-20h-218v20q47 0 60 20q11 17 11 73v251q0 56 -11 72q-13 20 -60 20v20h218v-20q-48 0 -61 -20q-11 -16 -11 -72v-107l149 138q66 61 -3 61v20h173v-20q-44 0 -74 -18
q-12 -8 -29 -22q-3 -4 -7 -7l-142 -132z" />
    <glyph glyph-name="uniF76C" unicode="&#xf76c;" horiz-adv-x="431" 
d="M34 20q47 0 60 20q11 17 11 73v251q0 56 -11 72q-13 20 -60 20v20h218v-20q-48 0 -61 -20q-11 -16 -11 -72v-245q0 -54 10 -68q11 -15 55 -15h62q43 0 61 18q7 7 12 19l4 11l8 32h19l-7 -116h-370v20z" />
    <glyph glyph-name="uniF76D" unicode="&#xf76d;" horiz-adv-x="656" 
d="M484 476h139v-20q-48 0 -61 -20q-11 -16 -11 -72v-251q0 -56 11 -73q13 -20 61 -20v-20h-216v20q47 0 60 20q11 17 11 73v265l-158 -384h-20l-158 384v-265q0 -56 11 -73q14 -20 61 -20v-20h-180v20q47 0 60 20q11 17 11 73v251q0 56 -11 72q-13 20 -60 20v20h149
l152 -364z" />
    <glyph glyph-name="uniF76E" unicode="&#xf76e;" horiz-adv-x="541" 
d="M143 113q0 -56 11 -73q14 -20 61 -20v-20h-181v20q47 0 60 20q11 17 11 73v251q0 56 -11 72q-13 20 -60 20v20h112l259 -342v230q0 56 -10 72q-13 20 -61 20v20h181v-20q-48 0 -61 -20q-11 -16 -11 -72v-373h-26l-274 363v-241z" />
    <glyph glyph-name="uniF76F" unicode="&#xf76f;" horiz-adv-x="519" 
d="M97 417q66 75 162 75t162 -75q65 -74 65 -179t-65 -179q-66 -75 -162 -75t-162 75q-64 74 -64 179t64 179zM370 384q-38 71 -111 71q-74 0 -111 -71q-31 -57 -31 -146q0 -88 31 -146q37 -71 111 -71q73 0 111 71q32 58 32 146t-32 146z" />
    <glyph glyph-name="uniF770" unicode="&#xf770;" horiz-adv-x="415" 
d="M34 20q47 0 60 20q11 17 11 73v251q0 56 -11 72q-13 20 -60 20v20h193q82 0 129 -41q43 -37 43 -96t-43 -97q-46 -40 -129 -40h-47v-89q0 -56 11 -73q13 -20 61 -20v-20h-218v20zM227 235q92 0 92 104t-92 104h-47v-208h47z" />
    <glyph glyph-name="uniF771" unicode="&#xf771;" horiz-adv-x="518" 
d="M280 -54q27 -7 64 -25l30 -16q17 -9 29 -14q34 -15 63 -15q72 0 108 75l14 -5q-10 -29 -18 -48q-12 -28 -26 -46q-36 -49 -94 -49q-30 0 -62 19q-21 12 -54 42q-2 1 -6 5l-19 17q-14 12 -25 19q-28 19 -51 19t-39 -7q-6 -3 -12 -7l-21 -25q-6 -8 -12 -10q-30 -8 -30 23
q0 20 30 47q32 30 77 43q-83 10 -138 83q-55 72 -55 167q0 105 64 179q66 75 162 75t162 -75q65 -74 65 -179q0 -95 -56 -167q-56 -73 -138 -84q-58 -8 -89 -42q39 9 77 1zM370 384q-38 71 -111 71q-74 0 -111 -71q-31 -57 -31 -146q0 -88 31 -146q37 -71 111 -71
q73 0 111 71q32 58 32 146t-32 146z" />
    <glyph glyph-name="uniF772" unicode="&#xf772;" horiz-adv-x="473" 
d="M34 20q47 0 60 20q11 17 11 73v251q0 56 -11 72q-13 20 -60 20v20h195q83 0 130 -41q43 -37 43 -96q0 -113 -129 -133l66 -80q39 -47 68 -70q39 -31 75 -36v-20h-131l-141 203h-30v-90q0 -56 11 -73q13 -20 61 -20v-20h-218v20zM228 235q95 0 95 104t-95 104h-48v-208h48
z" />
    <glyph glyph-name="uniF773" unicode="&#xf773;" horiz-adv-x="399" 
d="M69 165q5 -50 34 -88q40 -52 108 -52q88 0 88 77q0 54 -87 96l-68 33q-89 42 -89 133q0 51 37 88q38 37 94 37q33 0 61 -13q11 -5 21 -13l17 -13q10 8 20 39h15v-159h-19q-6 52 -33 85q-31 36 -81 36q-70 0 -70 -62q0 -51 90 -96l68 -34q44 -22 66 -58q20 -32 20 -68
q0 -65 -43 -106q-42 -40 -107 -40q-43 0 -79 17q-13 6 -26 15q-5 3 -10 7l-9 7q-18 -18 -23 -42h-15v174h20z" />
    <glyph glyph-name="uniF774" unicode="&#xf774;" horiz-adv-x="436" 
d="M108 20q48 0 61 20q11 17 11 73v329h-66q-43 0 -62 -17q-13 -12 -21 -43l-5 -20h-20l7 114h409l7 -114h-20l-5 20q-8 31 -21 43q-19 17 -62 17h-66v-329q0 -56 11 -73q14 -20 61 -20v-20h-219v20z" />
    <glyph glyph-name="uniF775" unicode="&#xf775;" horiz-adv-x="543" 
d="M93 364q0 56 -10 72q-13 20 -61 20v20h217v-20q-48 0 -61 -20q-10 -16 -10 -72v-194q0 -73 37 -110q32 -33 85 -33q54 0 86 33q36 37 36 110v194q0 56 -11 72q-13 20 -61 20v20h183v-20q-48 0 -61 -20q-11 -16 -11 -72v-190q0 -91 -51 -141q-47 -46 -126 -46t-128 46
q-53 50 -53 141v190z" />
    <glyph glyph-name="uniF776" unicode="&#xf776;" horiz-adv-x="467" 
d="M369 397q24 59 -58 59v20h181v-20q-42 0 -60 -17q-13 -12 -31 -56l-157 -389h-25l-157 389q-18 46 -29 56q-17 17 -59 17v20h226v-20q-81 0 -58 -59l112 -286z" />
    <glyph glyph-name="uniF777" unicode="&#xf777;" horiz-adv-x="663" 
d="M218 -6h-20l-136 390q-14 42 -27 55q-18 17 -61 17v20h224v-20q-73 0 -54 -60l88 -268l114 348h18l114 -348l88 268q19 60 -50 60v20h174v-20q-44 0 -62 -18q-14 -12 -28 -54l-136 -390h-20l-113 324z" />
    <glyph glyph-name="uniF778" unicode="&#xf778;" horiz-adv-x="510" 
d="M389 94q22 -38 43 -53q27 -21 68 -21v-20h-230v20q74 0 39 58l-71 118l-82 -118q-40 -58 36 -58v-20h-183v20q41 0 72 24q21 16 43 50l94 135l-91 153q-24 39 -41 53q-25 21 -66 21v20h229v-20q-77 0 -43 -58l62 -105l73 105q39 58 -36 58v20h183v-20q-47 0 -73 -22
q-11 -8 -22 -23l-14 -21q-3 -6 -5 -8l-85 -122z" />
    <glyph glyph-name="uniF779" unicode="&#xf779;" horiz-adv-x="473" 
d="M358 398q35 58 -44 58v20h180v-20q-46 0 -68 -20q-9 -8 -19 -23l-133 -222v-78q0 -56 11 -73q13 -20 61 -20v-20h-218v20q47 0 60 20q11 17 11 73v78l-112 191q-25 43 -40 56q-23 18 -64 18v20h226v-20q-78 0 -44 -58l96 -165z" />
    <glyph glyph-name="uniF77A" unicode="&#xf77a;" horiz-adv-x="418" 
d="M272 440h-120q-46 0 -65 -16q-13 -11 -20 -42l-5 -21h-19l7 115h317v-17l-244 -423h151q45 0 65 18q13 12 20 42l5 20h20l-7 -116h-343v27z" />
    <glyph glyph-name="uniF7E0" unicode="&#xf7e0;" horiz-adv-x="465" 
d="M97 79q-22 -59 57 -59v-20h-179v20q42 0 60 17q12 12 30 56l156 389h25l155 -389q18 -44 30 -56q18 -17 60 -17v-20h-225v20q84 0 59 59l-33 85h-161zM144 196h135l-66 172zM153 601q-22 8 -22 30q0 30 30 30q17 0 42 -24l92 -87l-4 -7z" />
    <glyph glyph-name="uniF7E1" unicode="&#xf7e1;" horiz-adv-x="465" 
d="M97 79q-22 -59 57 -59v-20h-179v20q42 0 60 17q12 12 30 56l156 389h25l155 -389q18 -44 30 -56q18 -17 60 -17v-20h-225v20q84 0 59 59l-33 85h-161zM144 196h135l-66 172zM162 550l92 87q26 24 42 24q30 0 30 -30q0 -22 -22 -30l-138 -58z" />
    <glyph glyph-name="uniF7E2" unicode="&#xf7e2;" horiz-adv-x="465" 
d="M97 79q-22 -59 57 -59v-20h-179v20q42 0 60 17q12 12 30 56l156 389h25l155 -389q18 -44 30 -56q18 -17 60 -17v-20h-225v20q84 0 59 59l-33 85h-161zM144 196h135l-66 172zM114 557l119 130l119 -130l-13 -11l-106 76l-106 -76z" />
    <glyph glyph-name="uniF7E3" unicode="&#xf7e3;" horiz-adv-x="465" 
d="M97 79q-22 -59 57 -59v-20h-179v20q42 0 60 17q12 12 30 56l156 389h25l155 -389q18 -44 30 -56q18 -17 60 -17v-20h-225v20q84 0 59 59l-33 85h-161zM144 196h135l-66 172zM253 558q-11 5 -31 18q-1 0 -2 1l-29 17q-17 8 -29 8q-32 0 -43 -48h-16q0 94 68 94q13 0 31 -8
q11 -5 32 -18l15 -10l15 -8q17 -8 29 -8q32 0 43 48h16q0 -94 -68 -94q-13 0 -31 8z" />
    <glyph glyph-name="uniF7E4" unicode="&#xf7e4;" horiz-adv-x="465" 
d="M97 79q-22 -59 57 -59v-20h-179v20q42 0 60 17q12 12 30 56l156 389h25l155 -389q18 -44 30 -56q18 -17 60 -17v-20h-225v20q84 0 59 59l-33 85h-161zM144 196h135l-66 172zM356 585q0 -39 -40 -39t-40 39q0 40 40 40t40 -40zM190 585q0 -39 -40 -39t-40 39q0 40 40 40
t40 -40z" />
    <glyph glyph-name="uniF7E5" unicode="&#xf7e5;" horiz-adv-x="465" 
d="M97 79q-22 -59 57 -59v-20h-179v20q42 0 60 17q12 12 30 56l156 389h25l155 -389q18 -44 30 -56q18 -17 60 -17v-20h-225v20q84 0 59 59l-33 85h-161zM144 196h135l-66 172zM316 628q0 -82 -83 -82t-83 82q0 83 83 83t83 -83zM184 628q0 -48 49 -48t49 48q0 49 -49 49
t-49 -49z" />
    <glyph glyph-name="uniF7E6" unicode="&#xf7e6;" horiz-adv-x="612" 
d="M273 417l-117 -221h117v221zM549 361h-19l-5 21q-7 31 -20 43q-18 17 -62 17h-95v-174h34q54 0 68 12t14 61h21v-179h-21q0 48 -14 60t-68 12h-34v-119q0 -54 10 -67q11 -14 55 -14h56q43 0 62 18q7 8 12 20q4 8 8 24l5 20h19l-6 -116h-367v20q48 0 61 20q10 16 10 73v51
h-133l-46 -85q-33 -59 50 -59v-20h-190v20q44 0 67 17q18 14 41 56l203 383h277z" />
    <glyph glyph-name="uniF7E7" unicode="&#xf7e7;" horiz-adv-x="502" 
d="M244 -12q-87 9 -143 81q-55 70 -55 169q0 105 62 177q63 74 158 74q46 0 83 -18q32 -16 56 -43q13 10 21 41h17v-174h-19q-34 154 -151 154q-75 0 -113 -71q-30 -57 -30 -140t30 -140q38 -71 113 -71q117 0 151 154h19v-174h-17q-7 27 -21 41q-24 -25 -50 -40
q-33 -17 -72 -20l-40 -41q31 -2 56 -19q31 -22 31 -57q0 -47 -56 -75q-20 -10 -47 -17q-20 -6 -39 -8v22q87 19 87 68q0 31 -34 42q-31 11 -69 -1v13z" />
    <glyph glyph-name="uniF7E8" unicode="&#xf7e8;" horiz-adv-x="444" 
d="M34 20q48 0 60 15q11 14 11 68v261q0 56 -11 72q-13 20 -60 20v20h340l7 -115h-19l-5 21q-7 31 -20 43q-18 17 -62 17h-95v-174h34q54 0 68 12t14 61h21v-179h-21q0 48 -14 60t-68 12h-34v-119q0 -54 10 -67q11 -14 55 -14h56q43 0 62 18q7 8 12 20q4 8 8 24l5 20h19
l-6 -116h-367v20zM160 601q-22 8 -22 30q0 30 30 30q17 0 42 -24l92 -87l-4 -7z" />
    <glyph glyph-name="uniF7E9" unicode="&#xf7e9;" horiz-adv-x="444" 
d="M34 20q48 0 60 15q11 14 11 68v261q0 56 -11 72q-13 20 -60 20v20h340l7 -115h-19l-5 21q-7 31 -20 43q-18 17 -62 17h-95v-174h34q54 0 68 12t14 61h21v-179h-21q0 48 -14 60t-68 12h-34v-119q0 -54 10 -67q11 -14 55 -14h56q43 0 62 18q7 8 12 20q4 8 8 24l5 20h19
l-6 -116h-367v20zM167 550l92 87q26 24 42 24q30 0 30 -30q0 -22 -22 -30l-138 -58z" />
    <glyph glyph-name="uniF7EA" unicode="&#xf7ea;" horiz-adv-x="444" 
d="M34 20q48 0 60 15q11 14 11 68v261q0 56 -11 72q-13 20 -60 20v20h340l7 -115h-19l-5 21q-7 31 -20 43q-18 17 -62 17h-95v-174h34q54 0 68 12t14 61h21v-179h-21q0 48 -14 60t-68 12h-34v-119q0 -54 10 -67q11 -14 55 -14h56q43 0 62 18q7 8 12 20q4 8 8 24l5 20h19
l-6 -116h-367v20zM111 557l119 130l119 -130l-13 -11l-106 76l-106 -76z" />
    <glyph glyph-name="uniF7EB" unicode="&#xf7eb;" horiz-adv-x="444" 
d="M34 20q48 0 60 15q11 14 11 68v261q0 56 -11 72q-13 20 -60 20v20h340l7 -115h-19l-5 21q-7 31 -20 43q-18 17 -62 17h-95v-174h34q54 0 68 12t14 61h21v-179h-21q0 48 -14 60t-68 12h-34v-119q0 -54 10 -67q11 -14 55 -14h56q43 0 62 18q7 8 12 20q4 8 8 24l5 20h19
l-6 -116h-367v20zM353 585q0 -39 -40 -39t-40 39q0 40 40 40t40 -40zM187 585q0 -39 -40 -39t-40 39q0 40 40 40t40 -40z" />
    <glyph glyph-name="uniF7EC" unicode="&#xf7ec;" horiz-adv-x="286" 
d="M34 20q47 0 60 20q11 17 11 73v251q0 56 -11 72q-13 20 -60 20v20h218v-20q-48 0 -61 -20q-11 -16 -11 -72v-251q0 -56 11 -73q13 -20 61 -20v-20h-218v20zM66 601q-22 8 -22 30q0 30 30 30q17 0 42 -24l92 -87l-4 -7z" />
    <glyph glyph-name="uniF7ED" unicode="&#xf7ed;" horiz-adv-x="286" 
d="M34 20q47 0 60 20q11 17 11 73v251q0 56 -11 72q-13 20 -60 20v20h218v-20q-48 0 -61 -20q-11 -16 -11 -72v-251q0 -56 11 -73q13 -20 61 -20v-20h-218v20zM76 550l92 87q26 24 42 24q30 0 30 -30q0 -22 -22 -30l-138 -58z" />
    <glyph glyph-name="uniF7EE" unicode="&#xf7ee;" horiz-adv-x="286" 
d="M34 20q47 0 60 20q11 17 11 73v251q0 56 -11 72q-13 20 -60 20v20h218v-20q-48 0 -61 -20q-11 -16 -11 -72v-251q0 -56 11 -73q13 -20 61 -20v-20h-218v20zM24 557l119 130l119 -130l-13 -11l-106 76l-106 -76z" />
    <glyph glyph-name="uniF7EF" unicode="&#xf7ef;" horiz-adv-x="286" 
d="M34 20q47 0 60 20q11 17 11 73v251q0 56 -11 72q-13 20 -60 20v20h218v-20q-48 0 -61 -20q-11 -16 -11 -72v-251q0 -56 11 -73q13 -20 61 -20v-20h-218v20zM266 585q0 -39 -40 -39t-40 39q0 40 40 40t40 -40zM100 585q0 -39 -40 -39t-40 39q0 40 40 40t40 -40z" />
    <glyph glyph-name="uniF7F0" unicode="&#xf7f0;" horiz-adv-x="519" 
d="M38 218v41h67v105q0 56 -11 72q-13 20 -60 20v20h215q113 0 176 -70q57 -64 57 -168t-57 -168q-63 -70 -176 -70h-215v20q47 0 60 20q11 17 11 73v105h-67zM259 259v-41h-79v-101q0 -54 10 -68q11 -15 54 -15h6q80 0 118 69q16 29 23 66q7 33 7 69t-7 69q-7 37 -23 66
q-38 69 -118 69h-70v-183h79z" />
    <glyph glyph-name="uniF7F1" unicode="&#xf7f1;" horiz-adv-x="541" 
d="M143 113q0 -56 11 -73q14 -20 61 -20v-20h-181v20q47 0 60 20q11 17 11 73v251q0 56 -11 72q-13 20 -60 20v20h112l259 -342v230q0 56 -10 72q-13 20 -61 20v20h181v-20q-48 0 -61 -20q-11 -16 -11 -72v-373h-26l-274 363v-241zM309 558q-11 5 -31 18q-1 0 -2 1l-29 17
q-17 8 -29 8q-32 0 -43 -48h-16q0 94 68 94q13 0 31 -8q11 -5 32 -18l15 -10l15 -8q17 -8 29 -8q32 0 43 48h16q0 -94 -68 -94q-13 0 -31 8z" />
    <glyph glyph-name="uniF7F2" unicode="&#xf7f2;" horiz-adv-x="519" 
d="M97 417q66 75 162 75t162 -75q65 -74 65 -179t-65 -179q-66 -75 -162 -75t-162 75q-64 74 -64 179t64 179zM370 384q-38 71 -111 71q-74 0 -111 -71q-31 -57 -31 -146q0 -88 31 -146q37 -71 111 -71q73 0 111 71q32 58 32 146t-32 146zM198 601q-22 8 -22 30q0 30 30 30
q17 0 42 -24l92 -87l-4 -7z" />
    <glyph glyph-name="uniF7F3" unicode="&#xf7f3;" horiz-adv-x="519" 
d="M97 417q66 75 162 75t162 -75q65 -74 65 -179t-65 -179q-66 -75 -162 -75t-162 75q-64 74 -64 179t64 179zM370 384q-38 71 -111 71q-74 0 -111 -71q-31 -57 -31 -146q0 -88 31 -146q37 -71 111 -71q73 0 111 71q32 58 32 146t-32 146zM197 550l92 87q26 24 42 24
q30 0 30 -30q0 -22 -22 -30l-138 -58z" />
    <glyph glyph-name="uniF7F4" unicode="&#xf7f4;" horiz-adv-x="519" 
d="M97 417q66 75 162 75t162 -75q65 -74 65 -179t-65 -179q-66 -75 -162 -75t-162 75q-64 74 -64 179t64 179zM370 384q-38 71 -111 71q-74 0 -111 -71q-31 -57 -31 -146q0 -88 31 -146q37 -71 111 -71q73 0 111 71q32 58 32 146t-32 146zM140 557l119 130l119 -130l-13 -11
l-106 76l-106 -76z" />
    <glyph glyph-name="uniF7F5" unicode="&#xf7f5;" horiz-adv-x="519" 
d="M97 417q66 75 162 75t162 -75q65 -74 65 -179t-65 -179q-66 -75 -162 -75t-162 75q-64 74 -64 179t64 179zM370 384q-38 71 -111 71q-74 0 -111 -71q-31 -57 -31 -146q0 -88 31 -146q37 -71 111 -71q73 0 111 71q32 58 32 146t-32 146zM284 558q-11 5 -31 18q-1 0 -2 1
l-29 17q-17 8 -29 8q-32 0 -43 -48h-16q0 94 68 94q13 0 31 -8q11 -5 32 -18l15 -10l15 -8q17 -8 29 -8q32 0 43 48h16q0 -94 -68 -94q-13 0 -31 8z" />
    <glyph glyph-name="uniF7F6" unicode="&#xf7f6;" horiz-adv-x="519" 
d="M97 417q66 75 162 75t162 -75q65 -74 65 -179t-65 -179q-66 -75 -162 -75t-162 75q-64 74 -64 179t64 179zM370 384q-38 71 -111 71q-74 0 -111 -71q-31 -57 -31 -146q0 -88 31 -146q37 -71 111 -71q73 0 111 71q32 58 32 146t-32 146zM382 585q0 -39 -40 -39t-40 39
q0 40 40 40t40 -40zM216 585q0 -39 -40 -39t-40 39q0 40 40 40t40 -40z" />
    <glyph glyph-name="uniF7F8" unicode="&#xf7f8;" horiz-adv-x="518" 
d="M178 51q33 -30 81 -30q73 0 111 71q32 58 32 146q0 96 -38 157zM340 424q-33 31 -81 31q-74 0 -111 -71q-31 -57 -31 -146q0 -45 8 -83q10 -43 29 -74zM126 31q-93 77 -93 207q0 105 64 179q66 75 162 75q54 0 103 -27l25 47l32 -16l-28 -51q95 -74 95 -207
q0 -105 -65 -179q-66 -75 -162 -75q-54 0 -103 27l-25 -47l-32 16z" />
    <glyph glyph-name="uniF7F9" unicode="&#xf7f9;" horiz-adv-x="543" 
d="M93 364q0 56 -10 72q-13 20 -61 20v20h217v-20q-48 0 -61 -20q-10 -16 -10 -72v-194q0 -73 37 -110q32 -33 85 -33q54 0 86 33q36 37 36 110v194q0 56 -11 72q-13 20 -61 20v20h183v-20q-48 0 -61 -20q-11 -16 -11 -72v-190q0 -91 -51 -141q-47 -46 -126 -46t-128 46
q-53 50 -53 141v190zM200 601q-22 8 -22 30q0 30 30 30q17 0 42 -24l92 -87l-4 -7z" />
    <glyph glyph-name="uniF7FA" unicode="&#xf7fa;" horiz-adv-x="543" 
d="M93 364q0 56 -10 72q-13 20 -61 20v20h217v-20q-48 0 -61 -20q-10 -16 -10 -72v-194q0 -73 37 -110q32 -33 85 -33q54 0 86 33q36 37 36 110v194q0 56 -11 72q-13 20 -61 20v20h183v-20q-48 0 -61 -20q-11 -16 -11 -72v-190q0 -91 -51 -141q-47 -46 -126 -46t-128 46
q-53 50 -53 141v190zM219 550l92 87q26 24 42 24q30 0 30 -30q0 -22 -22 -30l-138 -58z" />
    <glyph glyph-name="uniF7FB" unicode="&#xf7fb;" horiz-adv-x="543" 
d="M93 364q0 56 -10 72q-13 20 -61 20v20h217v-20q-48 0 -61 -20q-10 -16 -10 -72v-194q0 -73 37 -110q32 -33 85 -33q54 0 86 33q36 37 36 110v194q0 56 -11 72q-13 20 -61 20v20h183v-20q-48 0 -61 -20q-11 -16 -11 -72v-190q0 -91 -51 -141q-47 -46 -126 -46t-128 46
q-53 50 -53 141v190zM161 557l119 130l119 -130l-13 -11l-106 76l-106 -76z" />
    <glyph glyph-name="uniF7FC" unicode="&#xf7fc;" horiz-adv-x="543" 
d="M93 364q0 56 -10 72q-13 20 -61 20v20h217v-20q-48 0 -61 -20q-10 -16 -10 -72v-194q0 -73 37 -110q32 -33 85 -33q54 0 86 33q36 37 36 110v194q0 56 -11 72q-13 20 -61 20v20h183v-20q-48 0 -61 -20q-11 -16 -11 -72v-190q0 -91 -51 -141q-47 -46 -126 -46t-128 46
q-53 50 -53 141v190zM403 585q0 -39 -40 -39t-40 39q0 40 40 40t40 -40zM237 585q0 -39 -40 -39t-40 39q0 40 40 40t40 -40z" />
    <glyph glyph-name="uniF7FD" unicode="&#xf7fd;" horiz-adv-x="473" 
d="M358 398q35 58 -44 58v20h180v-20q-46 0 -68 -20q-9 -8 -19 -23l-133 -222v-78q0 -56 11 -73q13 -20 61 -20v-20h-218v20q47 0 60 20q11 17 11 73v78l-112 191q-25 43 -40 56q-23 18 -64 18v20h226v-20q-78 0 -44 -58l96 -165zM180 550l92 87q26 24 42 24q30 0 30 -30
q0 -22 -22 -30l-138 -58z" />
    <glyph glyph-name="uniF7FE" unicode="&#xf7fe;" horiz-adv-x="415" 
d="M227 146q92 0 92 94t-92 94h-47v-188h47zM105 364q0 56 -11 72q-13 20 -60 20v20h218v-20q-47 0 -61 -19q-11 -16 -11 -70h47q172 0 172 -127t-172 -127h-47q0 -56 11 -73q13 -20 61 -20v-20h-218v20q47 0 60 20q11 17 11 73v251z" />
    <glyph glyph-name="uniF7FF" unicode="&#xf7ff;" horiz-adv-x="473" 
d="M358 398q35 58 -44 58v20h180v-20q-46 0 -68 -20q-9 -8 -19 -23l-133 -222v-78q0 -56 11 -73q13 -20 61 -20v-20h-218v20q47 0 60 20q11 17 11 73v78l-112 191q-25 43 -40 56q-23 18 -64 18v20h226v-20q-78 0 -44 -58l96 -165zM376 585q0 -39 -40 -39t-40 39q0 40 40 40
t40 -40zM210 585q0 -39 -40 -39t-40 39q0 40 40 40t40 -40z" />
    <glyph glyph-name="glyph13" horiz-adv-x="472" 
d="M426 133l-35 -34l-76 76q-36 -25 -80 -25t-79 24l-76 -75l-34 35l75 74q-26 35 -26 81t25 80l-74 75l34 35l75 -75q36 25 80 25q46 0 80 -26l76 76l35 -34l-76 -76q25 -36 25 -80t-25 -80zM169 356q-28 -28 -28 -67t28 -66q27 -27 66 -27t67 27q27 27 27 66t-27 67
q-28 27 -67 27t-66 -27z" />
    <glyph glyph-name="dotlessi.sc" horiz-adv-x="286" 
d="M34 20q47 0 60 20q11 17 11 73v251q0 56 -11 72q-13 20 -60 20v20h218v-20q-48 0 -61 -20q-11 -16 -11 -72v-251q0 -56 11 -73q13 -20 61 -20v-20h-218v20z" />
    <glyph glyph-name="germandbls.sc" horiz-adv-x="798" 
d="M69 165q5 -50 34 -88q40 -52 108 -52q88 0 88 77q0 54 -87 96l-68 33q-89 42 -89 133q0 51 37 88q38 37 94 37q33 0 61 -13q11 -5 21 -13l17 -13q10 8 20 39h15v-159h-19q-6 52 -33 85q-31 36 -81 36q-70 0 -70 -62q0 -51 90 -96l68 -34q44 -22 66 -58q20 -32 20 -68
q0 -65 -43 -106q-42 -40 -107 -40q-43 0 -79 17q-13 6 -26 15q-5 3 -10 7l-9 7q-18 -18 -23 -42h-15v174h20zM468 165q5 -50 34 -88q40 -52 108 -52q88 0 88 77q0 54 -87 96l-68 33q-89 42 -89 133q0 51 37 88q38 37 94 37q33 0 61 -13q11 -5 21 -13l17 -13q10 8 20 39h15
v-159h-19q-6 52 -33 85q-31 36 -81 36q-70 0 -70 -62q0 -51 90 -96l68 -34q44 -22 66 -58q20 -32 20 -68q0 -65 -43 -106q-42 -40 -107 -40q-43 0 -79 17q-13 6 -26 15q-5 3 -10 7l-9 7q-18 -18 -23 -42h-15v174h20z" />
    <glyph glyph-name="zero.oldstyle" horiz-adv-x="520" 
d="M111 47q-64 66 -64 169t64 169q61 63 149 63q87 0 148 -63q65 -67 65 -169t-65 -169q-61 -63 -148 -63q-88 0 -149 63zM356 75q35 52 35 141q0 88 -35 141t-96 53t-97 -53q-34 -53 -34 -141q0 -194 131 -194q61 0 96 53z" />
    <glyph glyph-name="one.oldstyle" horiz-adv-x="347" 
d="M45 21q55 0 72 21q17 22 17 96v148q0 71 -25 92q-20 18 -79 17v20l182 34v-311q0 -74 18 -96q16 -21 71 -21v-21h-256v21z" />
    <glyph glyph-name="two.oldstyle" horiz-adv-x="467" 
d="M371 -86q0 54 -22 70q-24 16 -104 16h-196v26l172 135q101 79 101 142q0 103 -104 103q-97 0 -97 -88q0 -32 20 -50l-26 -25q-69 12 -69 80q0 53 45 86q47 35 127 35q76 0 128 -36q55 -39 55 -104q0 -41 -27 -79q-23 -31 -60 -55l-163 -107h264l-26 -149h-18z" />
    <glyph glyph-name="three.oldstyle" horiz-adv-x="478" 
d="M98 -161q-48 32 -48 67q0 31 31 31q13 0 25 -20l17 -30q3 -5 7 -9q15 -18 34 -28q27 -13 63 -13q58 0 89 43q27 38 27 97q0 49 -22 85q-26 44 -77 55q-6 -5 -14 -14l-7 -8q-4 -4 -6 -7q-16 -17 -28 -17q-21 0 -21 22q0 15 26 36l74 58q64 50 64 123q0 96 -107 96
q-97 0 -97 -93q0 -26 16 -57l-25 -26q-66 31 -66 88q0 52 43 87q48 39 129 39q77 0 130 -36q56 -38 56 -98q0 -27 -14 -55q-10 -21 -29 -41q-14 -15 -30 -27l-60 -45q151 -31 151 -165q0 -70 -55 -122q-56 -54 -139 -54q-82 0 -137 38z" />
    <glyph glyph-name="four.oldstyle" horiz-adv-x="500" 
d="M322 37h7q66 0 86 14q16 12 28 60l5 20h17l-11 -131h-132v-53q0 -74 17 -96q16 -21 72 -21v-21h-252v21q56 0 72 21q17 22 17 96v53h-231v19l286 431h19v-413zM248 304l-177 -267h177v267z" />
    <glyph glyph-name="five.oldstyle" horiz-adv-x="465" 
d="M95 -161q-44 33 -44 68q0 30 31 30q13 0 23 -15l20 -34q14 -22 31 -34q23 -15 58 -15q58 0 90 52q29 47 29 122q0 76 -28 120q-31 48 -91 48q-43 0 -72 -22q-32 -25 -40 -76h-37l31 349h167q68 0 88 12q19 11 29 52h21l-23 -137h-252l-15 -183q37 47 112 47q84 0 139 -62
q54 -60 54 -148q0 -86 -59 -149q-60 -63 -143 -63q-69 0 -119 38z" />
    <glyph glyph-name="six.oldstyle" horiz-adv-x="485" 
d="M184 -1q-37 14 -64 43q-33 34 -51 86q-20 61 -20 143q0 141 52 237q60 109 169 109q59 0 103 -26q41 -24 41 -53t-27 -29q-13 0 -25 11q-4 4 -10 12l-10 13q-14 17 -28 25q-19 11 -44 11q-76 0 -109 -76q-15 -33 -22 -82q-6 -41 -9 -99q44 58 127 58q81 0 132 -53
q52 -54 52 -143q0 -88 -58 -144q-55 -54 -136 -54q-33 0 -63 11zM333 72q27 44 27 115q0 66 -24 108q-28 49 -84 49q-40 0 -77 -22t-46 -53q0 -69 11 -120q10 -45 28 -75q31 -50 79 -50q56 0 86 48z" />
    <glyph glyph-name="seven.oldstyle" horiz-adv-x="404" 
d="M105 -155q0 36 35 110l195 404h-171q-64 0 -86 -17q-17 -12 -27 -54l-5 -20h-20l43 238h15q0 -49 21 -62q20 -12 96 -12h187v-28l-130 -335q-54 -138 -63 -202q-9 -66 -49 -66q-41 0 -41 44z" />
    <glyph glyph-name="eight.oldstyle" horiz-adv-x="501" 
d="M343 491q0 34 -21 60q-25 30 -69 30t-70 -30q-22 -26 -22 -60q0 -45 30 -78q23 -26 72 -53q80 44 80 131zM345 64q32 35 32 79q0 54 -48 97q-20 17 -50 36q-11 7 -28 16l-28 16q-97 -55 -97 -157q0 -50 31 -86q35 -41 93 -41t95 40zM108 35q-59 47 -59 116q0 70 44 115
q18 18 45 34q21 13 53 26q-51 32 -76 63q-32 39 -32 86q0 61 51 102q49 40 119 40q69 0 117 -39t48 -95q0 -48 -37 -84q-28 -28 -87 -55q38 -19 58 -31q31 -19 51 -38q49 -47 49 -116q0 -74 -59 -123q-58 -48 -143 -48q-84 0 -142 47z" />
    <glyph glyph-name="nine.oldstyle" horiz-adv-x="485" 
d="M112 -173q-41 24 -41 53t27 29q13 0 25 -11q4 -4 10 -12l10 -13q14 -17 28 -25q19 -11 44 -11q76 0 109 83q15 35 22 87q6 42 9 101q-44 -58 -127 -58q-81 0 -132 53q-52 54 -52 143q0 88 58 144q55 54 136 54q33 0 63 -11q37 -14 65 -43q32 -34 50 -86q20 -61 20 -143
q0 -143 -52 -244q-29 -54 -69 -84q-44 -32 -100 -32q-59 0 -103 26zM310 110q37 22 46 53q0 69 -11 120q-10 45 -28 75q-31 50 -79 50q-56 0 -86 -48q-27 -44 -27 -115q0 -66 24 -108q28 -49 84 -49q40 0 77 22z" />
    <glyph glyph-name="zero.oldstyle.tnum" 
d="M105 47q-58 66 -58 169t58 169q55 63 135 63q79 0 134 -63q59 -67 59 -169t-59 -169q-55 -63 -134 -63q-80 0 -135 63zM351 216q0 89 -28 141q-30 53 -83 53q-54 0 -83 -53q-28 -52 -28 -141q0 -194 111 -194t111 194z" />
    <glyph glyph-name="one.oldstyle.tnum" 
d="M101 21q57 0 77 21q22 24 22 96v148q0 69 -30 92q-23 18 -84 17v20l192 34v-311q0 -72 23 -96q19 -21 76 -21v-21h-276v21z" />
    <glyph glyph-name="two.oldstyle.tnum" 
d="M377 -86q0 54 -22 70q-24 16 -104 16h-196v26l172 135q101 79 101 142q0 103 -104 103q-97 0 -97 -88q0 -32 20 -50l-26 -25q-69 12 -69 80q0 53 45 86q47 35 127 35q76 0 128 -36q55 -39 55 -104q0 -41 -27 -79q-23 -31 -60 -55l-163 -107h264l-26 -149h-18z" />
    <glyph glyph-name="three.oldstyle.tnum" 
d="M99 -161q-48 32 -48 67q0 31 31 31q13 0 25 -20l17 -30q3 -5 7 -9q15 -18 34 -28q27 -13 63 -13q58 0 89 43q27 38 27 97q0 49 -22 85q-26 44 -77 55q-6 -5 -14 -14l-7 -8q-4 -4 -6 -7q-16 -17 -28 -17q-21 0 -21 22q0 15 26 36l74 58q64 50 64 123q0 96 -107 96
q-97 0 -97 -93q0 -26 16 -57l-25 -26q-66 31 -66 88q0 52 43 87q48 39 129 39q77 0 130 -36q56 -38 56 -98q0 -27 -14 -55q-10 -21 -29 -41q-14 -15 -30 -27l-60 -45q151 -31 151 -165q0 -70 -55 -122q-56 -54 -139 -54q-82 0 -137 38z" />
    <glyph glyph-name="four.oldstyle.tnum" 
d="M322 37h7q54 0 72 14q15 13 27 60l5 20h17l-11 -131h-117v-53q0 -74 17 -96q16 -21 72 -21v-21h-252v21q56 0 72 21q17 22 17 96v53h-231v19l286 431h19v-413zM248 304l-177 -267h177v267z" />
    <glyph glyph-name="five.oldstyle.tnum" 
d="M102 -161q-44 33 -44 68q0 30 31 30q13 0 23 -15l20 -34q14 -22 31 -34q23 -15 58 -15q58 0 90 52q29 47 29 122q0 76 -28 120q-31 48 -91 48q-43 0 -72 -22q-32 -25 -40 -76h-37l31 349h167q68 0 88 12q19 11 29 52h21l-23 -137h-252l-15 -183q37 47 112 47
q84 0 139 -62q54 -60 54 -148q0 -86 -59 -149q-60 -63 -143 -63q-69 0 -119 38z" />
    <glyph glyph-name="six.oldstyle.tnum" 
d="M182 -1q-37 14 -64 43q-33 34 -51 86q-20 61 -20 143q0 141 52 237q60 109 169 109q59 0 103 -26q41 -24 41 -53t-27 -29q-13 0 -25 11q-4 4 -10 12l-10 13q-14 17 -28 25q-19 11 -44 11q-76 0 -109 -76q-15 -33 -22 -82q-6 -41 -9 -99q44 58 127 58q81 0 132 -53
q52 -54 52 -143q0 -88 -58 -144q-55 -54 -136 -54q-33 0 -63 11zM331 72q27 44 27 115q0 66 -24 108q-28 49 -84 49q-40 0 -77 -22t-46 -53q0 -69 11 -120q10 -45 28 -75q31 -50 79 -50q56 0 86 48z" />
    <glyph glyph-name="seven.oldstyle.tnum" 
d="M140 -155q0 42 35 110l208 404h-191q-64 0 -86 -17q-17 -12 -27 -54l-5 -20h-20l43 238h15q0 -49 21 -62q20 -12 96 -12h207v-28l-143 -335q-31 -73 -45 -122q-12 -39 -18 -80q-9 -66 -49 -66q-41 0 -41 44z" />
    <glyph glyph-name="eight.oldstyle.tnum" 
d="M323 491q0 35 -18 60q-22 30 -62 30q-41 0 -63 -30q-19 -26 -19 -60q0 -46 25 -78q21 -28 67 -53q70 39 70 131zM328 64q29 34 29 79q0 55 -43 97q-18 17 -46 36l-55 32q-87 -49 -87 -157q0 -51 28 -86q31 -41 86 -41q54 0 88 40zM105 35q-56 47 -56 116q0 71 39 115
q29 33 93 60q-48 30 -71 63q-27 37 -27 86q0 61 48 102q46 40 112 40q65 0 110 -39t45 -95q0 -49 -32 -84q-26 -29 -82 -55q35 -18 56 -31q29 -19 48 -38q44 -46 44 -116q0 -74 -56 -123q-55 -48 -136 -48q-80 0 -135 47z" />
    <glyph glyph-name="nine.oldstyle.tnum" 
d="M110 -173q-41 24 -41 53t27 29q13 0 25 -11q4 -4 10 -12l10 -13q14 -17 28 -25q19 -11 44 -11q76 0 109 83q15 35 22 87q6 42 9 101q-44 -58 -127 -58q-81 0 -132 53q-52 54 -52 143q0 88 58 144q55 54 136 54q33 0 63 -11q37 -14 65 -43q32 -34 50 -86q20 -61 20 -143
q0 -143 -52 -244q-29 -54 -69 -84q-44 -32 -100 -32q-59 0 -103 26zM308 110q37 22 46 53q0 69 -11 120q-10 45 -28 75q-31 50 -79 50q-56 0 -86 -48q-27 -44 -27 -115q0 -66 24 -108q28 -49 84 -49q40 0 77 22z" />
    <glyph glyph-name="zero.tnum" 
d="M104 73q-55 89 -55 229t55 228q54 87 136 87q81 0 135 -87q56 -89 56 -228t-56 -229q-54 -87 -135 -87q-82 0 -136 87zM323 110q23 70 23 192q0 121 -23 192q-27 83 -83 83q-57 0 -84 -83q-11 -37 -17 -88q-5 -47 -5 -104t5 -104q6 -51 17 -88q27 -84 84 -84q56 0 83 84z
" />
    <glyph glyph-name="one.tnum" 
d="M101 21q57 0 77 21q22 24 22 96v316q0 69 -30 92q-23 18 -84 17v20l192 34v-479q0 -72 23 -96q19 -21 76 -21v-21h-276v21z" />
    <glyph glyph-name="two.tnum" 
d="M52 24l158 199q111 140 111 227q0 56 -26 91q-28 38 -79 38q-94 0 -94 -92q0 -29 22 -63l-23 -26q-74 34 -74 98q0 50 42 84q47 37 128 37q85 0 137 -51q48 -47 48 -115q0 -54 -37 -114q-16 -26 -42 -58l-52 -61l-136 -153h156q64 0 86 16q19 13 32 60h21l-25 -141h-353
v24z" />
    <glyph glyph-name="three.tnum" 
d="M99 24q-48 32 -48 67q0 31 31 31q13 0 25 -20l17 -30q3 -5 7 -9q15 -18 34 -28q27 -13 63 -13q59 0 89 40q27 34 27 93q0 48 -22 83q-26 41 -77 52q-6 -5 -14 -14l-7 -8q-4 -4 -6 -7q-16 -17 -28 -17q-21 0 -21 22q0 15 26 36l74 58q64 50 64 123q0 96 -107 96
q-97 0 -97 -93q0 -26 16 -57l-25 -26q-66 31 -66 88q0 52 43 87q48 39 129 39q77 0 130 -36q56 -38 56 -98q0 -27 -14 -55q-10 -21 -29 -41q-14 -15 -30 -27l-60 -45q151 -31 151 -160q0 -70 -55 -119q-56 -50 -139 -50q-82 0 -137 38z" />
    <glyph glyph-name="four.tnum" 
d="M322 205h4q54 0 72 14q15 13 27 60l5 20h20l-11 -131h-117v-30q0 -74 17 -96q16 -21 72 -21v-21h-252v21q56 0 72 21q17 22 17 96v30h-231v19l286 431h19v-413zM248 472l-177 -267h177v267z" />
    <glyph glyph-name="five.tnum" 
d="M102 24q-44 33 -44 68q0 30 31 30q13 0 23 -15l20 -34q14 -22 31 -34q23 -15 58 -15q59 0 90 47q29 44 29 118q0 160 -119 160q-43 0 -72 -22q-32 -25 -40 -76h-37l31 349h295l-12 -73h-253l-15 -183q37 47 112 47q85 0 139 -58q54 -57 54 -144q0 -85 -59 -144t-143 -59
q-69 0 -119 38z" />
    <glyph glyph-name="six.tnum" 
d="M182 -3q-37 14 -64 43q-33 34 -51 86q-20 61 -20 143q0 142 52 238q61 110 169 110q59 0 103 -26q41 -24 41 -53t-27 -29q-13 0 -25 11q-4 4 -10 12l-10 13q-14 17 -28 25q-19 11 -44 11q-76 0 -109 -77q-15 -33 -22 -82q-6 -41 -9 -100q44 58 127 58q81 0 132 -53
q52 -54 52 -143q0 -88 -58 -144q-55 -54 -136 -54q-33 0 -63 11zM331 70q27 44 27 115q0 66 -24 108q-28 49 -84 49q-40 0 -77 -22t-46 -53q0 -69 11 -120q10 -45 28 -75q31 -50 79 -50q56 0 86 48z" />
    <glyph glyph-name="seven.tnum" 
d="M138 29q0 45 35 110l210 388h-191q-64 0 -85 -18q-15 -12 -27 -58l-5 -20h-21l29 169h353v-28l-145 -319q-31 -68 -46 -120q-6 -22 -11 -44q-3 -16 -6 -38q-9 -66 -49 -66q-41 0 -41 44z" />
    <glyph glyph-name="eight.tnum" 
d="M323 491q0 35 -18 60q-22 30 -62 30q-41 0 -63 -30q-19 -26 -19 -60q0 -46 25 -78q21 -28 67 -53q70 39 70 131zM328 64q29 34 29 79q0 55 -43 97q-18 17 -46 36l-55 32q-87 -49 -87 -157q0 -51 28 -86q31 -41 86 -41q54 0 88 40zM105 35q-56 47 -56 116q0 71 39 115
q29 33 93 60q-48 30 -71 63q-27 37 -27 86q0 61 48 102q46 40 112 40q65 0 110 -39t45 -95q0 -49 -32 -84q-26 -29 -82 -55q35 -18 56 -31q29 -19 48 -38q44 -46 44 -116q0 -74 -56 -123q-55 -48 -136 -48q-80 0 -135 47z" />
    <glyph glyph-name="nine.tnum" 
d="M110 12q-41 24 -41 53t27 29q13 0 25 -11q4 -4 10 -12l10 -13q14 -17 28 -25q19 -11 44 -11q76 0 109 77q15 33 22 82q6 41 9 100q-44 -58 -127 -58q-81 0 -132 53q-52 54 -52 143q0 88 58 144q55 54 136 54q33 0 63 -11q37 -14 65 -43q32 -34 50 -86q20 -61 20 -143
q0 -142 -52 -238q-61 -110 -169 -110q-59 0 -103 26zM308 283q37 22 46 53q0 69 -11 120q-10 45 -28 75q-31 50 -79 50q-56 0 -86 -48q-27 -44 -27 -115q0 -66 24 -108q28 -49 84 -49q40 0 77 22z" />
    <glyph glyph-name="zero.frac" horiz-adv-x="329" 
d="M80 322q-36 50 -36 124t36 124q35 47 84 47q50 0 85 -47q37 -49 37 -124t-37 -124q-35 -47 -85 -47q-49 0 -84 47zM116 347q14 -43 48 -43t49 43q11 34 11 99t-11 99q-15 44 -49 44t-48 -44q-10 -33 -10 -99t10 -99z" />
    <glyph glyph-name="one.frac" horiz-adv-x="237" 
d="M208 282h-168v19q56 0 56 58v168q0 35 -17 46q-12 8 -47 8v16l120 20v-258q0 -58 56 -58v-19z" />
    <glyph glyph-name="two.frac" horiz-adv-x="302" 
d="M131 406q29 36 43 68q12 27 12 50q0 66 -50 66q-47 0 -47 -46q0 -16 13 -33l-16 -17q-46 19 -46 55q0 68 98 68q108 0 108 -89q0 -30 -20 -61q-15 -23 -55 -67l-70 -76h79q52 0 64 41h17l-16 -83h-202v18z" />
    <glyph glyph-name="three.frac" horiz-adv-x="308" 
d="M116 416q-5 4 -5 11q0 9 16 22l24 18q46 35 46 75q0 48 -51 48q-50 0 -50 -46q0 -18 10 -31l-19 -16q-40 16 -40 49q0 71 99 71q45 0 75 -19q33 -21 33 -54q0 -26 -18 -48q-7 -8 -17 -16l-35 -26q80 -18 80 -86q0 -38 -32 -65q-32 -28 -80 -28t-80 22q-27 18 -27 37
q0 21 20 21q8 0 15 -12l7 -11q4 -7 8 -11t8 -6q5 -4 11 -6q14 -7 33 -7q56 0 56 66q0 57 -45 68l-16 -15q-9 -9 -16 -9q-5 0 -10 4z" />
    <glyph glyph-name="four.frac" horiz-adv-x="326" 
d="M65 399h91v126zM210 399q34 0 44 7q9 5 16 29l4 13h15l-6 -76h-73v-13q0 -38 9 -48q10 -10 45 -10v-19h-162v19q35 0 45 10q9 10 9 48v13h-129v14l167 231h16v-218z" />
    <glyph glyph-name="five.frac" horiz-adv-x="300" 
d="M226 465q31 -31 31 -79q0 -46 -34 -79q-35 -32 -83 -32q-40 0 -69 22q-25 19 -25 38q0 20 20 20q7 0 13 -8l8 -13q1 -3 3 -5l7 -10l10 -8q14 -8 33 -8q57 0 57 83q0 82 -57 82q-54 0 -63 -51h-24l18 191h172l-11 -52h-139l-7 -79q23 20 59 20q49 0 81 -32z" />
    <glyph glyph-name="six.frac" horiz-adv-x="312" 
d="M256 571q0 -20 -20 -20q-7 0 -14 6l-18 21l-8 6q-11 6 -25 6q-39 0 -55 -36q-6 -16 -10 -40q-2 -17 -4 -48q29 25 70 25q99 0 99 -107q0 -48 -34 -79q-32 -30 -79 -30q-43 0 -73 29q-41 40 -41 125q0 77 30 129q35 59 97 59q85 0 85 -46zM213 384q0 35 -10 55
q-13 25 -42 25q-48 0 -60 -36q0 -69 18 -100q14 -26 39 -26q55 0 55 82z" />
    <glyph glyph-name="seven.frac" horiz-adv-x="266" 
d="M76 301q0 25 19 61l107 194h-90q-34 0 -45 -9q-8 -6 -15 -29l-4 -13h-17l18 103h191v-19l-73 -170q-29 -67 -35 -107t-31 -40t-25 29z" />
    <glyph glyph-name="eight.frac" horiz-adv-x="321" 
d="M65 425q17 18 51 31q-53 35 -53 82q0 34 30 57q28 22 69 22q40 0 68 -22t28 -53q0 -44 -62 -72q38 -18 57 -38q24 -26 24 -63q0 -41 -34 -68q-34 -26 -83 -26q-48 0 -82 26t-34 64q0 37 21 60zM162 591q-45 0 -45 -45q0 -22 16 -38q11 -11 37 -26q36 23 36 64
q0 45 -44 45zM199 409q-11 8 -27 18l-30 16q-44 -28 -44 -78q0 -63 62 -63q65 0 65 59q0 27 -26 48z" />
    <glyph glyph-name="nine.frac" horiz-adv-x="312" 
d="M56 321q0 20 20 20q7 0 14 -6l18 -21l8 -6q11 -6 25 -6q39 0 55 37q6 15 10 39q2 17 4 48q-29 -25 -70 -25q-99 0 -99 107q0 48 34 79q32 30 79 30q43 0 73 -29q41 -40 41 -125q0 -77 -30 -128q-35 -60 -97 -60q-85 0 -85 46zM99 508q0 -35 10 -55q13 -25 42 -25
q48 0 60 36q0 69 -18 101q-14 25 -39 25q-55 0 -55 -82z" />
    <glyph glyph-name="zero.dnom" horiz-adv-x="329" 
d="M80 40q-36 50 -36 124t36 124q35 47 84 47q50 0 85 -47q37 -49 37 -124t-37 -124q-35 -47 -85 -47q-49 0 -84 47zM116 65q14 -43 48 -43t49 43q11 34 11 99t-11 99q-15 44 -49 44t-48 -44q-10 -33 -10 -99t10 -99z" />
    <glyph glyph-name="one.dnom" horiz-adv-x="237" 
d="M208 0h-168v19q56 0 56 58v168q0 35 -17 46q-12 8 -47 8v16l120 20v-258q0 -58 56 -58v-19z" />
    <glyph glyph-name="two.dnom" horiz-adv-x="302" 
d="M131 124q29 36 43 68q12 27 12 50q0 66 -50 66q-47 0 -47 -46q0 -16 13 -33l-16 -17q-46 19 -46 55q0 68 98 68q108 0 108 -89q0 -30 -20 -61q-15 -23 -55 -67l-70 -76h79q52 0 64 41h17l-16 -83h-202v18z" />
    <glyph glyph-name="three.dnom" horiz-adv-x="308" 
d="M116 134q-5 4 -5 11q0 9 16 22l24 18q46 35 46 75q0 48 -51 48q-50 0 -50 -46q0 -18 10 -31l-19 -16q-40 16 -40 49q0 71 99 71q45 0 75 -19q33 -21 33 -54q0 -26 -18 -48q-7 -8 -17 -16l-35 -26q80 -18 80 -86q0 -38 -32 -65q-32 -28 -80 -28t-80 22q-27 18 -27 37
q0 21 20 21q8 0 15 -12l7 -11q4 -7 8 -11t8 -6q5 -4 11 -6q14 -7 33 -7q56 0 56 66q0 57 -45 68l-16 -15q-9 -9 -16 -9q-5 0 -10 4z" />
    <glyph glyph-name="four.dnom" horiz-adv-x="326" 
d="M65 117h91v126zM210 117q34 0 44 7q9 6 16 29l4 13h15l-6 -76h-73v-13q0 -38 9 -48q10 -10 45 -10v-19h-162v19q35 0 45 10q9 10 9 48v13h-129v14l167 231h16v-218z" />
    <glyph glyph-name="five.dnom" horiz-adv-x="300" 
d="M226 183q31 -31 31 -79q0 -46 -34 -79q-35 -32 -83 -32q-40 0 -69 22q-25 19 -25 38q0 20 20 20q7 0 13 -8l8 -13q1 -3 3 -5l7 -10l10 -8q14 -8 33 -8q57 0 57 83q0 82 -57 82q-54 0 -63 -51h-24l18 191h172l-11 -52h-139l-7 -79q23 20 59 20q49 0 81 -32z" />
    <glyph glyph-name="six.dnom" horiz-adv-x="312" 
d="M256 289q0 -20 -20 -20q-7 0 -14 6l-18 21l-8 6q-11 6 -25 6q-39 0 -55 -36q-6 -16 -10 -40q-2 -17 -4 -48q29 25 70 25q99 0 99 -107q0 -48 -34 -79q-32 -30 -79 -30q-43 0 -73 29q-41 40 -41 125q0 77 30 129q35 59 97 59q85 0 85 -46zM213 102q0 35 -10 55
q-13 25 -42 25q-48 0 -60 -36q0 -69 18 -100q14 -26 39 -26q55 0 55 82z" />
    <glyph glyph-name="seven.dnom" horiz-adv-x="266" 
d="M76 19q0 27 19 61l107 194h-90q-34 0 -45 -9q-8 -6 -15 -29l-4 -13h-17l18 103h191v-19l-73 -170q-29 -67 -35 -107t-31 -40t-25 29z" />
    <glyph glyph-name="eight.dnom" horiz-adv-x="321" 
d="M65 143q17 18 51 31q-53 35 -53 82q0 34 30 57q28 22 69 22q40 0 68 -22t28 -53q0 -44 -62 -72q38 -18 57 -38q24 -26 24 -63q0 -41 -34 -68q-34 -26 -83 -26q-48 0 -82 26t-34 64q0 37 21 60zM162 309q-45 0 -45 -45q0 -22 16 -38q11 -11 37 -26q36 23 36 64
q0 45 -44 45zM199 127q-11 8 -27 18l-30 16q-44 -28 -44 -78q0 -63 62 -63q65 0 65 59q0 27 -26 48z" />
    <glyph glyph-name="nine.dnom" horiz-adv-x="312" 
d="M56 39q0 20 20 20q7 0 14 -6l18 -21l8 -6q11 -6 25 -6q39 0 55 37q6 15 10 39q2 17 4 48q-29 -25 -70 -25q-99 0 -99 107q0 48 34 79q32 30 79 30q43 0 73 -29q41 -40 41 -125q0 -77 -30 -128q-35 -60 -97 -60q-85 0 -85 46zM99 226q0 -35 10 -55q13 -25 42 -25
q48 0 60 36q0 69 -18 101q-14 25 -39 25q-55 0 -55 -82z" />
    <glyph glyph-name="questiondown.aalt" horiz-adv-x="448" 
d="M293 561q0 -52 -52 -52t-52 52t52 52t52 -52zM214 271q-85 -62 -85 -138q0 -104 107 -104q99 0 99 87q0 30 -17 56l28 29q63 -30 63 -92q0 -47 -44 -82q-50 -39 -129 -39q-85 0 -137 40t-52 104q0 47 34 91q31 40 84 73l54 34v115h44v-138z" />
    <glyph glyph-name="exclamdown.aalt" horiz-adv-x="267" 
d="M183 563q0 -50 -50 -50t-50 50t50 50t50 -50zM150 445q3 -96 8 -174q2 -33 5 -63q2 -25 5 -50l8 -72q4 -31 4 -49q0 -49 -47 -49t-47 49q0 18 4 49l8 72q3 25 5 50q3 30 5 63q5 78 8 174h34z" />
    <glyph glyph-name="at.aalt" horiz-adv-x="686" 
d="M415 237l31 177q-4 5 -9 9l-13 8q-18 8 -40 8q-42 0 -74 -45q-31 -43 -42 -106q-11 -64 2 -102q15 -42 56 -42q74 0 89 93zM122 48q-94 88 -94 218q0 145 104 248q103 103 248 103q120 0 198 -72q81 -74 81 -191q0 -95 -61 -172q-59 -74 -125 -74q-56 0 -66 51
q-40 -55 -99 -55q-61 0 -89 55q-26 51 -12 129q14 76 66 129q53 54 116 54q34 0 64 -17h53l-44 -250q-11 -60 35 -60q41 0 84 62q46 67 46 146q0 105 -70 169q-66 60 -162 60q-128 0 -216 -93q-88 -92 -88 -219q0 -124 76 -200q74 -75 192 -75q108 0 212 64l11 -18
q-112 -80 -231 -80q-135 0 -229 88z" />
    <glyph glyph-name="glyph378" horiz-adv-x="454" 
d="M104 53q-54 70 -54 186q0 115 54 185q50 65 123 65q72 0 123 -65q54 -70 54 -185t-54 -186q-51 -66 -123 -66q-73 0 -123 66zM153 82q24 -62 74 -62q49 0 74 62q22 56 22 157q0 100 -22 156q-25 61 -74 61q-50 0 -74 -61q-22 -55 -22 -156q0 -102 22 -157z" />
    <glyph glyph-name="glyph379" horiz-adv-x="310" 
d="M263 0h-216v20q42 0 57 20q13 19 13 73v244q0 52 -19 70q-17 17 -63 17v18l157 28v-377q0 -54 13 -73q15 -20 58 -20v-20z" />
    <glyph glyph-name="glyph380" horiz-adv-x="405" 
d="M174 183q86 107 86 181q0 92 -76 92q-72 0 -72 -74q0 -27 20 -54l-20 -23q-69 29 -69 84q0 41 35 69q40 31 107 31q71 0 114 -42q39 -38 39 -93q0 -41 -38 -95q-14 -20 -35 -44l-36 -40l-105 -111h129q48 0 63 11q15 10 24 48h21l-22 -123h-292v24z" />
    <glyph glyph-name="glyph381" horiz-adv-x="414" 
d="M149 207q0 13 20 28l48 37q56 43 56 112q0 72 -77 72q-75 0 -75 -75q0 -23 15 -50l-22 -22q-61 27 -61 76q0 42 36 72q40 32 107 32q63 0 107 -30q47 -31 47 -80q0 -34 -22 -63q-15 -19 -50 -45l-24 -18q110 -31 110 -128q0 -58 -45 -98q-46 -40 -115 -40q-68 0 -114 32
q-40 27 -40 56t29 29q12 0 23 -16l24 -33l9 -9q8 -7 15 -12q22 -15 47 -15q85 0 85 106q0 34 -15 59q-18 30 -54 38q-5 -4 -11 -11q-1 -2 -3 -3l-8 -9q-5 -6 -10 -8q-5 -4 -10 -4q-22 0 -22 20z" />
    <glyph glyph-name="glyph382" horiz-adv-x="431" 
d="M74 162h133v190zM279 162q77 0 90 52l5 20h19l-9 -105h-105v-16q0 -55 13 -73q15 -20 58 -20v-20h-213v20q43 0 57 20q13 18 13 73v16h-183v17l237 339h18v-323z" />
    <glyph glyph-name="glyph383" horiz-adv-x="403" 
d="M309 267q45 -46 45 -116q0 -69 -49 -116q-49 -48 -118 -48q-58 0 -99 32q-37 28 -37 57q0 26 28 26q10 0 19 -13l18 -28q12 -19 26 -28q19 -13 45 -13q43 0 66 40q21 35 21 91q0 55 -20 89q-23 37 -67 37q-33 0 -56 -16q-27 -20 -33 -60h-36l26 275h247l-12 -70h-207
l-11 -130q31 37 89 37q70 0 115 -46z" />
    <glyph glyph-name="glyph384" horiz-adv-x="419" 
d="M318 467q34 -21 34 -46q0 -28 -28 -28q-12 0 -36 32q-23 32 -57 32q-53 0 -79 -63q-11 -26 -17 -63q-5 -31 -7 -71q33 45 99 45q65 0 105 -40q41 -41 41 -112q0 -75 -47 -122q-46 -44 -113 -44q-27 0 -52 9q-30 11 -53 34q-27 27 -41 68q-17 48 -17 114q0 112 43 189
q50 88 138 88q50 0 87 -22zM276 60q19 34 19 87q0 51 -16 83q-21 41 -62 41q-73 0 -90 -62q-2 -97 25 -146q23 -43 61 -43q41 0 63 40z" />
    <glyph glyph-name="glyph385" horiz-adv-x="355" 
d="M95 28q0 34 29 88l158 290h-144q-46 0 -63 -13q-11 -10 -19 -41l-5 -20h-20l24 144h276v-24l-108 -254q-20 -47 -31 -89q-8 -30 -14 -65q-10 -58 -45 -58q-38 0 -38 42z" />
    <glyph glyph-name="glyph386" horiz-adv-x="432" 
d="M83 209q25 25 75 48q-37 24 -57 50q-24 32 -24 68q0 50 42 83q41 31 99 31t97 -31q40 -32 40 -77q0 -36 -28 -65q-22 -22 -66 -43q27 -14 45 -25q23 -15 38 -30q38 -38 38 -90q0 -60 -49 -100q-48 -39 -118 -39q-69 0 -117 38t-48 95q0 52 33 87zM218 457q-66 0 -66 -70
q0 -31 26 -59q19 -21 55 -41q49 30 49 98q0 72 -64 72zM274 184q-27 24 -87 55q-62 -36 -62 -117q0 -37 24 -66q27 -34 71 -34q46 0 69 29q20 25 20 61q0 39 -35 72z" />
    <glyph glyph-name="glyph387" horiz-adv-x="419" 
d="M101 9q-34 21 -34 46q0 28 28 28q13 0 36 -32q24 -32 57 -32q53 0 79 63q11 26 17 63q5 31 7 71q-33 -45 -99 -45q-65 0 -104 40q-42 41 -42 112q0 75 47 122q46 44 113 44q27 0 52 -9q30 -11 53 -34q27 -27 41 -68q17 -48 17 -114q0 -112 -43 -189q-50 -88 -138 -88
q-50 0 -87 22zM143 417q-19 -35 -19 -88q0 -51 17 -83q20 -41 61 -41q73 0 90 62q2 97 -25 146q-23 43 -61 43q-41 0 -63 -39z" />
    <glyph glyph-name="glyph388" horiz-adv-x="529" 
d="M485 71h-57v-8q0 -46 42 -46v-17h-137v17q42 0 42 46v8h-99v14l125 178h27v-168q37 0 46 30l3 10h13zM35 223v17q43 0 43 46v128q0 43 -50 43v15l108 15v-201q0 -46 43 -46v-17h-144zM375 188l-65 -93h65v93zM127 -14l-29 17l303 485l29 -17z" />
    <glyph glyph-name="glyph389" horiz-adv-x="543" 
d="M494 0h-165v16l67 80q43 51 43 94q0 49 -36 49q-34 0 -34 -33q0 -6 2 -12q3 -7 9 -13l-17 -17q-38 16 -38 46q0 55 80 55q90 0 90 -73q0 -23 -17 -48q-12 -18 -45 -52l-49 -51h58q40 0 50 32h15zM35 223v17q43 0 43 46v128q0 43 -50 43v15l108 15v-201q0 -46 43 -46v-17
h-144zM127 -14l-29 17l303 485l29 -17z" />
    <glyph glyph-name="glyph390" horiz-adv-x="539" 
d="M494 71h-57v-8q0 -46 42 -46v-17h-136v17q42 0 42 46v8h-101v14l127 178h26v-168q37 0 46 30l3 10h12zM120 217q-86 0 -86 48q0 19 17 19q9 0 15 -9l5 -10q3 -6 6 -9l6 -5q4 -3 8 -5q9 -5 23 -5q40 0 40 50q0 41 -29 51l-12 -12q-8 -6 -13 -6t-9 4q-5 3 -5 9q0 7 14 18
l22 18q27 21 27 54q0 35 -35 35q-36 0 -36 -32q0 -6 2 -12q2 -7 7 -13l-19 -15q-33 13 -33 41q0 56 80 56q89 0 89 -60q0 -18 -14 -34q-5 -7 -14 -13l-27 -21q63 -16 63 -68q0 -74 -92 -74zM385 188l-66 -93h66v93zM136 -14l-29 17l303 485l29 -17z" />
    <glyph glyph-name="periodcentered.sc" horiz-adv-x="267" 
d="M83 247q0 52 52 52t52 -52t-52 -52t-52 52z" />
    <glyph glyph-name="at.sc" horiz-adv-x="534" 
d="M464 149q-46 -57 -97 -57q-40 0 -52 35q-34 -38 -73 -38q-49 0 -73 43q-24 42 -13 103q10 58 54 100q43 42 93 42q25 0 50 -12h49l-35 -200q-7 -40 17 -40q31 0 62 44q34 49 34 114q0 76 -53 123q-49 44 -120 44q-93 0 -159 -70q-64 -69 -64 -160q0 -93 55 -151
q55 -57 141 -57q80 0 163 51l11 -18q-89 -64 -180 -64q-104 0 -176 67q-73 68 -73 169q0 112 80 191q79 80 191 80q93 0 154 -56q62 -58 62 -149q0 -75 -48 -134zM342 332q-4 3 -7 5l-9 6q-12 5 -26 5q-31 0 -54 -35q-22 -33 -30 -81q-8 -47 0 -74q10 -33 39 -33q50 0 62 67
z" />
    <glyph glyph-name="asciitilde.sc" horiz-adv-x="395" 
d="M229 202q-9 3 -20 9l-38 23q-11 6 -19 9q-20 10 -35 10q-38 0 -52 -57h-19q0 113 81 113q16 0 37 -10q9 -3 20 -9l38 -23q11 -6 19 -9q20 -10 35 -10q38 0 52 57h19q0 -113 -81 -113q-16 0 -37 10z" />
    <glyph glyph-name="glyph394" horiz-adv-x="399" 
d="M181 213l-37 18q-89 42 -89 133q0 50 36 86q36 37 90 39v51h35v-54q21 -4 41 -15l28 -21q10 8 20 39h15v-159h-19q-11 98 -85 117v-159l59 -29q44 -22 66 -58q20 -32 20 -68q0 -64 -41 -104t-104 -42v-55h-35v57q-31 5 -58 20l-11 6l-25 18q-18 -18 -23 -42h-15v174h20
q4 -43 28 -79q30 -47 84 -58v185zM216 25q83 3 83 77q0 53 -83 94v-171zM181 451q-64 -5 -64 -62q0 -46 64 -82v144z" />
    <glyph glyph-name="glyph395" horiz-adv-x="422" 
d="M209 39q-71 5 -117 63q-45 56 -45 136t45 137q46 58 117 63v58h35v-58q54 -7 90 -48q12 10 17 33h13v-139h-15q-22 111 -105 122v-335q82 11 105 122h15v-139h-13q-5 20 -17 32q-39 -41 -90 -47v-59h-35v59zM209 405q-50 -8 -75 -63q-20 -44 -20 -104t20 -104
q25 -54 75 -62v333z" />
    <glyph glyph-name="glyph396" horiz-adv-x="452" 
d="M30 176v34h44l-2 28l1 28h-43v34h47q35 189 171 189q42 0 72 -18q23 -14 40 -39l5 6q4 5 6 9q8 11 11 22h17v-169h-19q-30 151 -121 151q-85 0 -104 -151h141v-34h-143l-1 -35l1 -21h143v-34h-141q17 -151 104 -151q47 0 79 42q28 38 42 109h19v-170h-17q-3 11 -10 22
q-6 9 -12 15q-21 -28 -42 -40q-28 -16 -70 -16q-136 0 -171 189h-47z" />
    <glyph glyph-name="glyph397" horiz-adv-x="421" 
d="M30 20q48 0 63 20q12 17 12 73v119h-64v35h64v45q0 90 47 137q40 40 104 40q45 0 73 -24q25 -21 25 -48q0 -36 -35 -36q-22 0 -34 38q-11 38 -43 38q-60 0 -60 -145v-45h107v-35h-107v-46q0 -104 -33 -146h121q45 0 63 14q13 10 21 40l5 20h20l-7 -114h-342v20z" />
    <glyph glyph-name="glyph398" horiz-adv-x="473" 
d="M274 113q0 -56 11 -73q13 -20 61 -20v-20h-218v20q47 0 60 20q11 17 11 73v8h-96v34h96v36l-12 20h-84v34h64l-80 137q-25 43 -40 56q-23 18 -64 18v20h226v-20q-78 0 -44 -58l96 -165l97 165q35 58 -44 58v20h180v-20q-46 0 -68 -20q-9 -8 -19 -23l-101 -168h65v-34h-85
l-12 -20v-36h97v-34h-97v-8z" />
    <glyph glyph-name="glyph399" horiz-adv-x="531" 
d="M80 454q30 35 75 35t76 -35q30 -34 30 -83t-30 -82q-31 -35 -76 -35t-75 35q-31 34 -31 82q0 49 31 83zM155 457q-48 0 -48 -86q0 -85 48 -85t48 85q0 86 -48 86zM312 189q30 35 75 35t76 -35q30 -34 30 -83t-30 -82q-31 -35 -76 -35t-75 35q-31 34 -31 82q0 49 31 83z
M387 192q-48 0 -48 -86q0 -85 48 -85t48 85q0 86 -48 86zM130 -14l-29 17l303 485l29 -17z" />
    <glyph glyph-name="glyph400" horiz-adv-x="781" 
d="M80 454q30 35 75 35t76 -35q30 -34 30 -83t-30 -82q-31 -35 -76 -35t-75 35q-31 34 -31 82q0 49 31 83zM155 457q-48 0 -48 -86q0 -85 48 -85t48 85q0 86 -48 86zM562 189q30 35 75 35t76 -35q30 -34 30 -83t-30 -82q-31 -35 -76 -35t-75 35q-31 34 -31 82q0 49 31 83z
M637 192q-48 0 -48 -86q0 -85 48 -85t48 85q0 86 -48 86zM130 -14l-29 17l303 485l29 -17zM312 189q30 35 75 35t76 -35q30 -34 30 -83t-30 -82q-31 -35 -76 -35t-75 35q-31 34 -31 82q0 49 31 83zM387 192q-48 0 -48 -86q0 -85 48 -85t48 85q0 86 -48 86z" />
    <glyph glyph-name="glyph401" horiz-adv-x="430" 
d="M193 228h-157v44h157v157h44v-157h157v-44h-157v-157h-44v157z" />
    <glyph glyph-name="glyph402" horiz-adv-x="430" 
d="M66 272h298v-44h-298v44z" />
    <glyph glyph-name="glyph403" horiz-adv-x="430" 
d="M64 130l120 120l-120 119l32 31l119 -119l119 119l31 -31l-119 -119l120 -120l-32 -31l-119 120l-120 -120z" />
    <glyph glyph-name="glyph404" horiz-adv-x="430" 
d="M36 273h358v-44h-358v44zM168 114q0 49 46 49q49 0 49 -49q0 -48 -49 -48q-46 0 -46 48zM168 388q0 49 46 49q49 0 49 -49q0 -48 -49 -48q-46 0 -46 48z" />
    <glyph glyph-name="glyph405" horiz-adv-x="436" 
d="M72 335h292v-44h-292v44zM72 211h292v-44h-292v44z" />
    <glyph glyph-name="glyph406" horiz-adv-x="430" 
d="M72 79l61 87h-64v45h96l56 80h-152v45h184l76 108l29 -22l-61 -86h64v-45h-96l-56 -80h152v-45h-184l-76 -108z" />
    <glyph glyph-name="glyph407" horiz-adv-x="420" 
d="M71 317q0 3 21 17q12 7 23 11q15 5 28 5q17 0 36 -5l66 -23q17 -5 31 -5q13 0 27 5q12 4 23 12q22 13 22 16v-45q0 -3 -21 -16q-12 -8 -23 -12q-15 -5 -28 -5q-17 0 -36 5l-66 23q-17 5 -31 5q-13 0 -27 -5q-12 -4 -23 -11q-22 -14 -22 -17v45zM71 192q0 3 21 17
q12 7 23 11q15 5 28 5q17 0 36 -5l66 -23q17 -5 31 -5q13 0 27 5q12 4 23 12q22 13 22 16v-45q0 -3 -21 -16q-12 -8 -23 -12q-15 -5 -28 -5q-17 0 -36 5l-66 23q-17 5 -31 5q-13 0 -27 -5q-12 -4 -23 -11q-22 -14 -22 -17v45z" />
    <glyph glyph-name="glyph408" horiz-adv-x="435" 
d="M51 251l314 217l22 -32l-256 -185l256 -185l-22 -33z" />
    <glyph glyph-name="glyph409" horiz-adv-x="435" 
d="M48 66l256 185l-256 185l22 32l314 -217l-314 -218z" />
    <glyph glyph-name="glyph410" horiz-adv-x="372" 
d="M79 230q-44 44 -44 106t44 106q45 44 106 44q62 0 106 -44t44 -106t-44 -106t-106 -44t-106 44zM257 264q30 30 30 72t-30 72t-72 30t-71 -30q-30 -30 -30 -72t30 -72q29 -30 71 -30t72 30z" />
    <glyph glyph-name="glyph411" horiz-adv-x="616" 
d="M62 166q-33 33 -33 83q0 51 33 84q34 34 88 34q34 0 82 -30q40 -25 77 -61q33 35 75 61q49 30 83 30q55 0 89 -34q33 -33 33 -84q0 -50 -33 -83q-35 -34 -89 -34q-34 0 -83 30q-41 26 -75 60q-38 -36 -77 -60q-49 -30 -82 -30q-54 0 -88 34zM215 199q15 11 32 25
q13 11 28 25q-16 15 -29 26q-18 15 -33 25q-38 26 -65 26q-74 0 -74 -77q0 -76 74 -76q27 0 67 26zM544 249q0 77 -74 77q-28 0 -67 -26q-27 -18 -62 -51q33 -31 61 -50q40 -26 68 -26q74 0 74 76z" />
    <glyph glyph-name="glyph412" horiz-adv-x="522" 
d="M381 229h-312v44h356v-172h-44v128z" />
    <glyph glyph-name="glyph413" horiz-adv-x="545" 
d="M34 20q47 0 60 20q11 17 11 73v251q0 56 -11 72q-13 20 -60 20v20h477v-20q-48 0 -61 -20q-11 -15 -11 -72v-251q0 -57 11 -73q13 -20 61 -20v-20h-217v20q48 0 61 20q11 17 11 73v327h-188v-327q0 -56 11 -73q13 -20 61 -20v-20h-216v20z" />
    <glyph glyph-name="ordfeminine.case" horiz-adv-x="402" 
d="M97 281q-16 -42 45 -42v-21h-147v21q51 0 72 53l125 312h20l124 -312q13 -33 24 -42q13 -11 48 -11v-21h-184v21q63 0 47 42l-26 68h-121zM135 376h98l-48 128z" />
    <glyph glyph-name="ordmasculine.case" horiz-adv-x="445" 
d="M93 552q52 60 129 60t130 -60q52 -60 52 -144q0 -83 -52 -143q-54 -60 -130 -60q-77 0 -129 60q-52 59 -52 143t52 144zM310 523q-29 54 -88 54t-87 -54q-23 -44 -23 -115q0 -70 23 -114q29 -54 87 -54q59 0 88 54q24 44 24 114t-24 115z" />
    <glyph glyph-name="glyph416" horiz-adv-x="390" 
d="M185 454q-76 0 -76 -67q0 -30 17 -52l-25 -25q-59 26 -59 79q0 39 37 68q40 32 106 32q157 0 157 -118q0 -79 -96 -132l-43 -24v-72h-43v91l39 28q64 46 64 111q0 81 -78 81zM228 37q0 -45 -46 -45t-46 45q0 46 46 46t46 -46z" />
    <glyph glyph-name="glyph417" horiz-adv-x="390" 
d="M162 439q0 45 46 45t46 -45q0 -46 -46 -46t-46 46zM205 22q76 0 76 67q0 30 -17 52l25 25q59 -26 59 -79q0 -39 -37 -68q-40 -32 -106 -32q-157 0 -157 118q0 79 96 132l43 24v72h43v-91l-39 -28q-64 -46 -64 -111q0 -81 78 -81z" />
    <glyph glyph-name="glyph418" horiz-adv-x="247" 
d="M123 489q46 0 46 -45q0 -14 -4 -38l-9 -53q-6 -40 -10 -83q-5 -58 -7 -127h-32q-2 69 -7 127q-4 43 -10 83l-9 53q-4 24 -4 38q0 45 46 45zM169 37q0 -45 -46 -45t-46 45q0 46 46 46t46 -46z" />
    <glyph glyph-name="glyph419" horiz-adv-x="247" 
d="M77 439q0 45 46 45t46 -45q0 -46 -46 -46t-46 46zM81 70l9 53q6 40 10 83q5 58 7 127h32q2 -69 7 -127q4 -43 10 -83l9 -53q4 -24 4 -38q0 -45 -46 -45t-46 45q0 14 4 38z" />
    <glyph glyph-name="glyph420" horiz-adv-x="242" 
d="M44 249q0 77 77 77t77 -77q0 -76 -77 -76t-77 76z" />
    <glyph glyph-name="glyph421" horiz-adv-x="365" 
d="M158 217q0 7 4 16l10 20q16 31 18 68q-33 -21 -51 -50q-3 -4 -6 -10l-5 -9q-6 -9 -11 -12q-36 -21 -56 16q-19 34 15 54q6 3 16 4q3 1 10 1h12q15 1 29 5q19 4 39 14q-20 10 -40 15q-14 3 -30 4l-21 1q-10 1 -15 4q-35 23 -15 54q23 36 56 16q5 -3 11 -12l5 -9
q3 -6 6 -10q18 -29 51 -50q-2 37 -18 68l-10 20q-4 9 -4 16q0 41 39 41q41 0 41 -41q0 -7 -5 -16l-10 -20q-7 -14 -11 -27q-5 -19 -7 -41q33 21 52 49l6 10q4 6 5 9q6 8 11 11q34 21 55 -14q19 -33 -15 -55q-5 -3 -15 -4h-22q-15 -1 -29 -5q-20 -4 -40 -14q20 -10 40 -14
q14 -3 29 -4h22q10 -1 15 -4q34 -23 15 -56q-21 -35 -55 -14q-5 3 -11 12l-12 18q-19 28 -52 49q2 -22 8 -41q4 -13 11 -27l10 -20q5 -9 5 -16q0 -41 -41 -41q-39 0 -39 41z" />
    <glyph glyph-name="glyph422" horiz-adv-x="214" 
d="M98 273q-3 36 -9 68q-5 24 -12 47l-11 33q-5 14 -5 22q0 49 46 49t46 -49q0 -8 -5 -22l-8 -23q-2 -5 -3 -10q-8 -23 -13 -47q-6 -32 -9 -68h-17z" />
    <glyph glyph-name="glyph423" horiz-adv-x="368" 
d="M97 273q-3 36 -9 68q-5 24 -12 47l-11 33q-5 14 -5 22q0 49 46 49t46 -49q0 -8 -5 -22l-8 -23q-2 -5 -3 -10q-8 -23 -13 -47q-6 -32 -9 -68h-17zM254 273q-3 36 -9 68q-5 24 -13 47q-1 5 -3 10l-8 23q-5 14 -5 22q0 49 46 49t46 -49q0 -8 -5 -22l-7 -23q-2 -5 -3 -10
q-8 -23 -13 -47q-6 -32 -9 -68h-17z" />
    <glyph glyph-name="glyph424" horiz-adv-x="223" 
d="M160 482q-45 -49 -54 -107q1 1 4 1h3q46 0 46 -47q0 -46 -47 -46q-50 0 -50 61q0 36 22 76q24 47 66 73z" />
    <glyph glyph-name="glyph425" horiz-adv-x="223" 
d="M63 293q45 49 54 107q-1 -1 -4 -1h-3q-46 0 -46 47q0 46 47 46q50 0 50 -61q0 -36 -21 -76q-25 -47 -67 -73z" />
    <glyph glyph-name="glyph426" horiz-adv-x="375" 
d="M312 482q-45 -49 -54 -107q1 1 4 1h3q46 0 46 -47q0 -46 -47 -46q-50 0 -50 61q0 36 22 76q24 47 66 73zM160 482q-45 -49 -54 -107q1 1 4 1h3q46 0 46 -47q0 -46 -47 -46q-50 0 -50 61q0 36 22 76q24 47 66 73z" />
    <glyph glyph-name="glyph427" horiz-adv-x="375" 
d="M215 293q45 49 54 107q-1 -1 -4 -1h-3q-46 0 -46 47q0 46 47 46q50 0 50 -61q0 -36 -21 -76q-25 -47 -67 -73zM63 293q45 49 54 107q-1 -1 -4 -1h-3q-46 0 -46 47q0 46 47 46q50 0 50 -61q0 -36 -21 -76q-25 -47 -67 -73z" />
    <glyph glyph-name="glyph428" horiz-adv-x="315" 
d="M252 -89q-80 65 -123 144q-46 85 -46 183t46 183q42 79 122 144l18 -19q-20 -23 -38 -48q-23 -32 -39 -68q-21 -42 -31 -87q-13 -51 -13 -105t13 -105q10 -45 31 -87q16 -36 39 -68q18 -25 38 -48z" />
    <glyph glyph-name="glyph429" horiz-adv-x="315" 
d="M46 -70q20 23 38 48q23 32 39 68q21 42 31 87q13 51 13 105t-13 105q-10 45 -31 87q-16 36 -39 68q-18 25 -38 48l18 19q80 -65 122 -144q46 -85 46 -183t-46 -183q-43 -79 -123 -144z" />
    <glyph glyph-name="glyph430" horiz-adv-x="276" 
d="M100 544h137v-29h-76v-554h76v-29h-137v612z" />
    <glyph glyph-name="glyph431" horiz-adv-x="276" 
d="M39 -68v29h76v554h-76v29h137v-612h-137z" />
    <glyph glyph-name="glyph432" horiz-adv-x="262" 
d="M212 -91q-58 34 -78 65q-27 41 -27 119q0 80 -16 107q-12 19 -51 33v12q39 14 51 33q16 27 16 107q0 78 27 119q20 31 78 65l13 -20q-42 -29 -51 -63q-5 -16 -6 -42v-58q0 -80 -24 -112q-17 -23 -66 -35q49 -12 66 -35q24 -32 24 -112v-58q1 -26 6 -42q9 -34 51 -63z" />
    <glyph glyph-name="glyph433" horiz-adv-x="262" 
d="M37 -71q42 29 51 63q5 16 6 42v58q0 80 24 112q17 23 66 35q-49 12 -66 35q-24 32 -24 112v58q-1 26 -6 42q-9 34 -51 63l13 20q58 -34 78 -65q27 -41 27 -119q0 -80 16 -107q12 -19 51 -33v-12q-39 -14 -51 -33q-16 -27 -16 -107q0 -78 -27 -119q-20 -31 -78 -65z" />
    <glyph glyph-name="glyph434" horiz-adv-x="263" 
d="M224 492l34 -15l-218 -493l-35 15z" />
    <glyph glyph-name="glyph435" horiz-adv-x="263" 
d="M222 -16l-218 493l34 15l219 -493z" />
    <glyph glyph-name="glyph436" horiz-adv-x="246" 
d="M101 561h44v-657h-44v657z" />
    <glyph glyph-name="glyph437" horiz-adv-x="535" 
d="M352 98q13 25 17 56q5 39 -9 54q-15 17 -64 17v21h195v-21q-49 0 -67 -18q-13 -13 -19 -55t-29 -80q48 -49 80 -49q31 0 56 31l16 -14q-37 -53 -88 -53q-59 0 -106 36q-46 -36 -109 -36q-79 0 -127 34q-51 35 -51 98q0 41 28 75q22 26 66 53q-43 72 -43 124t40 86
q40 32 100 32q51 0 86 -28q34 -27 34 -67q0 -43 -45 -78q-15 -13 -44 -30l-49 -29q19 -28 43 -56zM124 122q0 -101 107 -101q48 0 78 24q-31 28 -97 106q-28 33 -51 66q-37 -40 -37 -95zM268 329q25 30 25 65q0 61 -55 61q-67 0 -67 -72q0 -46 35 -103q41 24 62 49z" />
    <glyph glyph-name="glyph438" horiz-adv-x="346" 
d="M22 179l9 54h63l14 83h-62l9 55h63l17 105h35l-17 -105h74l17 105h36l-18 -105h62l-9 -55h-62l-15 -83h62l-9 -54h-61l-19 -107h-36l19 107h-74l-19 -107h-35l18 107h-62zM217 316h-74l-14 -83h73z" />
    <glyph glyph-name="glyph439" horiz-adv-x="551" 
d="M455 61q-73 -73 -177 -73q-103 0 -177 73q-73 74 -73 177q0 104 73 177q74 73 177 73q104 0 177 -73t73 -177q0 -103 -73 -177zM433 394q-64 64 -155 64t-156 -64q-64 -64 -64 -156q0 -91 64 -155q65 -65 156 -65t155 65q65 64 65 155t-65 156zM388 92q-2 10 -5 19
q-3 10 -7 14q-37 -44 -92 -44q-62 0 -107 46t-45 111q0 64 45 111q45 46 107 46q55 0 92 -44q3 3 7 14l5 19h16v-117h-17q-20 97 -94 97q-47 0 -70 -39q-20 -34 -20 -87q0 -54 20 -87q23 -39 70 -39q74 0 94 98h17v-118h-16z" />
    </font>
</defs>
</svg>
