<?xml version="1.0" standalone="no"?>
<!DOCTYPE svg PUBLIC "-//W3C//DTD SVG 1.1//EN" "http://www.w3.org/Graphics/SVG/1.1/DTD/svg11.dtd" >
<svg>
<metadata>
Created by FontForge 20090622 at Fri Sep 15 15:55:49 2017
 By deploy user
Copyright (c) Eduardo Manso, 2006. All rights reserved.
</metadata>
<defs>
<font id="RelatoSansOT-Bold" horiz-adv-x="424" >
  <font-face 
    font-family="Relato Sans OT Bold"
    font-weight="700"
    font-stretch="normal"
    units-per-em="1000"
    panose-1="2 0 0 0 0 0 0 0 0 0"
    ascent="745"
    descent="-255"
    x-height="471"
    cap-height="681"
    bbox="-85 -237 1297 960"
    underline-thickness="40"
    underline-position="-90"
    unicode-range="U+0020-U+FB02"
  />
<missing-glyph horiz-adv-x="505" 
d="M441 0h-55l-134 282l-133 -282h-55l161 340l-164 345h56l135 -287l136 287h56l-164 -345z" />
    <glyph glyph-name="fi" unicode="fi" horiz-adv-x="661" 
d="M13 367l12 104h70v45q0 112 66.5 163t222.5 51q52 0 107.5 -4t85 -8t33.5 -5l-17 -131q-2 1 -31 4.5t-74 7t-80 3.5q-84 0 -122 -20.5t-38 -80.5v-25h350v-471h-154v367h-196v-367h-153v367h-82z" />
    <glyph glyph-name="fl" unicode="fl" horiz-adv-x="661" 
d="M13 367l12 104h70v45q0 112 66.5 163t222.5 51q47 0 100 -4t82 -7.5t32 -4.5v-714h-154v596q-2 0 -15.5 1t-20.5 1q-83 0 -121.5 -21t-38.5 -81v-25h128v-104h-128v-367h-153v367h-82z" />
    <glyph glyph-name=".notdef" horiz-adv-x="505" 
d="M441 0h-55l-134 282l-133 -282h-55l161 340l-164 345h56l135 -287l136 287h56l-164 -345z" />
    <glyph glyph-name=".null" horiz-adv-x="0" 
 />
    <glyph glyph-name="nonmarkingreturn" horiz-adv-x="333" 
 />
    <glyph glyph-name="space" unicode=" " horiz-adv-x="210" 
 />
    <glyph glyph-name="exclam" unicode="!" horiz-adv-x="308" 
d="M218 213h-126l-15 468h155zM68 68q0 33 25.5 56.5t61.5 23.5q34 0 59.5 -24t25.5 -56q0 -34 -25 -58t-60 -24q-37 0 -62 24t-25 58z" />
    <glyph glyph-name="quotedbl" unicode="&#x22;" horiz-adv-x="406" 
d="M54 473l-8 208h125l-8 -208h-109zM243 473l-7 208h124l-8 -208h-109z" />
    <glyph glyph-name="numbersign" unicode="#" horiz-adv-x="589" 
d="M57 281v84h74l8 77h125l-8 -77h96l7 77h126l-8 -77h65v-84h-73l-10 -97h73v-84h-80l-8 -78h-124l7 78h-96l-8 -78h-124l7 78h-59v84h67l10 97h-67zM248 281l-10 -97h97l10 97h-97z" />
    <glyph glyph-name="dollar" unicode="$" horiz-adv-x="483" 
d="M54 85l9 106q3 -1 25.5 -4.5t55.5 -7t56 -3.5q65 0 68 39q0 26 -29 39q-8 3 -37.5 13t-41.5 13q-49 18 -72.5 50.5t-24.5 88.5q-1 110 122 140v135h118v-128q81 -4 101 -14q-2 -17 -5 -52t-5 -52q-3 1 -19.5 4.5t-42.5 6.5t-47 3q-76 0 -76 -39q0 -12 14 -22.5
t30.5 -16.5l45 -16t45.5 -17q41 -16 63 -44t22 -83q0 -59 -32.5 -97t-93.5 -51v-127h-118v123q-106 3 -131 13z" />
    <glyph glyph-name="percent" unicode="%" horiz-adv-x="935" 
d="M565 198q0 93 45 153t126 60t124.5 -59.5t43.5 -153.5q0 -93 -43.5 -152.5t-124.5 -59.5t-126 59.5t-45 152.5zM736 310q-51 0 -51 -112q0 -110 51 -110q48 0 48 110q0 112 -48 112zM32 481q0 93 45 153t125 60q81 0 124.5 -59.5t43.5 -153.5q0 -93 -43.5 -152.5
t-124.5 -59.5t-125.5 59.5t-44.5 152.5zM202 593q-51 0 -51 -112q0 -111 51 -111q49 0 49 111q0 112 -49 112zM295 0l230 681h123l-229 -681h-124z" />
    <glyph glyph-name="ampersand" unicode="&#x26;" horiz-adv-x="785" 
d="M818 -14l-23.5 -44t-27.5 -50q-27 8 -112.5 61t-171.5 119q-93 -86 -215 -86q-109 0 -174 47.5t-66 135.5q0 105 156 201q-61 80 -62 156q-1 59 38 103t103 58q36 6 72 3q45 -3 77.5 -17.5t49 -37.5t24 -46.5t7.5 -49.5q0 -101 -129 -193q63 -69 105 -107q18 24 42 66
q35 56 62 77q38 31 87 31q28 0 55 -6t41 -11.5t19 -9.5q-21 -70 -29 -100q-19 12 -60 12q-20 0 -38 -14.5t-29 -31.5l-28 -45t-29 -44l150.5 -109t105.5 -68zM287 108q55 0 104 41l-134 133q-78 -53 -77 -97q1 -36 31 -56.5t76 -20.5zM256 526q0 -37 42 -98q79 49 79 107
q0 23 -15 40.5t-41 17.5q-23 0 -44.5 -16t-20.5 -51z" />
    <glyph glyph-name="quotesingle" unicode="'" horiz-adv-x="217" 
d="M54 473l-8 208h125l-8 -208h-109z" />
    <glyph glyph-name="parenleft" unicode="(" horiz-adv-x="384" 
d="M205 253q0 -94 18 -181.5t44.5 -144.5t46.5 -90.5t32 -45.5h-120q-20 15 -43 43.5t-55.5 83t-53.5 143t-21 192.5q0 85 15 160.5t35.5 124t47 89t43.5 58.5t32 29h120q-12 -12 -32 -45t-46.5 -90t-44.5 -144.5t-18 -181.5z" />
    <glyph glyph-name="parenright" unicode=")" horiz-adv-x="384" 
d="M179 253q0 94 -18 181.5t-44.5 144.5t-46.5 90t-32 45h120q15 -11 32 -29t43.5 -58.5t47 -89t35.5 -124t15 -160.5q0 -104 -21 -192.5t-53.5 -143t-55.5 -83t-43 -43.5h-120q12 12 32 45.5t46.5 90.5t44.5 144.5t18 181.5z" />
    <glyph glyph-name="asterisk" unicode="*" horiz-adv-x="460" 
d="M232 433l-67 -126l-99 42l80 122l-120 24l29 108l124 -43l-4 134h110l-5 -135l134 44l20 -108l-116 -23l81 -123l-99 -41z" />
    <glyph glyph-name="plus" unicode="+" horiz-adv-x="547" 
d="M500 176h-161v-161h-129v161h-163v117h163v159h129v-159h161v-117z" />
    <glyph glyph-name="comma" unicode="," horiz-adv-x="258" 
d="M43 74q0 33 25.5 57t62.5 24q35 0 57.5 -21.5t25.5 -53.5q6 -61 -38.5 -118t-126.5 -95l-48 57q59 55 69 91q-27 24 -27 59z" />
    <glyph glyph-name="hyphen" unicode="-" horiz-adv-x="439" 
d="M31 200v126h377v-126h-377z" />
    <glyph glyph-name="period" unicode="." horiz-adv-x="257" 
d="M43 71q0 33 27 59t61 26q33 0 58 -26t25 -59t-25 -59t-58 -26q-34 0 -61 26.5t-27 58.5z" />
    <glyph glyph-name="slash" unicode="/" horiz-adv-x="387" 
d="M-53 -210l318 924h142l-319 -924h-141z" />
    <glyph glyph-name="zero" unicode="0" horiz-adv-x="638" 
d="M38 340q0 160 69.5 257.5t214.5 97.5q75 0 130 -27t86.5 -76.5t46.5 -111.5t15 -140t-15 -140t-46.5 -111t-86.5 -76t-130 -27q-145 0 -214.5 97t-69.5 257zM190 340q0 -229 130 -229q128 0 128 229q0 230 -128 230q-130 0 -130 -230z" />
    <glyph glyph-name="one" unicode="1" horiz-adv-x="500" 
d="M488 0h-454v122h154v438h-154v122h305v-560h149v-122z" />
    <glyph glyph-name="two" unicode="2" horiz-adv-x="560" 
d="M530 0h-499v126q2 2 28 21t58.5 45.5l68.5 58.5q144 129 144 211q0 14 -1 24.5t-7.5 26t-17 26t-32 18t-50.5 7.5q-34 0 -72 -8t-60 -16l-21 -9l-9 115q9 5 25 13t68 21.5t108 13.5q69 0 117 -21t70 -55.5t30.5 -66t8.5 -66.5q0 -132 -152 -275q-51 -53 -94 -84h289v-126
z" />
    <glyph glyph-name="three" unicode="3" horiz-adv-x="511" 
d="M31 7v122q79 -21 151 -21q153 0 153 109q0 47 -40.5 69t-102.5 22h-55v110h55q25 0 49.5 7t45 28.5t20.5 52.5q0 66 -111 66q-33 0 -67.5 -6t-52.5 -12l-17 -7l-8 119q84 28 188 28q110 0 161 -45t51 -118q0 -38 -12.5 -69t-29.5 -47.5t-34.5 -28t-30.5 -14.5l-12 -4v-2
q61 -10 103 -51t42 -113q0 -103 -73.5 -159.5t-194.5 -56.5q-46 0 -90.5 5.5t-66.5 10.5z" />
    <glyph glyph-name="four" unicode="4" horiz-adv-x="605" 
d="M269 681h215v-390h102v-117h-102v-173h-142v173h-316l1 117zM342 488l5 74l-165 -271h160v197z" />
    <glyph glyph-name="five" unicode="5" horiz-adv-x="518" 
d="M33 2l7 122q87 -14 147 -14q147 0 147 105q0 31 -18.5 50.5t-58.5 28.5t-83.5 12t-112.5 3l33 373h361l-12 -124h-207q-6 -74 -12 -136q56 -5 99.5 -16.5t81.5 -34t59 -60.5t21 -91q0 -64 -24 -111t-66 -73t-90 -38t-105 -12q-26 0 -52 1.5t-45.5 4l-34 4.5t-24.5 4
t-11 2z" />
    <glyph glyph-name="six" unicode="6" horiz-adv-x="555" 
d="M476 680l-17 -112q-1 0 -15 1t-34 2t-36 1q-74 0 -121 -53t-58 -155q59 48 132 48q86 0 138 -52t51 -154q-1 -98 -59.5 -159t-173.5 -61q-111 0 -176 71.5t-65 225.5q0 194 86.5 302.5t236.5 108.5q75 0 111 -14zM287 100q38 0 61.5 27.5t23.5 72.5q2 97 -84 97
q-44 0 -99 -44q8 -153 98 -153z" />
    <glyph glyph-name="seven" unicode="7" horiz-adv-x="502" 
d="M18 556v126h469v-126q-16 -25 -88 -148.5t-105 -187.5q-24 -47 -47.5 -102t-34.5 -86l-12 -32h-159q55 137 106 244q66 132 166 312h-295z" />
    <glyph glyph-name="eight" unicode="8" horiz-adv-x="570" 
d="M496 535q0 -82 -106 -167q69 -41 109.5 -83.5t40.5 -100.5q0 -90 -74.5 -144t-186.5 -54q-111 0 -180 42.5t-69 128.5q0 98 141 194q-108 82 -108 173q0 81 62.5 126t165.5 45q58 0 100.5 -15.5t64 -40.5t31 -51t9.5 -53zM395 178q0 28 -31.5 54t-91.5 60
q-31 -21 -48.5 -35.5t-33.5 -37t-16 -45.5q0 -37 30.5 -59t81.5 -22q53 0 81 24t28 61zM201 518q0 -18 15.5 -36.5t32.5 -30.5t45 -29q37 25 56.5 48t19.5 53q0 25 -21 44t-59 19t-63.5 -18t-25.5 -50z" />
    <glyph glyph-name="nine" unicode="9" horiz-adv-x="555" 
d="M79 0l17 112q1 0 15.5 -1t34.5 -2t35 -1q74 0 120.5 53t58.5 154q-63 -47 -132 -47q-86 0 -138 52t-51 154q1 98 60 159t172 61q111 0 176.5 -71.5t65.5 -225.5q0 -194 -86.5 -302.5t-236.5 -108.5q-75 0 -111 14zM267 580q-37 0 -60.5 -27.5t-24.5 -72.5q0 -97 85 -97
q43 0 98 43q-7 154 -98 154z" />
    <glyph glyph-name="colon" unicode=":" horiz-adv-x="257" 
d="M43 71q0 33 27 59t61 26q33 0 58 -26t25 -59t-25 -59t-58 -26q-34 0 -61 26.5t-27 58.5zM43 400q0 33 27 59t61 26q33 0 58 -26t25 -59t-25 -59.5t-58 -26.5q-34 0 -61 26.5t-27 59.5z" />
    <glyph glyph-name="semicolon" unicode=";" horiz-adv-x="257" 
d="M43 74q0 33 25.5 57t62.5 24q34 0 57 -21.5t26 -53.5q5 -61 -39.5 -118t-125.5 -95l-48 57q59 58 69 91q-27 24 -27 59zM43 399q0 34 26.5 59.5t61.5 25.5q33 0 58 -25.5t25 -59.5q0 -33 -25 -59.5t-58 -26.5q-35 0 -61.5 26.5t-26.5 59.5z" />
    <glyph glyph-name="less" unicode="&#x3c;" horiz-adv-x="559" 
d="M47 149v174l464 156v-134l-345 -103v-13l345 -103v-131z" />
    <glyph glyph-name="equal" unicode="=" horiz-adv-x="531" 
d="M484 268h-437v126h437v-126zM484 63h-437v126h437v-126z" />
    <glyph glyph-name="greater" unicode="&#x3e;" horiz-adv-x="559" 
d="M511 323v-174l-464 -154v131l346 103v13l-346 103v134z" />
    <glyph glyph-name="question" unicode="?" horiz-adv-x="448" 
d="M33 683q75 31 185 31q48 0 85 -12t58 -29.5t33.5 -41t16.5 -43.5t4 -39q-1 -62 -25.5 -102.5t-76.5 -80.5q-12 -9 -21 -17l-16.5 -14.5t-12.5 -15t-8.5 -12.5t-6 -13.5t-4 -12.5t-2 -15t-0.5 -15.5v-18.5v-20h-138q0 1 -0.5 30t0 36.5t5 33t12.5 39.5t24 35t38 39
q39 31 54.5 50t16.5 46q1 26 -19 45t-65 19q-33 0 -62 -4t-42 -8l-12 -4zM86 70q0 33 25.5 56.5t61.5 23.5q34 0 59.5 -24t25.5 -56q0 -33 -25.5 -57.5t-59.5 -24.5q-37 0 -62 24t-25 58z" />
    <glyph glyph-name="at" unicode="@" horiz-adv-x="795" 
d="M531 1l2 -93q-13 -15 -67.5 -28t-105.5 -13q-79 0 -139 21.5t-94 54.5t-55.5 78t-28 85t-6.5 83q0 55 13 109.5t44 107.5t75.5 94t113.5 66t153 25q79 0 141.5 -24.5t101 -65.5t59 -92t20.5 -107q0 -70 -22.5 -123.5t-59 -83t-77.5 -44t-84 -14.5q-37 0 -57.5 18.5
t-23.5 46.5q0 12 1 15q-84 -80 -154 -80q-34 0 -54 33t-20 87q0 109 59.5 191t131.5 82q45 0 93 -22q5 8 11.5 14t10.5 8l4 3l72 -31q-18 -37 -34 -139q-16 -112 -15 -132q44 0 82 50t38 117q0 89 -58 144.5t-166 55.5q-77 0 -137 -27.5t-94.5 -73.5t-51.5 -99t-17 -109
q0 -26 4.5 -52.5t19.5 -59.5t38 -58t65 -42t97 -17q56 0 104.5 14t66.5 27zM327 134q64 27 114 79q1 10 10 59q6 40 16 73q-56 8 -72 8q-26 -15 -47 -53t-25 -82q-3 -24 -2.5 -43t3.5 -30z" />
    <glyph glyph-name="A" unicode="A" horiz-adv-x="661" 
d="M214 682h238l197 -681h-175l-49 176h-206q-32 -118 -49 -176h-158zM324 570l-74 -270h146z" />
    <glyph glyph-name="B" unicode="B" horiz-adv-x="636" 
d="M67 0v682h282q105 0 155.5 -49.5t50.5 -114.5q0 -57 -33.5 -97.5t-82.5 -55.5v-1q69 -5 115.5 -49.5t46.5 -122.5q0 -80 -64 -136t-179 -56h-291zM445 208q0 88 -128 88h-100v-174h113q55 0 85 22t30 64zM322 560h-105v-143h100q38 1 61 23t23 53q0 67 -79 67z" />
    <glyph glyph-name="C" unicode="C" horiz-adv-x="596" 
d="M555 146l1 -33q2 -33 3 -67l1 -33q-75 -27 -191 -27q-159 1 -247 100t-88 253q0 153 91.5 254t250.5 101q112 0 173 -25l-7 -134q-68 17 -139 17q-104 0 -156 -60.5t-52 -152.5q0 -93 49.5 -151.5t153.5 -58.5q76 0 157 17z" />
    <glyph glyph-name="D" unicode="D" horiz-adv-x="726" 
d="M67 0v682h281q158 0 250.5 -90t92.5 -247q0 -158 -93 -251.5t-250 -93.5h-281zM313 552h-93v-422h93q219 0 219 215q0 207 -219 207z" />
    <glyph glyph-name="E" unicode="E" horiz-adv-x="532" 
d="M67 0v681h412v-129h-266v-147h209v-120h-209v-156h284v-129h-430z" />
    <glyph glyph-name="F" unicode="F" horiz-adv-x="500" 
d="M431 258h-210v-258h-154v681h421v-129h-267v-173h210v-121z" />
    <glyph glyph-name="G" unicode="G" horiz-adv-x="649" 
d="M464 129v176h137v-288q-86 -31 -230 -31q-164 1 -250.5 96.5t-86.5 249.5q0 159 95 260.5t261 101.5q128 0 194 -27l-14 -132q-4 2 -24.5 6t-60 8.5t-77.5 4.5q-105 0 -160 -61.5t-55 -154.5q0 -90 48 -152t146 -62q39 0 77 5z" />
    <glyph glyph-name="H" unicode="H" horiz-adv-x="715" 
d="M494 0v272h-273v-272h-154v681h154v-281h273v281h155v-681h-155z" />
    <glyph glyph-name="I" unicode="I" horiz-adv-x="288" 
d="M67 0v681h154v-681h-154z" />
    <glyph glyph-name="J" unicode="J" horiz-adv-x="395" 
d="M23 0l-3 130q36 -11 80 -11q47 0 63.5 22t16.5 73v468h154v-514q0 -91 -43 -136.5t-142 -45.5q-35 0 -66.5 3.5t-45.5 6.5z" />
    <glyph glyph-name="K" unicode="K" horiz-adv-x="605" 
d="M67 0v681h154v-681h-154zM598 0h-165l-188 330v19l178 333h157l-191 -337z" />
    <glyph glyph-name="L" unicode="L" horiz-adv-x="534" 
d="M67 0v681h154v-552h297v-129h-451z" />
    <glyph glyph-name="M" unicode="M" horiz-adv-x="940" 
d="M724 0l-10 467l-165 -467h-164l-161 469l-12 -469h-152l23 681h237l162 -484l170 484h204l23 -681h-155z" />
    <glyph glyph-name="N" unicode="N" horiz-adv-x="740" 
d="M501 0l-282 450v-450h-152v682h170l284 -457v457h152v-682h-172z" />
    <glyph glyph-name="O" unicode="O" horiz-adv-x="737" 
d="M368 694q159 0 247 -100t88 -254t-88 -254t-247 -100t-246.5 100t-87.5 254t87.5 254t246.5 100zM368 556q-87 0 -130 -60t-43 -156t43 -156t130 -60t131 60.5t44 155.5t-44 155.5t-131 60.5z" />
    <glyph glyph-name="P" unicode="P" horiz-adv-x="621" 
d="M67 0v682h268q54 0 98.5 -11t83.5 -36t61 -71.5t22 -110.5q0 -118 -69.5 -180.5t-184.5 -62.5h-126v-210h-153zM323 553h-103v-214h110q54 0 81.5 32t27.5 79q0 103 -116 103z" />
    <glyph glyph-name="Q" unicode="Q" horiz-adv-x="737" 
d="M677 -237l-379 63l20 123l382 -51zM368 694q159 0 247 -100t88 -254t-88 -254t-247 -100t-246.5 100t-87.5 254t87.5 254t246.5 100zM368 556q-87 0 -130 -60t-43 -156t43 -156t130 -60t131 60.5t44 155.5t-44 155.5t-131 60.5z" />
    <glyph glyph-name="R" unicode="R" horiz-adv-x="633" 
d="M607 0h-163l-112 237h-112v-237h-153v682h263q116 0 182.5 -49t66.5 -157q0 -126 -109 -186zM317 553h-97v-194h141q61 28 61 101q0 93 -105 93z" />
    <glyph glyph-name="S" unicode="S" horiz-adv-x="560" 
d="M48 8l6 128q94 -22 182 -22q62 0 95.5 19.5t33.5 53.5q0 24 -16.5 40t-51.5 32q-1 0 -29.5 12.5l-52 23t-26.5 13.5q-30 15 -46 25t-40 31.5t-35.5 53.5t-11.5 74q0 88 69 145t179 57q52 0 99 -6.5t67 -13.5l21 -6l-6 -123q-74 26 -154 26q-49 0 -82 -17.5t-33 -50.5
q0 -34 46 -57q6 -4 61 -28l55 -23q73 -33 110.5 -74t37.5 -119q0 -96 -67 -156t-203 -60q-44 0 -96 5.5t-82 10.5z" />
    <glyph glyph-name="T" unicode="T" horiz-adv-x="571" 
d="M564 552h-201v-552h-155v552h-201v129h557v-129z" />
    <glyph glyph-name="U" unicode="U" horiz-adv-x="690" 
d="M477 253v428h152v-427q0 -128 -71.5 -198t-213.5 -70q-143 0 -213.5 68.5t-70.5 193.5v433h154v-433q0 -131 132 -131q131 0 131 136z" />
    <glyph glyph-name="V" unicode="V" horiz-adv-x="657" 
d="M444 0h-233l-199 682h173l149 -547l151 547h160z" />
    <glyph glyph-name="W" unicode="W" horiz-adv-x="1011" 
d="M400 0h-245l-144 682h171l108 -537l136 537h179l126 -532l115 532h154l-154 -682h-235l-106 428z" />
    <glyph glyph-name="X" unicode="X" horiz-adv-x="642" 
d="M635 0h-180l-150 243l-136 -243h-162l221 370l-198 312h184l123 -213l117 213h164l-203 -342z" />
    <glyph glyph-name="Y" unicode="Y" horiz-adv-x="587" 
d="M7 682h177l111 -256l116 256h169l-212 -401v-281h-154v279z" />
    <glyph glyph-name="Z" unicode="Z" horiz-adv-x="581" 
d="M531 552l-299 -422h323v-130h-519v130l297 422h-274v129h472v-129z" />
    <glyph glyph-name="bracketleft" unicode="[" horiz-adv-x="421" 
d="M361 -83v-127h-296v923h296v-127h-151v-669h151z" />
    <glyph glyph-name="backslash" unicode="\" horiz-adv-x="535" 
d="M182 714l316 -924h-144l-317 924h145z" />
    <glyph glyph-name="bracketright" unicode="]" horiz-adv-x="421" 
d="M59 -210v127h151v669h-151v127h296v-923h-296z" />
    <glyph glyph-name="asciicircum" unicode="^" horiz-adv-x="564" 
d="M201 682h164l168 -434h-124l-119 322h-13l-121 -322h-126z" />
    <glyph glyph-name="underscore" unicode="_" horiz-adv-x="591" 
d="M591 -191h-591v134h591v-134z" />
    <glyph glyph-name="grave" unicode="`" 
d="M336 606l-56 -84l-188 120l62 98z" />
    <glyph glyph-name="a" unicode="a" horiz-adv-x="530" 
d="M514 103l6 -101q-4 -2 -11.5 -4.5t-34 -7t-56.5 -4.5q-91 1 -107 75q-56 -75 -148 -75q-30 0 -59 10t-53 40.5t-24 76.5q0 29 11.5 53t27 39.5t42 27.5t47.5 18t53.5 10.5t49.5 5.5t45 3v34q0 28 -16 40.5t-64 12.5q-25 0 -57 -5.5t-52 -11.5l-19 -6l-14 110
q80 41 191 41q107 0 144 -43.5t37 -119.5v-167q0 -26 5.5 -37t20.5 -15q8 -2 16.5 -2t13.5 1zM303 143v47q-23 0 -39 -2q-83 -10 -84 -51q0 -18 12.5 -27.5t30.5 -9.5q51 0 80 43z" />
    <glyph glyph-name="b" unicode="b" horiz-adv-x="573" 
d="M62 29v685h152v-281q54 52 132 52q84 0 138.5 -63t54.5 -181q0 -119 -69.5 -187t-184.5 -68q-59 0 -114.5 10.5t-77.5 19t-31 13.5zM292 360q-47 0 -78 -27v-217q24 -8 68 -8q47 0 74.5 35.5t27.5 94.5q0 60 -25.5 91t-66.5 31z" />
    <glyph glyph-name="c" unicode="c" horiz-adv-x="445" 
d="M414 131l7 -117q-54 -28 -154 -28q-102 0 -167.5 64.5t-65.5 180.5q0 122 72 188t187 66q85 0 121 -18l-12 -120q-50 10 -93 10q-57 0 -89.5 -33t-32.5 -93q0 -53 31.5 -85t85.5 -32q76 0 110 17z" />
    <glyph glyph-name="d" unicode="d" horiz-adv-x="575" 
d="M513 714v-714h-140l-6 45q-52 -58 -138 -58q-83 0 -139 62.5t-56 180.5q0 116 64.5 186t170.5 70q45 0 91 -13v241h153zM283 112q44 0 77 26v216q-22 9 -66 9q-50 0 -77.5 -34.5t-27.5 -93.5q0 -60 26.5 -91.5t67.5 -31.5z" />
    <glyph glyph-name="e" unicode="e" horiz-adv-x="491" 
d="M307 105q33 0 76 5t50 8q0 -4 6 -113q-4 -3 -19 -7t-54 -8t-88 -4q-120 0 -182 62.5t-62 181.5q0 115 62 184.5t162 70.5q60 0 102.5 -18.5t61.5 -48t26.5 -55.5t7.5 -52q0 -32 -4.5 -61.5t-9.5 -43.5l-4 -14h-253q17 -87 122 -87zM180 281h145q0 1 0.5 7t0.5 12.5v15.5
q0 27 -16.5 45.5t-46.5 17.5q-31 -1 -54 -25t-29 -73z" />
    <glyph glyph-name="f" unicode="f" horiz-adv-x="387" 
d="M13 367l12 105h70v71q0 86 53 136.5t156 50.5q30 0 59 -4t43 -7t17 -5l-19 -123q-12 8 -63 8q-93 0 -93 -96v-31h146v-105h-146v-367h-153v367h-82z" />
    <glyph glyph-name="g" unicode="g" horiz-adv-x="514" 
d="M449 325q0 -72 -54.5 -116t-147.5 -44q-17 0 -37 3q-20 -20 -20 -36q0 -32 37 -32h113q35 0 62.5 -6.5t52 -21.5t37.5 -44t13 -71q-1 -80 -72 -132.5t-213 -51.5q-85 0 -138 31t-54 93q-1 68 75 105q-44 28 -42 78q0 38 26 63.5t61 38.5q-101 40 -101 143q0 72 53.5 116
t146.5 44q27 0 87.5 -6.5t74.5 -6.5l100 6l-4 -85l-74 -2q18 -31 18 -66zM305 -15h-130q-31 -23 -30 -61q1 -54 89 -56q133 -1 133 69q1 23 -15 35.5t-47 12.5zM248 246q27 0 49 18.5t22 60.5t-22 59t-49 17t-48.5 -17.5t-21.5 -58.5q0 -42 22 -60.5t48 -18.5z" />
    <glyph glyph-name="h" unicode="h" horiz-adv-x="583" 
d="M528 0h-154v270q0 37 -14 56t-55 19q-47 0 -90 -35v-310h-153v714h153v-299q77 69 160 69q81 0 117 -45.5t36 -109.5v-329z" />
    <glyph glyph-name="i" unicode="i" horiz-adv-x="278" 
d="M216 471v-471h-154v471h154zM214 559q-27 -11 -78 -11t-70 11q-12 19 -12 63q0 45 11 69q24 11 74 11q52 0 74 -11q11 -17 11 -63t-10 -69z" />
    <glyph glyph-name="j" unicode="j" horiz-adv-x="277" 
d="M62 471h154v-491q0 -100 -53 -153.5t-148 -53.5q-29 0 -53 1.5t-34 3.5l-9 1l-4 128q38 -3 54 -3q53 0 73 24t20 89v454zM216 559q-26 -11 -78 -11q-51 0 -70 11q-12 19 -12 63q0 45 11 69q24 11 74 11q54 0 74 -11q12 -19 12 -63q0 -43 -11 -69z" />
    <glyph glyph-name="k" unicode="k" horiz-adv-x="544" 
d="M216 714v-714h-154v714h154zM553 0h-177l-137 250v2l134 219h158l-132 -211z" />
    <glyph glyph-name="l" unicode="l" horiz-adv-x="278" 
d="M216 714v-714h-154v714h154z" />
    <glyph glyph-name="m" unicode="m" horiz-adv-x="873" 
d="M818 0h-154v270q0 37 -14.5 56t-54.5 19q-38 0 -79 -34q1 -23 1 -70v-241h-153v270q0 37 -14.5 56t-54.5 19q-37 0 -80 -35v-310h-153v471h142l7 -59q21 20 36 31.5t48.5 26t68.5 14.5q104 0 138 -79q82 79 162 79q82 0 118 -45.5t36 -109.5v-329z" />
    <glyph glyph-name="n" unicode="n" horiz-adv-x="583" 
d="M527 0h-153v270q0 37 -14 56t-55 19q-47 0 -90 -35v-310h-153v471h142l7 -59q78 72 163 72q81 0 117 -45.5t36 -109.5v-329z" />
    <glyph glyph-name="o" unicode="o" horiz-adv-x="572" 
d="M34 235q0 116 68.5 183t182.5 67q117 0 185 -67t68 -183q0 -115 -68 -182t-185 -67q-114 0 -182.5 67t-68.5 182zM188 235q0 -66 25.5 -102.5t71.5 -36.5q47 0 73 36.5t26 102.5t-26 102t-73 36q-46 0 -71.5 -36t-25.5 -102z" />
    <glyph glyph-name="p" unicode="p" horiz-adv-x="574" 
d="M62 -212v683h140l6 -44q56 58 138 58q84 0 139 -62.5t55 -180.5q0 -116 -64 -186t-171 -70q-43 0 -91 16v-214h-152zM292 360q-46 0 -78 -28v-216q24 -8 65 -8q49 0 77.5 35.5t28.5 93.5q0 60 -26 91.5t-67 31.5z" />
    <glyph glyph-name="q" unicode="q" horiz-adv-x="573" 
d="M511 442v-655h-153v250q-49 -51 -131 -51q-84 0 -138.5 62.5t-54.5 181.5t70 187t184 68q59 0 114.5 -10.5t77.5 -19t31 -13.5zM281 111q45 0 77 26v217q-24 8 -67 8q-47 0 -74.5 -35.5t-27.5 -93.5q0 -60 25.5 -91t66.5 -31z" />
    <glyph glyph-name="r" unicode="r" horiz-adv-x="384" 
d="M380 479l-8 -150q-86 0 -156 -35v-294h-154v471h142l11 -74q63 84 165 82z" />
    <glyph glyph-name="s" unicode="s" horiz-adv-x="442" 
d="M38 2l8 108q3 -1 25.5 -4.5t56 -7t56.5 -3.5q35 0 57 10.5t22 28.5q0 25 -26 35q-3 2 -39.5 13t-37.5 11q-109 39 -109 144q0 71 59 109.5t141 38.5q87 0 138 -17l-10 -106q-65 13 -111 13q-69 0 -69 -37q0 -22 35 -36l40 -13q39 -13 41 -15q99 -35 99 -130
q0 -74 -55.5 -116t-149.5 -42q-44 0 -85.5 3.5t-62 7t-23.5 5.5z" />
    <glyph glyph-name="t" unicode="t" horiz-adv-x="426" 
d="M13 366l12 105h83v135l152 10v-145h131v-105h-131v-171q0 -48 15.5 -62t49.5 -14q14 0 31.5 2.5t27.5 4.5t12 3l5 -120q-2 -2 -20 -7t-55 -10.5t-76 -5.5q-142 0 -142 143v237h-95z" />
    <glyph glyph-name="u" unicode="u" horiz-adv-x="577" 
d="M55 471h155v-270q0 -38 12.5 -56.5t52.5 -18.5q35 0 88 35v310h153v-471h-142l-7 59q-78 -72 -161 -72q-81 0 -116 45t-35 110v329z" />
    <glyph glyph-name="v" unicode="v" horiz-adv-x="497" 
d="M7 471h157l94 -364l92 364h140l-138 -471h-205z" />
    <glyph glyph-name="w" unicode="w" horiz-adv-x="753" 
d="M7 471h157l76 -349l67 349h158l71 -347l72 347h138l-117 -471h-188l-62 277l-57 -277h-188z" />
    <glyph glyph-name="x" unicode="x" horiz-adv-x="477" 
d="M478 0h-168l-84 138l-83 -138h-151l162 251l-144 220h169l75 -131l81 131h151l-162 -243z" />
    <glyph glyph-name="y" unicode="y" horiz-adv-x="492" 
d="M346 471h139l-143 -477q-34 -109 -82.5 -161t-138.5 -56q-39 -3 -70 1l-27 4q0 2 -1 60t-1 59q32 -5 62 -5q46 0 68 15.5t37 51.5l8 21l-194 487h156l103 -316z" />
    <glyph glyph-name="z" unicode="z" horiz-adv-x="457" 
d="M47 366v105h368v-105l-211 -260h230v-106h-407v105l209 261h-189z" />
    <glyph glyph-name="braceleft" unicode="{" horiz-adv-x="401" 
d="M362 -216q-8 -1 -21 -3t-44 -4t-52 -1q-153 10 -155 130q-1 46 14 206q5 39 -8 56.5t-57 24.5v127q45 8 57.5 25t7.5 58q-14 152 -14 197q1 120 155 130q21 1 50 -1t48 -5l19 -2q0 -119 -1 -119q-5 1 -13 1.5t-28 -1.5t-35.5 -8t-28.5 -22.5t-14 -40.5q-1 -27 8 -98.5
t9 -98.5q0 -30 -18 -51t-52 -27v-3q33 -4 52 -27t18 -48q0 -28 -9 -102.5t-8 -102.5q1 -39 30.5 -57.5t59.5 -18.5l29 1l1 -29v-57v-29z" />
    <glyph glyph-name="bar" unicode="|" horiz-adv-x="293" 
d="M70 -213v930h152v-930h-152z" />
    <glyph glyph-name="braceright" unicode="}" horiz-adv-x="401" 
d="M39 -216v5v13v19v21v21.5t0.5 18t0.5 12.5v5q5 0 13 -0.5t28 2t35.5 9t28.5 23.5t14 41q1 28 -8 102.5t-9 102.5q-1 25 18 48t52 27v3q-34 6 -52 27t-18 51q0 27 9 98.5t8 98.5q-1 39 -30.5 56.5t-58.5 15.5l-30 -1l-1 119q8 1 21 3t44 4t52 1q154 -10 155 -130
q0 -45 -14 -197q-5 -41 7.5 -58t57.5 -25v-127q-44 -7 -57 -24.5t-8 -56.5q15 -160 14 -206q-2 -120 -155 -130q-21 -1 -50 1t-48 5z" />
    <glyph glyph-name="asciitilde" unicode="~" horiz-adv-x="604" 
d="M88 153q-47 86 -49 86q25 46 70 75t101 28q43 -1 111.5 -32.5t102.5 -37.5q51 -8 96 31l44 -96q-41 -79 -141 -79q-48 1 -113.5 37t-98.5 38q-67 3 -123 -50z" />
    <glyph glyph-name="uni00A0" unicode="&#xa0;" horiz-adv-x="54" 
 />
    <glyph glyph-name="exclamdown" unicode="&#xa1;" horiz-adv-x="308" 
d="M92 258h126l14 -470h-155zM68 403q0 33 25.5 57t61.5 24q35 0 60 -24t25 -57q0 -32 -25.5 -56t-59.5 -24q-36 0 -61.5 23.5t-25.5 56.5z" />
    <glyph glyph-name="cent" unicode="&#xa2;" horiz-adv-x="483" 
d="M201 555v138h118v-126q88 -4 110 -17l-11 -128q-30 12 -93 12q-59 0 -91 -30t-32 -90q0 -53 31.5 -82t86.5 -29q66 0 110 19q0 -19 1 -39.5t2.5 -46t2.5 -39.5q-43 -21 -117 -26v-123h-118v132q-71 20 -112.5 80.5t-41.5 153.5q0 92 41 154.5t113 86.5z" />
    <glyph glyph-name="sterling" unicode="&#xa3;" horiz-adv-x="579" 
d="M555 664l-12 -119q-61 18 -123 18q-112 0 -124 -117q0 -1 -4 -29h164v-110h-177q-1 -15 -3 -32.5t-3.5 -28t-1.5 -12.5q-5 -63 -27 -124h279v-110h-503v110h73q21 54 29 123q0 2 8 74h-80v110h93l7 53q3 33 8 56.5t20 57.5t38 56t64.5 38t97.5 16q50 0 101.5 -9.5
t75.5 -20.5z" />
    <glyph glyph-name="yen" unicode="&#xa5;" horiz-adv-x="586" 
d="M413 682h165l-150 -278h116v-89h-161l-17 -32v-20h178v-88h-178v-175h-151v175h-175v88h175v16l-18 36h-157v89h112l-144 278h174l112 -259z" />
    <glyph glyph-name="brokenbar" unicode="&#xa6;" horiz-adv-x="288" 
d="M83 0v300h121v-300h-121zM83 434v296h121v-296h-121z" />
    <glyph glyph-name="section" unicode="&#xa7;" horiz-adv-x="612" 
d="M299 -97q24 1 41.5 9.5t26.5 24t13.5 33.5t2.5 43t-5 46.5t-11 51.5t-14.5 50.5l-15.5 49.5t-13 43q-28 79 -42 124t-26.5 102t-6 91.5t30.5 51.5q-26 -2 -44 -12.5t-27 -29t-13 -41.5t-1 -51t8 -55.5t13.5 -58.5t16 -55.5t16.5 -50.5q3 -10 5 -15l18 -54.5l17.5 -52.5
l15.5 -47.5t13 -46t8 -39.5t3.5 -36.5t-3 -29.5t-9.5 -26t-18 -19zM83 -209l15 145q29 -4 56 -4q37 0 50 25q4 9 6 19t-0.5 25.5t-6 30t-11.5 40.5t-15.5 47.5l-21 61.5l-24.5 73q-158 476 174 476q57 0 109 -4t76 -8l23 -3l-6 -144q-25 4 -52 4q-41 0 -52 -22q-4 -9 -5 -19
t1.5 -26t6 -30.5t12 -41.5t16 -48.5l21 -62l24.5 -73.5q16 -49 27 -89.5t19.5 -91.5t6.5 -90.5t-15.5 -79.5t-41 -66t-76.5 -42.5t-116 -16.5q-50 0 -100 4t-75 8z" />
    <glyph glyph-name="dieresis" unicode="&#xa8;" 
d="M176 691q10 -17 10 -55q0 -39 -9 -57q-20 -10 -61 -10q-34 0 -52 9q-10 18 -10 58q0 36 9 54q26 11 59 11q36 0 54 -10zM356 691q11 -18 11 -55t-10 -57q-20 -10 -60 -10q-34 0 -52 9q-11 20 -11 58q0 34 10 54q26 11 59 11q35 0 53 -10z" />
    <glyph glyph-name="copyright" unicode="&#xa9;" horiz-adv-x="816" 
d="M122 338q0 -119 83.5 -202.5t202.5 -83.5t203 83.5t84 202.5t-84 203t-203 84t-202.5 -84t-83.5 -203zM55 338q0 147 103 250.5t250 103.5q146 0 249.5 -103.5t103.5 -250.5q0 -146 -103.5 -249t-249.5 -103q-147 0 -250 103t-103 249zM524 224v-22l2 -46v-23
q-44 -15 -121 -15q-95 0 -145 59t-50 152t52.5 153t147.5 60q75 0 110 -15l-5 -91q-40 10 -85 10q-113 0 -113 -117q0 -55 24 -85t86 -30q45 0 97 10z" />
    <glyph glyph-name="ordfeminine" unicode="&#xaa;" horiz-adv-x="359" 
d="M332 473l4 -67q-26 -10 -66 -10q-58 2 -68 45q-34 -45 -92 -45q-32 0 -57 19t-25 57q0 28 14.5 47.5t42 29t52.5 13.5t60 6v15q0 27 -46 26q-17 0 -37.5 -3.5t-32.5 -6.5l-12 -3l-7 75q51 24 119 24q117 0 117 -97v-94q0 -28 14 -32zM197 494v24q-13 0 -23 -1
q-21 -3 -35 -10t-13 -21q1 -19 24 -17q12 1 26.5 8.5t20.5 16.5z" />
    <glyph glyph-name="guillemotleft" unicode="&#xab;" horiz-adv-x="584" 
d="M532 428l-70 -190l70 -189l-132 -39l-102 228l102 229zM287 428l-71 -190l71 -189l-133 -39l-102 228l102 229z" />
    <glyph glyph-name="logicalnot" unicode="&#xac;" horiz-adv-x="619" 
d="M572 380v-323h-151v188h-374v135h525z" />
    <glyph glyph-name="registered" unicode="&#xae;" horiz-adv-x="490" 
d="M17 465q0 94 66.5 161t161.5 67q94 0 161 -67t67 -161t-67 -161t-161 -67q-95 0 -161.5 66.5t-66.5 161.5zM74 464q0 -69 50 -118.5t121 -49.5q69 0 118.5 50t49.5 118q0 71 -49.5 121.5t-118.5 50.5q-71 0 -121 -50.5t-50 -121.5zM347 341h-81l-26 84h-19v-84h-70v245
h105q41 0 65.5 -18.5t24.5 -55.5q0 -46 -37 -68zM244 532h-23v-55h34q16 7 16 30q0 25 -27 25z" />
    <glyph glyph-name="macron" unicode="&#xaf;" 
d="M47 573v121h330v-121h-330z" />
    <glyph glyph-name="degree" unicode="&#xb0;" horiz-adv-x="322" 
d="M10 580q0 62 44 106t107 44t107 -44t44 -106q0 -64 -44 -108t-107 -44t-107 44t-44 108zM105 581q0 -24 16.5 -41t40.5 -17q23 0 39.5 17t16.5 41q0 23 -17 39.5t-39 16.5q-24 0 -40.5 -16.5t-16.5 -39.5z" />
    <glyph glyph-name="plusminus" unicode="&#xb1;" horiz-adv-x="548" 
d="M500 0h-452v103h452v-103zM500 268h-161v-116h-129v116h-163v101h163v115h129v-115h161v-101z" />
    <glyph glyph-name="twosuperior" unicode="&#xb2;" horiz-adv-x="449" 
 />
    <glyph glyph-name="threesuperior" unicode="&#xb3;" horiz-adv-x="410" 
 />
    <glyph glyph-name="acute" unicode="&#xb4;" 
d="M148 522l-56 84l182 134l62 -98z" />
    <glyph glyph-name="mu" unicode="&#xb5;" horiz-adv-x="577" 
d="M55 471h154v-270q0 -38 12.5 -57t52.5 -19q44 0 88 36v310h153v-471h-141q-1 10 -4 30t-4 29q-44 -44 -100 -59q-30 -9 -69 -7q6 -123 12 -207h-154v685z" />
    <glyph glyph-name="mu" unicode="&#x3bc;" horiz-adv-x="577" 
d="M55 471h154v-270q0 -38 12.5 -57t52.5 -19q44 0 88 36v310h153v-471h-141q-1 10 -4 30t-4 29q-44 -44 -100 -59q-30 -9 -69 -7q6 -123 12 -207h-154v685z" />
    <glyph glyph-name="paragraph" unicode="&#xb6;" horiz-adv-x="636" 
d="M126 -208l12 119q2 -1 20.5 -2.5t45 -3t44.5 -1.5q85 0 122.5 38.5t37.5 115.5v625h145v-672q0 -121 -72.5 -179t-191.5 -58q-44 0 -95 5.5t-68 12.5zM251 231v326q-49 -11 -57 -14q-32 -64 -32 -147q0 -90 33 -151q4 -2 15 -5t24 -5.5t17 -3.5zM345 683v-579
q-56 0 -122.5 18t-105.5 40q-54 93 -55.5 229.5t51.5 238.5q102 46 232 53z" />
    <glyph glyph-name="periodcentered" unicode="&#xb7;" horiz-adv-x="257" 
d="M43 254q0 33 27 59t61 26q33 0 58 -26t25 -59t-25 -58.5t-58 -25.5q-34 0 -61 26t-27 58z" />
    <glyph glyph-name="cedilla" unicode="&#xb8;" horiz-adv-x="434" 
d="M108 -206l8 81q33 -10 56 -11q42 -3 42 16q0 8 -6.5 24t-6.5 26q0 12 6.5 22.5t12.5 15.5l6 4h81q-13 -15 -13 -38q0 -26 16 -52t16 -44q0 -63 -99 -63q-32 0 -61.5 4.5t-43.5 9.5z" />
    <glyph glyph-name="onesuperior" unicode="&#xb9;" horiz-adv-x="390" 
 />
    <glyph glyph-name="ordmasculine" unicode="&#xba;" horiz-adv-x="358" 
d="M28 546q0 69 41 109t109 40q71 0 111.5 -39.5t40.5 -109.5t-40.5 -110t-111.5 -40q-68 0 -109 40.5t-41 109.5zM135 545q0 -76 43 -76q45 0 45 76q0 77 -45 77q-43 0 -43 -77z" />
    <glyph glyph-name="guillemotright" unicode="&#xbb;" horiz-adv-x="584" 
d="M123 238l-71 190l132 39l103 -229l-103 -228l-132 39zM368 238l-70 190l132 39l102 -229l-102 -228l-132 39z" />
    <glyph glyph-name="onequarter" unicode="&#xbc;" horiz-adv-x="1290" 
 />
    <glyph glyph-name="onehalf" unicode="&#xbd;" horiz-adv-x="759" 
 />
    <glyph glyph-name="threequarters" unicode="&#xbe;" horiz-adv-x="1310" 
 />
    <glyph glyph-name="questiondown" unicode="&#xbf;" horiz-adv-x="448" 
d="M206 259h137q0 -3 0.5 -31t0 -38t-4.5 -35.5t-12 -40.5t-23.5 -35.5t-37.5 -37.5l-21.5 -15.5t-18.5 -13.5t-13 -11t-11.5 -12t-6 -12.5t-2.5 -15.5q0 -56 84 -56q33 0 62 4t41 8l13 4l22 -114q-76 -31 -186 -31q-59 0 -101 17t-61 45t-26.5 53t-7.5 50q1 61 22.5 90.5
t79.5 72.5q50 38 60.5 63t10.5 77v15zM362 402q0 -32 -25.5 -56t-61.5 -24q-34 0 -59.5 24t-25.5 56q0 34 25 58t60 24q36 0 61.5 -24t25.5 -58z" />
    <glyph glyph-name="Agrave" unicode="&#xc0;" horiz-adv-x="661" 
d="M214 682h238l197 -681h-175l-49 176h-206q-32 -118 -49 -176h-158zM324 570l-74 -270h146zM451 818l-56 -84l-188 120l62 98z" />
    <glyph glyph-name="Aacute" unicode="&#xc1;" horiz-adv-x="661" 
d="M214 682h238l197 -681h-175l-49 176h-206q-32 -118 -49 -176h-158zM324 570l-74 -270h146zM277 734l-56 84l182 134l62 -98z" />
    <glyph glyph-name="Acircumflex" unicode="&#xc2;" horiz-adv-x="661" 
d="M214 682h238l197 -681h-175l-49 176h-206q-32 -118 -49 -176h-158zM324 570l-74 -270h146zM288 946h77l141 -115l-59 -84l-121 89l-120 -89l-58 84z" />
    <glyph glyph-name="Atilde" unicode="&#xc3;" horiz-adv-x="661" 
d="M214 682h238l197 -681h-175l-49 176h-206q-32 -118 -49 -176h-158zM324 570l-74 -270h146zM193 782l-46 72q5 7 14.5 18t40.5 29t63 18q26 1 103 -20q55 -15 94 21l47 -73q-5 -7 -13.5 -18t-35.5 -29t-55 -18q-30 0 -66.5 13t-61.5 13q-21 0 -42 -6.5t-31 -13.5z" />
    <glyph glyph-name="Adieresis" unicode="&#xc4;" horiz-adv-x="661" 
d="M214 682h238l197 -681h-175l-49 176h-206q-32 -118 -49 -176h-158zM324 570l-74 -270h146zM292 903q10 -17 10 -55q0 -39 -9 -57q-20 -10 -61 -10q-34 0 -52 9q-10 18 -10 58q0 36 9 54q26 11 59 11q36 0 54 -10zM472 903q11 -18 11 -55t-10 -57q-20 -10 -60 -10
q-34 0 -52 9q-11 20 -11 58q0 34 10 54q26 11 59 11q35 0 53 -10z" />
    <glyph glyph-name="Aring" unicode="&#xc5;" horiz-adv-x="661" 
d="M214 682h238l197 -681h-175l-49 176h-206q-32 -118 -49 -176h-158zM324 570l-74 -270h146zM219 846q0 47 32.5 80.5t79.5 33.5t80.5 -34t33.5 -80q0 -47 -33.5 -80.5t-80.5 -33.5t-79.5 33.5t-32.5 80.5zM291 846q0 -17 11.5 -28.5t28.5 -11.5t28.5 12t11.5 28t-12 27.5
t-28 11.5q-17 0 -28.5 -11.5t-11.5 -27.5z" />
    <glyph glyph-name="AE" unicode="&#xc6;" horiz-adv-x="920" 
d="M455 0v177h-228l-57 -176h-158l224 680h631v-129h-265v-147h208v-120h-208v-156h283v-129h-430zM344 552l-81 -252h192v252h-111z" />
    <glyph glyph-name="Ccedilla" unicode="&#xc7;" horiz-adv-x="596" 
d="M555 146l1 -33q2 -33 3 -67l1 -33q-75 -27 -191 -27q-159 1 -247 100t-88 253q0 153 91.5 254t250.5 101q112 0 173 -25l-7 -134q-68 17 -139 17q-104 0 -156 -60.5t-52 -152.5q0 -93 49.5 -151.5t153.5 -58.5q76 0 157 17zM197 -206l8 81q33 -10 56 -11q42 -3 42 16
q0 8 -6.5 24t-6.5 26q0 12 6 22.5t12 15.5l7 4h81q-13 -15 -13 -38q0 -26 16 -52t16 -44q0 -63 -99 -63q-32 0 -61.5 4.5t-43.5 9.5z" />
    <glyph glyph-name="Egrave" unicode="&#xc8;" horiz-adv-x="532" 
d="M67 0v681h412v-129h-266v-147h209v-120h-209v-156h284v-129h-430zM376 818l-56 -84l-188 120l62 98z" />
    <glyph glyph-name="Eacute" unicode="&#xc9;" horiz-adv-x="532" 
d="M67 0v681h412v-129h-266v-147h209v-120h-209v-156h284v-129h-430zM226 734l-56 84l182 134l62 -98z" />
    <glyph glyph-name="Ecircumflex" unicode="&#xca;" horiz-adv-x="532" 
d="M67 0v681h412v-129h-266v-147h209v-120h-209v-156h284v-129h-430zM233 946h77l141 -115l-59 -84l-121 89l-120 -89l-58 84z" />
    <glyph glyph-name="Edieresis" unicode="&#xcb;" horiz-adv-x="532" 
d="M67 0v681h412v-129h-266v-147h209v-120h-209v-156h284v-129h-430zM232 903q10 -17 10 -55q0 -39 -9 -57q-20 -10 -61 -10q-34 0 -52 9q-10 18 -10 58q0 36 9 54q26 11 59 11q36 0 54 -10zM412 903q11 -18 11 -55t-10 -57q-20 -10 -60 -10q-34 0 -52 9q-11 20 -11 58
q0 34 10 54q26 11 59 11q35 0 53 -10z" />
    <glyph glyph-name="Igrave" unicode="&#xcc;" horiz-adv-x="288" 
d="M67 0v681h154v-681h-154zM248 818l-56 -84l-188 120l62 98z" />
    <glyph glyph-name="Iacute" unicode="&#xcd;" horiz-adv-x="288" 
d="M67 0v681h154v-681h-154zM105 734l-56 84l182 134l62 -98z" />
    <glyph glyph-name="Icircumflex" unicode="&#xce;" horiz-adv-x="288" 
d="M67 0v681h154v-681h-154zM107 946h77l141 -115l-59 -84l-121 89l-120 -89l-58 84z" />
    <glyph glyph-name="Idieresis" unicode="&#xcf;" horiz-adv-x="288" 
d="M67 0v681h154v-681h-154zM110 906q10 -17 10 -55q0 -39 -9 -57q-20 -10 -61 -10q-34 0 -52 9q-10 18 -10 58q0 36 9 54q26 11 59 11q36 0 54 -10zM290 906q11 -18 11 -55t-10 -57q-20 -10 -60 -10q-34 0 -52 9q-11 20 -11 58q0 34 10 54q26 11 59 11q35 0 53 -10z" />
    <glyph glyph-name="Eth" unicode="&#xd0;" horiz-adv-x="734" 
d="M67 0v290h-62v117h62v275h281q158 0 251 -90t93 -247q0 -158 -93 -251.5t-251 -93.5h-281zM314 552h-93v-145h149v-117h-149v-160h78q121 0 177 53.5t56 161.5q0 207 -218 207z" />
    <glyph glyph-name="Ntilde" unicode="&#xd1;" horiz-adv-x="740" 
d="M501 0l-282 450v-450h-152v682h170l284 -457v457h152v-682h-172zM241 782l-46 72q5 7 14.5 18t40.5 29t63 18q26 1 103 -20q55 -15 94 21l47 -73q-5 -7 -13.5 -18t-35.5 -29t-55 -18q-30 0 -66.5 13t-61.5 13q-21 0 -42 -6.5t-31 -13.5z" />
    <glyph glyph-name="Ograve" unicode="&#xd2;" horiz-adv-x="737" 
d="M368 694q159 0 247 -100t88 -254t-88 -254t-247 -100t-246.5 100t-87.5 254t87.5 254t246.5 100zM368 556q-87 0 -130 -60t-43 -156t43 -156t130 -60t131 60.5t44 155.5t-44 155.5t-131 60.5zM479 818l-56 -84l-188 120l62 98z" />
    <glyph glyph-name="Oacute" unicode="&#xd3;" horiz-adv-x="737" 
d="M368 694q159 0 247 -100t88 -254t-88 -254t-247 -100t-246.5 100t-87.5 254t87.5 254t246.5 100zM368 556q-87 0 -130 -60t-43 -156t43 -156t130 -60t131 60.5t44 155.5t-44 155.5t-131 60.5zM310 734l-56 84l182 134l62 -98z" />
    <glyph glyph-name="Ocircumflex" unicode="&#xd4;" horiz-adv-x="737" 
d="M368 694q159 0 247 -100t88 -254t-88 -254t-247 -100t-246.5 100t-87.5 254t87.5 254t246.5 100zM368 556q-87 0 -130 -60t-43 -156t43 -156t130 -60t131 60.5t44 155.5t-44 155.5t-131 60.5zM333 946h77l141 -115l-59 -84l-121 89l-120 -89l-58 84z" />
    <glyph glyph-name="Otilde" unicode="&#xd5;" horiz-adv-x="737" 
d="M368 694q159 0 247 -100t88 -254t-88 -254t-247 -100t-246.5 100t-87.5 254t87.5 254t246.5 100zM368 556q-87 0 -130 -60t-43 -156t43 -156t130 -60t131 60.5t44 155.5t-44 155.5t-131 60.5zM234 782l-46 72q5 7 14.5 18t40.5 29t63 18q26 1 103 -20q55 -15 94 21
l47 -73q-5 -7 -13.5 -18t-35.5 -29t-55 -18q-30 0 -66.5 13t-61.5 13q-21 0 -42 -6.5t-32 -13.5z" />
    <glyph glyph-name="Odieresis" unicode="&#xd6;" horiz-adv-x="737" 
d="M368 694q159 0 247 -100t88 -254t-88 -254t-247 -100t-246.5 100t-87.5 254t87.5 254t246.5 100zM368 556q-87 0 -130 -60t-43 -156t43 -156t130 -60t131 60.5t44 155.5t-44 155.5t-131 60.5zM333 903q10 -17 10 -55q0 -39 -9 -57q-20 -10 -61 -10q-34 0 -52 9
q-10 18 -10 58q0 36 9 54q26 11 59 11q36 0 54 -10zM513 903q11 -18 11 -55t-10 -57q-20 -10 -60 -10q-34 0 -52 9q-11 20 -11 58q0 34 10 54q26 11 59 11q35 0 53 -10z" />
    <glyph glyph-name="multiply" unicode="&#xd7;" horiz-adv-x="497" 
d="M449 350l-113 -114l113 -113l-91 -91l-113 113l-116 -115l-82 82l115 116l-112 113l90 91l113 -113l114 114z" />
    <glyph glyph-name="Oslash" unicode="&#xd8;" horiz-adv-x="765" 
d="M385 694q121 0 203 -62l41 49h98l-84 -99q77 -95 77 -242q0 -154 -88 -254t-247 -100q-118 0 -201 59l-39 -45h-106l87 101q-74 93 -74 239q0 155 87 254.5t246 99.5zM560 340q0 68 -25 118l-254 -301q42 -33 104 -33q87 0 131 60.5t44 155.5zM385 556q-87 0 -130 -60
t-43 -156q0 -67 24 -115l254 297q-44 34 -105 34z" />
    <glyph glyph-name="Ugrave" unicode="&#xd9;" horiz-adv-x="690" 
d="M477 253v428h152v-427q0 -128 -71.5 -198t-213.5 -70q-143 0 -213.5 68.5t-70.5 193.5v433h154v-433q0 -131 132 -131q131 0 131 136zM448 818l-56 -84l-188 120l62 98z" />
    <glyph glyph-name="Uacute" unicode="&#xda;" horiz-adv-x="690" 
d="M477 253v428h152v-427q0 -128 -71.5 -198t-213.5 -70q-143 0 -213.5 68.5t-70.5 193.5v433h154v-433q0 -131 132 -131q131 0 131 136zM300 734l-56 84l182 134l62 -98z" />
    <glyph glyph-name="Ucircumflex" unicode="&#xdb;" horiz-adv-x="690" 
d="M477 253v428h152v-427q0 -128 -71.5 -198t-213.5 -70q-143 0 -213.5 68.5t-70.5 193.5v433h154v-433q0 -131 132 -131q131 0 131 136zM306 946h77l141 -115l-59 -84l-121 89l-120 -89l-58 84z" />
    <glyph glyph-name="Udieresis" unicode="&#xdc;" horiz-adv-x="690" 
d="M477 253v428h152v-427q0 -128 -71.5 -198t-213.5 -70q-143 0 -213.5 68.5t-70.5 193.5v433h154v-433q0 -131 132 -131q131 0 131 136zM309 903q10 -17 10 -55q0 -39 -9 -57q-20 -10 -61 -10q-34 0 -52 9q-10 18 -10 58q0 36 9 54q26 11 59 11q36 0 54 -10zM489 903
q11 -18 11 -55t-10 -57q-20 -10 -60 -10q-34 0 -52 9q-11 20 -11 58q0 34 10 54q26 11 59 11q35 0 53 -10z" />
    <glyph glyph-name="Yacute" unicode="&#xdd;" horiz-adv-x="587" 
d="M7 682h177l111 -256l116 256h169l-212 -401v-281h-154v279zM240 734l-56 84l182 134l62 -98z" />
    <glyph glyph-name="Thorn" unicode="&#xde;" horiz-adv-x="631" 
d="M282 111v120h55q53 0 81 32.5t28 79.5q0 54 -34 78.5t-82 24.5h-110v-446h-153v681h153v-106h125q54 0 98.5 -11.5t83.5 -37t61 -72.5t22 -112q0 -118 -69 -176.5t-185 -58.5z" />
    <glyph glyph-name="germandbls" unicode="&#xdf;" horiz-adv-x="686" 
d="M13 357l10 114h77v28q0 33 7 63t25.5 61.5t47.5 54.5t78 37.5t112 14.5q53 0 93.5 -11t62 -27.5t35 -38.5t17 -39.5t3.5 -36.5q0 -30 -18.5 -61t-41.5 -52t-41.5 -45.5t-18.5 -42.5q0 -28 34 -52q2 -1 20 -11.5l42.5 -24.5l36.5 -21q73 -47 73 -125q0 -77 -55 -116.5
t-136 -39.5q-93 0 -141 21l2 98q62 -19 112 -19q40 0 59.5 14.5t19.5 34.5q0 22 -38 46q-15 9 -81 42q-42 23 -62 50.5t-20 74.5q0 28 17 57.5t37.5 50.5t37.5 48t17 51q0 26 -19.5 44t-64.5 18q-108 0 -108 -118v-499h-144v357h-87z" />
    <glyph glyph-name="agrave" unicode="&#xe0;" horiz-adv-x="530" 
d="M366 606l-56 -84l-188 120l62 98zM514 103l6 -101q-4 -2 -11.5 -4.5t-34 -7t-56.5 -4.5q-91 1 -107 75q-56 -75 -148 -75q-30 0 -59 10t-53 40.5t-24 76.5q0 29 11.5 53t27 39.5t42 27.5t47.5 18t53.5 10.5t49.5 5.5t45 3v34q0 28 -16 40.5t-64 12.5q-25 0 -57 -5.5
t-52 -11.5l-19 -6l-14 110q80 41 191 41q107 0 144 -43.5t37 -119.5v-167q0 -26 5.5 -37t20.5 -15q8 -2 16.5 -2t13.5 1zM303 143v47q-23 0 -39 -2q-83 -10 -84 -51q0 -18 12.5 -27.5t30.5 -9.5q51 0 80 43z" />
    <glyph glyph-name="aacute" unicode="&#xe1;" horiz-adv-x="530" 
d="M219 522l-56 84l182 134l62 -98zM514 103l6 -101q-4 -2 -11.5 -4.5t-34 -7t-56.5 -4.5q-91 1 -107 75q-56 -75 -148 -75q-30 0 -59 10t-53 40.5t-24 76.5q0 29 11.5 53t27 39.5t42 27.5t47.5 18t53.5 10.5t49.5 5.5t45 3v34q0 28 -16 40.5t-64 12.5q-25 0 -57 -5.5
t-52 -11.5l-19 -6l-14 110q80 41 191 41q107 0 144 -43.5t37 -119.5v-167q0 -26 5.5 -37t20.5 -15q8 -2 16.5 -2t13.5 1zM303 143v47q-23 0 -39 -2q-83 -10 -84 -51q0 -18 12.5 -27.5t30.5 -9.5q51 0 80 43z" />
    <glyph glyph-name="acircumflex" unicode="&#xe2;" horiz-adv-x="530" 
d="M220 734h77l141 -115l-59 -84l-121 89l-120 -89l-58 84zM514 103l6 -101q-4 -2 -11.5 -4.5t-34 -7t-56.5 -4.5q-91 1 -107 75q-56 -75 -148 -75q-30 0 -59 10t-53 40.5t-24 76.5q0 29 11.5 53t27 39.5t42 27.5t47.5 18t53.5 10.5t49.5 5.5t45 3v34q0 28 -16 40.5
t-64 12.5q-25 0 -57 -5.5t-52 -11.5l-19 -6l-14 110q80 41 191 41q107 0 144 -43.5t37 -119.5v-167q0 -26 5.5 -37t20.5 -15q8 -2 16.5 -2t13.5 1zM303 143v47q-23 0 -39 -2q-83 -10 -84 -51q0 -18 12.5 -27.5t30.5 -9.5q51 0 80 43z" />
    <glyph glyph-name="atilde" unicode="&#xe3;" horiz-adv-x="530" 
d="M124 570l-46 72q5 7 14.5 18t40.5 29t63 18q26 1 103 -20q55 -15 94 21l47 -73q-5 -7 -13.5 -18t-35.5 -29t-55 -18q-30 0 -66.5 13t-61.5 13q-21 0 -42 -6.5t-32 -13.5zM514 103l6 -101q-4 -2 -11.5 -4.5t-34 -7t-56.5 -4.5q-91 1 -107 75q-56 -75 -148 -75
q-30 0 -59 10t-53 40.5t-24 76.5q0 29 11.5 53t27 39.5t42 27.5t47.5 18t53.5 10.5t49.5 5.5t45 3v34q0 28 -16 40.5t-64 12.5q-25 0 -57 -5.5t-52 -11.5l-19 -6l-14 110q80 41 191 41q107 0 144 -43.5t37 -119.5v-167q0 -26 5.5 -37t20.5 -15q8 -2 16.5 -2t13.5 1zM303 143
v47q-23 0 -39 -2q-83 -10 -84 -51q0 -18 12.5 -27.5t30.5 -9.5q51 0 80 43z" />
    <glyph glyph-name="adieresis" unicode="&#xe4;" horiz-adv-x="530" 
d="M226 691q10 -17 10 -55q0 -39 -9 -57q-20 -10 -61 -10q-34 0 -52 9q-10 18 -10 58q0 36 9 54q26 11 59 11q36 0 54 -10zM406 691q11 -18 11 -55t-10 -57q-20 -10 -60 -10q-34 0 -52 9q-11 20 -11 58q0 34 10 54q26 11 59 11q35 0 53 -10zM514 103l6 -101
q-4 -2 -11.5 -4.5t-34 -7t-56.5 -4.5q-91 1 -107 75q-56 -75 -148 -75q-30 0 -59 10t-53 40.5t-24 76.5q0 29 11.5 53t27 39.5t42 27.5t47.5 18t53.5 10.5t49.5 5.5t45 3v34q0 28 -16 40.5t-64 12.5q-25 0 -57 -5.5t-52 -11.5l-19 -6l-14 110q80 41 191 41q107 0 144 -43.5
t37 -119.5v-167q0 -26 5.5 -37t20.5 -15q8 -2 16.5 -2t13.5 1zM303 143v47q-23 0 -39 -2q-83 -10 -84 -51q0 -18 12.5 -27.5t30.5 -9.5q51 0 80 43z" />
    <glyph glyph-name="aring" unicode="&#xe5;" horiz-adv-x="530" 
d="M151 637q0 47 32.5 80.5t79.5 33.5t80.5 -33.5t33.5 -80.5t-33.5 -80.5t-80.5 -33.5t-79.5 33.5t-32.5 80.5zM223 637q0 -17 11.5 -28.5t28.5 -11.5t28.5 11.5t11.5 28.5q0 16 -12 27.5t-28 11.5q-17 0 -28.5 -11.5t-11.5 -27.5zM514 103l6 -101q-4 -2 -11.5 -4.5t-34 -7
t-56.5 -4.5q-91 1 -107 75q-56 -75 -148 -75q-30 0 -59 10t-53 40.5t-24 76.5q0 29 11.5 53t27 39.5t42 27.5t47.5 18t53.5 10.5t49.5 5.5t45 3v34q0 28 -16 40.5t-64 12.5q-25 0 -57 -5.5t-52 -11.5l-19 -6l-14 110q80 41 191 41q107 0 144 -43.5t37 -119.5v-167
q0 -26 5.5 -37t20.5 -15q8 -2 16.5 -2t13.5 1zM303 143v47q-23 0 -39 -2q-83 -10 -84 -51q0 -18 12.5 -27.5t30.5 -9.5q51 0 80 43z" />
    <glyph glyph-name="ae" unicode="&#xe6;" horiz-adv-x="760" 
d="M576 105q34 0 77 5t49 8l6 -113q-4 -3 -19 -7t-54 -8t-88 -4q-148 0 -208 95q-28 -49 -77.5 -72t-98.5 -23q-30 0 -59 10t-53 40.5t-24 76.5q0 29 11.5 53t27 39.5t42 27.5t47.5 18t53.5 10.5t49.5 5.5t45 3v34q0 28 -16 40.5t-64 12.5q-25 0 -57 -5.5t-52 -11.5l-19 -6
q-9 78 -14 110q51 26 126 35q35 6 77 4q80 -3 118 -39q52 40 125 41q60 0 102.5 -18.5t61.5 -48t26.5 -55.5t7.5 -52q0 -32 -4.5 -61.5t-8.5 -43.5l-5 -14h-253q17 -87 122 -87zM450 281h144q0 1 0.5 7t0.5 12.5v15.5q0 27 -16.5 45.5t-46.5 17.5t-53 -25t-29 -73zM264 188
q-83 -10 -84 -51q0 -18 12.5 -27.5t30.5 -9.5q26 0 51 14t38 33q-7 33 -7 44q-19 0 -41 -3z" />
    <glyph glyph-name="ccedilla" unicode="&#xe7;" horiz-adv-x="445" 
d="M414 131l7 -117q-54 -28 -154 -28q-102 0 -167.5 64.5t-65.5 180.5q0 122 72 188t187 66q85 0 121 -18l-12 -120q-50 10 -93 10q-57 0 -89.5 -33t-32.5 -93q0 -53 31.5 -85t85.5 -32q76 0 110 17zM106 -206l8 81q33 -10 56 -11q42 -3 42 16q0 8 -6.5 24t-6.5 26
q0 12 6.5 22.5t12.5 15.5l6 4h81q-13 -15 -13 -38q0 -26 16 -52t16 -44q0 -63 -99 -63q-32 0 -61.5 4.5t-43.5 9.5z" />
    <glyph glyph-name="egrave" unicode="&#xe8;" horiz-adv-x="491" 
d="M307 105q33 0 76 5t50 8q0 -4 6 -113q-4 -3 -19 -7t-54 -8t-88 -4q-120 0 -182 62.5t-62 181.5q0 115 62 184.5t162 70.5q60 0 102.5 -18.5t61.5 -48t26.5 -55.5t7.5 -52q0 -32 -4.5 -61.5t-9.5 -43.5l-4 -14h-253q17 -87 122 -87zM180 281h145q0 1 0.5 7t0.5 12.5v15.5
q0 27 -16.5 45.5t-46.5 17.5q-31 -1 -54 -25t-29 -73zM380 606l-56 -84l-188 120l62 98z" />
    <glyph glyph-name="eacute" unicode="&#xe9;" horiz-adv-x="491" 
d="M307 105q33 0 76 5t50 8q0 -4 6 -113q-4 -3 -19 -7t-54 -8t-88 -4q-120 0 -182 62.5t-62 181.5q0 115 62 184.5t162 70.5q60 0 102.5 -18.5t61.5 -48t26.5 -55.5t7.5 -52q0 -32 -4.5 -61.5t-9.5 -43.5l-4 -14h-253q17 -87 122 -87zM180 281h145q0 1 0.5 7t0.5 12.5v15.5
q0 27 -16.5 45.5t-46.5 17.5q-31 -1 -54 -25t-29 -73zM211 522l-56 84l182 134l62 -98z" />
    <glyph glyph-name="ecircumflex" unicode="&#xea;" horiz-adv-x="491" 
d="M307 105q33 0 76 5t50 8q0 -4 6 -113q-4 -3 -19 -7t-54 -8t-88 -4q-120 0 -182 62.5t-62 181.5q0 115 62 184.5t162 70.5q60 0 102.5 -18.5t61.5 -48t26.5 -55.5t7.5 -52q0 -32 -4.5 -61.5t-9.5 -43.5l-4 -14h-253q17 -87 122 -87zM180 281h145q0 1 0.5 7t0.5 12.5v15.5
q0 27 -16.5 45.5t-46.5 17.5q-31 -1 -54 -25t-29 -73zM222 734h77l141 -115l-59 -84l-121 89l-120 -89l-58 84z" />
    <glyph glyph-name="edieresis" unicode="&#xeb;" horiz-adv-x="491" 
d="M307 105q33 0 76 5t50 8q0 -4 6 -113q-4 -3 -19 -7t-54 -8t-88 -4q-120 0 -182 62.5t-62 181.5q0 115 62 184.5t162 70.5q60 0 102.5 -18.5t61.5 -48t26.5 -55.5t7.5 -52q0 -32 -4.5 -61.5t-9.5 -43.5l-4 -14h-253q17 -87 122 -87zM180 281h145q0 1 0.5 7t0.5 12.5v15.5
q0 27 -16.5 45.5t-46.5 17.5q-31 -1 -54 -25t-29 -73zM218 691q10 -17 10 -55q0 -39 -9 -57q-20 -10 -61 -10q-34 0 -52 9q-10 18 -10 58q0 36 9 54q26 11 59 11q36 0 54 -10zM398 691q11 -18 11 -55t-10 -57q-20 -10 -60 -10q-34 0 -52 9q-11 20 -11 58q0 34 10 54
q26 11 59 11q35 0 53 -10z" />
    <glyph glyph-name="igrave" unicode="&#xec;" horiz-adv-x="278" 
d="M216 471v-471h-154v471h154zM231 606l-56 -84l-188 120l62 98z" />
    <glyph glyph-name="iacute" unicode="&#xed;" horiz-adv-x="278" 
d="M216 471v-471h-154v471h154zM100 522l-56 84l182 134l62 -98z" />
    <glyph glyph-name="icircumflex" unicode="&#xee;" horiz-adv-x="278" 
d="M216 471v-471h-154v471h154zM98 734h77l141 -115l-59 -84l-121 89l-120 -89l-58 84z" />
    <glyph glyph-name="idieresis" unicode="&#xef;" horiz-adv-x="278" 
d="M216 471v-471h-154v471h154zM102 691q10 -17 10 -55q0 -39 -9 -57q-20 -10 -61 -10q-34 0 -52 9q-10 18 -10 58q0 36 9 54q26 11 59 11q36 0 54 -10zM282 691q11 -18 11 -55t-10 -57q-20 -10 -60 -10q-34 0 -52 9q-11 20 -11 58q0 34 10 54q26 11 59 11q35 0 53 -10z" />
    <glyph glyph-name="eth" unicode="&#xf0;" horiz-adv-x="572" 
d="M391 735l48 -70l-45 -30q80 -67 114.5 -161.5t29.5 -227.5q-5 -119 -71 -189.5t-182 -70.5q-114 0 -182.5 67t-68.5 182q0 116 68.5 183t182.5 67q31 0 80 -23q-24 65 -70 101l-94 -64l-51 68l72 46q-39 30 -66 37l66 73q36 -10 98 -38zM188 235q0 -66 25.5 -102.5
t71.5 -36.5q47 0 73 36.5t26 102.5t-26 102t-73 36q-46 0 -71.5 -36t-25.5 -102z" />
    <glyph glyph-name="ntilde" unicode="&#xf1;" horiz-adv-x="583" 
d="M527 0h-153v270q0 37 -14 56t-55 19q-47 0 -90 -35v-310h-153v471h142l7 -59q78 72 163 72q81 0 117 -45.5t36 -109.5v-329zM156 570l-46 72q5 7 14.5 18t40.5 29t63 18q26 1 103 -20q55 -15 94 21l47 -73q-5 -7 -13.5 -18t-35.5 -29t-55 -18q-30 0 -66.5 13t-61.5 13
q-21 0 -42 -6.5t-32 -13.5z" />
    <glyph glyph-name="ograve" unicode="&#xf2;" horiz-adv-x="572" 
d="M34 235q0 116 68.5 183t182.5 67q117 0 185 -67t68 -183q0 -115 -68 -182t-185 -67q-114 0 -182.5 67t-68.5 182zM188 235q0 -66 25.5 -102.5t71.5 -36.5q47 0 73 36.5t26 102.5t-26 102t-73 36q-46 0 -71.5 -36t-25.5 -102zM385 606l-56 -84l-188 120l62 98z" />
    <glyph glyph-name="oacute" unicode="&#xf3;" horiz-adv-x="572" 
d="M34 235q0 116 68.5 183t182.5 67q117 0 185 -67t68 -183q0 -115 -68 -182t-185 -67q-114 0 -182.5 67t-68.5 182zM188 235q0 -66 25.5 -102.5t71.5 -36.5q47 0 73 36.5t26 102.5t-26 102t-73 36q-46 0 -71.5 -36t-25.5 -102zM227 522l-56 84l182 134l62 -98z" />
    <glyph glyph-name="ocircumflex" unicode="&#xf4;" horiz-adv-x="572" 
d="M34 235q0 116 68.5 183t182.5 67q117 0 185 -67t68 -183q0 -115 -68 -182t-185 -67q-114 0 -182.5 67t-68.5 182zM188 235q0 -66 25.5 -102.5t71.5 -36.5q47 0 73 36.5t26 102.5t-26 102t-73 36q-46 0 -71.5 -36t-25.5 -102zM246 734h77l141 -115l-59 -84l-121 89
l-120 -89l-58 84z" />
    <glyph glyph-name="otilde" unicode="&#xf5;" horiz-adv-x="572" 
d="M34 235q0 116 68.5 183t182.5 67q117 0 185 -67t68 -183q0 -115 -68 -182t-185 -67q-114 0 -182.5 67t-68.5 182zM188 235q0 -66 25.5 -102.5t71.5 -36.5q47 0 73 36.5t26 102.5t-26 102t-73 36q-46 0 -71.5 -36t-25.5 -102zM151 570l-46 72q5 7 14.5 18t40.5 29t63 18
q26 1 103 -20q55 -15 94 21l47 -73q-5 -7 -13.5 -18t-35.5 -29t-55 -18q-30 0 -66.5 13t-61.5 13q-21 0 -42 -6.5t-31 -13.5z" />
    <glyph glyph-name="odieresis" unicode="&#xf6;" horiz-adv-x="572" 
d="M34 235q0 116 68.5 183t182.5 67q117 0 185 -67t68 -183q0 -115 -68 -182t-185 -67q-114 0 -182.5 67t-68.5 182zM188 235q0 -66 25.5 -102.5t71.5 -36.5q47 0 73 36.5t26 102.5t-26 102t-73 36q-46 0 -71.5 -36t-25.5 -102zM250 691q10 -17 10 -55q0 -39 -9 -57
q-20 -10 -61 -10q-34 0 -52 9q-10 18 -10 58q0 36 9 54q26 11 59 11q36 0 54 -10zM430 691q11 -18 11 -55t-10 -57q-20 -10 -60 -10q-34 0 -52 9q-11 20 -11 58q0 34 10 54q26 11 59 11q35 0 53 -10z" />
    <glyph glyph-name="divide" unicode="&#xf7;" horiz-adv-x="531" 
d="M484 177h-437v110h437v-110zM313 454q26 -45 1 -99q-54 -24 -100 -2q-24 47 -2 101q33 14 53 14t48 -14zM313 109q26 -46 1 -99q-55 -24 -100 -2q-24 47 -2 101q33 14 53 14t48 -14z" />
    <glyph glyph-name="oslash" unicode="&#xf8;" horiz-adv-x="578" 
d="M36 235q0 116 68 183t183 67q94 0 156 -44l28 29h72l-60 -64q56 -65 56 -171q0 -115 -68 -182t-184 -67q-89 0 -150 41l-25 -27h-77l57 66q-56 64 -56 169zM189 235q0 -30 9 -59l153 170q-23 27 -64 27q-47 0 -72.5 -36t-25.5 -102zM386 235q0 30 -10 57l-151 -171
q25 -25 62 -25q46 0 72.5 36.5t26.5 102.5z" />
    <glyph glyph-name="ugrave" unicode="&#xf9;" horiz-adv-x="577" 
d="M55 471h155v-270q0 -38 12.5 -56.5t52.5 -18.5q35 0 88 35v310h153v-471h-142l-7 59q-78 -72 -161 -72q-81 0 -116 45t-35 110v329zM387 609l-56 -84l-188 120l62 98z" />
    <glyph glyph-name="uacute" unicode="&#xfa;" horiz-adv-x="577" 
d="M55 471h155v-270q0 -38 12.5 -56.5t52.5 -18.5q35 0 88 35v310h153v-471h-142l-7 59q-78 -72 -161 -72q-81 0 -116 45t-35 110v329zM233 525l-56 84l182 134l62 -98z" />
    <glyph glyph-name="ucircumflex" unicode="&#xfb;" horiz-adv-x="577" 
d="M55 471h155v-270q0 -38 12.5 -56.5t52.5 -18.5q35 0 88 35v310h153v-471h-142l-7 59q-78 -72 -161 -72q-81 0 -116 45t-35 110v329zM241 737h77l141 -115l-59 -84l-121 89l-120 -89l-58 84z" />
    <glyph glyph-name="udieresis" unicode="&#xfc;" horiz-adv-x="577" 
d="M55 471h155v-270q0 -38 12.5 -56.5t52.5 -18.5q35 0 88 35v310h153v-471h-142l-7 59q-78 -72 -161 -72q-81 0 -116 45t-35 110v329zM250 691q10 -17 10 -55q0 -39 -9 -57q-20 -10 -61 -10q-34 0 -52 9q-10 18 -10 58q0 36 9 54q26 11 59 11q36 0 54 -10zM430 691
q11 -18 11 -55t-10 -57q-20 -10 -60 -10q-34 0 -52 9q-11 20 -11 58q0 34 10 54q26 11 59 11q35 0 53 -10z" />
    <glyph glyph-name="yacute" unicode="&#xfd;" horiz-adv-x="492" 
d="M346 471h139l-143 -477q-34 -109 -82.5 -161t-138.5 -56q-39 -3 -70 1l-27 4q0 2 -1 60t-1 59q32 -5 62 -5q46 0 68 15.5t37 51.5l8 21l-194 487h156l103 -316zM209 522l-56 84l182 134l62 -98z" />
    <glyph glyph-name="thorn" unicode="&#xfe;" horiz-adv-x="589" 
d="M214 -213h-152v927h152v-285q59 55 142 55q86 0 142.5 -62t56.5 -185q0 -118 -62 -185t-163 -67q-57 0 -116 17v-215zM298 351q-46 0 -84 -30v-188q27 -17 74 -17q46 0 74.5 32t28.5 88q0 58 -27.5 86.5t-65.5 28.5z" />
    <glyph glyph-name="ydieresis" unicode="&#xff;" horiz-adv-x="492" 
d="M346 471h139l-143 -477q-34 -109 -82.5 -161t-138.5 -56q-39 -3 -70 1l-27 4q0 2 -1 60t-1 59q32 -5 62 -5q46 0 68 15.5t37 51.5l8 21l-194 487h156l103 -316zM213 691q10 -17 10 -55q0 -39 -9 -57q-20 -10 -61 -10q-34 0 -52 9q-10 18 -10 58q0 36 9 54q26 11 59 11
q36 0 54 -10zM393 691q11 -18 11 -55t-10 -57q-20 -10 -60 -10q-34 0 -52 9q-11 20 -11 58q0 34 10 54q26 11 59 11q35 0 53 -10z" />
    <glyph glyph-name="dotlessi" unicode="&#x131;" horiz-adv-x="278" 
d="M216 471v-471h-154v471h154z" />
    <glyph glyph-name="Lslash" unicode="&#x141;" horiz-adv-x="543" 
d="M69 0v185l-91 -50v133l91 49v364h154v-281l133 72v-133l-133 -72v-138h298v-129h-452z" />
    <glyph glyph-name="lslash" unicode="&#x142;" horiz-adv-x="278" 
d="M216 714v-275l41 19t37 17v-139q-7 -3 -37 -17.5t-41 -18.5v-300h-154v233q-10 -4 -41 -18.5t-41 -18.5v142q11 4 42.5 18.5t39.5 17.5v340h154z" />
    <glyph glyph-name="OE" unicode="&#x152;" horiz-adv-x="933" 
d="M898 0h-426q-50 -14 -105 -14q-159 0 -246 99.5t-87 254.5t87 254.5t246 99.5q51 0 103 -13h410v-129h-265v-147h208v-120h-208v-156h283v-129zM367 124q67 0 101 22v389q-44 21 -101 21q-87 0 -129 -60t-42 -156t42 -156t129 -60z" />
    <glyph glyph-name="oe" unicode="&#x153;" horiz-adv-x="841" 
d="M34 235q0 102 53.5 166.5t146.5 78.5q30 5 63 3q100 -4 158 -64q57 64 153 66q60 0 102.5 -18.5t61.5 -48t26.5 -55.5t7.5 -52q0 -32 -4.5 -61.5t-9.5 -43.5l-4 -14h-253q9 -46 39 -66.5t84 -20.5q32 0 75 5t50 8q0 -4 6 -113q-4 -3 -19 -7t-53.5 -8t-87.5 -4
q-117 0 -178 63q-55 -56 -154 -61q-33 -2 -63 3q-92 13 -146 77.5t-54 166.5zM188 235q0 -66 25.5 -102.5t71.5 -36.5q45 0 71.5 35t27.5 98v12q-1 63 -27.5 97.5t-71.5 34.5q-46 0 -71.5 -36t-25.5 -102zM675 281q2 6 2 35q0 27 -16.5 45.5t-47.5 17.5t-54 -25t-29 -73h145
z" />
    <glyph glyph-name="Scaron" unicode="&#x160;" horiz-adv-x="560" 
d="M48 8l6 128q94 -22 182 -22q62 0 95.5 19.5t33.5 53.5q0 24 -16.5 40t-51.5 32q-1 0 -29.5 12.5l-52 23t-26.5 13.5q-30 15 -46 25t-40 31.5t-35.5 53.5t-11.5 74q0 88 69 145t179 57q52 0 99 -6.5t67 -13.5l21 -6l-6 -123q-74 26 -154 26q-49 0 -82 -17.5t-33 -50.5
q0 -34 46 -57q6 -4 61 -28l55 -23q73 -33 110.5 -74t37.5 -119q0 -96 -67 -156t-203 -60q-44 0 -96 5.5t-82 10.5zM316 748h-77l-140 116l58 83l120 -88l121 88l59 -83z" />
    <glyph glyph-name="scaron" unicode="&#x161;" horiz-adv-x="443" 
d="M262 536h-77l-140 116l58 83l120 -88l121 88l59 -83zM38 2l8 108q3 -1 25.5 -4.5t56 -7t56.5 -3.5q35 0 57 10.5t22 28.5q0 25 -26 35q-3 2 -39.5 13t-37.5 11q-109 39 -109 144q0 71 59 109.5t141 38.5q87 0 138 -17l-10 -106q-65 13 -111 13q-69 0 -69 -37
q0 -22 35 -36l40 -13q39 -13 41 -15q99 -35 99 -130q0 -74 -55.5 -116t-149.5 -42q-44 0 -85.5 3.5t-62 7t-23.5 5.5z" />
    <glyph glyph-name="Ydieresis" unicode="&#x178;" horiz-adv-x="587" 
d="M7 682h177l111 -256l116 256h169l-212 -401v-281h-154v279zM264 912q10 -17 10 -55q0 -39 -9 -57q-20 -10 -61 -10q-34 0 -52 9q-10 18 -10 58q0 36 9 54q26 11 59 11q36 0 54 -10zM444 912q11 -18 11 -55t-10 -57q-20 -10 -60 -10q-34 0 -52 9q-11 20 -11 58q0 34 10 54
q26 11 59 11q35 0 53 -10z" />
    <glyph glyph-name="Zcaron" unicode="&#x17d;" horiz-adv-x="581" 
d="M531 552l-299 -422h323v-130h-519v130l297 422h-274v129h472v-129zM330 748h-77l-140 116l58 83l120 -88l121 88l59 -83z" />
    <glyph glyph-name="zcaron" unicode="&#x17e;" horiz-adv-x="457" 
d="M47 366v105h368v-105l-211 -260h230v-106h-407v105l209 261h-189zM262 536h-77l-140 116l58 83l120 -88l121 88l59 -83z" />
    <glyph glyph-name="florin" unicode="&#x192;" horiz-adv-x="454" 
d="M392 364h-142l-62 -585h-140l29 281t32 304h-80l21 97h69q3 32 5 48t6.5 44t9.5 42.5t13.5 36.5t18.5 34t25.5 26t34.5 21t44.5 12t55.5 5q28 0 55 -4t40 -7t16 -5l-13 -113q-36 9 -62 9q-56 0 -78.5 -36t-30.5 -113h143q-2 -29 -10 -97z" />
    <glyph glyph-name="circumflex" unicode="&#x2c6;" horiz-adv-x="423" 
d="M171 734h77l141 -115l-59 -84l-121 89l-120 -89l-58 84z" />
    <glyph glyph-name="caron" unicode="&#x2c7;" 
d="M248 536h-77l-140 116l58 83l120 -88l121 88l59 -83z" />
    <glyph glyph-name="breve" unicode="&#x2d8;" 
d="M294 710h107q0 -22 -5.5 -44t-19.5 -45.5t-35 -41t-54.5 -29t-75.5 -11.5q-98 0 -145 52t-47 119h112q15 -68 81 -68q67 0 82 68z" />
    <glyph glyph-name="dotaccent" unicode="&#x2d9;" 
d="M137 627q0 31 22 53t53 22q29 0 50.5 -22t21.5 -53q0 -29 -22 -50.5t-50 -21.5q-31 0 -53 21.5t-22 50.5z" />
    <glyph glyph-name="ring" unicode="&#x2da;" 
d="M98 634q0 47 32.5 80.5t79.5 33.5q46 0 80 -34t34 -80q0 -47 -33.5 -80.5t-80.5 -33.5t-79.5 33.5t-32.5 80.5zM170 634q0 -17 11.5 -28.5t28.5 -11.5q16 0 28 12t12 28t-12 27.5t-28 11.5q-17 0 -28.5 -11.5t-11.5 -27.5z" />
    <glyph glyph-name="ogonek" unicode="&#x2db;" horiz-adv-x="383" 
d="M165 -23l102 1q-30 -20 -43.5 -41t-13.5 -35q0 -36 46 -36q11 0 22.5 2t17.5 4l7 2v-80l-13.5 -5.5t-35 -8.5t-53.5 -4q-51 2 -85 26.5t-34 71.5q0 14 4.5 29t25 37.5t53.5 36.5z" />
    <glyph glyph-name="tilde" unicode="&#x2dc;" 
d="M76 570l-46 72q5 7 14.5 18t40.5 29t63 18q26 1 103 -20q55 -15 94 21l47 -73q-5 -7 -13.5 -18t-35.5 -29t-55 -18q-30 0 -66.5 13t-61.5 13q-21 0 -42 -6.5t-32 -13.5z" />
    <glyph glyph-name="hungarumlaut" unicode="&#x2dd;" horiz-adv-x="391" 
d="M65 529l-72 55l127 167l83 -64zM240 523l-63 69l152 145l69 -79z" />
    <glyph glyph-name="Delta" unicode="&#x394;" horiz-adv-x="571" 
d="M254 681h63l265 -681h-592zM162 120h247l-123 329z" />
    <glyph glyph-name="Delta" unicode="&#x2206;" horiz-adv-x="571" 
d="M254 681h63l265 -681h-592zM162 120h247l-123 329z" />
    <glyph glyph-name="Omega" unicode="&#x3a9;" horiz-adv-x="806" 
d="M761 125v-125h-283l2 145q42 28 67.5 88t25.5 125q0 101 -47 149t-125 48q-77 0 -122.5 -47.5t-45.5 -149.5q0 -55 23 -119.5t69 -93.5l2 -145h-283v125l150 -8q-42 16 -83.5 78t-41.5 166q0 151 87.5 241.5t244.5 90.5q158 0 247 -90.5t89 -241.5q0 -185 -125 -244z" />
    <glyph glyph-name="Omega" unicode="&#x2126;" horiz-adv-x="806" 
d="M761 125v-125h-283l2 145q42 28 67.5 88t25.5 125q0 101 -47 149t-125 48q-77 0 -122.5 -47.5t-45.5 -149.5q0 -55 23 -119.5t69 -93.5l2 -145h-283v125l150 -8q-42 16 -83.5 78t-41.5 166q0 151 87.5 241.5t244.5 90.5q158 0 247 -90.5t89 -241.5q0 -185 -125 -244z" />
    <glyph glyph-name="pi" unicode="&#x3c0;" horiz-adv-x="617" 
d="M563 0h-153v334h-203v-334h-154v471h510v-471z" />
    <glyph glyph-name="endash" unicode="&#x2013;" horiz-adv-x="577" 
d="M31 200v126h515v-126h-515z" />
    <glyph glyph-name="emdash" unicode="&#x2014;" horiz-adv-x="874" 
d="M31 200v126h812v-126h-812z" />
    <glyph glyph-name="quoteleft" unicode="&#x2018;" horiz-adv-x="282" 
d="M230 452l-57 -44q-122 89 -122 187q0 44 23.5 72t66.5 28q35 0 56.5 -22t21.5 -55q0 -18 -10 -40q-15 -26 -11.5 -56t32.5 -70z" />
    <glyph glyph-name="quoteright" unicode="&#x2019;" horiz-adv-x="282" 
d="M109 408l-58 44q30 40 34 70t-11 56q-11 24 -11 40q0 33 21.5 55t57.5 22q43 0 65.5 -28t22.5 -72q0 -99 -121 -187z" />
    <glyph glyph-name="quotesinglbase" unicode="&#x201a;" horiz-adv-x="298" 
d="M55 -99q31 42 34.5 74t-11.5 56q-12 24 -12 41q0 35 23 58.5t61 23.5q44 0 68.5 -29.5t24.5 -75.5q0 -49 -34.5 -100.5t-92.5 -93.5z" />
    <glyph glyph-name="quotedblleft" unicode="&#x201c;" horiz-adv-x="505" 
d="M454 452l-58 -44q-57 41 -89.5 89.5t-32.5 97.5q0 44 23 72t66 28q36 0 57.5 -22t21.5 -55q0 -16 -11 -40q-15 -26 -11 -56t34 -70zM230 452l-57 -44q-122 89 -122 187q0 44 23.5 72t66.5 28q35 0 56.5 -22t21.5 -55q0 -18 -10 -40q-15 -26 -11.5 -56t32.5 -70z" />
    <glyph glyph-name="quotedblright" unicode="&#x201d;" horiz-adv-x="505" 
d="M332 408l-58 44q30 40 33.5 70t-11.5 56q-10 22 -10 40q0 33 21.5 55t56.5 22q43 0 66.5 -28t23.5 -72q0 -98 -122 -187zM109 408l-58 44q30 40 34 70t-11 56q-11 24 -11 40q0 33 21.5 55t57.5 22q43 0 65.5 -28t22.5 -72q0 -99 -121 -187z" />
    <glyph glyph-name="quotedblbase" unicode="&#x201e;" horiz-adv-x="531" 
d="M117 -145l-62 46q32 41 35.5 73.5t-11.5 56.5q-12 24 -12 41q0 35 23 58.5t60 23.5q45 0 69.5 -29.5t24.5 -75.5q0 -49 -34.5 -100.5t-92.5 -93.5zM349 -145l-61 46q31 42 34.5 74t-11.5 56q-12 24 -12 41q0 35 23 58.5t61 23.5q44 0 68.5 -29.5t24.5 -75.5
q0 -49 -34 -100.5t-93 -93.5z" />
    <glyph glyph-name="dagger" unicode="&#x2020;" horiz-adv-x="557" 
d="M510 443h-158v-443h-144v443h-161v118h161v153h144v-153h158v-118z" />
    <glyph glyph-name="daggerdbl" unicode="&#x2021;" horiz-adv-x="557" 
d="M510 152h-158v-152h-144v152h-161v118h161v173h-161v118h161v153h144v-153h158v-118h-158v-173h158v-118z" />
    <glyph glyph-name="bullet" unicode="&#x2022;" horiz-adv-x="295" 
d="M240 167q-37 -18 -95 -18t-92 18q-18 32 -19 91.5t17 97.5q40 16 95.5 16.5t91.5 -14.5q20 -32 20 -92t-18 -99z" />
    <glyph glyph-name="ellipsis" unicode="&#x2026;" horiz-adv-x="702" 
d="M43 71q0 33 27 59t61 26q33 0 58 -26t25 -59t-25 -59t-58 -26q-34 0 -61 26.5t-27 58.5zM269 71q0 33 27 59t61 26q33 0 57.5 -26t24.5 -59t-24.5 -59t-57.5 -26q-34 0 -61 26.5t-27 58.5zM489 71q0 33 27 59t61 26q32 0 57 -26t25 -59t-25 -59t-57 -26q-34 0 -61 26.5
t-27 58.5z" />
    <glyph glyph-name="perthousand" unicode="&#x2030;" horiz-adv-x="1345" 
d="M565 198q0 93 45 153t126 60t124.5 -59.5t43.5 -153.5q0 -93 -43.5 -152.5t-124.5 -59.5t-126 59.5t-45 152.5zM736 310q-51 0 -51 -112q0 -110 51 -110q48 0 48 110q0 112 -48 112zM32 481q0 93 45 153t125 60q81 0 124.5 -59.5t43.5 -153.5q0 -93 -43.5 -152.5
t-124.5 -59.5t-125.5 59.5t-44.5 152.5zM202 593q-51 0 -51 -112q0 -111 51 -111q49 0 49 111q0 112 -49 112zM959 198q0 93 45 153t125 60q81 0 124.5 -59.5t43.5 -153.5q0 -93 -43.5 -152.5t-124.5 -59.5t-125.5 59.5t-44.5 152.5zM1129 310q-51 0 -51 -112
q0 -110 51 -110q49 0 49 110q0 112 -49 112zM295 0l230 681h123l-229 -681h-124z" />
    <glyph glyph-name="guilsinglleft" unicode="&#x2039;" horiz-adv-x="345" 
d="M290 428l-71 -190l71 -189l-133 -39l-102 228l102 229z" />
    <glyph glyph-name="guilsinglright" unicode="&#x203a;" horiz-adv-x="345" 
d="M126 238l-71 190l133 39l102 -229l-102 -228l-133 39z" />
    <glyph glyph-name="fraction" unicode="&#x2044;" horiz-adv-x="404" 
d="M26 0l230 681h123l-229 -681h-124z" />
    <glyph glyph-name="Euro" unicode="&#x20ac;" horiz-adv-x="626" 
d="M108 218h-88v88h73v61h-73v88h88q29 109 110.5 174t206.5 65q115 0 176 -25l-8 -132q-64 16 -142 16q-126 0 -175 -98h212v-88h-244q-1 -10 -1 -28q0 -22 1 -33h244v-88h-209q45 -91 167 -91q84 0 161 18l1 -33q2 -33 3 -66l1 -33q-75 -27 -194 -27q-125 1 -203.5 63.5
t-106.5 168.5z" />
    <glyph glyph-name="trademark" unicode="&#x2122;" horiz-adv-x="1032" 
d="M865 272l-7 280l-98 -280h-113l-84 265l-6 -265h-100l14 409h168l81 -261l92 261h149l14 -409h-110zM405 586h-115v-314h-118v314h-115v95h348v-95z" />
    <glyph glyph-name="partialdiff" unicode="&#x2202;" horiz-adv-x="576" 
d="M273 437q57 0 113 -26q-18 81 -85.5 127t-207.5 43q0 -1 -0.5 33.5t-0.5 69.5v34q97 2 171.5 -13.5t124 -47t83.5 -76.5t49 -101t20.5 -122t-2.5 -139q-8 -115 -76.5 -173t-185.5 -58q-114 0 -178 56t-64 169q0 114 64.5 169t174.5 55zM393 223q3 18 3 34v25
q-54 29 -106 29q-110 0 -110 -100q0 -90 103 -90q93 0 110 102z" />
    <glyph glyph-name="product" unicode="&#x220f;" horiz-adv-x="696" 
d="M639 0h-153v544h-276v-544h-152v682h581v-682z" />
    <glyph glyph-name="summation" unicode="&#x2211;" horiz-adv-x="557" 
d="M527 130v-130h-492v61l182 266l-189 300v55h499v-130h-285l128 -226l-120 -196h277z" />
    <glyph glyph-name="minus" unicode="&#x2212;" horiz-adv-x="531" 
d="M484 172h-437v125h437v-125z" />
    <glyph glyph-name="radical" unicode="&#x221a;" horiz-adv-x="625" 
d="M367 -14h-242l-114 475h138l101 -413l147 633h217v-118h-110z" />
    <glyph glyph-name="infinity" unicode="&#x221e;" horiz-adv-x="929" 
d="M360 239q-9 6 -29 21.5t-30 22.5t-26 13.5t-30 6.5q-35 0 -51.5 -19.5t-16.5 -42.5q0 -25 16.5 -45t52.5 -20q9 0 19.5 3t21 8.5t19.5 11t18.5 12.5l16 12t12.5 10.5t7 5.5zM571 236q2 -1 15 -12t26.5 -21t34.5 -19t39 -9q69 0 69 64q0 27 -15.5 45t-49.5 18
q-19 0 -40.5 -9.5t-35 -20t-28 -23.5t-15.5 -13zM47 241q0 72 51.5 124.5t131.5 52.5q44 0 86.5 -14t62 -25.5t57 -39.5t40.5 -30q3 2 20 16.5t28.5 23.5t34 23t42 22.5t47 15t55.5 6.5q86 0 132.5 -51t46.5 -126q0 -80 -53.5 -129.5t-130.5 -49.5q-65 0 -131 32t-116 77
q-2 -2 -19.5 -17t-25.5 -20.5l-26.5 -19t-33 -20l-34 -15t-40 -12t-42.5 -3.5q-82 0 -132.5 51t-50.5 128z" />
    <glyph glyph-name="integral" unicode="&#x222b;" horiz-adv-x="410" 
d="M-2 -98h52q79 0 79 89v524q0 37 4 66t16.5 58t32.5 48t54 31t80 12h95v-126h-51q-79 0 -79 -89v-524q0 -37 -4 -66t-16.5 -58t-32.5 -48t-54 -31t-80 -12h-96v126z" />
    <glyph glyph-name="approxequal" unicode="&#x2248;" horiz-adv-x="604" 
d="M88 258q-47 87 -49 87q26 46 71 74.5t100 27.5q43 -1 111.5 -32.5t102.5 -36.5q51 -8 96 31l44 -97q-16 -32 -51.5 -55t-89.5 -23q-47 1 -113 36.5t-99 37.5q-67 3 -123 -50zM88 45q-47 86 -49 86q25 46 70.5 74.5t100.5 27.5q43 -1 111.5 -32.5t102.5 -36.5q51 -8 96 31
l44 -97q-16 -32 -51.5 -55t-89.5 -23q-47 1 -113 36.5t-99 37.5q-68 3 -123 -49z" />
    <glyph glyph-name="notequal" unicode="&#x2260;" horiz-adv-x="531" 
d="M484 63h-260l-52 -85l-87 42l28 43h-66v126h138l48 79h-186v126h260l54 88l89 -42l-30 -46h64v-126h-138l-48 -79h186v-126z" />
    <glyph glyph-name="lessequal" unicode="&#x2264;" horiz-adv-x="526" 
d="M478 0h-431v111h431v-111zM47 243v151l431 95v-122l-312 -46v-7l312 -43v-121z" />
    <glyph glyph-name="greaterequal" unicode="&#x2265;" horiz-adv-x="526" 
d="M478 0h-431v111h431v-111zM478 394v-151l-431 -93v121l313 43v7l-313 46v122z" />
    <glyph glyph-name="lozenge" unicode="&#x25ca;" horiz-adv-x="643" 
d="M345 0h-48l-278 341l276 340h52l276 -340zM321 167l139 173l-139 174l-140 -174z" />
    <glyph glyph-name="apple" horiz-adv-x="813" 
d="M28 570q-1 105 0 105q77 4 110 -4q93 -25 124 -153q3 -14 12 -51l12.5 -51.5t12 -47t14 -47.5l16 -42t19.5 -42l22.5 -36.5t27.5 -35.5t32.5 -29t39.5 -27l5 2q-125 106 -125 251q0 53 31.5 88.5t74.5 35.5q48 0 72 -33t17 -91q-9 -66 3.5 -121.5t46.5 -84.5
q41 27 56.5 97t-0.5 113l111 -1q5 -15 7 -41t-2.5 -61.5t-16 -73t-37.5 -74t-62 -65.5t-94.5 -46.5t-130.5 -17.5q-148 0 -223.5 66t-75.5 152q0 77 56 131l-36 142q-14 57 -41.5 75t-77.5 18z" />
    <glyph glyph-name="US" horiz-adv-x="0" 
 />
    <glyph glyph-name="ordmasculine.os" horiz-adv-x="358" 
d="M28 336q0 69 41 109t109 40q71 0 111.5 -39.5t40.5 -109.5t-40.5 -110t-111.5 -40q-68 0 -109 40t-41 110zM135 335q0 -76 43 -76q45 0 45 76q0 77 -45 77q-43 0 -43 -77z" />
    <glyph glyph-name="perthousand.os" horiz-adv-x="1192" 
d="M194 397q-24 0 -42 -17.5t-19 -44.5q0 -25 17.5 -42.5t39.5 -17.5q25 0 43 17.5t19 43.5t-17 43.5t-41 17.5zM41 336q1 66 46 108t108 42q62 0 105 -42t42 -108q-1 -67 -46 -108.5t-109 -41.5q-61 0 -104 41.5t-42 108.5zM652 196q-25 0 -42.5 -17.5t-18.5 -44.5
q0 -26 17 -42.5t40 -16.5q25 0 42.5 17t18.5 43t-16 43.5t-41 17.5zM499 135q1 66 46 108t107 42t105.5 -42t41.5 -108q-1 -66 -46 -107.5t-108 -41.5q-61 0 -104 41.5t-42 107.5zM1002 196q-24 0 -41.5 -18t-18.5 -44q0 -25 17 -42t40 -17q25 0 43 17t19 43t-17 43.5
t-42 17.5zM850 135q1 66 46 108t107 42q63 0 106 -42t42 -108t-46 -107.5t-109 -41.5q-61 0 -104 41.5t-42 107.5zM215 0l295 470h117l-297 -470h-115z" />
    <glyph glyph-name="percent.os" horiz-adv-x="841" 
d="M215 0l295 470h117l-297 -470h-115zM194 397q-24 0 -42 -17.5t-19 -44.5q0 -25 17.5 -42.5t39.5 -17.5q25 0 43 17.5t19 43.5t-17 43.5t-41 17.5zM41 336q1 66 46 108t108 42q62 0 105 -42t42 -108q-1 -67 -46 -108.5t-109 -41.5q-61 0 -104 41.5t-42 108.5zM652 196
q-25 0 -42.5 -17.5t-18.5 -44.5q0 -26 17 -42.5t40 -16.5q25 0 42.5 17t18.5 43t-16 43.5t-41 17.5zM499 135q1 66 46 108t107 42t105.5 -42t41.5 -108q-1 -66 -46 -107.5t-108 -41.5q-61 0 -104 41.5t-42 107.5z" />
    <glyph glyph-name="cent.os" horiz-adv-x="487" 
d="M205 472v138h118v-126q88 -4 110 -17l-11 -128q-30 12 -93 12q-59 0 -91 -30t-32 -90q0 -53 31.5 -82t86.5 -29q66 0 110 19q0 -19 1 -39.5t2.5 -46t2.5 -39.5q-43 -21 -117 -26v-123h-118v132q-71 20 -112.5 80.5t-41.5 153.5q0 92 41 154.5t113 86.5z" />
    <glyph glyph-name="Euro.os" horiz-adv-x="517" 
d="M472 130q6 -112 6 -116q-54 -28 -161 -28q-83 0 -141.5 43.5t-77.5 124.5h-63v58h55v42h-55v59h64q21 81 81.5 126.5t146.5 45.5q100 0 145 -18q-6 -44 -13 -119q-28 11 -92 11q-71 0 -99 -46h79v-59h-102q-1 -2 -1 -20.5t1 -21.5h102v-58h-81q25 -42 96 -42q74 0 110 18
z" />
    <glyph glyph-name="dollar.os" horiz-adv-x="483" 
d="M54 2l9 105q75 -15 137 -15q65 0 68 39q0 26 -29 39q-8 3 -37.5 13t-41.5 13q-49 18 -72.5 50.5t-24.5 88.5q-1 110 122 140v135h118v-128q81 -4 101 -14q-2 -17 -5 -52t-5 -52q-3 1 -19.5 4.5t-42.5 6.5t-47 3q-76 0 -76 -39q0 -10 8 -18.5t23 -15.5t30 -12l37.5 -12.5
t36.5 -13.5q41 -15 63 -43t22 -84q0 -59 -32.5 -97t-93.5 -51v-127h-118v123q-32 1 -63 4t-48 5.5t-20 4.5z" />
    <glyph glyph-name="yen.os" horiz-adv-x="552" 
d="M68 471h147l61 -170q9 24 71 170h146l-87 -159h103v-79h-145l-18 -31v-11h163v-80h-163v-111h-146v111h-157v80h157v5l-20 37h-137v79h101z" />
    <glyph glyph-name="degree.os" horiz-adv-x="322" 
d="M10 337q0 62 44 106t107 44t107 -44t44 -106q0 -64 -44 -108.5t-107 -44.5t-107 44.5t-44 108.5zM105 338q0 -24 16.5 -41t40.5 -17q23 0 39.5 17t16.5 41q0 22 -17 39t-39 17q-24 0 -40.5 -16.5t-16.5 -39.5z" />
    <glyph glyph-name="ordfeminine.os" horiz-adv-x="359" 
d="M332 262l4 -66q-3 -1 -8.5 -3t-22.5 -4.5t-35 -2.5q-57 2 -68 44q-34 -44 -92 -44q-32 0 -57 19t-25 57q0 28 14.5 47.5t42 29t52.5 13.5t60 6v15q0 27 -46 26q-17 0 -37.5 -3.5t-32.5 -6.5l-12 -3l-7 74q51 25 119 25q117 0 117 -97v-95q0 -27 14 -31h20zM197 284v24
q-13 0 -23 -1q-21 -3 -35 -10t-13 -21q1 -19 24 -17q12 1 26.5 8.5t20.5 16.5z" />
    <glyph glyph-name="florin.os" horiz-adv-x="489" 
d="M37 106l23 104h70q6 56 8 81q11 92 59.5 143t153.5 51q30 0 58 -3.5t42 -7t16 -5.5q-4 -41 -14 -123q-1 1 -10.5 3t-24.5 4t-28 2q-94 0 -103 -97l-3 -24.5t-2 -23.5h146q0 -2 -5.5 -52.5t-5.5 -51.5h-145l-35 -318h-153l35 318h-82z" />
    <glyph glyph-name="sterling.os" horiz-adv-x="586" 
d="M539 454l-13 -112q-72 20 -124 20q-54 0 -75.5 -19.5t-26.5 -59.5l-3 -22h191v-87h-204q0 -3 -0.5 -7.5t-0.5 -5.5q-7 -36 -20 -66h275v-95h-492v95h65q12 28 17 66q0 1 2 13h-67v87h75l5 46q3 34 15 63t35.5 56.5t67.5 43t104 15.5q52 0 101 -9.5t73 -21.5z" />
    <glyph glyph-name="zero.os" horiz-adv-x="638" 
d="M326 363q-51 0 -85 -35.5t-35 -91.5q-1 -55 33 -90.5t84 -35.5t82 35.5t33 91.5t-31 91t-81 35zM41 237q1 112 81 181t204 69q121 0 196 -68.5t75 -181.5t-78.5 -181t-202.5 -68q-122 0 -199.5 68t-75.5 181z" />
    <glyph glyph-name="one.os" horiz-adv-x="533" 
d="M522 0h-473v133h157v205h-157v132h321v-337h152v-133z" />
    <glyph glyph-name="two.os" horiz-adv-x="480" 
d="M460 0h-430v120q4 2 37.5 17t58 28t55.5 33t48 43t17 47q0 59 -89 59q-23 0 -50.5 -3.5t-43.5 -7.5l-16 -4l-10 122q72 31 178 31q98 0 146.5 -43.5t48.5 -109.5q0 -133 -150 -212h200v-120z" />
    <glyph glyph-name="three.os" horiz-adv-x="509" 
d="M18 -202v132q79 -21 153 -21q76 0 115 22.5t39 74.5q0 85 -141 85h-58v118h58q42 0 77 18.5t36 61.5q0 64 -113 64q-33 0 -68 -6.5t-53 -12.5l-18 -6l-8 128q88 29 195 29q114 0 167.5 -46t53.5 -122q0 -39 -12.5 -69.5t-29.5 -47t-34.5 -27.5t-30.5 -15l-12 -3v-2
q63 -11 104.5 -51.5t41.5 -112.5q0 -104 -77 -158.5t-203 -54.5q-47 0 -92.5 5.5t-67.5 10.5z" />
    <glyph glyph-name="four.os" horiz-adv-x="617" 
d="M265 484h233v-357h105v-126h-105v-203h-154v203h-313v126zM344 275l6 83l-146 -231h140v148z" />
    <glyph glyph-name="five.os" horiz-adv-x="521" 
d="M25 -208l7 132q98 -15 157 -15q71 0 106.5 23.5t35.5 75.5q0 30 -18.5 49t-59.5 28t-84.5 11.5t-114.5 2.5l34 372h375l-13 -135h-208q-5 -53 -12 -116q266 -23 266 -205q0 -53 -16.5 -95t-44.5 -68.5t-66 -44.5t-79 -25t-87 -7q-72 -1 -178 17z" />
    <glyph glyph-name="six.os" horiz-adv-x="574" 
d="M493 678l-18 -121q-1 0 -16 1.5t-36.5 2.5t-37.5 1q-154 0 -178 -183q63 45 132 45q88 0 142 -53t53 -159q0 -100 -61 -163t-181 -63q-115 0 -183.5 72.5t-68.5 230.5q0 197 88.5 301t246.5 104q76 0 118 -16zM296 109q36 0 59 26t23 70q0 93 -82 93q-47 0 -96 -39
q8 -150 96 -150z" />
    <glyph glyph-name="seven.os" horiz-adv-x="510" 
d="M13 334v136h487v-136q0 -1 -15.5 -24l-39.5 -60l-50.5 -78.5l-52 -85.5t-40.5 -75l-46.5 -101.5l-35.5 -82.5l-12 -29h-173q55 128 108 237q22 49 61.5 119.5l72 123.5t33.5 56h-297z" />
    <glyph glyph-name="eight.os" horiz-adv-x="575" 
d="M499 530q0 -49 -29 -87t-78 -75l45.5 -27.5t39.5 -28t37 -35t22 -39t10 -48.5q0 -94 -74 -149t-191 -55q-116 0 -183.5 43.5t-67.5 132.5q0 57 37 99.5t104 87.5q-108 82 -108 168q0 85 61 131t169 46q60 0 103 -16t64 -42t30 -52t9 -54zM389 182q0 48 -117 112
q-87 -58 -87 -113q0 -37 26.5 -58.5t77.5 -21.5q52 0 76 23t24 58zM213 511q0 -17 13.5 -33t27 -25.5t42.5 -26.5q24 16 36 26t22 27t10 37q0 25 -17.5 43t-54.5 18q-36 0 -57.5 -17.5t-21.5 -48.5z" />
    <glyph glyph-name="nine.os" horiz-adv-x="574" 
d="M81 -209l18 122q1 0 15.5 -1t36 -2t38.5 -1q154 0 178 182q-65 -44 -133 -44q-87 0 -141 52.5t-54 158.5q1 101 62 164t180 63q116 0 184 -72.5t68 -231.5q0 -196 -88.5 -300.5t-246.5 -104.5q-78 0 -117 15zM277 362q-36 0 -58.5 -26t-22.5 -70q-2 -93 82 -93
q48 0 95 38q-7 151 -96 151z" />
    <glyph glyph-name="e.sc" horiz-adv-x="448" 
d="M49 0v520h352v-118h-205v-87h158v-102h-158v-95h220v-118h-367z" />
    <glyph glyph-name="d.sc" horiz-adv-x="612" 
d="M49 0v521h245q132 0 211 -67.5t79 -189.5q0 -123 -79.5 -193.5t-210.5 -70.5h-245zM258 395h-55v-269h55q88 0 127.5 34.5t39.5 103.5q0 67 -39 99t-128 32z" />
    <glyph glyph-name="b.sc" horiz-adv-x="535" 
d="M49 0v521h259q87 0 130 -38t43 -87q0 -44 -27.5 -75t-67.5 -43v-1q56 -3 94 -37t38 -94t-54 -103t-148 -43h-267zM199 220v-113h92q79 0 79 58q0 55 -93 55h-78zM199 416v-96h78q26 2 41 15.5t15 37.5q0 18 -13.5 30.5t-41.5 12.5h-79z" />
    <glyph glyph-name="h.sc" horiz-adv-x="594" 
d="M391 0v193h-188v-193h-154v520h154v-202h188v202h153v-520h-153z" />
    <glyph glyph-name="i.sc" horiz-adv-x="253" 
d="M49 0v520h154v-520h-154z" />
    <glyph glyph-name="j.sc" horiz-adv-x="337" 
d="M19 0l-2 126q24 -8 60 -8q33 0 45.5 14.5t12.5 46.5v343h152v-394q0 -140 -164 -140q-33 0 -59 3t-36 6z" />
    <glyph glyph-name="k.sc" horiz-adv-x="517" 
d="M49 0v520h154v-520h-154zM531 0h-176l-135 253v14l132 254h169l-146 -257z" />
    <glyph glyph-name="l.sc" horiz-adv-x="460" 
d="M49 0v520h154v-395h242v-125h-396z" />
    <glyph glyph-name="c.sc" horiz-adv-x="488" 
d="M449 512l-6 -125q-1 0 -19 2t-43 4t-43 2q-79 0 -117.5 -37t-38.5 -99t36 -98t113 -36q92 0 122 10l1 -31l4 -64l1 -31q-59 -21 -160 -21q-128 1 -200 77.5t-72 193.5q0 120 76 196t210 76q90 0 136 -19z" />
    <glyph glyph-name="m.sc" horiz-adv-x="781" 
d="M585 0l-7 317l-118 -317h-145l-115 323l-7 -323h-151l18 520h234l109 -334l117 334h199l19 -520h-153z" />
    <glyph glyph-name="n.sc" horiz-adv-x="624" 
d="M404 0l-203 295v-295h-152v521h165l208 -304v304h152v-521h-170z" />
    <glyph glyph-name="u.sc" horiz-adv-x="575" 
d="M529 521v-321q0 -212 -243 -212q-124 0 -182.5 55t-58.5 153v325h152v-325q0 -44 27 -61.5t64 -17.5q91 0 91 83v321h150z" />
    <glyph glyph-name="t.sc" horiz-adv-x="477" 
d="M472 395h-157v-395h-153v395h-157v125h467v-125z" />
    <glyph glyph-name="r.sc" horiz-adv-x="534" 
d="M518 0h-162l-78 163h-76v-163h-153v521h238q214 0 214 -164q0 -95 -86 -143zM202 396v-122h104q39 20 39 64q0 58 -72 58h-71z" />
    <glyph glyph-name="q.sc" horiz-adv-x="611" 
d="M551 -205l-311 47l20 120l314 -34zM305 531q134 0 207 -76.5t73 -194.5t-73 -194.5t-207 -76.5t-206 76t-72 195t72 195t206 76zM425 260q0 62 -29 103t-91 41t-90.5 -40.5t-28.5 -103.5q0 -62 28.5 -102.5t90.5 -40.5t91 40.5t29 102.5z" />
    <glyph glyph-name="p.sc" horiz-adv-x="543" 
d="M49 0v521h240q231 0 231 -184q0 -102 -61 -150.5t-158 -48.5h-99v-138h-153zM278 397h-76v-134h81q38 0 57.5 19.5t19.5 50.5q0 64 -82 64z" />
    <glyph glyph-name="o.sc" horiz-adv-x="611" 
d="M305 531q134 0 207 -76.5t73 -194.5q0 -119 -73 -195.5t-207 -76.5t-206 76.5t-72 195.5t72 195t206 76zM425 260q0 62 -29 102.5t-91 40.5t-90.5 -40t-28.5 -103q0 -62 28.5 -102.5t90.5 -40.5t91 40.5t29 102.5z" />
    <glyph glyph-name="z.sc" horiz-adv-x="492" 
d="M447 395l-223 -269h240v-126h-435v126l220 269h-201v125h399v-125z" />
    <glyph glyph-name="f.sc" 
d="M362 183h-159v-183h-154v520h360v-118h-206v-116h159v-103z" />
    <glyph glyph-name="paragraph.sc" horiz-adv-x="529" 
d="M94 -151l11 118l94 -3q71 0 102 29t31 88v440h145v-493q0 -51 -19.5 -89t-53 -60t-74.5 -32.5t-89 -10.5q-110 0 -147 13zM286 521v-441q-46 0 -105.5 14t-89.5 30q-44 71 -45 175.5t42 182.5q81 33 198 39zM198 197v208q-2 -1 -14.5 -3t-17.5 -4l-4 -7q-4 -7 -6.5 -13.5
t-6 -17.5t-5.5 -26t-2 -33q0 -17 2 -32t5.5 -26t6 -17.5t6.5 -13.5t4 -8q4 -2 17 -4.5t15 -2.5z" />
    <glyph glyph-name="ordmasculine.sc" horiz-adv-x="373" 
d="M186 531q82 0 129 -46t47 -117t-47 -117t-129 -46q-81 0 -127.5 46t-46.5 117t46.5 117t127.5 46zM248 368q0 76 -62 76t-62 -76q0 -35 15.5 -55.5t46.5 -20.5t46.5 20.5t15.5 55.5z" />
    <glyph glyph-name="g.sc" horiz-adv-x="533" 
d="M365 119v114h132v-220q-75 -25 -194 -25q-135 1 -206 74t-71 190q0 123 79.5 201t216.5 78q99 0 162 -22q-6 -36 -16 -120l-3 1q-3 0 -9.5 1t-15 2.5t-20 3t-23.5 2.5t-26.5 1.5t-28.5 0.5q-80 0 -121 -38.5t-41 -104.5q0 -142 138 -142q20 0 47 3z" />
    <glyph glyph-name="ampersand.sc" horiz-adv-x="659" 
d="M678 7q-8 -16 -25 -46t-24 -44q-100 36 -233 131q-76 -58 -196 -58q-84 0 -134 37t-50 100q0 99 129 157q-44 58 -44 118q0 50 43.5 89.5t122.5 39.5t119.5 -33t40.5 -90q0 -83 -105 -149q9 -9 35 -29.5l31 -24.5q15 18 32 41q60 80 134 80q44 0 97 -22l-13 -47t-13 -51
q-24 7 -48 8q-17 0 -33.5 -10t-24.5 -18.5t-23.5 -29.5t-16.5 -23l51.5 -34.5l58 -38l48.5 -30.5t41 -23zM214 201q-49 -25 -48 -54q2 -42 62 -42q39 0 71 24q-22 17 -85 72zM258 338q56 27 56 62q0 34 -39 34q-18 0 -30.5 -9.5t-11.5 -29.5q0 -22 25 -57z" />
    <glyph glyph-name="perthousand.sc" horiz-adv-x="1212" 
d="M862 151q0 71 41 117t112 46t111 -46t40 -117q0 -70 -40 -116t-111 -46t-112 46t-41 116zM1015 231q-19 0 -26 -18t-7 -62q0 -42 7.5 -60t25.5 -18q19 0 25 17t6 61q0 43 -7 61.5t-24 18.5zM46 368q0 71 40.5 117t111.5 46t111 -46t40 -117t-40 -116.5t-111 -45.5
t-111.5 45.5t-40.5 116.5zM198 447q-20 0 -26.5 -17t-6.5 -62q0 -43 7.5 -60.5t25.5 -17.5t24.5 17t6.5 61t-6.5 61.5t-24.5 17.5zM514 151q0 71 41 117t112 46t111 -46t40 -117q0 -70 -40 -116t-111 -46t-112 46t-41 116zM667 231q-19 0 -26 -18t-7 -62q0 -42 7.5 -60
t25.5 -18q19 0 25 17t6 61t-6.5 62t-24.5 18zM285 0l185 521h116l-187 -521h-114z" />
    <glyph glyph-name="v.sc" horiz-adv-x="548" 
d="M399 0h-252l-143 521h174l102 -389l106 389h158z" />
    <glyph glyph-name="w.sc" horiz-adv-x="837" 
d="M350 0h-245l-101 521h172l65 -381l98 381h181l89 -375l70 375h154l-109 -521h-237l-70 275z" />
    <glyph glyph-name="x.sc" horiz-adv-x="546" 
d="M541 0h-179l-105 158l-93 -158h-161l176 283l-161 238h182l88 -142l81 142h161l-165 -270z" />
    <glyph glyph-name="y.sc" horiz-adv-x="499" 
d="M4 521h177l72 -175l74 175h167l-170 -317v-204h-153v202z" />
    <glyph glyph-name="dotlessi.sc" horiz-adv-x="253" 
d="M49 0v520h154v-520h-154z" />
    <glyph glyph-name="fi.sc" horiz-adv-x="677" 
d="M362 183h-159v-183h-154v520h360v-118h-206v-116h159v-103zM473 0v520h154v-520h-154z" />
    <glyph glyph-name="fl.sc" horiz-adv-x="883" 
d="M362 183h-159v-183h-154v520h360v-118h-206v-116h159v-103zM473 0v520h154v-395h242v-125h-396z" />
    <glyph glyph-name="percent.sc" horiz-adv-x="864" 
d="M46 368q0 71 40.5 117t111.5 46t111 -46t40 -117t-40 -116.5t-111 -45.5t-111.5 45.5t-40.5 116.5zM198 447q-20 0 -26.5 -17t-6.5 -62q0 -43 7.5 -60.5t25.5 -17.5t24.5 17t6.5 61t-6.5 61.5t-24.5 17.5zM514 151q0 71 41 117t112 46t111 -46t40 -117q0 -70 -40 -116
t-111 -46t-112 46t-41 116zM667 231q-19 0 -26 -18t-7 -62q0 -42 7.5 -60t25.5 -18q19 0 25 17t6 61t-6.5 62t-24.5 18zM285 0l185 521h116l-187 -521h-114z" />
    <glyph glyph-name="lslash.sc" horiz-adv-x="460" 
d="M285 294l-82 -44v-125h242v-125h-396v168l-69 -37v133l69 37v219h154v-137l82 44v-133z" />
    <glyph glyph-name="scaron.sc" horiz-adv-x="481" 
d="M279 576h-77l-140 116l58 83l120 -88l121 88l59 -83zM38 6q2 44 4 124q80 -16 153 -16q43 0 69.5 11.5t26.5 30.5q0 26 -31 37q-7 3 -41.5 11.5t-42.5 11.5q-27 7 -46.5 16t-42 25t-34.5 43t-12 63q0 77 58.5 122.5t152.5 45.5q44 0 86.5 -5.5t62.5 -10.5l20 -5
q0 -19 -2 -59l-3 -60q-70 19 -127 19q-89 0 -89 -37q0 -25 43 -38q13 -4 42 -12t41 -12q125 -33 125 -150q0 -76 -58.5 -124.5t-171.5 -48.5q-43 0 -89 4.5t-70 9.5z" />
    <glyph glyph-name="zcaron.sc" horiz-adv-x="492" 
d="M447 395l-223 -269h240v-126h-435v126l220 269h-201v125h399v-125zM290 576h-77l-140 116l58 83l120 -88l121 88l59 -83z" />
    <glyph glyph-name="ntilde.sc" horiz-adv-x="624" 
d="M404 0l-203 295v-295h-152v521h165l208 -304v304h152v-521h-170zM163 610l-46 72q5 7 14.5 18t40.5 29t63 18q26 1 103 -20q55 -15 94 21l47 -73q-5 -7 -13.5 -18t-35.5 -29t-55 -18q-30 0 -66.5 13t-61.5 13q-21 0 -42 -6.5t-31 -13.5z" />
    <glyph glyph-name="ccedilla.sc" horiz-adv-x="488" 
d="M449 512l-6 -125q-1 0 -19 2t-43 4t-43 2q-79 0 -117.5 -37t-38.5 -99t36 -98t113 -36q92 0 122 10l1 -31l4 -64l1 -31q-59 -21 -160 -21q-128 1 -200 77.5t-72 193.5q0 120 76 196t210 76q90 0 136 -19zM113 -206l8 81q33 -10 56 -11q42 -3 42 16q0 8 -6.5 24t-6.5 26
q0 12 6 22.5t12 15.5l7 4h81q-13 -15 -13 -38q0 -26 16 -52t16 -44q0 -63 -99 -63q-32 0 -61.5 4.5t-43.5 9.5z" />
    <glyph glyph-name="oslash.sc" horiz-adv-x="611" 
d="M525 521h67l-73 -75q66 -74 66 -186q0 -119 -73 -195.5t-207 -76.5q-110 0 -181 54l-41 -42h-77l79 79q-58 71 -58 181q0 119 72 195t206 76q105 0 178 -52zM425 260q0 40 -14 76l-186 -191q30 -28 80 -28q62 0 91 40.5t29 102.5zM186 260q0 -39 10 -69l186 186
q-31 26 -77 26q-62 0 -90.5 -40t-28.5 -103z" />
    <glyph glyph-name="cent.sc" horiz-adv-x="515" 
d="M463 512l-7 -125q-1 0 -18.5 2t-42.5 4t-44 2q-79 0 -117 -37t-38 -99t36 -98t113 -36q92 0 122 10l1 -31l4 -64l1 -31q-54 -18 -122 -20v-116h-111v123q-96 20 -148 92t-52 171q0 98 52.5 168t147.5 94v114h111v-105q73 -2 112 -18z" />
    <glyph glyph-name="ydieresis.sc" horiz-adv-x="499" 
d="M4 521h177l72 -175l74 175h167l-170 -317v-204h-153v202zM215 731q10 -17 10 -55q0 -39 -9 -57q-20 -10 -61 -10q-34 0 -52 9q-10 18 -10 58q0 36 9 54q26 11 59 11q36 0 54 -10zM395 731q11 -18 11 -55t-10 -57q-20 -10 -60 -10q-34 0 -52 9q-11 20 -11 58q0 34 10 54
q26 11 59 11q35 0 53 -10z" />
    <glyph glyph-name="yacute.sc" horiz-adv-x="499" 
d="M4 521h177l72 -175l74 175h167l-170 -317v-204h-153v202zM206 562l-56 84l182 134l62 -98z" />
    <glyph glyph-name="iacute.sc" horiz-adv-x="253" 
d="M49 0v520h154v-520h-154zM80 562l-56 84l182 134l62 -98z" />
    <glyph glyph-name="igrave.sc" horiz-adv-x="253" 
d="M49 0v520h154v-520h-154zM231 646l-56 -84l-188 120l62 98z" />
    <glyph glyph-name="icircumflex.sc" horiz-adv-x="253" 
d="M49 0v520h154v-520h-154zM88 774h77l141 -115l-59 -84l-121 89l-120 -89l-58 84z" />
    <glyph glyph-name="idieresis.sc" horiz-adv-x="253" 
d="M49 0v520h154v-520h-154zM99 731q10 -17 10 -55q0 -39 -9 -57q-20 -10 -61 -10q-34 0 -52 9q-10 18 -10 58q0 36 9 54q26 11 59 11q36 0 54 -10zM279 731q11 -18 11 -55t-10 -57q-20 -10 -60 -10q-34 0 -52 9q-11 20 -11 58q0 34 10 54q26 11 59 11q35 0 53 -10z" />
    <glyph glyph-name="aacute.sc" horiz-adv-x="554" 
d="M221 562l-56 84l182 134l62 -98zM154 521h246l142 -520h-169l-30 113h-150l-30 -113h-155zM270 420l-48 -188h95z" />
    <glyph glyph-name="agrave.sc" horiz-adv-x="554" 
d="M388 646l-56 -84l-188 120l62 98zM154 521h246l142 -520h-169l-30 113h-150l-30 -113h-155zM270 420l-48 -188h95z" />
    <glyph glyph-name="acircumflex.sc" horiz-adv-x="554" 
d="M233 774h77l141 -115l-59 -84l-121 89l-120 -89l-58 84zM154 521h246l142 -520h-169l-30 113h-150l-30 -113h-155zM270 420l-48 -188h95z" />
    <glyph glyph-name="adieresis.sc" horiz-adv-x="554" 
d="M236 731q10 -17 10 -55q0 -39 -9 -57q-20 -10 -61 -10q-34 0 -52 9q-10 18 -10 58q0 36 9 54q26 11 59 11q36 0 54 -10zM416 731q11 -18 11 -55t-10 -57q-20 -10 -60 -10q-34 0 -52 9q-11 20 -11 58q0 34 10 54q26 11 59 11q35 0 53 -10zM154 521h246l142 -520h-169
l-30 113h-150l-30 -113h-155zM270 420l-48 -188h95z" />
    <glyph glyph-name="atilde.sc" horiz-adv-x="554" 
d="M136 610l-46 72q5 7 14.5 18t40.5 29t63 18q26 1 103 -20q55 -15 94 21l47 -73q-5 -7 -13.5 -18t-35.5 -29t-55 -18q-30 0 -66.5 13t-61.5 13q-21 0 -42 -6.5t-32 -13.5zM154 521h246l142 -520h-169l-30 113h-150l-30 -113h-155zM270 420l-48 -188h95z" />
    <glyph glyph-name="aring.sc" horiz-adv-x="554" 
d="M157 677q0 47 32.5 80.5t79.5 33.5t80.5 -33.5t33.5 -80.5t-33.5 -80.5t-80.5 -33.5t-79.5 33.5t-32.5 80.5zM229 677q0 -17 11.5 -28.5t28.5 -11.5t28.5 11.5t11.5 28.5q0 16 -12 27.5t-28 11.5q-17 0 -28.5 -11.5t-11.5 -27.5zM154 521h246l142 -520h-169l-30 113h-150
l-30 -113h-155zM270 420l-48 -188h95z" />
    <glyph glyph-name="eacute.sc" horiz-adv-x="448" 
d="M49 0v520h352v-118h-205v-87h158v-102h-158v-95h220v-118h-367zM184 562l-56 84l182 134l62 -98z" />
    <glyph glyph-name="egrave.sc" horiz-adv-x="448" 
d="M49 0v520h352v-118h-205v-87h158v-102h-158v-95h220v-118h-367zM332 646l-56 -84l-188 120l62 98z" />
    <glyph glyph-name="ecircumflex.sc" horiz-adv-x="448" 
d="M49 0v520h352v-118h-205v-87h158v-102h-158v-95h220v-118h-367zM188 774h77l141 -115l-59 -84l-121 89l-120 -89l-58 84z" />
    <glyph glyph-name="edieresis.sc" horiz-adv-x="448" 
d="M49 0v520h352v-118h-205v-87h158v-102h-158v-95h220v-118h-367zM190 731q10 -17 10 -55q0 -39 -9 -57q-20 -10 -61 -10q-34 0 -52 9q-10 18 -10 58q0 36 9 54q26 11 59 11q36 0 54 -10zM370 731q11 -18 11 -55t-10 -57q-20 -10 -60 -10q-34 0 -52 9q-11 20 -11 58
q0 34 10 54q26 11 59 11q35 0 53 -10z" />
    <glyph glyph-name="oacute.sc" horiz-adv-x="611" 
d="M305 531q134 0 207 -76.5t73 -194.5q0 -119 -73 -195.5t-207 -76.5t-206 76.5t-72 195.5t72 195t206 76zM425 260q0 62 -29 102.5t-91 40.5t-90.5 -40t-28.5 -103q0 -62 28.5 -102.5t90.5 -40.5t91 40.5t29 102.5zM236 562l-56 84l182 134l62 -98z" />
    <glyph glyph-name="ograve.sc" horiz-adv-x="611" 
d="M305 531q134 0 207 -76.5t73 -194.5q0 -119 -73 -195.5t-207 -76.5t-206 76.5t-72 195.5t72 195t206 76zM425 260q0 62 -29 102.5t-91 40.5t-90.5 -40t-28.5 -103q0 -62 28.5 -102.5t90.5 -40.5t91 40.5t29 102.5zM400 646l-56 -84l-188 120l62 98z" />
    <glyph glyph-name="ocircumflex.sc" horiz-adv-x="611" 
d="M305 531q134 0 207 -76.5t73 -194.5q0 -119 -73 -195.5t-207 -76.5t-206 76.5t-72 195.5t72 195t206 76zM425 260q0 62 -29 102.5t-91 40.5t-90.5 -40t-28.5 -103q0 -62 28.5 -102.5t90.5 -40.5t91 40.5t29 102.5zM263 774h77l141 -115l-59 -84l-121 89l-120 -89l-58 84z
" />
    <glyph glyph-name="odieresis.sc" horiz-adv-x="611" 
d="M305 531q134 0 207 -76.5t73 -194.5q0 -119 -73 -195.5t-207 -76.5t-206 76.5t-72 195.5t72 195t206 76zM425 260q0 62 -29 102.5t-91 40.5t-90.5 -40t-28.5 -103q0 -62 28.5 -102.5t90.5 -40.5t91 40.5t29 102.5zM269 723q10 -17 10 -55q0 -39 -9 -57q-20 -10 -61 -10
q-34 0 -52 9q-10 18 -10 58q0 36 9 54q26 11 59 11q36 0 54 -10zM449 723q11 -18 11 -55t-10 -57q-20 -10 -60 -10q-34 0 -52 9q-11 20 -11 58q0 34 10 54q26 11 59 11q35 0 53 -10z" />
    <glyph glyph-name="otilde.sc" horiz-adv-x="611" 
d="M305 531q134 0 207 -76.5t73 -194.5q0 -119 -73 -195.5t-207 -76.5t-206 76.5t-72 195.5t72 195t206 76zM425 260q0 62 -29 102.5t-91 40.5t-90.5 -40t-28.5 -103q0 -62 28.5 -102.5t90.5 -40.5t91 40.5t29 102.5zM168 610l-46 72q5 7 14.5 18t40.5 29t63 18
q26 1 103 -20q55 -15 94 21l47 -73q-5 -7 -13.5 -18t-35.5 -29t-55 -18q-30 0 -66.5 13t-61.5 13q-21 0 -42 -6.5t-32 -13.5z" />
    <glyph glyph-name="uacute.sc" horiz-adv-x="575" 
d="M529 521v-321q0 -212 -243 -212q-124 0 -182.5 55t-58.5 153v325h152v-325q0 -44 27 -61.5t64 -17.5q91 0 91 83v321h150zM258 565l-56 84l182 134l62 -98z" />
    <glyph glyph-name="ugrave.sc" horiz-adv-x="575" 
d="M529 521v-321q0 -212 -243 -212q-124 0 -182.5 55t-58.5 153v325h152v-325q0 -44 27 -61.5t64 -17.5q91 0 91 83v321h150zM366 649l-56 -84l-188 120l62 98z" />
    <glyph glyph-name="ucircumflex.sc" horiz-adv-x="575" 
d="M529 521v-321q0 -212 -243 -212q-124 0 -182.5 55t-58.5 153v325h152v-325q0 -44 27 -61.5t64 -17.5q91 0 91 83v321h150zM250 777h77l141 -115l-59 -84l-121 89l-120 -89l-58 84z" />
    <glyph glyph-name="udieresis.sc" horiz-adv-x="575" 
d="M529 521v-321q0 -212 -243 -212q-124 0 -182.5 55t-58.5 153v325h152v-325q0 -44 27 -61.5t64 -17.5q91 0 91 83v321h150zM259 731q10 -17 10 -55q0 -39 -9 -57q-20 -10 -61 -10q-34 0 -52 9q-10 18 -10 58q0 36 9 54q26 11 59 11q36 0 54 -10zM439 731q11 -18 11 -55
t-10 -57q-20 -10 -60 -10q-34 0 -52 9q-11 20 -11 58q0 34 10 54q26 11 59 11q35 0 53 -10z" />
    <glyph glyph-name="eth.sc" horiz-adv-x="612" 
d="M0 217v96h49v208h244q132 0 211 -67.5t79 -189.5q0 -124 -79 -194t-211 -70h-244v217h-49zM258 395h-56v-82h97v-96h-97v-91h56q88 0 127.5 34.5t39.5 103.5q0 67 -39 99t-128 32z" />
    <glyph glyph-name="germandbls.sc" horiz-adv-x="970" 
d="M526 6l6 124q79 -16 152 -16q43 0 69.5 11.5t26.5 30.5q0 26 -31 37q-8 3 -42.5 11.5t-42.5 11.5q-27 7 -46.5 16t-41.5 25t-34 43t-12 63q0 77 58.5 122.5t152.5 45.5q44 0 86.5 -5.5t62.5 -10.5l20 -5l-4 -119q-70 19 -128 19q-89 0 -89 -37q0 -25 43 -38
q15 -5 43.5 -13l39.5 -11q124 -33 124 -150q0 -77 -57.5 -125t-170.5 -48q-43 0 -89.5 4.5t-71.5 9.5zM47 6l5 124q79 -16 151 -16q44 0 70.5 11.5t26.5 30.5q0 26 -31 37q-7 3 -41.5 11.5t-42.5 11.5q-27 7 -46.5 16t-41.5 25t-34 43t-12 63q0 77 58 122.5t152 45.5
q44 0 86 -5.5t62 -10.5l20 -5l-4 -119q-70 19 -127 19q-89 0 -89 -37q0 -25 43 -38q13 -4 42 -12t41 -12q125 -33 125 -150q0 -76 -58.5 -124.5t-171.5 -48.5q-43 0 -88.5 4.5t-69.5 9.5z" />
    <glyph glyph-name="Euro.sc" horiz-adv-x="532" 
d="M332 273h-104v-14q0 -15 1 -22h103v-58h-85q33 -54 130 -54q89 0 122 10l1 -31l4 -64l1 -31q-59 -21 -160 -21q-105 1 -170.5 52.5t-85.5 138.5h-68v58h59v22v14h-59v57h66q20 92 90 146.5t182 54.5q90 0 136 -19l-7 -125q-1 0 -18.5 2t-42.5 4t-44 2q-108 0 -141 -65h90
v-57z" />
    <glyph glyph-name="dollar.sc" horiz-adv-x="502" 
d="M50 6l4 124q80 -16 152 -16q44 0 70.5 11.5t26.5 30.5q0 16 -18.5 27t-46.5 16.5t-60 16.5t-60 25.5t-46.5 46t-18.5 75.5q0 64 42 107.5t114 55.5v115h111v-112q30 -3 58.5 -7.5t41.5 -7.5l13 -4q0 -19 -2 -59l-3 -60q-70 19 -127 19q-89 0 -89 -37q0 -22 26 -34t63 -20
t73.5 -21t62.5 -47.5t26 -89.5q0 -59 -36 -102.5t-107 -60.5v-125h-111v116q-39 1 -78.5 5.5t-60 7.5t-20.5 4z" />
    <glyph glyph-name="yen.sc" horiz-adv-x="552" 
d="M52 240h132l-24 46h-108v75h68l-83 160h177l71 -175l74 175h168l-86 -160h75v-75h-115l-14 -25t-11 -21h140v-75h-159v-165h-153v165h-152v75z" />
    <glyph glyph-name="thorn.sc" horiz-adv-x="543" 
d="M49 0v521h153v-58h87q45 0 83.5 -8.5t73 -28t54.5 -57.5t20 -92q0 -102 -61 -150t-158 -48h-99v-79h-153zM278 337h-76v-133h81q39 0 58 19.5t19 50.5q0 63 -82 63z" />
    <glyph glyph-name="degree.sc" horiz-adv-x="330" 
d="M14 371q0 62 44 106t107 44q62 0 106.5 -44t44.5 -106q0 -63 -44 -107.5t-107 -44.5t-107 44t-44 108zM109 372q0 -24 16.5 -41t40.5 -17q23 0 39 17t16 41q0 23 -16.5 39.5t-38.5 16.5q-24 0 -40.5 -16.5t-16.5 -39.5z" />
    <glyph glyph-name="ordfeminine.sc" horiz-adv-x="332" 
d="M87 521h158l98 -311h-123l-18 67h-82l-18 -67h-115zM162 453l-24 -103h47z" />
    <glyph glyph-name="florin.sc" horiz-adv-x="489" 
d="M37 141l23 104h70q6 54 8 81q11 92 59.5 143t153.5 51q30 0 58 -3.5t42 -7t16 -5.5q-4 -46 -14 -122q-16 8 -63 8q-94 0 -103 -97q-1 -7 -3 -24t-2 -24h146q0 -1 -5.5 -52t-5.5 -52h-145l-35 -318h-153l35 318h-82z" />
    <glyph glyph-name="sterling.sc" horiz-adv-x="543" 
d="M518 500l-11 -111q-76 21 -125 21q-56 0 -77 -19.5t-27 -60.5l-4 -33h189v-86h-200q-5 -67 -24 -109h278v-102h-492v102h63q8 17 13.5 44.5t6.5 45.5l1 19h-68v86h76q4 49 5 54q17 180 226 180q104 0 170 -31z" />
    <glyph glyph-name="zero.sc" horiz-adv-x="543" 
d="M27 260q0 123 59.5 197t186.5 74t185 -74t58 -197q0 -124 -58 -198t-185 -74q-126 0 -186 74.5t-60 197.5zM271 406q-90 0 -90 -146t90 -146t90 146t-90 146z" />
    <glyph glyph-name="one.sc" horiz-adv-x="452" 
d="M441 0h-400v122h125v278h-125v121h279v-399h121v-122z" />
    <glyph glyph-name="two.sc" horiz-adv-x="469" 
d="M444 0h-422v124q16 9 41.5 25.5t75 52t82.5 74t33 68.5q0 26 -16.5 41.5t-62.5 15.5q-26 0 -56.5 -5.5t-48.5 -10.5l-17 -5l-7 115q63 37 173 37q105 0 150 -45.5t45 -109.5q0 -73 -58 -140t-133 -113h221v-124z" />
    <glyph glyph-name="three.sc" horiz-adv-x="429" 
d="M21 5v122q63 -16 121 -16q117 0 117 61q0 28 -28 42.5t-74 14.5h-50v94h50q30 0 54.5 13t24.5 36q0 36 -81 36q-25 0 -53 -4t-44 -8l-16 -5l-7 118q75 22 162 22q96 0 140 -35t44 -95q0 -45 -22.5 -75.5t-44.5 -38.5l-22 -8v-1q111 -23 111 -124q0 -79 -65 -122.5
t-169 -43.5q-39 0 -76 4t-55 8z" />
    <glyph glyph-name="four.sc" horiz-adv-x="524" 
d="M208 520h219v-292h84v-109h-84v-118h-144v118h-259v109zM283 360l4 56l-113 -188h109v132z" />
    <glyph glyph-name="five.sc" horiz-adv-x="452" 
d="M29 4l6 122q4 0 33 -4t58 -6.5t49 -2.5q93 0 93 57q0 34 -48 46.5t-148 20.5q-11 1 -17 1l24 284h314l-11 -125h-159q-6 -56 -8 -73q98 -12 153 -44.5t55 -108.5q0 -65 -36 -108t-87.5 -59t-115.5 -16q-42 0 -81 4.5t-57 7.5z" />
    <glyph glyph-name="six.sc" horiz-adv-x="478" 
d="M417 517q-6 -35 -17 -113q-45 4 -78 4q-57 0 -95 -33.5t-45 -95.5q46 38 108 38q66 0 113 -37t47 -117q0 -78 -50.5 -126.5t-153.5 -48.5q-210 0 -210 228q0 146 72 230.5t203 84.5q67 0 106 -14zM251 103q23 0 38.5 15t15.5 42q0 58 -56 58q-23 0 -65 -23q3 -48 18 -70
t49 -22z" />
    <glyph glyph-name="seven.sc" horiz-adv-x="431" 
d="M16 397v124h408v-124q-1 -2 -33 -47.5l-69.5 -101t-56.5 -89.5q-19 -36 -37 -75.5t-26 -61.5l-8 -22h-161q3 23 64.5 137.5t148.5 259.5h-230z" />
    <glyph glyph-name="eight.sc" horiz-adv-x="487" 
d="M427 403q0 -63 -82 -123q123 -62 123 -141q0 -72 -64 -111.5t-166 -39.5q-101 0 -160 34.5t-59 101.5q0 76 111 139q-82 61 -82 130q0 64 52 101t146 37q52 0 89.5 -12.5t56.5 -32.5t27 -40.5t8 -42.5zM222 209q-58 -33 -58 -70q0 -22 22 -37t57 -15q31 0 55 12t24 35
q0 30 -100 75zM248 329q52 27 52 61q0 17 -13 29.5t-41 12.5q-59 0 -59 -42q0 -29 61 -61z" />
    <glyph glyph-name="nine.sc" horiz-adv-x="475" 
d="M61 2q4 21 9.5 60l7.5 53l5 -1q5 0 13.5 -0.5t18.5 -1t21.5 -1t20.5 -0.5q56 0 94.5 33.5t45.5 96.5q-45 -39 -109 -39q-67 0 -113.5 37t-45.5 117q0 78 50 126.5t153 48.5q210 0 210 -228q0 -146 -72 -230.5t-203 -84.5q-68 0 -106 14zM227 417q-23 0 -38 -15t-15 -42
q0 -59 55 -59q27 0 65 24q-2 47 -17.5 69.5t-49.5 22.5z" />
    <glyph glyph-name="s.sc" horiz-adv-x="475" 
d="M36 6q2 44 4 124q80 -16 153 -16q43 0 69.5 11.5t26.5 30.5q0 26 -31 37q-7 3 -41.5 11.5t-42.5 11.5q-27 7 -46.5 16t-42 25t-34.5 43t-12 63q0 77 58.5 122.5t152.5 45.5q44 0 86.5 -5.5t62.5 -10.5l20 -5q0 -19 -2 -59l-3 -60q-70 19 -127 19q-89 0 -89 -37
q0 -25 43 -38q13 -4 42 -12t41 -12q125 -33 125 -150q0 -76 -58.5 -124.5t-171.5 -48.5q-43 0 -89 4.5t-70 9.5z" />
    <glyph glyph-name="a.sc" horiz-adv-x="554" 
d="M154 521h246l142 -520h-169l-30 113h-150l-30 -113h-155zM270 420l-48 -188h95z" />
    <glyph glyph-name="oe.sc" horiz-adv-x="826" 
d="M305 531q72 0 122 -36v25h351v-118h-206v-87h160v-102h-160v-95h221v-118h-366v25q-49 -31 -108 -35q-40 -2 -66 2q-109 15 -167.5 88t-58.5 180q0 119 72 195t206 76zM426 260q0 62 -29.5 102.5t-91.5 40.5t-90.5 -40.5t-28.5 -102.5t28.5 -102.5t90.5 -40.5t91.5 41
t29.5 102z" />
    <glyph glyph-name="ae.sc" horiz-adv-x="707" 
d="M308 0v114h-115l-30 -114h-155l146 521h506v-119h-206v-87h159v-102h-159v-95h220v-118h-366zM269 420l-48 -188h87v188h-39z" />
    </font>
</defs>
</svg>
