<?xml version="1.0" standalone="no"?>
<!DOCTYPE svg PUBLIC "-//W3C//DTD SVG 1.1//EN" "http://www.w3.org/Graphics/SVG/1.1/DTD/svg11.dtd" >
<svg>
<metadata>
Created by FontForge 20090622 at Fri Sep 15 15:56:12 2017
 By deploy user
Copyright (c) Eduardo Manso, 2006. All rights reserved.
</metadata>
<defs>
<font id="RelatoSansOT-Regular" horiz-adv-x="510" >
  <font-face 
    font-family="Relato Sans OT Regular"
    font-weight="400"
    font-stretch="normal"
    units-per-em="1000"
    panose-1="2 0 0 0 0 0 0 0 0 0"
    ascent="745"
    descent="-255"
    x-height="464"
    cap-height="681"
    bbox="-85 -233.299 1130.02 933"
    underline-thickness="40"
    underline-position="-90"
    unicode-range="U+0020-U+FB02"
  />
<missing-glyph horiz-adv-x="505" 
d="M441 0h-55l-134 282l-133 -282h-55l161 340l-164 345h56l135 -287l136 287h56l-164 -345z" />
    <glyph glyph-name="fi" unicode="fi" horiz-adv-x="549" 
d="M22 407l10 57h76v80q0 186 209 186q100 0 165 -19l-9 -64q-11 4 -59.5 10t-86.5 6q-72 0 -108 -28.5t-36 -95.5v-75l290 -1v-463h-77v407h-213v-407h-75v407h-86z" />
    <glyph glyph-name="fl" unicode="fl" horiz-adv-x="549" 
d="M22 407l10 57h76v80q0 186 209 186q92 0 156 -16v-714h-77q0 479 1 658q-33 5 -70 5q-72 0 -108 -28.5t-36 -95.5v-75h131v-57h-131v-407h-75v407h-86z" />
    <glyph glyph-name=".notdef" horiz-adv-x="505" 
d="M441 0h-55l-134 282l-133 -282h-55l161 340l-164 345h56l135 -287l136 287h56l-164 -345z" />
    <glyph glyph-name=".null" horiz-adv-x="0" 
 />
    <glyph glyph-name="nonmarkingreturn" horiz-adv-x="333" 
 />
    <glyph glyph-name="space" unicode=" " horiz-adv-x="236" 
 />
    <glyph glyph-name="exclam" unicode="!" horiz-adv-x="284" 
d="M177 191h-70l-4 490h78zM90 37q0 21 15 36t37 15q21 0 37 -15t16 -36q0 -20 -16 -35.5t-37 -15.5q-22 0 -37 15t-15 36z" />
    <glyph glyph-name="quotedbl" unicode="&#x22;" horiz-adv-x="386" 
d="M77 473l-2 208h69l-2 -208h-65zM245 473l-2 208h68l-2 -208h-64z" />
    <glyph glyph-name="numbersign" unicode="#" horiz-adv-x="545" 
d="M62 285v50h100l10 100h61l-10 -100h112l10 100h62l-10 -100h95v-50h-100l-11 -113h102v-50h-106l-10 -101h-61l9 101h-112l-9 -101h-62l10 101h-89v50h93l11 113h-95zM219 285l-11 -113h111l12 113h-112z" />
    <glyph glyph-name="dollar" unicode="$" horiz-adv-x="445" 
d="M73 157q54 -18 126 -18q47 0 73 19t29 47q5 44 -43 73l-82 40q-52 26 -74 54t-23 71q-3 54 31.5 84.5t85.5 39.5v127h63v-124q69 -4 103 -19q-3 -16 -7 -55q-65 17 -116 17q-36 0 -62.5 -17.5t-24.5 -49.5q1 -24 22 -39.5t89 -50.5q24 -13 38 -20q78 -39 78 -112
q0 -54 -30 -91t-90 -48v-123h-63v119q-91 2 -130 19q4 38 7 57z" />
    <glyph glyph-name="percent" unicode="%" horiz-adv-x="826" 
d="M502 198q0 96 34 154.5t105 58.5q70 0 103 -58.5t33 -154.5t-33 -154t-103 -58q-71 0 -105 58.5t-34 153.5zM641 352q-73 0 -73 -154q0 -153 73 -153q38 0 53.5 38.5t15.5 114.5t-15.5 115t-53.5 39zM49 480q0 96 34 154.5t105 58.5q70 0 103 -58.5t33 -154.5t-33 -154
t-103 -58q-71 0 -105 58.5t-34 153.5zM188 634q-73 0 -73 -154q0 -153 73 -153q39 0 54.5 38.5t15.5 114.5q0 77 -15.5 115.5t-54.5 38.5zM267 0l236 681h65l-234 -681h-67z" />
    <glyph glyph-name="ampersand" unicode="&#x26;" horiz-adv-x="728" 
d="M790 -52l-13.5 -27t-15.5 -29q-114 44 -297 202q-94 -106 -215 -106q-84 0 -142.5 41.5t-59.5 125.5q-2 101 152 212q-79 89 -83 166q-4 70 42.5 112.5t108.5 45.5q36 3 68 -9q49 -16 69.5 -54t20.5 -81q0 -29 -12 -57t-34 -52.5t-40.5 -41t-44.5 -35.5q6 -6 37.5 -40.5
l63 -67.5t65.5 -65q21 33 50 92q10 23 19 39t24 35.5t35.5 29.5t46.5 10q54 0 89 -27q-16 -38 -20 -51q-32 17 -62 15q-27 -1 -43.5 -23t-41 -73.5t-50.5 -88.5q159 -139 283 -198zM254 52q88 0 164 83l-72.5 73l-68 72t-38.5 42q-119 -91 -115 -161q3 -54 42.5 -81.5
t87.5 -27.5zM186 533q1 -32 19 -61.5t52 -68.5q103 75 103 143q0 33 -19 61t-61 28q-37 0 -67 -27t-27 -75z" />
    <glyph glyph-name="quotesingle" unicode="'" horiz-adv-x="218" 
d="M77 473l-2 208h69l-2 -208h-65z" />
    <glyph glyph-name="parenleft" unicode="(" horiz-adv-x="384" 
d="M145 253q0 -159 49.5 -276t121.5 -186h-65q-69 53 -125 175.5t-56 286.5t56 286t125 175h65q-72 -70 -121.5 -186t-49.5 -275z" />
    <glyph glyph-name="parenright" unicode=")" horiz-adv-x="384" 
d="M239 253q0 159 -49.5 275t-121.5 186h65q69 -53 125 -175t56 -286t-56 -286.5t-125 -175.5h-65q72 69 121.5 186t49.5 276z" />
    <glyph glyph-name="asterisk" unicode="*" horiz-adv-x="433" 
d="M216 479l-76 -133l-49 25l79 129l-137 34l15 54l141 -41l-1 147h55l-1 -147l146 41l12 -54l-137 -35l79 -128l-49 -24z" />
    <glyph glyph-name="plus" unicode="+" horiz-adv-x="528" 
d="M475 199h-176v-178h-68v178h-178v63h178v177h68v-177h176v-63z" />
    <glyph glyph-name="comma" unicode="," horiz-adv-x="198" 
d="M49 46q0 20 14.5 33.5t35.5 13.5q24 0 37 -16t14 -39q1 -45 -31 -86.5t-85 -65.5q-12 19 -25 34q21 17 28 23.5t20 25t16 37.5q-24 14 -24 40z" />
    <glyph glyph-name="hyphen" unicode="-" horiz-adv-x="432" 
d="M36 225v66h359v-66h-359z" />
    <glyph glyph-name="period" unicode="." horiz-adv-x="195" 
d="M48 37q0 19 15.5 34t35.5 15q19 0 33.5 -15t14.5 -34t-14.5 -34t-33.5 -15q-20 0 -35.5 15t-15.5 34z" />
    <glyph glyph-name="slash" unicode="/" horiz-adv-x="361" 
d="M-36 -209l344 923h73l-345 -923h-72z" />
    <glyph glyph-name="zero" unicode="0" horiz-adv-x="582" 
d="M47 340q0 104 23 181t79.5 125.5t143.5 48.5q66 0 114 -27t75.5 -76.5t40 -111.5t12.5 -140t-12.5 -140t-40 -111t-75.5 -76t-114 -27q-87 0 -143.5 48.5t-79.5 125t-23 180.5zM125 340q0 -135 41 -211.5t127 -76.5q164 0 164 288q0 289 -164 289q-86 0 -127 -77
t-41 -212z" />
    <glyph glyph-name="one" unicode="1" horiz-adv-x="428" 
d="M410 0h-379v63h154v556h-154v63h230v-619h149v-63z" />
    <glyph glyph-name="two" unicode="2" horiz-adv-x="522" 
d="M492 0h-462v67q71 57 163 150q170 170 170 275q0 135 -134 135q-36 0 -76.5 -10.5t-62.5 -20.5l-22 -11l-9 61q8 5 23.5 13t62.5 21.5t94 13.5q202 0 202 -196q0 -120 -155 -287q-85 -92 -148 -144h354v-67z" />
    <glyph glyph-name="three" unicode="3" horiz-adv-x="484" 
d="M34 6v64q84 -21 156 -21q85 0 130 39.5t45 115.5q0 66 -56.5 100.5t-124.5 34.5h-40v57h40q21 0 45 7.5t49 22t41.5 43t17.5 64.5q1 42 -29 69t-95 27q-38 0 -74.5 -6.5t-54.5 -12.5l-17 -6l-8 61q66 28 170 28q94 0 138.5 -44t44.5 -108q0 -39 -14.5 -71t-35 -49.5
t-41 -29.5t-35.5 -16l-14 -4v-1q25 -3 51.5 -13.5t53.5 -29.5t44 -52t17 -75q0 -102 -62.5 -158.5t-172.5 -56.5q-42 0 -84.5 5.5t-63.5 10.5z" />
    <glyph glyph-name="four" unicode="4" horiz-adv-x="536" 
d="M310 681h108v-417h102v-63h-102v-200h-73v200h-316v63zM345 569l3 50l-236 -355h233v305z" />
    <glyph glyph-name="five" unicode="5" horiz-adv-x="477" 
d="M42 -3l5 64q50 -10 101 -10q94 0 152.5 38.5t58.5 123.5q0 38 -15.5 65t-40 42t-64 23.5t-76.5 10.5t-90 2l30 326h316l-7 -65h-238q-9 -120 -17 -199q62 -2 108.5 -12t87 -31.5t62 -61.5t21.5 -97q0 -62 -23 -108t-63.5 -71.5t-87 -37.5t-101.5 -13q-65 -1 -119 11z" />
    <glyph glyph-name="six" unicode="6" horiz-adv-x="517" 
d="M429 684l-9 -57q-23 5 -66 5q-90 0 -150.5 -82t-66.5 -232q63 81 155 81q89 0 134 -57.5t43 -147.5t-55.5 -149t-144.5 -59q-96 0 -153 74.5t-57 221.5q0 199 84.5 305.5t211.5 106.5q48 0 74 -10zM270 46q56 0 90 43t34 104q1 62 -27.5 102t-90.5 40q-77 0 -140 -85
q6 -90 39.5 -147t94.5 -57z" />
    <glyph glyph-name="seven" unicode="7" horiz-adv-x="452" 
d="M27 615v67h410v-67l-194 -376q-24 -47 -50 -106.5t-39 -96.5l-14 -36h-85q64 157 117 263l177 352h-322z" />
    <glyph glyph-name="eight" unicode="8" horiz-adv-x="508" 
d="M432 547q0 -37 -20.5 -72.5t-42 -56t-56.5 -48.5q69 -50 109.5 -97t40.5 -102q0 -85 -64 -135t-151 -50q-51 0 -95 15t-76 53t-32 95q0 33 13 63.5t40 59t47 46t54 43.5q-126 92 -126 179q0 77 56 116t132 39q48 0 83.5 -14.5t53.5 -37.5t26 -47t8 -49zM388 169
q0 41 -36 77t-99 80q-3 -2 -17.5 -13l-19 -14.5l-17.5 -14t-18.5 -15.5t-16 -16t-15 -17.5l-12 -17.5t-10.5 -19.5t-5.5 -19.5t-2.5 -22q0 -54 40.5 -83t92.5 -29q59 0 97.5 35t38.5 89zM146 538q0 -19 9.5 -37.5t31 -37.5t35 -29.5t41.5 -29.5q30 23 47.5 39t35 44t17.5 57
q0 33 -25 61.5t-77 28.5q-50 0 -82.5 -24t-32.5 -72z" />
    <glyph glyph-name="nine" unicode="9" horiz-adv-x="517" 
d="M88 -4l9 57q23 -5 66 -5q90 0 150.5 82t66.5 232q-66 -81 -155 -81t-134 57.5t-43 147.5t55.5 149t144.5 59q96 0 153 -74.5t57 -221.5q0 -199 -84.5 -305.5t-211.5 -106.5q-48 0 -74 10zM247 634q-56 0 -90 -43t-34 -104q-1 -61 27.5 -101.5t90.5 -40.5q75 0 140 84
q-6 90 -39.5 147.5t-94.5 57.5z" />
    <glyph glyph-name="colon" unicode=":" horiz-adv-x="195" 
d="M48 37q0 19 15.5 34t35.5 15q19 0 33.5 -15t14.5 -34t-14.5 -34t-33.5 -15q-20 0 -35.5 15t-15.5 34zM48 427q0 20 15.5 35t35.5 15q19 0 33.5 -15t14.5 -35q0 -19 -14.5 -34t-33.5 -15q-20 0 -35.5 15t-15.5 34z" />
    <glyph glyph-name="semicolon" unicode=";" horiz-adv-x="195" 
d="M48 46q0 19 15 33t35 14q24 0 37 -16t14 -39q1 -45 -31 -86.5t-85 -65.5q-12 19 -25 34q19 15 28 23.5t21 26t15 36.5q-24 14 -24 40zM48 427q0 20 15.5 35t35.5 15q19 0 33.5 -15t14.5 -35q0 -19 -14.5 -34t-33.5 -15q-20 0 -35.5 15t-15.5 34z" />
    <glyph glyph-name="less" unicode="&#x3c;" horiz-adv-x="563" 
d="M53 181v101l457 189v-73l-393 -160v-13l393 -159v-72z" />
    <glyph glyph-name="equal" unicode="=" horiz-adv-x="524" 
d="M471 275h-418v65h418v-65zM471 109h-418v65h418v-65z" />
    <glyph glyph-name="greater" unicode="&#x3e;" horiz-adv-x="563" 
d="M510 282v-101l-457 -187v72l393 159v13l-393 160v73z" />
    <glyph glyph-name="question" unicode="?" horiz-adv-x="448" 
d="M52 683q66 31 157 31q62 0 103.5 -19.5t58 -50t21.5 -55t3 -47.5q-4 -52 -28 -92t-85 -82q-56 -38 -69 -72t-13 -106h-71q0 43 1.5 64.5t10.5 52t30 55t56 49.5q84 56 87 126q1 17 -2 33t-14 34.5t-37.5 30t-65.5 11.5q-33 0 -64.5 -6t-46.5 -12l-16 -5zM111 39
q0 21 15.5 36t37.5 15q21 0 36.5 -15t15.5 -36q0 -20 -15.5 -35.5t-36.5 -15.5q-22 0 -37.5 15t-15.5 36z" />
    <glyph glyph-name="at" unicode="@" horiz-adv-x="771" 
d="M524 -29l2 -52q-13 -15 -67.5 -28.5t-105.5 -13.5q-79 0 -138 23.5t-91.5 57.5t-52 79.5t-25 81t-5.5 70.5q0 55 12 109t41 108t72 94.5t111 65.5t152 25q76 0 135.5 -25.5t94.5 -67.5t53 -92t18 -104q0 -69 -21.5 -122t-55.5 -83t-72 -45t-77 -15q-58 0 -61 66
q0 18 1 29q-33 -36 -80 -65.5t-90 -29.5q-33 0 -50.5 32.5t-17.5 87.5q0 104 59 188.5t127 84.5q52 0 108 -24q5 8 11.5 15t10.5 9l4 3l38 -17q-27 -52 -42 -153q-21 -137 -13 -171q56 0 109 57.5t53 148.5q0 96 -61.5 167t-180.5 71q-71 0 -128 -22t-94 -56.5t-61.5 -81
t-35 -93t-10.5 -94.5q0 -27 4.5 -56t21 -67t42.5 -66.5t74 -49t111 -20.5q56 0 104.5 14t66.5 27zM289 90q77 27 160 104q4 31 12 78q11 59 22 93q-58 15 -105 15q-39 -20 -73 -78t-35 -129q-1 -24 4 -45t10 -30z" />
    <glyph glyph-name="A" unicode="A" horiz-adv-x="607" 
d="M250 682h111l228 -681h-85l-75 225h-258l-76 -225h-77zM302 617l-111 -324h218z" />
    <glyph glyph-name="B" unicode="B" horiz-adv-x="576" 
d="M84 0v682h202q104 0 149.5 -48.5t45.5 -115.5q0 -58 -33.5 -98.5t-82.5 -55.5v-1q69 -5 115.5 -49t46.5 -122q0 -81 -59 -136.5t-173 -55.5h-211zM447 196q0 57 -38.5 93.5t-121.5 36.5h-127v-259h128q74 0 116.5 34t42.5 95zM279 616h-119v-225h127q54 4 85 38t31 83
q0 43 -28.5 73.5t-95.5 30.5z" />
    <glyph glyph-name="C" unicode="C" horiz-adv-x="597" 
d="M559 84l1 -18q0 -17 1 -34l1 -18q-77 -28 -194 -28q-158 2 -240 100t-82 253t85 255t243 100q111 0 177 -27l-7 -68q-77 23 -163 23q-126 0 -190.5 -79.5t-64.5 -203.5q0 -126 64 -203t193 -77q86 0 176 25z" />
    <glyph glyph-name="D" unicode="D" horiz-adv-x="691" 
d="M84 0v682h239q154 0 238 -91.5t84 -245.5q0 -155 -84 -250t-238 -95h-239zM314 613h-154v-544h154q123 0 187 75.5t64 200.5q0 124 -63.5 196t-187.5 72z" />
    <glyph glyph-name="E" unicode="E" 
d="M84 0v681h373v-68h-298v-235h241v-66h-241v-244h316v-68h-391z" />
    <glyph glyph-name="F" unicode="F" horiz-adv-x="484" 
d="M409 306h-249v-306h-76v681h382v-68h-306v-241h249v-66z" />
    <glyph glyph-name="G" unicode="G" horiz-adv-x="642" 
d="M520 71v234h72v-288q-86 -31 -220 -31q-159 2 -242.5 98.5t-83.5 251.5q0 156 88.5 257t248.5 101q126 0 192 -27l-9 -68q-74 23 -178 23q-127 0 -195 -80.5t-68 -204.5t65.5 -201.5t193.5 -77.5q67 0 136 13z" />
    <glyph glyph-name="H" unicode="H" horiz-adv-x="695" 
d="M533 0v305h-372v-305h-77v681h77v-308h372v308h78v-681h-78z" />
    <glyph glyph-name="I" unicode="I" horiz-adv-x="245" 
d="M84 0v681h77v-681h-77z" />
    <glyph glyph-name="J" unicode="J" horiz-adv-x="370" 
d="M23 0l-3 68q36 -13 80 -13q68 0 93.5 29.5t25.5 95.5v502h76v-514q0 -92 -40.5 -137t-138.5 -45q-22 0 -45.5 3.5t-35.5 6.5z" />
    <glyph glyph-name="K" unicode="K" horiz-adv-x="554" 
d="M84 0v681h77v-681h-77zM541 0h-92l-238 330v19l210 333h86l-218 -336z" />
    <glyph glyph-name="L" unicode="L" horiz-adv-x="483" 
d="M84 0v681h77v-613h303v-68h-380z" />
    <glyph glyph-name="M" unicode="M" horiz-adv-x="891" 
d="M739 0l-18 587l-231 -587h-92l-231 584l-18 -584h-74l23 681h117l234 -599l233 599h111l23 -681h-77z" />
    <glyph glyph-name="N" unicode="N" horiz-adv-x="697" 
d="M520 0l-361 578v-578h-75v682h96l358 -575v575h75v-682h-93z" />
    <glyph glyph-name="O" unicode="O" horiz-adv-x="725" 
d="M362 694q149 0 233 -100t84 -254t-84 -254t-233 -100t-232.5 100t-83.5 254t83.5 254t232.5 100zM362 623q-112 0 -174 -80t-62 -203t62 -203t174 -80t174.5 80.5t62.5 202.5t-62.5 202.5t-174.5 80.5z" />
    <glyph glyph-name="P" unicode="P" horiz-adv-x="544" 
d="M84 0v682h209q105 0 166 -50.5t61 -158.5q0 -91 -58.5 -152t-164.5 -61h-137v-260h-76zM288 614h-128v-286h134q71 0 108.5 43.5t37.5 102.5q0 74 -42 107t-110 33z" />
    <glyph glyph-name="Q" unicode="Q" horiz-adv-x="725" 
d="M687 -184l-374 66l11 66l376 -63zM362 694q149 0 233 -100t84 -254t-84 -254t-233 -100t-232.5 100t-83.5 254t83.5 254t232.5 100zM362 623q-112 0 -174 -80t-62 -203t62 -203t174 -80t174.5 80.5t62.5 202.5t-62.5 202.5t-174.5 80.5z" />
    <glyph glyph-name="R" unicode="R" horiz-adv-x="579" 
d="M553 0h-87l-148 276h-158v-276h-76v682h202q102 0 160.5 -46t58.5 -144q0 -64 -31.5 -112.5t-86.5 -72.5zM280 615h-120v-273h173q38 16 66 53t28 91q0 129 -147 129z" />
    <glyph glyph-name="S" unicode="S" horiz-adv-x="506" 
d="M49 8l4 67q86 -22 174 -22q75 0 114.5 35t39.5 80q0 11 -2 21.5t-4 19t-9 18t-10 15t-13 14.5t-13.5 12.5t-17 12.5l-16.5 11l-18.5 12t-17.5 11q-89 52 -110 70q-42 31 -63.5 61t-21.5 79q0 76 57.5 122.5t146.5 46.5q43 0 83.5 -6.5t59.5 -13.5l19 -6l-6 -65
q-71 25 -149 25q-58 0 -95 -27t-37 -73q0 -49 71 -96q14 -10 39 -25l45 -26.5t22 -12.5q36 -22 54.5 -35t41.5 -37t33 -54t10 -69q0 -77 -58 -132t-171 -55q-44 0 -89.5 5.5t-69.5 10.5z" />
    <glyph glyph-name="T" unicode="T" horiz-adv-x="548" 
d="M535 613h-223v-613h-77v613h-222v68h522v-68z" />
    <glyph glyph-name="U" unicode="U" horiz-adv-x="663" 
d="M513 238v443h75v-441q0 -122 -71 -188t-186 -66q-120 0 -188 64t-68 184v447h76v-447q0 -91 50 -136t132 -45q77 0 128.5 47t51.5 138z" />
    <glyph glyph-name="V" unicode="V" horiz-adv-x="606" 
d="M356 0h-109l-229 682h84l202 -612l206 612h78z" />
    <glyph glyph-name="W" unicode="W" horiz-adv-x="972" 
d="M328 0h-112l-198 682h83l174 -604l175 604h79l169 -603l178 603h78l-203 -682h-110l-156 543z" />
    <glyph glyph-name="X" unicode="X" horiz-adv-x="586" 
d="M573 0h-90l-195 307l-193 -307h-82l236 370l-199 312h93l161 -259l162 259h83l-206 -323z" />
    <glyph glyph-name="Y" unicode="Y" horiz-adv-x="538" 
d="M13 682h88l163 -302l175 302h86l-223 -376v-306h-76v301z" />
    <glyph glyph-name="Z" unicode="Z" horiz-adv-x="568" 
d="M501 613l-363 -544h389v-69h-484v69l362 544h-344v68h440v-68z" />
    <glyph glyph-name="bracketleft" unicode="[" horiz-adv-x="386" 
d="M334 -144v-66h-258v923h258v-66h-185v-791h185z" />
    <glyph glyph-name="backslash" unicode="\" horiz-adv-x="487" 
d="M110 714l342 -924h-74l-342 924h74z" />
    <glyph glyph-name="bracketright" unicode="]" horiz-adv-x="386" 
d="M52 -210v66h185v791h-185v66h258v-923h-258z" />
    <glyph glyph-name="asciicircum" unicode="^" horiz-adv-x="564" 
d="M234 682h98l191 -434h-70l-164 372h-13l-164 -372h-71z" />
    <glyph glyph-name="underscore" unicode="_" horiz-adv-x="569" 
d="M569 -153h-569v68h569v-68z" />
    <glyph glyph-name="grave" unicode="`" horiz-adv-x="424" 
d="M311 565l-33 -39l-161 148l38 47z" />
    <glyph glyph-name="a" unicode="a" horiz-adv-x="462" 
d="M451 53l5 -50q-3 -2 -8.5 -5t-25 -7.5t-40.5 -3.5q-68 4 -80 72q-55 -73 -143 -73q-15 0 -33.5 5t-40 16.5t-35.5 36.5t-13 60q1 31 13.5 55t36.5 39t47 25t57.5 15t55.5 7t52 4v78q0 25 -4.5 41t-24.5 29t-58 13q-26 0 -56 -6.5t-48 -13.5l-17 -6l-8 59q62 34 148 34
q45 0 75.5 -12.5t44 -35.5t18 -45t4.5 -50v-229q0 -52 35 -58q12 -2 21.5 -0.5t15.5 3.5zM299 118v82q-23 0 -39 -2q-29 -4 -49 -8.5t-44.5 -13.5t-38 -24.5t-13.5 -37.5q0 -35 22 -51.5t47 -16.5q29 0 61 17.5t54 54.5z" />
    <glyph glyph-name="b" unicode="b" horiz-adv-x="524" 
d="M75 22v692h77v-291q56 54 137 54q83 0 138 -59.5t55 -178.5q0 -117 -63 -185t-165 -68q-104 0 -179 36zM270 411q-76 0 -118 -51v-297q38 -14 100 -14q69 0 110.5 51.5t41.5 137.5q0 82 -36 127.5t-98 45.5z" />
    <glyph glyph-name="c" unicode="c" horiz-adv-x="422" 
d="M396 80l5 -62q-48 -32 -142 -32q-99 0 -158 62.5t-59 178.5q0 121 64 185.5t175 64.5q72 -1 109 -20l-6 -62q-64 15 -108 15q-76 0 -116.5 -48t-40.5 -135q0 -82 41 -128t112 -46q72 0 124 27z" />
    <glyph glyph-name="d" unicode="d" horiz-adv-x="526" 
d="M451 714v-714h-65l-6 46q-56 -60 -144 -60q-83 0 -138.5 60.5t-55.5 180.5q0 116 61 183t161 67q57 0 110 -16v253h77zM255 52q75 0 119 51v295q-43 16 -102 16q-70 0 -110.5 -50t-40.5 -136q0 -82 36.5 -129t97.5 -47z" />
    <glyph glyph-name="e" unicode="e" horiz-adv-x="440" 
d="M268 49q81 0 129 26l4 -60q-40 -29 -144 -29q-101 0 -158 63t-57 178q0 113 53 180t141 70q52 2 89 -15t54 -44.5t23.5 -52t6.5 -47.5q0 -25 -3.5 -49.5t-7.5 -36.5l-3 -13h-277q3 -83 42 -126.5t108 -43.5zM337 273q3 28 2 47q0 21 -7 42t-31 40.5t-62 17.5
q-49 -2 -81 -42t-40 -106q36 0 109 0.5t110 0.5z" />
    <glyph glyph-name="f" unicode="f" horiz-adv-x="319" 
d="M22 407l10 57h76v88q0 35 8 64.5t25.5 56t51.5 42t81 15.5q59 0 92 -19q-4 -24 -11 -61q-31 14 -72 14q-100 0 -100 -123v-77h144v-57h-144v-407h-75v407h-86z" />
    <glyph glyph-name="g" unicode="g" horiz-adv-x="476" 
d="M401 318q0 -70 -47 -114t-122 -44q-28 0 -50 7q-40 -20 -40 -52q0 -18 13.5 -30.5t35.5 -12.5h111q69 0 111.5 -32.5t40.5 -104.5q-3 -73 -66.5 -122.5t-183.5 -45.5q-68 2 -117.5 34t-52.5 92q-2 40 20.5 74t61.5 52q-45 26 -42 77q3 55 66 87q-76 43 -76 135
q0 71 46.5 115t121.5 44q25 0 77.5 -6.5t66.5 -6.5l94 6l-4 -53q-5 -1 -13 -1.5t-35 -1t-52 1.5q35 -41 35 -98zM292 7h-126q-26 -10 -48.5 -39.5t-19.5 -63.5q3 -39 36 -60t78 -23q85 -2 126.5 29.5t43.5 79.5q1 37 -23 57t-67 20zM232 210q42 0 71.5 30t29.5 78
t-29.5 78.5t-71.5 30.5t-71 -30.5t-29 -78.5t29 -78t71 -30z" />
    <glyph glyph-name="h" unicode="h" horiz-adv-x="512" 
d="M448 0h-77v298q0 53 -17 81t-70 28q-68 0 -132 -56v-351h-77v714h77v-306q71 68 156 68q140 0 140 -158v-318z" />
    <glyph glyph-name="i" unicode="i" horiz-adv-x="227" 
d="M152 463v-463h-77v463h77zM152 574q-14 -6 -41 -6t-36 6q-6 9 -6 32q0 25 6 37q9 5 38 5q28 0 38 -5q6 -9 6 -34t-5 -35z" />
    <glyph glyph-name="j" unicode="j" horiz-adv-x="226" 
d="M75 463h77v-492q0 -204 -185 -204l-49 4l-3 65q22 -3 38 -3q68 0 95 35t27 113v482zM151 574q-12 -6 -40 -6q-27 0 -36 6q-6 7 -6 32q0 27 5 37q10 5 39 5q28 0 38 -5q6 -9 6 -34q0 -26 -6 -35z" />
    <glyph glyph-name="k" unicode="k" horiz-adv-x="467" 
d="M151 714v-714h-76v714h76zM459 0h-93l-175 249v2l160 212h87l-160 -210z" />
    <glyph glyph-name="l" unicode="l" horiz-adv-x="227" 
d="M152 714v-714h-77v714h77z" />
    <glyph glyph-name="m" unicode="m" horiz-adv-x="779" 
d="M715 0h-77v298q0 53 -17 81t-69 28q-57 0 -119 -53q4 -27 4 -59v-295h-77v298q0 53 -17 81t-70 28q-58 0 -122 -56v-351h-76v463h65l7 -56q75 69 150 69q95 0 125 -71q76 71 153 71q140 0 140 -158v-318z" />
    <glyph glyph-name="n" unicode="n" horiz-adv-x="512" 
d="M447 0h-77v298q0 53 -17 81t-70 28q-68 0 -132 -56v-351h-76v463h65l7 -56q75 69 160 69q140 0 140 -158v-318z" />
    <glyph glyph-name="o" unicode="o" 
d="M42 231q0 113 59 179.5t154 66.5q96 0 154.5 -66.5t58.5 -179.5t-58.5 -179t-154.5 -66q-94 0 -153.5 66.5t-59.5 178.5zM119 231q0 -84 36.5 -134.5t98.5 -50.5q63 0 100.5 50.5t37.5 134.5q0 85 -37 135.5t-101 50.5q-63 0 -99 -50.5t-36 -135.5z" />
    <glyph glyph-name="p" unicode="p" horiz-adv-x="525" 
d="M75 -221v684h65l6 -46q58 60 144 60q83 0 138.5 -60.5t55.5 -180.5q0 -116 -61 -183t-161 -67q-61 0 -110 17v-224h-77zM271 411q-75 0 -119 -51v-295q41 -16 102 -16q70 0 110.5 50t40.5 136q0 82 -36.5 129t-97.5 47z" />
    <glyph glyph-name="q" unicode="q" horiz-adv-x="524" 
d="M449 441v-662h-76v261q-54 -54 -137 -54q-84 0 -139 59.5t-55 178.5q0 117 63 185t166 68q106 0 178 -36zM254 52q74 0 119 49v298q-40 14 -100 14q-70 0 -111 -51t-41 -137q0 -82 36 -127.5t97 -45.5z" />
    <glyph glyph-name="r" unicode="r" horiz-adv-x="313" 
d="M310 469l-4 -73q-91 0 -154 -67v-329h-77v463h65l11 -73q60 81 159 79z" />
    <glyph glyph-name="s" unicode="s" horiz-adv-x="394" 
d="M43 6l7 58q54 -18 126 -18q49 0 77 21.5t28 51.5q0 38 -43 64q-7 4 -26.5 13.5l-36 18l-18.5 9.5q-50 25 -75 55.5t-25 76.5q0 56 47 88.5t110 32.5q78 0 126 -20l-7 -57q-65 17 -116 17q-34 0 -59.5 -16.5t-25.5 -45.5q0 -21 14 -38t50 -37q1 -1 17 -8t34.5 -16
t25.5 -13q84 -43 84 -118q0 -63 -47 -101t-123 -38q-97 0 -144 20z" />
    <glyph glyph-name="t" unicode="t" horiz-adv-x="355" 
d="M22 407l10 57h75v132l75 10v-142h134v-57h-134v-273q0 -47 15.5 -64.5t50.5 -17.5q46 0 81 23l5 -62q-44 -27 -112 -27q-63 0 -89 31.5t-26 96.5v293h-85z" />
    <glyph glyph-name="u" unicode="u" horiz-adv-x="506" 
d="M66 464h77v-299q0 -53 15.5 -80.5t67.5 -27.5q63 0 131 56v351h76v-463h-65l-7 56q-75 -69 -158 -69q-43 0 -72 13.5t-42 38.5t-18 49.5t-5 56.5v318z" />
    <glyph glyph-name="v" unicode="v" horiz-adv-x="437" 
d="M13 464h79l130 -403l128 403h74l-153 -464h-104z" />
    <glyph glyph-name="w" unicode="w" horiz-adv-x="714" 
d="M13 464h79l121 -398l111 398h72l112 -396l120 396h73l-144 -464h-99l-101 341l-98 -341h-99z" />
    <glyph glyph-name="x" unicode="x" horiz-adv-x="432" 
d="M409 0h-86l-114 181l-120 -181h-80l162 241l-141 223h88l108 -176l117 176h81l-162 -236z" />
    <glyph glyph-name="y" unicode="y" horiz-adv-x="435" 
d="M349 464h73l-146 -448q-39 -119 -71.5 -173t-95.5 -68q-30 -6 -62 -6l-38 3q-1 6 -1 31.5t-1 31.5q28 -4 49 -4q42 0 67 20.5t43 62.5l26 69l-180 481h79l135 -383z" />
    <glyph glyph-name="z" unicode="z" horiz-adv-x="417" 
d="M54 407v57h318v-57l-242 -349h259v-58h-346v57l241 350h-230z" />
    <glyph glyph-name="braceleft" unicode="{" horiz-adv-x="362" 
d="M317 -216l-13 -2.5t-29 -3.5t-37 -2q-141 2 -143 119q-2 71 14 244q5 39 -8 56.5t-57 24.5v73q45 8 57.5 25t7.5 58q-15 162 -14 235q2 117 143 119q16 0 36 -2t32 -4l11 -2q0 -63 -1 -63l-15.5 2.5t-35 2t-44.5 -4.5t-35 -22t-16 -44q-1 -36 2 -86t8.5 -108t6.5 -70
q1 -27 -15.5 -46.5t-49.5 -25.5v-3q33 -4 49.5 -24t15.5 -45l-6.5 -72t-8.5 -112.5t-2 -87.5q0 -27 15.5 -44.5t36.5 -22.5t42.5 -6t36.5 2l15 2v-15q1 -15 1 -30v-15z" />
    <glyph glyph-name="bar" unicode="|" horiz-adv-x="252" 
d="M89 -225v950h74v-950h-74z" />
    <glyph glyph-name="braceright" unicode="}" horiz-adv-x="362" 
d="M44 -216v10v19.5v22.5l1 8l15.5 -2.5t35 -1t44.5 5.5t35 22.5t17 44.5q0 36 -3 87.5t-8 113t-6 71.5q-1 25 15.5 45t48.5 24v3q-33 6 -49 25.5t-15 46.5q0 1 9 108t8 156q-1 27 -16 44t-36.5 21.5t-43 5t-36.5 -1.5l-15 -3l-1 63l13 2.5t29 3.5t37 2q142 -2 143 -119
q2 -64 -14 -235q-5 -41 7.5 -58t57.5 -25v-73q-44 -7 -57 -24.5t-8 -56.5q16 -173 14 -244q-2 -117 -143 -119q-16 0 -35.5 2t-31.5 4z" />
    <glyph glyph-name="asciitilde" unicode="~" horiz-adv-x="574" 
d="M81 178q-31 37 -33 37q23 43 66.5 67t91.5 22q41 -2 104.5 -33t97.5 -36q22 -3 47.5 5t44.5 29l26 -46q-14 -27 -45 -43.5t-72 -15.5q-47 2 -111 36t-97 36q-75 3 -120 -58z" />
    <glyph glyph-name="uni00A0" unicode="&#xa0;" horiz-adv-x="196" 
 />
    <glyph glyph-name="exclamdown" unicode="&#xa1;" horiz-adv-x="284" 
d="M107 273h70l4 -490h-78zM90 426q0 21 15 36t37 15q21 0 37 -15t16 -36q0 -20 -16 -35.5t-37 -15.5q-22 0 -37 15.5t-15 35.5z" />
    <glyph glyph-name="cent" unicode="&#xa2;" horiz-adv-x="465" 
d="M223 564v129h63v-123q74 -1 116 -19q0 -4 -2.5 -28t-3.5 -36q-48 16 -109 16q-77 0 -117.5 -48t-40.5 -134q0 -83 41.5 -129t112.5 -46t125 28l4 -63q-42 -28 -126 -31v-119h-63v123q-80 13 -125 74t-45 163q0 99 45 162.5t125 80.5z" />
    <glyph glyph-name="sterling" unicode="&#xa3;" horiz-adv-x="532" 
d="M511 664l-6 -62q-59 27 -133 27q-32 0 -56 -11.5t-37 -27t-22.5 -41t-12.5 -42.5t-6 -44q0 -2 -8 -68h166v-56h-173q-14 -114 -14 -123q-7 -80 -38 -160h292v-56h-428v56h60q31 78 40 159q0 8 14 124h-84v56h91q6 55 9 75l4.5 39.5t8 41t14 43.5t22.5 37.5t34.5 33.5
t49 20.5t65.5 8.5q41 0 84 -9t64 -21z" />
    <glyph glyph-name="yen" unicode="&#xa5;" horiz-adv-x="545" 
d="M444 682h84l-176 -294h159v-51h-188l-18 -31v-43h206v-51h-206v-212h-75v212h-202v51h202v38l-20 36h-182v51h155l-166 294h87l164 -303z" />
    <glyph glyph-name="brokenbar" unicode="&#xa6;" horiz-adv-x="250" 
d="M92 0v300h66v-300h-66zM92 435v296h66v-296h-66z" />
    <glyph glyph-name="section" unicode="&#xa7;" horiz-adv-x="544" 
d="M291 -155q31 8 49.5 27.5t23.5 49.5t4.5 60.5t-10.5 72t-18.5 70.5t-22 70t-18.5 58q-30 83 -45 131.5t-32 116t-12.5 108.5t28.5 58q-24 -6 -41 -19.5t-25 -35t-12 -42.5t0 -53l7 -54t13.5 -58.5l16 -54.5t17.5 -53l15 -44l18.5 -56l19.5 -58l17.5 -55t15.5 -55t11 -49
t6.5 -46t-1 -37t-8 -31.5t-17.5 -20.5zM108 -207l8 66q31 -7 65 -7q49 0 69 34q5 11 6 25.5t-3 37.5t-8.5 43t-15.5 55l-19 59l-23.5 71l-25.5 76q-18 55 -28.5 90t-23 90.5t-13.5 91.5t7 79t30 67.5t63 41.5t101 17q36 0 69.5 -4t49.5 -8l16 -4l-5 -66q-30 7 -65 7
q-50 0 -69 -34q-4 -8 -5.5 -19t0.5 -26.5l4 -30t8.5 -38l11.5 -41t14.5 -47.5l16.5 -50.5l19 -57.5l20 -60q61 -184 66 -272q9 -197 -195 -203h-12q-34 0 -67 4t-50 8z" />
    <glyph glyph-name="dieresis" unicode="&#xa8;" horiz-adv-x="424" 
d="M167 658q9 -15 9 -35q0 -21 -8 -37q-16 -8 -39 -8q-19 0 -33 7q-9 17 -9 38q0 18 8 34q23 10 39 10t33 -9zM329 658q9 -15 9 -35q0 -21 -8 -37q-16 -8 -39 -8q-19 0 -33 7q-10 18 -10 38q0 16 9 34q23 10 39 10t33 -9z" />
    <glyph glyph-name="copyright" unicode="&#xa9;" horiz-adv-x="816" 
d="M104 338q0 -127 88.5 -215.5t215.5 -88.5t216 88.5t89 215.5t-89 216t-216 89t-215.5 -89t-88.5 -216zM55 338q0 147 103 250.5t250 103.5q146 0 249.5 -103.5t103.5 -250.5q0 -146 -103.5 -249t-249.5 -103q-147 0 -250 103t-103 249zM522 185v-13l2 -24v-13
q-46 -17 -118 -17q-94 1 -142.5 59.5t-48.5 151.5q0 94 49.5 153.5t144.5 59.5q73 0 108 -16l-3 -50q-56 14 -99 14q-75 0 -108 -44t-33 -117q0 -158 142 -158q54 0 106 14z" />
    <glyph glyph-name="ordfeminine" unicode="&#xaa;" horiz-adv-x="317" 
d="M286 448l3 -37q-2 -1 -5.5 -3t-15.5 -4.5t-25 -2.5q-43 5 -51 44q-32 -44 -86 -44q-26 0 -49.5 15.5t-23.5 54.5q0 27 15 45t42 26.5t48.5 12t51.5 4.5v40q0 48 -46 48q-16 0 -35.5 -4t-31.5 -8l-12 -4l-5 44q44 20 96 20q91 0 91 -85v-131q0 -32 14 -35q6 -1 12.5 0
t9.5 2zM190 485v40q-13 0 -23 -1q-78 -8 -78 -47q0 -34 35 -34q16 0 35 11t31 31z" />
    <glyph glyph-name="guillemotleft" unicode="&#xab;" horiz-adv-x="467" 
d="M412 429l-85 -195l85 -195l-63 -22l-102 217l102 217zM220 429l-86 -195l86 -195l-63 -22l-103 217l103 217z" />
    <glyph glyph-name="logicalnot" unicode="&#xac;" horiz-adv-x="545" 
d="M492 332v-253h-72v185h-367v68h439z" />
    <glyph glyph-name="registered" unicode="&#xae;" horiz-adv-x="490" 
d="M29 477q0 89 63 152.5t153 63.5q89 0 152.5 -63.5t63.5 -152.5t-63.5 -152.5t-152.5 -63.5q-90 0 -153 63.5t-63 152.5zM70 477q0 -72 51.5 -123t124.5 -51q71 0 122.5 51.5t51.5 122.5q0 73 -51 124.5t-123 51.5q-74 0 -125 -51.5t-51 -124.5zM341 353h-50l-44 96h-40
v-96h-43v245h85q36 0 58.5 -17.5t22.5 -52.5q0 -49 -42 -68zM242 565h-35v-84h54q24 11 24 45q0 39 -43 39z" />
    <glyph glyph-name="macron" unicode="&#xaf;" horiz-adv-x="424" 
d="M53 590v66h318v-66h-318z" />
    <glyph glyph-name="degree" unicode="&#xb0;" horiz-adv-x="317" 
d="M24 596q0 56 39 95t95 39t95.5 -39t39.5 -95t-39.5 -95.5t-95.5 -39.5t-95 39.5t-39 95.5zM76 597q0 -35 24 -59.5t58 -24.5t58 24.5t24 59.5q0 34 -24 58t-58 24t-58 -24t-24 -58z" />
    <glyph glyph-name="plusminus" unicode="&#xb1;" horiz-adv-x="528" 
d="M475 0h-422v60h422v-60zM475 267h-176v-151h-68v151h-178v59h178v151h68v-151h176v-59z" />
    <glyph glyph-name="twosuperior" unicode="&#xb2;" horiz-adv-x="449" 
 />
    <glyph glyph-name="threesuperior" unicode="&#xb3;" horiz-adv-x="410" 
 />
    <glyph glyph-name="acute" unicode="&#xb4;" horiz-adv-x="424" 
d="M150 526l-33 39l156 156l38 -47z" />
    <glyph glyph-name="mu" unicode="&#xb5;" horiz-adv-x="505" 
d="M66 464h75v-299q0 -26 2.5 -42.5t10.5 -33.5t25.5 -25.5t45.5 -8.5q63 0 132 57v352h74v-463h-63l-7 56q-65 -62 -143 -66q-48 -3 -82 16l5 -231h-75v688z" />
    <glyph glyph-name="mu" unicode="&#x3bc;" horiz-adv-x="505" 
d="M66 464h75v-299q0 -26 2.5 -42.5t10.5 -33.5t25.5 -25.5t45.5 -8.5q63 0 132 57v352h74v-463h-63l-7 56q-65 -62 -143 -66q-48 -3 -82 16l5 -231h-75v688z" />
    <glyph glyph-name="paragraph" unicode="&#xb6;" horiz-adv-x="561" 
d="M140 -215l8 59q39 -12 103 -12q80 0 114.5 40.5t34.5 118.5v692h73v-704q0 -212 -211 -212q-79 0 -122 18zM260 174v440q-53 -12 -98 -32q-36 -77 -36 -185q0 -115 41 -190q40 -23 93 -33zM320 683v-579q-98 0 -200 58q-54 93 -55.5 229.5t51.5 238.5q106 48 204 53z" />
    <glyph glyph-name="periodcentered" unicode="&#xb7;" horiz-adv-x="195" 
d="M48 247q0 19 15.5 34t35.5 15q19 0 33.5 -15t14.5 -34q0 -20 -14.5 -35t-33.5 -15q-20 0 -35.5 15t-15.5 35z" />
    <glyph glyph-name="cedilla" unicode="&#xb8;" horiz-adv-x="427" 
d="M127 -202l8 48q40 -16 67 -16q35 0 35 23q0 10 -13 35t-13 38t4.5 24.5t8.5 17.5l5 5h53q-13 -15 -13 -37q0 -26 16 -52.5t16 -47.5q0 -25 -20.5 -41t-59.5 -16q-25 0 -48.5 4.5t-34.5 9.5z" />
    <glyph glyph-name="onesuperior" unicode="&#xb9;" horiz-adv-x="390" 
 />
    <glyph glyph-name="ordmasculine" unicode="&#xba;" horiz-adv-x="322" 
d="M33 548q0 68 35.5 107.5t91.5 39.5q58 0 93 -39.5t35 -107.5t-35 -107.5t-93 -39.5q-56 0 -91.5 40t-35.5 107zM92 548q0 -50 18.5 -76.5t48.5 -26.5q32 0 51.5 26.5t19.5 76.5t-19.5 76.5t-51.5 26.5q-30 0 -48.5 -26.5t-18.5 -76.5z" />
    <glyph glyph-name="guillemotright" unicode="&#xbb;" horiz-adv-x="467" 
d="M140 234l-86 195l63 22l103 -217l-103 -217l-63 22zM332 234l-85 195l63 22l102 -217l-102 -217l-63 22z" />
    <glyph glyph-name="onequarter" unicode="&#xbc;" horiz-adv-x="1290" 
 />
    <glyph glyph-name="onehalf" unicode="&#xbd;" horiz-adv-x="759" 
 />
    <glyph glyph-name="threequarters" unicode="&#xbe;" horiz-adv-x="1310" 
 />
    <glyph glyph-name="questiondown" unicode="&#xbf;" horiz-adv-x="448" 
d="M248 276h71q0 -44 -2 -66t-10.5 -54t-29.5 -57t-56 -49q-51 -34 -68 -56t-19 -52q-1 -16 2 -31.5t13.5 -33.5t37 -29.5t65.5 -11.5q33 0 65 6t47 12l16 5l16 -60q-67 -31 -157 -31q-50 0 -87.5 13.5t-56 33t-29.5 44.5t-12.5 44t-0.5 37q4 48 26.5 78.5t86.5 75.5
q56 38 69 73.5t13 108.5zM337 427q0 -21 -15.5 -36t-37.5 -15q-21 0 -36.5 15t-15.5 36q0 20 15.5 35.5t36.5 15.5q22 0 37.5 -15.5t15.5 -35.5z" />
    <glyph glyph-name="Agrave" unicode="&#xc0;" horiz-adv-x="607" 
d="M250 682h111l228 -681h-85l-75 225h-258l-76 -225h-77zM302 617l-111 -324h218zM393 777l-33 -39l-161 148l38 47z" />
    <glyph glyph-name="Aacute" unicode="&#xc1;" horiz-adv-x="607" 
d="M250 682h111l228 -681h-85l-75 225h-258l-76 -225h-77zM302 617l-111 -324h218zM246 738l-33 39l156 156l38 -47z" />
    <glyph glyph-name="Acircumflex" unicode="&#xc2;" horiz-adv-x="607" 
d="M250 682h111l228 -681h-85l-75 225h-258l-76 -225h-77zM302 617l-111 -324h218zM287 924h32l138 -144l-33 -39l-121 116l-120 -116l-34 39z" />
    <glyph glyph-name="Atilde" unicode="&#xc3;" horiz-adv-x="607" 
d="M250 682h111l228 -681h-85l-75 225h-258l-76 -225h-77zM302 617l-111 -324h218zM168 792l-29 39q4 6 12.5 14.5t35.5 23t56 14.5q20 0 34 -2.5t34.5 -10.5t31.5 -11q34 -8 51 -1t34 31l37 -33q-1 -3 -3 -7t-10 -14.5t-17 -19t-24.5 -15t-33.5 -6.5q-30 0 -68 14.5
t-63 14.5q-20 0 -39.5 -7.5t-28.5 -15.5z" />
    <glyph glyph-name="Adieresis" unicode="&#xc4;" horiz-adv-x="607" 
d="M250 682h111l228 -681h-85l-75 225h-258l-76 -225h-77zM302 617l-111 -324h218zM250 870q9 -15 9 -35q0 -21 -8 -37q-16 -8 -39 -8q-19 0 -33 7q-9 17 -9 38q0 18 8 34q23 10 39 10q17 0 33 -9zM412 870q9 -15 9 -35q0 -21 -8 -37q-16 -8 -39 -8q-19 0 -33 7
q-10 18 -10 38q0 16 9 34q23 10 39 10q17 0 33 -9z" />
    <glyph glyph-name="Aring" unicode="&#xc5;" horiz-adv-x="607" 
d="M250 682h111l228 -681h-85l-75 225h-258l-76 -225h-77zM302 617l-111 -324h218zM202 834q0 41 28 69.5t69 28.5t69.5 -29t28.5 -69q0 -41 -28.5 -69.5t-69.5 -28.5t-69 28.5t-28 69.5zM245 834q0 -23 15.5 -38.5t38.5 -15.5t38.5 16t15.5 38t-16 38t-38 16
q-23 0 -38.5 -16t-15.5 -38z" />
    <glyph glyph-name="AE" unicode="&#xc6;" horiz-adv-x="875" 
d="M448 0v226h-267l-86 -225h-77l260 681l544 -1v-68h-299v-235h242v-66h-242v-244h317v-68h-392zM327 613l-123 -320h244v320h-121z" />
    <glyph glyph-name="Ccedilla" unicode="&#xc7;" horiz-adv-x="597" 
d="M559 84l1 -18q0 -17 1 -34l1 -18q-77 -28 -194 -28q-158 2 -240 100t-82 253t85 255t243 100q111 0 177 -27l-7 -68q-77 23 -163 23q-126 0 -190.5 -79.5t-64.5 -203.5q0 -126 64 -203t193 -77q86 0 176 25zM217 -202l8 48q40 -16 67 -16q35 0 35 23q0 10 -13 35t-13 38
t4.5 24.5t8.5 17.5l5 5h53q-13 -15 -13 -37q0 -26 16 -52.5t16 -47.5q0 -25 -20.5 -41t-59.5 -16q-25 0 -48.5 4.5t-34.5 9.5z" />
    <glyph glyph-name="Egrave" unicode="&#xc8;" 
d="M84 0v681h373v-68h-298v-235h241v-66h-241v-244h316v-68h-391zM351 777l-33 -39l-161 148l38 47z" />
    <glyph glyph-name="Eacute" unicode="&#xc9;" 
d="M84 0v681h373v-68h-298v-235h241v-66h-241v-244h316v-68h-391zM224 738l-33 39l156 156l38 -47z" />
    <glyph glyph-name="Ecircumflex" unicode="&#xca;" 
d="M84 0v681h373v-68h-298v-235h241v-66h-241v-244h316v-68h-391zM250 924h32l138 -144l-33 -39l-121 116l-120 -116l-34 39z" />
    <glyph glyph-name="Edieresis" unicode="&#xcb;" 
d="M84 0v681h373v-68h-298v-235h241v-66h-241v-244h316v-68h-391zM216 870q9 -15 9 -35q0 -21 -8 -37q-16 -8 -39 -8q-19 0 -33 7q-9 17 -9 38q0 18 8 34q23 10 39 10q17 0 33 -9zM378 870q9 -15 9 -35q0 -21 -8 -37q-16 -8 -39 -8q-19 0 -33 7q-10 18 -10 38q0 16 9 34
q23 10 39 10q17 0 33 -9z" />
    <glyph glyph-name="Igrave" unicode="&#xcc;" horiz-adv-x="245" 
d="M84 0v681h77v-681h-77zM216 777l-33 -39l-161 148l38 47z" />
    <glyph glyph-name="Iacute" unicode="&#xcd;" horiz-adv-x="245" 
d="M84 0v681h77v-681h-77zM65 738l-33 39l156 156l38 -47z" />
    <glyph glyph-name="Icircumflex" unicode="&#xce;" horiz-adv-x="245" 
d="M84 0v681h77v-681h-77zM106 924h32l138 -144l-33 -39l-121 116l-120 -116l-34 39z" />
    <glyph glyph-name="Idieresis" unicode="&#xcf;" horiz-adv-x="245" 
d="M84 0v681h77v-681h-77zM78 871q9 -15 9 -35q0 -21 -8 -37q-16 -8 -39 -8q-19 0 -33 7q-9 16 -9 38q0 18 8 34q23 10 39 10q17 0 33 -9zM240 871q9 -15 9 -35q0 -21 -8 -37q-16 -8 -39 -8q-19 0 -33 7q-10 18 -10 38q0 16 9 34q23 10 39 10t33 -9z" />
    <glyph glyph-name="Eth" unicode="&#xd0;" horiz-adv-x="693" 
d="M84 0v317h-75v63h75v302h239q154 0 238 -91.5t84 -245.5q0 -155 -84 -250t-238 -95h-239zM314 613h-154v-233h214v-63h-214v-248h107q152 0 225 67t73 209q0 124 -63.5 196t-187.5 72z" />
    <glyph glyph-name="Ntilde" unicode="&#xd1;" horiz-adv-x="697" 
d="M520 0l-361 578v-578h-75v682h96l358 -575v575h75v-682h-93zM214 792l-29 39q4 6 12.5 14.5t35.5 23t56 14.5q20 0 34 -2.5t34.5 -10.5t31.5 -11q34 -8 51 -1t34 31l37 -33q-1 -3 -3 -7t-10 -14.5t-17 -19t-24.5 -15t-33.5 -6.5q-30 0 -68 14.5t-63 14.5
q-20 0 -39.5 -7.5t-28.5 -15.5z" />
    <glyph glyph-name="Ograve" unicode="&#xd2;" horiz-adv-x="725" 
d="M362 694q149 0 233 -100t84 -254t-84 -254t-233 -100t-232.5 100t-83.5 254t83.5 254t232.5 100zM362 623q-112 0 -174 -80t-62 -203t62 -203t174 -80t174.5 80.5t62.5 202.5t-62.5 202.5t-174.5 80.5zM441 777l-33 -39l-161 148l38 47z" />
    <glyph glyph-name="Oacute" unicode="&#xd3;" horiz-adv-x="725" 
d="M362 694q149 0 233 -100t84 -254t-84 -254t-233 -100t-232.5 100t-83.5 254t83.5 254t232.5 100zM362 623q-112 0 -174 -80t-62 -203t62 -203t174 -80t174.5 80.5t62.5 202.5t-62.5 202.5t-174.5 80.5zM299 738l-33 39l156 156l38 -47z" />
    <glyph glyph-name="Ocircumflex" unicode="&#xd4;" horiz-adv-x="725" 
d="M362 694q149 0 233 -100t84 -254t-84 -254t-233 -100t-232.5 100t-83.5 254t83.5 254t232.5 100zM362 623q-112 0 -174 -80t-62 -203t62 -203t174 -80t174.5 80.5t62.5 202.5t-62.5 202.5t-174.5 80.5zM343 924h32l138 -144l-33 -39l-121 116l-120 -116l-34 39z" />
    <glyph glyph-name="Otilde" unicode="&#xd5;" horiz-adv-x="725" 
d="M362 694q149 0 233 -100t84 -254t-84 -254t-233 -100t-232.5 100t-83.5 254t83.5 254t232.5 100zM362 623q-112 0 -174 -80t-62 -203t62 -203t174 -80t174.5 80.5t62.5 202.5t-62.5 202.5t-174.5 80.5zM227 792l-29 39q4 6 12.5 14.5t35.5 23t56 14.5q20 0 34 -2.5
t34.5 -10.5t31.5 -11q34 -8 51 -1t34 31l37 -33q-1 -3 -3 -7t-10 -14.5t-17 -19t-24.5 -15t-33.5 -6.5q-30 0 -68 14.5t-63 14.5q-20 0 -39.5 -7.5t-29.5 -15.5z" />
    <glyph glyph-name="Odieresis" unicode="&#xd6;" horiz-adv-x="725" 
d="M362 694q149 0 233 -100t84 -254t-84 -254t-233 -100t-232.5 100t-83.5 254t83.5 254t232.5 100zM362 623q-112 0 -174 -80t-62 -203t62 -203t174 -80t174.5 80.5t62.5 202.5t-62.5 202.5t-174.5 80.5zM315 870q9 -15 9 -35q0 -21 -8 -37q-16 -8 -39 -8q-19 0 -33 7
q-9 17 -9 38q0 18 8 34q23 10 39 10t33 -9zM477 870q9 -15 9 -35q0 -21 -8 -37q-16 -8 -39 -8q-19 0 -33 7q-10 18 -10 38q0 16 9 34q23 10 39 10t33 -9z" />
    <glyph glyph-name="multiply" unicode="&#xd7;" horiz-adv-x="450" 
d="M395 354l-124 -124l126 -126l-49 -47l-125 125l-126 -126l-44 44l125 127l-124 124l47 48l125 -125l125 125z" />
    <glyph glyph-name="Oslash" unicode="&#xd8;" horiz-adv-x="732" 
d="M366 694q118 0 200 -69l43 56h65l-73 -90q83 -98 83 -251q0 -154 -84.5 -254t-233.5 -100q-116 0 -195 65l-42 -51h-65l69 87q-83 97 -83 253q0 154 83.5 254t232.5 100zM604 340q0 111 -54 188l-331 -419q60 -52 147 -52q112 0 175 80.5t63 202.5zM366 623
q-111 0 -173.5 -80.5t-62.5 -202.5q0 -115 55 -190l332 417q-61 56 -151 56z" />
    <glyph glyph-name="Ugrave" unicode="&#xd9;" horiz-adv-x="663" 
d="M513 238v443h75v-441q0 -122 -71 -188t-186 -66q-120 0 -188 64t-68 184v447h76v-447q0 -91 50 -136t132 -45q77 0 128.5 47t51.5 138zM410 777l-33 -39l-161 148l38 47z" />
    <glyph glyph-name="Uacute" unicode="&#xda;" horiz-adv-x="663" 
d="M513 238v443h75v-441q0 -122 -71 -188t-186 -66q-120 0 -188 64t-68 184v447h76v-447q0 -91 50 -136t132 -45q77 0 128.5 47t51.5 138zM295 738l-33 39l156 156l38 -47z" />
    <glyph glyph-name="Ucircumflex" unicode="&#xdb;" horiz-adv-x="663" 
d="M513 238v443h75v-441q0 -122 -71 -188t-186 -66q-120 0 -188 64t-68 184v447h76v-447q0 -91 50 -136t132 -45q77 0 128.5 47t51.5 138zM322 924h32l138 -144l-33 -39l-121 116l-120 -116l-34 39z" />
    <glyph glyph-name="Udieresis" unicode="&#xdc;" horiz-adv-x="663" 
d="M513 238v443h75v-441q0 -122 -71 -188t-186 -66q-120 0 -188 64t-68 184v447h76v-447q0 -91 50 -136t132 -45q77 0 128.5 47t51.5 138zM288 870q9 -15 9 -35q0 -21 -8 -37q-16 -8 -39 -8q-19 0 -33 7q-9 17 -9 38q0 18 8 34q23 10 39 10q17 0 33 -9zM450 870q9 -15 9 -35
q0 -21 -8 -37q-16 -8 -39 -8q-19 0 -33 7q-10 18 -10 38q0 16 9 34q23 10 39 10q17 0 33 -9z" />
    <glyph glyph-name="Yacute" unicode="&#xdd;" horiz-adv-x="538" 
d="M13 682h88l163 -302l175 302h86l-223 -376v-306h-76v301zM213 738l-33 39l156 156l38 -47z" />
    <glyph glyph-name="Thorn" unicode="&#xde;" horiz-adv-x="546" 
d="M228 140v64h68q71 0 108.5 44t37.5 102q0 73 -42.5 106.5t-109.5 33.5h-130v-490h-76v682h76v-124h136q104 0 165 -50.5t61 -159.5q0 -91 -58.5 -151t-164.5 -60z" />
    <glyph glyph-name="germandbls" unicode="&#xdf;" horiz-adv-x="603" 
d="M22 405l10 59h77v41q0 31 5.5 60t21 60t39.5 53.5t64 37t91 14.5q54 0 92 -13t55.5 -34t24 -41t6.5 -41q0 -36 -20.5 -71.5t-45.5 -59t-45.5 -51t-20.5 -50.5q0 -14 9.5 -28.5t18 -22l26.5 -22.5l76 -54q42 -31 58.5 -59.5t16.5 -63.5q0 -60 -43 -96.5t-116 -36.5
q-80 0 -128 21l5 55q62 -19 112 -19q49 0 73.5 21t24.5 49q0 38 -46 73l-25.5 18.5l-35 24.5t-18.5 13q-41 28 -59 54.5t-18 62.5q0 29 20 60.5t44 54.5t44 54.5t20 59.5q0 83 -110 83q-43 0 -73.5 -16t-44.5 -43t-20 -52.5t-6 -54.5v-505h-72v405h-87z" />
    <glyph glyph-name="agrave" unicode="&#xe0;" horiz-adv-x="462" 
d="M314 565l-33 -39l-161 148l38 47zM451 53l5 -50q-3 -2 -8.5 -5t-25 -7.5t-40.5 -3.5q-68 4 -80 72q-55 -73 -143 -73q-15 0 -33.5 5t-40 16.5t-35.5 36.5t-13 60q1 31 13.5 55t36.5 39t47 25t57.5 15t55.5 7t52 4v78q0 25 -4.5 41t-24.5 29t-58 13q-26 0 -56 -6.5
t-48 -13.5l-17 -6l-8 59q62 34 148 34q45 0 75.5 -12.5t44 -35.5t18 -45t4.5 -50v-229q0 -52 35 -58q12 -2 21.5 -0.5t15.5 3.5zM299 118v82q-23 0 -39 -2q-29 -4 -49 -8.5t-44.5 -13.5t-38 -24.5t-13.5 -37.5q0 -35 22 -51.5t47 -16.5q29 0 61 17.5t54 54.5z" />
    <glyph glyph-name="aacute" unicode="&#xe1;" horiz-adv-x="462" 
d="M194 526l-33 39l156 156l38 -47zM451 53l5 -50q-3 -2 -8.5 -5t-25 -7.5t-40.5 -3.5q-68 4 -80 72q-55 -73 -143 -73q-15 0 -33.5 5t-40 16.5t-35.5 36.5t-13 60q1 31 13.5 55t36.5 39t47 25t57.5 15t55.5 7t52 4v78q0 25 -4.5 41t-24.5 29t-58 13q-26 0 -56 -6.5
t-48 -13.5l-17 -6l-8 59q62 34 148 34q45 0 75.5 -12.5t44 -35.5t18 -45t4.5 -50v-229q0 -52 35 -58q12 -2 21.5 -0.5t15.5 3.5zM299 118v82q-23 0 -39 -2q-29 -4 -49 -8.5t-44.5 -13.5t-38 -24.5t-13.5 -37.5q0 -35 22 -51.5t47 -16.5q29 0 61 17.5t54 54.5z" />
    <glyph glyph-name="acircumflex" unicode="&#xe2;" horiz-adv-x="462" 
d="M211 712h32l138 -144l-33 -39l-121 116l-120 -116l-34 39zM451 53l5 -50q-3 -2 -8.5 -5t-25 -7.5t-40.5 -3.5q-68 4 -80 72q-55 -73 -143 -73q-15 0 -33.5 5t-40 16.5t-35.5 36.5t-13 60q1 31 13.5 55t36.5 39t47 25t57.5 15t55.5 7t52 4v78q0 25 -4.5 41t-24.5 29
t-58 13q-26 0 -56 -6.5t-48 -13.5l-17 -6l-8 59q62 34 148 34q45 0 75.5 -12.5t44 -35.5t18 -45t4.5 -50v-229q0 -52 35 -58q12 -2 21.5 -0.5t15.5 3.5zM299 118v82q-23 0 -39 -2q-29 -4 -49 -8.5t-44.5 -13.5t-38 -24.5t-13.5 -37.5q0 -35 22 -51.5t47 -16.5q29 0 61 17.5
t54 54.5z" />
    <glyph glyph-name="atilde" unicode="&#xe3;" horiz-adv-x="462" 
d="M90 580l-29 39q4 6 12.5 14.5t35.5 23t56 14.5q20 0 34 -2.5t34.5 -10.5t31.5 -11q34 -8 51 -1t34 31l37 -33q-1 -3 -3 -7t-10 -14.5t-17 -19t-24.5 -15t-33.5 -6.5q-30 0 -68 14.5t-63 14.5q-20 0 -39.5 -7.5t-28.5 -15.5zM451 53l5 -50q-3 -2 -8.5 -5t-25 -7.5
t-40.5 -3.5q-68 4 -80 72q-55 -73 -143 -73q-15 0 -33.5 5t-40 16.5t-35.5 36.5t-13 60q1 31 13.5 55t36.5 39t47 25t57.5 15t55.5 7t52 4v78q0 25 -4.5 41t-24.5 29t-58 13q-26 0 -56 -6.5t-48 -13.5l-17 -6l-8 59q62 34 148 34q45 0 75.5 -12.5t44 -35.5t18 -45t4.5 -50
v-229q0 -52 35 -58q12 -2 21.5 -0.5t15.5 3.5zM299 118v82q-23 0 -39 -2q-29 -4 -49 -8.5t-44.5 -13.5t-38 -24.5t-13.5 -37.5q0 -35 22 -51.5t47 -16.5q29 0 61 17.5t54 54.5z" />
    <glyph glyph-name="adieresis" unicode="&#xe4;" horiz-adv-x="462" 
d="M181 658q9 -15 9 -35q0 -21 -8 -37q-16 -8 -39 -8q-19 0 -33 7q-9 17 -9 38q0 18 8 34q23 10 39 10t33 -9zM343 658q9 -15 9 -35q0 -21 -8 -37q-16 -8 -39 -8q-19 0 -33 7q-10 18 -10 38q0 16 9 34q23 10 39 10t33 -9zM451 53l5 -50q-3 -2 -8.5 -5t-25 -7.5t-40.5 -3.5
q-68 4 -80 72q-55 -73 -143 -73q-15 0 -33.5 5t-40 16.5t-35.5 36.5t-13 60q1 31 13.5 55t36.5 39t47 25t57.5 15t55.5 7t52 4v78q0 25 -4.5 41t-24.5 29t-58 13q-26 0 -56 -6.5t-48 -13.5l-17 -6l-8 59q62 34 148 34q45 0 75.5 -12.5t44 -35.5t18 -45t4.5 -50v-229
q0 -52 35 -58q12 -2 21.5 -0.5t15.5 3.5zM299 118v82q-23 0 -39 -2q-29 -4 -49 -8.5t-44.5 -13.5t-38 -24.5t-13.5 -37.5q0 -35 22 -51.5t47 -16.5q29 0 61 17.5t54 54.5z" />
    <glyph glyph-name="aring" unicode="&#xe5;" horiz-adv-x="462" 
d="M127 630q0 41 28 69.5t69 28.5q40 0 69 -29t29 -69q0 -41 -28.5 -69.5t-69.5 -28.5t-69 28.5t-28 69.5zM170 630q0 -23 15.5 -38.5t38.5 -15.5q22 0 38 16t16 38t-16 38t-38 16q-23 0 -38.5 -16t-15.5 -38zM451 53l5 -50q-3 -2 -8.5 -5t-25 -7.5t-40.5 -3.5q-68 4 -80 72
q-55 -73 -143 -73q-15 0 -33.5 5t-40 16.5t-35.5 36.5t-13 60q1 31 13.5 55t36.5 39t47 25t57.5 15t55.5 7t52 4v78q0 25 -4.5 41t-24.5 29t-58 13q-26 0 -56 -6.5t-48 -13.5l-17 -6l-8 59q62 34 148 34q45 0 75.5 -12.5t44 -35.5t18 -45t4.5 -50v-229q0 -52 35 -58
q12 -2 21.5 -0.5t15.5 3.5zM299 118v82q-23 0 -39 -2q-29 -4 -49 -8.5t-44.5 -13.5t-38 -24.5t-13.5 -37.5q0 -35 22 -51.5t47 -16.5q29 0 61 17.5t54 54.5z" />
    <glyph glyph-name="ae" unicode="&#xe6;" horiz-adv-x="696" 
d="M525 49q81 0 129 26l3 -60q-38 -29 -143 -29q-130 0 -184 99q-31 -50 -77.5 -74.5t-93.5 -24.5q-15 0 -33.5 5t-40 16.5t-35.5 36.5t-13 60q1 31 13.5 55t36.5 39t47 25t57.5 15t55.5 7t52 4v78q0 25 -4.5 41t-24.5 29t-58 13q-25 0 -55.5 -6.5t-48.5 -13.5l-17 -6
q-6 36 -8 59q55 30 131 32q27 1 58 -4q63 -13 83 -65q51 66 138 71q52 2 89 -15t53.5 -44.5t23.5 -52t7 -47.5q0 -25 -4 -49.5t-8 -36.5l-3 -13h-277q3 -83 42.5 -126.5t108.5 -43.5zM593 273q3 14 3 47q0 15 -4.5 30.5t-14.5 33t-31 27.5t-50 9q-49 -2 -81.5 -42
t-39.5 -106q36 0 109 0.5t109 0.5zM260 198q-28 -4 -48.5 -8.5t-45 -13.5t-38 -24.5t-13.5 -37.5q0 -35 22 -51.5t47 -16.5q35 0 70 21t58 61q-13 39 -13 72v1q-15 0 -39 -3z" />
    <glyph glyph-name="ccedilla" unicode="&#xe7;" horiz-adv-x="422" 
d="M396 80l5 -62q-48 -32 -142 -32q-99 0 -158 62.5t-59 178.5q0 121 64 185.5t175 64.5q72 -1 109 -20l-6 -62q-64 15 -108 15q-76 0 -116.5 -48t-40.5 -135q0 -82 41 -128t112 -46q72 0 124 27zM119 -202l8 48q40 -16 67 -16q35 0 35 23q0 10 -13 35t-13 38t4.5 24.5
t8.5 17.5l5 5h53q-13 -15 -13 -37q0 -26 16 -52.5t16 -47.5q0 -25 -20.5 -41t-59.5 -16q-25 0 -48.5 4.5t-34.5 9.5z" />
    <glyph glyph-name="egrave" unicode="&#xe8;" horiz-adv-x="440" 
d="M268 49q81 0 129 26l4 -60q-40 -29 -144 -29q-101 0 -158 63t-57 178q0 113 53 180t141 70q52 2 89 -15t54 -44.5t23.5 -52t6.5 -47.5q0 -25 -3.5 -49.5t-7.5 -36.5l-3 -13h-277q3 -83 42 -126.5t108 -43.5zM337 273q3 28 2 47q0 21 -7 42t-31 40.5t-62 17.5
q-49 -2 -81 -42t-40 -106q36 0 109 0.5t110 0.5zM337 565l-33 -39l-161 148l38 47z" />
    <glyph glyph-name="eacute" unicode="&#xe9;" horiz-adv-x="440" 
d="M268 49q81 0 129 26l4 -60q-40 -29 -144 -29q-101 0 -158 63t-57 178q0 113 53 180t141 70q52 2 89 -15t54 -44.5t23.5 -52t6.5 -47.5q0 -25 -3.5 -49.5t-7.5 -36.5l-3 -13h-277q3 -83 42 -126.5t108 -43.5zM337 273q3 28 2 47q0 21 -7 42t-31 40.5t-62 17.5
q-49 -2 -81 -42t-40 -106q36 0 109 0.5t110 0.5zM195 526l-33 39l156 156l38 -47z" />
    <glyph glyph-name="ecircumflex" unicode="&#xea;" horiz-adv-x="440" 
d="M268 49q81 0 129 26l4 -60q-40 -29 -144 -29q-101 0 -158 63t-57 178q0 113 53 180t141 70q52 2 89 -15t54 -44.5t23.5 -52t6.5 -47.5q0 -25 -3.5 -49.5t-7.5 -36.5l-3 -13h-277q3 -83 42 -126.5t108 -43.5zM337 273q3 28 2 47q0 21 -7 42t-31 40.5t-62 17.5
q-49 -2 -81 -42t-40 -106q36 0 109 0.5t110 0.5zM227 712h32l138 -144l-33 -39l-121 116l-120 -116l-34 39z" />
    <glyph glyph-name="edieresis" unicode="&#xeb;" horiz-adv-x="440" 
d="M268 49q81 0 129 26l4 -60q-40 -29 -144 -29q-101 0 -158 63t-57 178q0 113 53 180t141 70q52 2 89 -15t54 -44.5t23.5 -52t6.5 -47.5q0 -25 -3.5 -49.5t-7.5 -36.5l-3 -13h-277q3 -83 42 -126.5t108 -43.5zM337 273q3 28 2 47q0 21 -7 42t-31 40.5t-62 17.5
q-49 -2 -81 -42t-40 -106q36 0 109 0.5t110 0.5zM192 658q9 -15 9 -35q0 -21 -8 -37q-16 -8 -39 -8q-19 0 -33 7q-9 17 -9 38q0 18 8 34q23 10 39 10q17 0 33 -9zM354 658q9 -15 9 -35q0 -21 -8 -37q-16 -8 -39 -8q-19 0 -33 7q-10 18 -10 38q0 16 9 34q23 10 39 10
q17 0 33 -9z" />
    <glyph glyph-name="igrave" unicode="&#xec;" horiz-adv-x="227" 
d="M152 463v-463h-77v463h77zM179 565l-33 -39l-161 148l38 47z" />
    <glyph glyph-name="iacute" unicode="&#xed;" horiz-adv-x="227" 
d="M152 463v-463h-77v463h77zM93 526l-33 39l156 156l38 -47z" />
    <glyph glyph-name="icircumflex" unicode="&#xee;" horiz-adv-x="227" 
d="M152 463v-463h-77v463h77zM97 712h32l138 -144l-33 -39l-121 116l-120 -116l-34 39z" />
    <glyph glyph-name="idieresis" unicode="&#xef;" horiz-adv-x="227" 
d="M152 463v-463h-77v463h77zM69 658q9 -15 9 -35q0 -21 -8 -37q-16 -8 -39 -8q-19 0 -33 7q-9 17 -9 38q0 18 8 34q23 10 39 10t33 -9zM231 658q9 -15 9 -35q0 -21 -8 -37q-16 -8 -39 -8q-19 0 -33 7q-10 18 -10 38q0 16 9 34q23 10 39 10t33 -9z" />
    <glyph glyph-name="eth" unicode="&#xf0;" 
d="M387 689l27 -48l-67 -36q135 -125 121 -381q-6 -110 -63.5 -174t-149.5 -64q-94 0 -153.5 66.5t-59.5 178.5q0 113 59 179.5t154 66.5q81 0 130 -71q-32 109 -94 164l-110 -62l-28 46l91 50q-44 31 -111 52l24 47q75 -19 144 -63zM119 231q0 -84 36.5 -134.5t98.5 -50.5
q63 0 100.5 50.5t37.5 134.5q0 85 -37 135.5t-101 50.5q-63 0 -99 -50.5t-36 -135.5z" />
    <glyph glyph-name="ntilde" unicode="&#xf1;" horiz-adv-x="512" 
d="M447 0h-77v298q0 53 -17 81t-70 28q-68 0 -132 -56v-351h-76v463h65l7 -56q75 69 160 69q140 0 140 -158v-318zM122 580l-29 39q4 6 12.5 14.5t35.5 23t56 14.5q20 0 34 -2.5t34.5 -10.5t31.5 -11q34 -8 51 -1t34 31l37 -33q-1 -3 -3 -7t-10 -14.5t-17 -19t-24.5 -15
t-33.5 -6.5q-30 0 -68 14.5t-63 14.5q-20 0 -39.5 -7.5t-28.5 -15.5z" />
    <glyph glyph-name="ograve" unicode="&#xf2;" 
d="M42 231q0 113 59 179.5t154 66.5q96 0 154.5 -66.5t58.5 -179.5t-58.5 -179t-154.5 -66q-94 0 -153.5 66.5t-59.5 178.5zM119 231q0 -84 36.5 -134.5t98.5 -50.5q63 0 100.5 50.5t37.5 134.5q0 85 -37 135.5t-101 50.5q-63 0 -99 -50.5t-36 -135.5zM329 565l-33 -39
l-161 148l38 47z" />
    <glyph glyph-name="oacute" unicode="&#xf3;" 
d="M42 231q0 113 59 179.5t154 66.5q96 0 154.5 -66.5t58.5 -179.5t-58.5 -179t-154.5 -66q-94 0 -153.5 66.5t-59.5 178.5zM119 231q0 -84 36.5 -134.5t98.5 -50.5q63 0 100.5 50.5t37.5 134.5q0 85 -37 135.5t-101 50.5q-63 0 -99 -50.5t-36 -135.5zM202 526l-33 39
l156 156l38 -47z" />
    <glyph glyph-name="ocircumflex" unicode="&#xf4;" 
d="M42 231q0 113 59 179.5t154 66.5q96 0 154.5 -66.5t58.5 -179.5t-58.5 -179t-154.5 -66q-94 0 -153.5 66.5t-59.5 178.5zM119 231q0 -84 36.5 -134.5t98.5 -50.5q63 0 100.5 50.5t37.5 134.5q0 85 -37 135.5t-101 50.5q-63 0 -99 -50.5t-36 -135.5zM236 712h32l138 -144
l-33 -39l-121 116l-120 -116l-34 39z" />
    <glyph glyph-name="otilde" unicode="&#xf5;" 
d="M42 231q0 113 59 179.5t154 66.5q96 0 154.5 -66.5t58.5 -179.5t-58.5 -179t-154.5 -66q-94 0 -153.5 66.5t-59.5 178.5zM119 231q0 -84 36.5 -134.5t98.5 -50.5q63 0 100.5 50.5t37.5 134.5q0 85 -37 135.5t-101 50.5q-63 0 -99 -50.5t-36 -135.5zM122 580l-29 39
q4 6 12.5 14.5t35.5 23t56 14.5q20 0 34 -2.5t34.5 -10.5t31.5 -11q34 -8 51 -1t34 31l37 -33q-1 -3 -3 -7t-10 -14.5t-17 -19t-24.5 -15t-33.5 -6.5q-30 0 -68 14.5t-63 14.5q-20 0 -39.5 -7.5t-28.5 -15.5z" />
    <glyph glyph-name="odieresis" unicode="&#xf6;" 
d="M42 231q0 113 59 179.5t154 66.5q96 0 154.5 -66.5t58.5 -179.5t-58.5 -179t-154.5 -66q-94 0 -153.5 66.5t-59.5 178.5zM119 231q0 -84 36.5 -134.5t98.5 -50.5q63 0 100.5 50.5t37.5 134.5q0 85 -37 135.5t-101 50.5q-63 0 -99 -50.5t-36 -135.5zM208 658q9 -15 9 -35
q0 -21 -8 -37q-16 -8 -39 -8q-19 0 -33 7q-9 17 -9 38q0 18 8 34q23 10 39 10q17 0 33 -9zM370 658q9 -15 9 -35q0 -21 -8 -37q-16 -8 -39 -8q-19 0 -33 7q-10 18 -10 38q0 16 9 34q23 10 39 10q17 0 33 -9z" />
    <glyph glyph-name="divide" unicode="&#xf7;" horiz-adv-x="524" 
d="M471 199h-418v61h418v-61zM296 418q19 -33 1 -71q-39 -18 -73 -1q-17 34 -1 72q23 10 38 10t35 -10zM296 111q19 -33 1 -71q-39 -18 -73 -1q-17 34 -1 72q23 10 38 10t35 -10z" />
    <glyph glyph-name="oslash" unicode="&#xf8;" horiz-adv-x="512" 
d="M43 231q0 113 59 179.5t153 66.5q82 0 137 -50l31 36h42l-49 -60q52 -66 52 -172q0 -113 -58.5 -179t-154.5 -66q-81 0 -135 49l-28 -35h-45l48 60q-52 66 -52 171zM119 231q0 -67 25 -114l203 258q-36 42 -93 42q-62 0 -98.5 -50.5t-36.5 -135.5zM393 231q0 67 -27 113
l-203 -257q36 -41 91 -41q63 0 101 50.5t38 134.5z" />
    <glyph glyph-name="ugrave" unicode="&#xf9;" horiz-adv-x="506" 
d="M66 464h77v-299q0 -53 15.5 -80.5t67.5 -27.5q63 0 131 56v351h76v-463h-65l-7 56q-75 -69 -158 -69q-43 0 -72 13.5t-42 38.5t-18 49.5t-5 56.5v318zM323 568l-33 -39l-161 148l38 47z" />
    <glyph glyph-name="uacute" unicode="&#xfa;" horiz-adv-x="506" 
d="M66 464h77v-299q0 -53 15.5 -80.5t67.5 -27.5q63 0 131 56v351h76v-463h-65l-7 56q-75 -69 -158 -69q-43 0 -72 13.5t-42 38.5t-18 49.5t-5 56.5v318zM213 529l-33 39l156 156l38 -47z" />
    <glyph glyph-name="ucircumflex" unicode="&#xfb;" horiz-adv-x="506" 
d="M66 464h77v-299q0 -53 15.5 -80.5t67.5 -27.5q63 0 131 56v351h76v-463h-65l-7 56q-75 -69 -158 -69q-43 0 -72 13.5t-42 38.5t-18 49.5t-5 56.5v318zM226 715h32l138 -144l-33 -39l-121 116l-120 -116l-34 39z" />
    <glyph glyph-name="udieresis" unicode="&#xfc;" horiz-adv-x="506" 
d="M66 464h77v-299q0 -53 15.5 -80.5t67.5 -27.5q63 0 131 56v351h76v-463h-65l-7 56q-75 -69 -158 -69q-43 0 -72 13.5t-42 38.5t-18 49.5t-5 56.5v318zM201 658q9 -15 9 -35q0 -21 -8 -37q-16 -8 -39 -8q-19 0 -33 7q-9 17 -9 38q0 18 8 34q23 10 39 10t33 -9zM363 658
q9 -15 9 -35q0 -21 -8 -37q-16 -8 -39 -8q-19 0 -33 7q-10 18 -10 38q0 16 9 34q23 10 39 10t33 -9z" />
    <glyph glyph-name="yacute" unicode="&#xfd;" horiz-adv-x="435" 
d="M349 464h73l-146 -448q-39 -119 -71.5 -173t-95.5 -68q-30 -6 -62 -6l-38 3q-1 6 -1 31.5t-1 31.5q28 -4 49 -4q42 0 67 20.5t43 62.5l26 69l-180 481h79l135 -383zM178 526l-33 39l156 156l38 -47z" />
    <glyph glyph-name="thorn" unicode="&#xfe;" horiz-adv-x="528" 
d="M152 -221h-77v935h77v-293q56 54 139 54q84 0 140 -60.5t56 -181.5q0 -116 -61.5 -182.5t-160.5 -66.5q-56 0 -113 17v-222zM272 406q-75 0 -120 -49v-290q38 -17 100 -17q70 0 111.5 48.5t41.5 133.5q0 81 -37 127.5t-96 46.5z" />
    <glyph glyph-name="ydieresis" unicode="&#xff;" horiz-adv-x="435" 
d="M349 464h73l-146 -448q-39 -119 -71.5 -173t-95.5 -68q-30 -6 -62 -6l-38 3q-1 6 -1 31.5t-1 31.5q28 -4 49 -4q42 0 67 20.5t43 62.5l26 69l-180 481h79l135 -383zM169 658q9 -15 9 -35q0 -21 -8 -37q-16 -8 -39 -8q-19 0 -33 7q-9 17 -9 38q0 18 8 34q23 10 39 10
t33 -9zM331 658q9 -15 9 -35q0 -21 -8 -37q-16 -8 -39 -8q-19 0 -33 7q-10 18 -10 38q0 16 9 34q23 10 39 10t33 -9z" />
    <glyph glyph-name="dotlessi" unicode="&#x131;" horiz-adv-x="227" 
d="M152 463v-463h-77v463h77z" />
    <glyph glyph-name="Lslash" unicode="&#x141;" horiz-adv-x="492" 
d="M92 0v253l-115 -62v77l115 62v351h77v-310l186 101v-77l-186 -101v-226h303v-68h-380z" />
    <glyph glyph-name="lslash" unicode="&#x142;" horiz-adv-x="227" 
d="M152 714v-303q3 1 48.5 25t48.5 25v-79q-3 -1 -48.5 -25.5t-48.5 -25.5v-331h-77v294q-3 -1 -48 -24.5l-47 -24.5v81l47 24.5t48 24.5v339h77z" />
    <glyph glyph-name="OE" unicode="&#x152;" horiz-adv-x="881" 
d="M846 0h-386q-47 -14 -98 -14q-149 0 -232.5 100t-83.5 254t83.5 254t232.5 100q48 0 97 -13h369v-68h-299v-235h242v-66h-242v-244h317v-68zM362 57q55 0 93 17v532q-44 17 -93 17q-112 0 -174 -80t-62 -203t62 -203t174 -80z" />
    <glyph glyph-name="oe" unicode="&#x153;" horiz-adv-x="790" 
d="M42 231q0 110 55 175.5t144 69.5q29 0 58 -6q85 -18 129 -99q48 101 158 106q52 2 89 -15t54 -44.5t23.5 -52t6.5 -47.5q0 -25 -3.5 -49.5t-7.5 -36.5l-3 -13h-277q3 -83 42 -126.5t109 -43.5q80 0 128 26l4 -60q-40 -29 -144 -29q-128 0 -182 102q-41 -76 -127 -96
q-29 -6 -57 -5q-89 4 -144 69.5t-55 174.5zM119 231q0 -84 36.5 -134.5t98.5 -50.5q61 0 98.5 48t39.5 129v15q-2 82 -39 130.5t-99 48.5q-63 0 -99 -50.5t-36 -135.5zM686 273q3 14 3 47q0 15 -4.5 30.5t-14.5 33t-31 27.5t-51 9q-49 -2 -81 -42t-39 -106q36 0 108.5 0.5
t109.5 0.5z" />
    <glyph glyph-name="Scaron" unicode="&#x160;" horiz-adv-x="506" 
d="M49 8l4 67q86 -22 174 -22q75 0 114.5 35t39.5 80q0 11 -2 21.5t-4 19t-9 18t-10 15t-13 14.5t-13.5 12.5t-17 12.5l-16.5 11l-18.5 12t-17.5 11q-89 52 -110 70q-42 31 -63.5 61t-21.5 79q0 76 57.5 122.5t146.5 46.5q43 0 83.5 -6.5t59.5 -13.5l19 -6l-6 -65
q-71 25 -149 25q-58 0 -95 -27t-37 -73q0 -49 71 -96q14 -10 39 -25l45 -26.5t22 -12.5q36 -22 54.5 -35t41.5 -37t33 -54t10 -69q0 -77 -58 -132t-171 -55q-44 0 -89.5 5.5t-69.5 10.5zM267 742h-32l-138 144l34 39l120 -116l121 116l33 -39z" />
    <glyph glyph-name="scaron" unicode="&#x161;" horiz-adv-x="398" 
d="M220 530h-32l-138 144l34 39l120 -116l121 116l33 -39zM43 6l7 58q54 -18 126 -18q49 0 77 21.5t28 51.5q0 38 -43 64q-7 4 -26.5 13.5l-36 18l-18.5 9.5q-50 25 -75 55.5t-25 76.5q0 56 47 88.5t110 32.5q78 0 126 -20l-7 -57q-65 17 -116 17q-34 0 -59.5 -16.5
t-25.5 -45.5q0 -21 14 -38t50 -37q1 -1 17 -8t34.5 -16t25.5 -13q84 -43 84 -118q0 -63 -47 -101t-123 -38q-97 0 -144 20z" />
    <glyph glyph-name="Ydieresis" unicode="&#x178;" horiz-adv-x="538" 
d="M13 682h88l163 -302l175 302h86l-223 -376v-306h-76v301zM226 879q9 -15 9 -35q0 -21 -8 -37q-16 -8 -39 -8q-19 0 -33 7q-9 16 -9 38q0 18 8 34q23 10 39 10q17 0 33 -9zM388 879q9 -15 9 -35q0 -21 -8 -37q-16 -8 -39 -8q-19 0 -33 7q-10 18 -10 38q0 16 9 34
q23 10 39 10q17 0 33 -9z" />
    <glyph glyph-name="Zcaron" unicode="&#x17d;" horiz-adv-x="568" 
d="M501 613l-363 -544h389v-69h-484v69l362 544h-344v68h440v-68zM300 742h-32l-138 144l34 39l120 -116l121 116l33 -39z" />
    <glyph glyph-name="zcaron" unicode="&#x17e;" horiz-adv-x="417" 
d="M54 407v57h318v-57l-242 -349h259v-58h-346v57l241 350h-230zM225 530h-32l-138 144l34 39l120 -116l121 116l33 -39z" />
    <glyph glyph-name="florin" unicode="&#x192;" horiz-adv-x="422" 
d="M340 407h-143l-66 -632h-71q28 283 66 632h-85q10 36 16 54h75q1 9 3 34t3.5 37.5t5 36t7 36t11 32.5t16.5 31t22.5 24.5t29.5 20.5t38 12t48 5q58 0 88 -19l-9 -58q-25 15 -70 15q-25 0 -44 -7.5t-31.5 -22.5t-20.5 -30t-12.5 -38t-6.5 -38t-4 -39t-3 -32h143z" />
    <glyph glyph-name="circumflex" unicode="&#x2c6;" horiz-adv-x="424" 
d="M195 712h32l138 -144l-33 -39l-121 116l-120 -116l-34 39z" />
    <glyph glyph-name="caron" unicode="&#x2c7;" horiz-adv-x="424" 
d="M227 530h-32l-138 144l34 39l120 -116l121 116l33 -39z" />
    <glyph glyph-name="breve" unicode="&#x2d8;" horiz-adv-x="424" 
d="M323 698h51q0 -56 -44 -99.5t-117 -43.5t-119 42t-46 101h56q9 -35 38 -59.5t72 -24.5q41 0 70 24.5t39 59.5z" />
    <glyph glyph-name="dotaccent" unicode="&#x2d9;" horiz-adv-x="424" 
d="M162 616q0 20 15 35t36 15q19 0 33.5 -15t14.5 -35q0 -19 -14.5 -33.5t-33.5 -14.5q-21 0 -36 14t-15 34z" />
    <glyph glyph-name="ring" unicode="&#x2da;" horiz-adv-x="424" 
d="M114 622q0 41 28 69.5t69 28.5t69.5 -29t28.5 -69q0 -41 -28.5 -69.5t-69.5 -28.5t-69 28.5t-28 69.5zM157 622q0 -23 15.5 -38.5t38.5 -15.5t38.5 16t15.5 38t-16 38t-38 16q-23 0 -38.5 -16t-15.5 -38z" />
    <glyph glyph-name="ogonek" unicode="&#x2db;" horiz-adv-x="414" 
d="M198 -22l65 1q-69 -51 -69 -94q0 -42 54 -42q11 0 23.5 2.5t19.5 4.5l7 2v-49l-10.5 -5t-27 -7.5t-40.5 -4.5q-47 0 -76 22t-29 61q0 22 18.5 53.5t64.5 55.5z" />
    <glyph glyph-name="tilde" unicode="&#x2dc;" horiz-adv-x="424" 
d="M78 580l-29 39q4 6 12.5 14.5t35.5 23t56 14.5q20 0 34 -2.5t34.5 -10.5t31.5 -11q34 -8 51 -1t34 31l37 -33q-1 -3 -3 -7t-10 -14.5t-17 -19t-24.5 -15t-33.5 -6.5q-30 0 -68 14.5t-63 14.5q-20 0 -39.5 -7.5t-28.5 -15.5z" />
    <glyph glyph-name="hungarumlaut" unicode="&#x2dd;" horiz-adv-x="416" 
d="M75 528l-37 31l141 165l45 -39zM223 526l-35 35l148 159l40 -42z" />
    <glyph glyph-name="Delta" unicode="&#x394;" horiz-adv-x="622" 
d="M279 682h63l265 -682h-592zM110 65h402l-201 522z" />
    <glyph glyph-name="Delta" unicode="&#x2206;" horiz-adv-x="622" 
d="M279 682h63l265 -682h-592zM110 65h402l-201 522z" />
    <glyph glyph-name="Omega" unicode="&#x3a9;" horiz-adv-x="807" 
d="M751 70v-70h-272l2 73q61 22 110 101t49 178q0 123 -63.5 196.5t-174.5 73.5q-110 0 -172.5 -73t-62.5 -197q0 -96 48 -176.5t111 -102.5l2 -73h-272v70l166 -8q-17 9 -36.5 27.5t-44 52t-40 89t-15.5 122.5q0 152 83.5 246t232.5 94q151 0 235 -94t84 -246
q0 -55 -11.5 -103t-27 -78.5t-36 -55t-35 -36t-27.5 -18.5z" />
    <glyph glyph-name="Omega" unicode="&#x2126;" horiz-adv-x="807" 
d="M751 70v-70h-272l2 73q61 22 110 101t49 178q0 123 -63.5 196.5t-174.5 73.5q-110 0 -172.5 -73t-62.5 -197q0 -96 48 -176.5t111 -102.5l2 -73h-272v70l166 -8q-17 9 -36.5 27.5t-44 52t-40 89t-15.5 122.5q0 152 83.5 246t232.5 94q151 0 235 -94t84 -246
q0 -55 -11.5 -103t-27 -78.5t-36 -55t-35 -36t-27.5 -18.5z" />
    <glyph glyph-name="pi" unicode="&#x3c0;" horiz-adv-x="525" 
d="M466 0h-75v393h-258v-393h-75v464h408v-464z" />
    <glyph glyph-name="endash" unicode="&#x2013;" horiz-adv-x="567" 
d="M36 225v66h495v-66h-495z" />
    <glyph glyph-name="emdash" unicode="&#x2014;" horiz-adv-x="859" 
d="M36 225v66h787v-66h-787z" />
    <glyph glyph-name="quoteleft" unicode="&#x2018;" horiz-adv-x="228" 
d="M174 510l-31 -28q-39 27 -63.5 65.5t-24.5 77.5q0 29 14 49t41 20q22 0 34.5 -13t12.5 -33q0 -10 -5 -20q-13 -29 -12.5 -51t8.5 -35t26 -32z" />
    <glyph glyph-name="quoteright" unicode="&#x2019;" horiz-adv-x="228" 
d="M55 510q18 19 26 32t8 35t-13 51q-5 10 -5 20q0 20 13 33t34 13q28 0 42 -20t14 -49q0 -38 -24.5 -77t-63.5 -66q-30 27 -31 28z" />
    <glyph glyph-name="quotesinglbase" unicode="&#x201a;" horiz-adv-x="231" 
d="M55 -94q18 19 26 32.5t8 35.5t-13 51q-5 13 -5 21q0 20 13 33.5t35 13.5q29 0 43 -20.5t14 -49.5q0 -39 -24.5 -78.5t-64.5 -67.5q-5 5 -16 14.5t-16 14.5z" />
    <glyph glyph-name="quotedblleft" unicode="&#x201c;" horiz-adv-x="389" 
d="M174 510l-31 -28q-39 27 -63.5 65.5t-24.5 77.5q0 29 14 49t41 20q22 0 34.5 -13t12.5 -33q0 -10 -5 -20q-13 -29 -12.5 -51t8.5 -35t26 -32zM335 510q-1 -1 -31 -28q-39 27 -63.5 65.5t-24.5 77.5q0 29 14 49t42 20q21 0 34 -13t13 -33q0 -10 -5 -20q-13 -29 -13 -51
t8 -35t26 -32z" />
    <glyph glyph-name="quotedblright" unicode="&#x201d;" horiz-adv-x="389" 
d="M215 510q18 19 26 32t8.5 35t-12.5 51q-5 10 -5 20q0 20 12.5 33t34.5 13q27 0 41 -20t14 -49q0 -39 -24.5 -77.5t-63.5 -65.5q-30 27 -31 28zM54 510q18 19 26 32t8 35t-13 51q-5 10 -5 20q0 20 13 33t34 13q28 0 42 -20t14 -49q0 -39 -24.5 -77.5t-63.5 -65.5
q-30 27 -31 28z" />
    <glyph glyph-name="quotedblbase" unicode="&#x201e;" horiz-adv-x="396" 
d="M220 -94q18 20 25.5 33t8 35t-12.5 51q-5 13 -5 21q0 20 13 33.5t35 13.5q28 0 42.5 -20.5t14.5 -49.5q0 -39 -24.5 -78.5t-64.5 -67.5q-1 1 -13.5 12t-18.5 17zM56 -94q18 19 26 32.5t8 35.5t-13 51q-5 13 -5 21q0 20 13 33.5t35 13.5q29 0 43 -20.5t14 -49.5
q0 -39 -24.5 -78.5t-64.5 -67.5q-5 5 -16 14.5t-16 14.5z" />
    <glyph glyph-name="dagger" unicode="&#x2020;" horiz-adv-x="486" 
d="M433 476h-153v-476h-72v476h-155v63h155v175h72v-175h153v-63z" />
    <glyph glyph-name="daggerdbl" unicode="&#x2021;" horiz-adv-x="486" 
d="M433 174h-153v-174h-72v174h-155v63h155v239h-155v63h155v175h72v-175h153v-63h-153v-239h153v-63z" />
    <glyph glyph-name="bullet" unicode="&#x2022;" horiz-adv-x="281" 
d="M218 184q-37 -18 -79 -18t-76 18q-18 32 -19 74.5t17 80.5q81 33 155 2q20 -32 20 -75t-18 -82z" />
    <glyph glyph-name="ellipsis" unicode="&#x2026;" horiz-adv-x="503" 
d="M48 37q0 19 15.5 34t35.5 15q19 0 33.5 -15t14.5 -34t-14.5 -34t-33.5 -15q-20 0 -35.5 15t-15.5 34zM202 37q0 19 15.5 34t35.5 15q19 0 33.5 -15t14.5 -34t-14.5 -34t-33.5 -15q-20 0 -35.5 15t-15.5 34zM356 37q0 19 15.5 34t35.5 15q19 0 33.5 -15t14.5 -34
t-14.5 -34t-33.5 -15q-20 0 -35.5 15t-15.5 34z" />
    <glyph glyph-name="perthousand" unicode="&#x2030;" horiz-adv-x="1159" 
d="M502 198q0 96 34 154.5t105 58.5q70 0 103 -58.5t33 -154.5t-33 -154t-103 -58q-71 0 -105 58.5t-34 153.5zM641 352q-73 0 -73 -154q0 -153 73 -153q38 0 53.5 38.5t15.5 114.5t-15.5 115t-53.5 39zM49 480q0 96 34 154.5t105 58.5q70 0 103 -58.5t33 -154.5t-33 -154
t-103 -58q-71 0 -105 58.5t-34 153.5zM188 634q-73 0 -73 -154q0 -153 73 -153q39 0 54.5 38.5t15.5 114.5q0 77 -15.5 115.5t-54.5 38.5zM831 198q0 96 34 154.5t105 58.5q70 0 103 -58.5t33 -154.5t-33 -154t-103 -58q-71 0 -105 58.5t-34 153.5zM970 352q-73 0 -73 -154
q0 -153 73 -153q39 0 54.5 38.5t15.5 114.5q0 77 -15.5 115.5t-54.5 38.5zM267 0l236 681h65l-234 -681h-67z" />
    <glyph glyph-name="guilsinglleft" unicode="&#x2039;" horiz-adv-x="276" 
d="M221 429l-86 -195l86 -195l-63 -22l-103 217l103 217z" />
    <glyph glyph-name="guilsinglright" unicode="&#x203a;" horiz-adv-x="276" 
d="M141 234l-86 195l63 22l103 -217l-103 -217l-63 22z" />
    <glyph glyph-name="fraction" unicode="&#x2044;" horiz-adv-x="355" 
d="M27 0l236 681h65l-234 -681h-67z" />
    <glyph glyph-name="Euro" unicode="&#x20ac;" horiz-adv-x="648" 
d="M107 238h-91v51h84q-3 24 -3 50q0 15 2 45h-83v51h90q24 118 104.5 188.5t212.5 70.5q111 0 177 -27l-6 -68q-77 23 -164 23q-99 0 -159 -50.5t-81 -136.5h300v-51h-314q-1 -15 -1 -45q0 -34 2 -50h313v-51h-300q21 -84 81.5 -131.5t160.5 -47.5q91 0 177 24l1 -17v-34
l1 -18q-77 -28 -194 -28q-130 2 -208 70t-102 182z" />
    <glyph glyph-name="trademark" unicode="&#x2122;" horiz-adv-x="975" 
d="M861 272l-12 352l-138 -352h-60l-134 346l-11 -346h-52l14 409h90l129 -338l132 338h85l14 -409h-57zM372 630h-128v-358h-61v358h-128v51h317v-51z" />
    <glyph glyph-name="partialdiff" unicode="&#x2202;" horiz-adv-x="514" 
d="M254 430q68 0 138 -47q-39 260 -326 252q0 -1 0 17v36l-1 18q76 2 137.5 -11t104.5 -38t75.5 -60.5t50 -79t28.5 -93t10.5 -102t-3.5 -107.5q-9 -112 -68 -169.5t-152 -57.5q-95 0 -150.5 55t-55.5 166t58.5 166t153.5 55zM395 219q3 31 3 63q0 20 -1 31q-23 17 -33 23.5
t-41 17.5t-64 11q-69 0 -106.5 -41.5t-37.5 -116.5q0 -72 38.5 -112t99.5 -40q58 0 95 43.5t47 120.5z" />
    <glyph glyph-name="product" unicode="&#x220f;" horiz-adv-x="615" 
d="M548 0h-75v612h-331v-612h-75v683h481v-683z" />
    <glyph glyph-name="summation" unicode="&#x2211;" horiz-adv-x="534" 
d="M496 69v-69h-452v39l182 288l-189 319v37h459v-69h-356l167 -288l-159 -257h348z" />
    <glyph glyph-name="minus" unicode="&#x2212;" horiz-adv-x="524" 
d="M471 198h-418v65h418v-65z" />
    <glyph glyph-name="radical" unicode="&#x221a;" horiz-adv-x="580" 
d="M273 -14h-105l-154 475h71l140 -424l190 644h151v-62h-99z" />
    <glyph glyph-name="infinity" unicode="&#x221e;" horiz-adv-x="880" 
d="M381 235l-24.5 18l-28.5 21t-27.5 18t-31.5 17t-28.5 10t-30.5 5q-41 0 -65 -25.5t-24 -61.5q0 -39 24.5 -63.5t67.5 -24.5q9 0 19 2t21 6t20 8t21.5 11t19.5 11.5l19.5 13t17 12t17 12.5t13.5 10zM499 232l15 -11q15 -11 19.5 -14l19.5 -13.5t22.5 -15t22 -12
t24.5 -10.5t22 -6t23 -3q44 0 68 23.5t24 64.5q0 37 -23.5 62t-64.5 25q-22 0 -49.5 -11.5t-43 -21.5t-46.5 -33t-33 -24zM53 237q0 64 42.5 107.5t110.5 43.5q35 0 71.5 -13t59.5 -28t58 -40t50 -34l44.5 32.5t59 40.5t55.5 25t70 14q70 0 111.5 -43t41.5 -107
q0 -69 -43.5 -111t-113.5 -42q-52 0 -107.5 30t-127.5 84q-95 -70 -137 -90q-48 -22 -89 -22q-71 0 -113.5 42t-42.5 111z" />
    <glyph glyph-name="integral" unicode="&#x222b;" horiz-adv-x="412" 
d="M5 -159h52q112 0 112 150v524q0 46 7.5 81.5t26 67.5t54.5 49t88 17h62v-65h-51q-112 0 -112 -150v-524q0 -46 -7.5 -81.5t-26 -67.5t-54.5 -49t-88 -17h-63v65z" />
    <glyph glyph-name="approxequal" unicode="&#x2248;" horiz-adv-x="574" 
d="M48 124q23 43 66.5 67t91.5 22q41 -2 104.5 -33t97.5 -36q22 -3 47.5 5t44.5 29l26 -46q-14 -27 -45 -43.5t-72 -15.5q-47 2 -111 36t-97 36q-75 3 -120 -58q-28 37 -33 37zM81 262q-31 37 -33 37q23 43 66.5 67t91.5 22q41 -2 104 -33t98 -37q22 -3 47.5 5t44.5 29
l26 -45q-33 -61 -117 -60q-46 2 -110.5 36.5t-97.5 36.5q-74 3 -120 -58z" />
    <glyph glyph-name="notequal" unicode="&#x2260;" horiz-adv-x="524" 
d="M471 109h-248l-76 -107l-51 31l54 76h-97v65h139l71 101h-210v65h252l82 116l52 -32l-60 -84h92v-65h-135l-71 -101h206v-65z" />
    <glyph glyph-name="lessequal" unicode="&#x2264;" horiz-adv-x="522" 
d="M469 0h-416v62h416v-62zM53 268v95l416 128v-70l-352 -100v-11l352 -100v-69z" />
    <glyph glyph-name="greaterequal" unicode="&#x2265;" horiz-adv-x="522" 
d="M469 0h-416v62h416v-62zM469 363v-95l-416 -127v69l352 100v11l-352 100v70z" />
    <glyph glyph-name="lozenge" unicode="&#x25ca;" horiz-adv-x="666" 
d="M357 0h-48l-278 342l276 341h52l276 -341zM333 75l214 267l-214 268l-215 -268z" />
    <glyph glyph-name="apple" horiz-adv-x="799" 
d="M30 612q-1 50 0 50q78 6 118 -9q82 -31 101 -145q12 -76 27.5 -135.5t43.5 -124t73 -107t105 -57.5l2 4q-59 29 -107 101.5t-48 165.5q0 53 31 87t73 34q47 0 71.5 -32t15.5 -89q-12 -74 10 -143t82 -92q49 39 65.5 113.5t1.5 125.5l54 -1q6 -18 7 -49.5t-5 -74
t-29 -85.5t-58 -79.5t-99 -59.5t-146 -23q-145 0 -219.5 64t-74.5 148q0 100 91 158q-9 37 -24 137q-3 19 -9 34.5t-12 27t-16.5 20.5l-17.5 15t-20 10.5t-19.5 6.5t-20 3t-18 1h-17.5h-12z" />
    <glyph glyph-name="US" horiz-adv-x="0" 
 />
    <glyph glyph-name="ordmasculine.os" horiz-adv-x="322" 
d="M33 329q0 68 35.5 107.5t91.5 39.5q58 0 93 -39.5t35 -107.5t-35 -107.5t-93 -39.5q-56 0 -91.5 40t-35.5 107zM92 329q0 -50 18.5 -76.5t48.5 -26.5q32 0 51.5 26.5t19.5 76.5t-19.5 76.5t-51.5 26.5q-30 0 -48.5 -26.5t-18.5 -76.5z" />
    <glyph glyph-name="perthousand.os" horiz-adv-x="1182" 
d="M203 422q-37 0 -64.5 -26t-28.5 -66q0 -40 26 -65.5t61 -25.5q38 0 65.5 26t28.5 66q1 39 -25.5 65t-62.5 26zM52 330q1 66 45.5 107t105.5 41t103.5 -41t41.5 -107q-1 -65 -45.5 -106t-106.5 -41q-60 0 -102.5 41t-41.5 106zM640 224q-37 0 -64.5 -26t-28.5 -66
q0 -40 26 -65.5t62 -25.5q37 0 64.5 26t28.5 66q1 39 -25.5 65t-62.5 26zM489 132q1 66 45.5 107t105.5 41t103.5 -41t41.5 -107q-1 -65 -45.5 -106t-106.5 -41q-60 0 -102.5 41t-41.5 106zM985 224q-37 0 -64.5 -26t-28.5 -66q0 -40 26 -65.5t62 -25.5q37 0 64.5 26
t28.5 66q1 39 -25.5 65t-62.5 26zM834 132q1 66 45.5 107t105.5 41t103.5 -41t41.5 -107q-1 -65 -45.5 -106t-106.5 -41q-60 0 -102.5 41t-41.5 106zM231 0l301 463h70l-302 -463h-69z" />
    <glyph glyph-name="percent.os" horiz-adv-x="837" 
d="M231 0l301 463h70l-302 -463h-69zM203 422q-37 0 -64.5 -26t-28.5 -66q0 -40 26 -65.5t61 -25.5q38 0 65.5 26t28.5 66q1 39 -25.5 65t-62.5 26zM52 330q1 66 45.5 107t105.5 41t103.5 -41t41.5 -107q-1 -65 -45.5 -106t-106.5 -41q-60 0 -102.5 41t-41.5 106zM640 224
q-37 0 -64.5 -26t-28.5 -66q0 -40 26 -65.5t62 -25.5q37 0 64.5 26t28.5 66q1 39 -25.5 65t-62.5 26zM489 132q1 66 45.5 107t105.5 41t103.5 -41t41.5 -107q-1 -65 -45.5 -106t-106.5 -41q-60 0 -102.5 41t-41.5 106z" />
    <glyph glyph-name="cent.os" horiz-adv-x="466" 
d="M224 470v130h63v-123q77 -1 116 -20q-6 -62 -6 -64q-44 17 -109 17q-77 0 -117.5 -48t-40.5 -135q0 -82 41.5 -128t112.5 -46t125 28l4 -63q-38 -28 -126 -32v-119h-63v124q-79 12 -124.5 73t-45.5 163q0 99 45 162.5t125 80.5z" />
    <glyph glyph-name="Euro.os" horiz-adv-x="513" 
d="M462 79l4 -61q-48 -32 -144 -32q-80 0 -134 42t-73 121h-80v43h74q-2 11 -2 35t2 36h-74v43h80q19 81 75.5 126t141.5 45q76 0 124 -20l-7 -61q-58 16 -108 16q-113 0 -145 -106h146v-43h-157q-2 -7 -2 -34t2 -37h157v-43h-146q32 -98 141 -98q71 0 125 28z" />
    <glyph glyph-name="dollar.os" horiz-adv-x="445" 
d="M73 62q65 -18 126 -18q47 0 73 19.5t29 47.5q5 45 -43 72l-82 41q-52 26 -74 53.5t-23 70.5q-3 54 31.5 85t85.5 40v127h63v-125q68 -3 103 -18q-3 -21 -7 -56q-54 17 -116 17q-36 0 -62.5 -17t-24.5 -49q1 -24 24 -41t89 -51q23 -11 36 -18q78 -39 78 -112
q0 -54 -30 -91t-90 -48v-124h-63v119q-92 3 -130 20q5 42 7 56z" />
    <glyph glyph-name="yen.os" horiz-adv-x="532" 
d="M73 464h80l111 -206l124 206h80l-98 -157h125v-49h-155l-40 -63v-8h195v-48h-195v-139h-74v139h-189v48h189v4l-39 67h-150v49h124z" />
    <glyph glyph-name="degree.os" horiz-adv-x="317" 
d="M24 344q0 56 39 95t95 39t95.5 -39t39.5 -95t-39.5 -95.5t-95.5 -39.5t-95 39.5t-39 95.5zM76 345q0 -35 24 -59.5t58 -24.5t58 24.5t24 59.5q0 34 -24 58t-58 24t-58 -24t-24 -58z" />
    <glyph glyph-name="ordfeminine.os" horiz-adv-x="317" 
d="M286 229l3 -36q-2 -1 -5.5 -3t-15.5 -5t-25 -2q-43 3 -51 43q-32 -43 -86 -43q-26 0 -49.5 15.5t-23.5 53.5q0 27 15 45.5t42 27t48.5 12t51.5 4.5v40q0 48 -46 48q-16 0 -36 -4t-32 -8l-11 -4l-5 43q44 21 96 21q91 0 91 -85v-132q0 -31 14 -34q7 -1 12.5 0t8.5 2z
M190 267v39q-13 0 -23 -1q-78 -5 -78 -46q0 -34 35 -34q16 0 35 11t31 31z" />
    <glyph glyph-name="florin.os" horiz-adv-x="435" 
d="M43 151q2 5 8 27.5t8 27.5h75q6 48 8 68q3 32 7.5 55.5t16.5 53.5t30 49t50 32t74 13q58 0 91 -19q-3 -17 -10 -61q-25 15 -70 15q-102 0 -114 -124q0 -3 -9 -82h144l-6 -55h-143q-29 -279 -40 -369h-74q32 300 40 369h-86z" />
    <glyph glyph-name="sterling.os" horiz-adv-x="529" 
d="M480 447l-6 -61q-64 28 -126 28q-30 0 -52.5 -9.5t-33.5 -20.5t-19.5 -34.5t-10 -35t-5.5 -39.5q-3 -17 -4 -33h169v-51h-176l-3 -23q-8 -61 -30 -115h291v-53h-425v53h57q21 48 31 114q0 1 0.5 4.5t1.5 9t1 10.5h-84v51h90l5 40q4 33 7.5 53t16 50.5t31 48t53 30.5
t81.5 13q82 0 140 -30z" />
    <glyph glyph-name="zero.os" horiz-adv-x="612" 
d="M312 412q-73 0 -126 -51t-54 -129t49 -128t121 -50q73 0 125 50.5t53 128.5t-48.5 128.5t-119.5 50.5zM52 233q1 109 76.5 177t183.5 68q105 0 177 -68t71 -177q-1 -110 -76.5 -178t-183.5 -68q-106 0 -177.5 68t-70.5 178z" />
    <glyph glyph-name="one.os" horiz-adv-x="436" 
d="M426 0h-384v66h155v331h-155v66h234v-397h150v-66z" />
    <glyph glyph-name="two.os" horiz-adv-x="435" 
d="M415 0h-381v66q40 17 94 53.5t104 94t50 105.5q0 19 -6 37t-30.5 35.5t-65.5 17.5q-30 0 -62 -7t-50 -14l-17 -7l-10 59q64 37 156 37q50 0 85 -15.5t50.5 -40t22 -46.5t6.5 -45q0 -43 -21.5 -85.5t-56.5 -77t-66.5 -58t-65.5 -43.5h264v-66z" />
    <glyph glyph-name="three.os" horiz-adv-x="468" 
d="M19 -211v67q85 -22 157 -22q85 0 130 38.5t45 113.5q0 66 -56 99.5t-124 33.5h-41v60h41q29 0 61.5 11.5t61 44t29.5 79.5q1 41 -29 68t-95 27q-38 0 -75 -6.5t-54 -12.5l-18 -6l-8 64q67 28 172 28q95 0 140 -44t45 -109q0 -39 -14.5 -71t-35 -49.5t-41 -29.5t-34.5 -16
l-15 -4v-1q26 -3 52.5 -13.5t53 -29.5t43.5 -52t17 -75q0 -103 -63 -158.5t-174 -55.5q-43 0 -85.5 5t-64.5 11z" />
    <glyph glyph-name="four.os" horiz-adv-x="539" 
d="M302 476h112v-410h103v-66h-103v-207h-76v207h-307v66zM338 358l3 51l-223 -343h220v292z" />
    <glyph glyph-name="five.os" horiz-adv-x="478" 
d="M40 -221l5 67q50 -10 103 -10q94 0 152.5 37.5t58.5 122.5q0 32 -10 56t-30.5 39t-44.5 25t-59.5 14.5t-67.5 6t-76 1.5l30 326h320l-7 -68h-238q-9 -115 -17 -194q49 -2 87.5 -8t76 -20.5t62 -36t39.5 -57t15 -81.5q0 -51 -15.5 -90.5t-41.5 -65t-62.5 -42.5t-75 -24.5
t-82.5 -8.5q-56 -1 -122 11z" />
    <glyph glyph-name="six.os" horiz-adv-x="514" 
d="M426 684l-10 -59q-26 4 -67 4q-90 0 -150 -79t-66 -228q63 80 155 80q90 0 135 -57.5t43 -148.5q-1 -91 -55 -150.5t-147 -59.5q-97 0 -155 74.5t-58 223.5q0 199 85 304.5t214 105.5q50 0 76 -10zM265 49q56 0 89.5 42t33.5 104q1 61 -27 100.5t-90 39.5q-79 0 -139 -83
q5 -90 39 -146.5t94 -56.5z" />
    <glyph glyph-name="seven.os" horiz-adv-x="432" 
d="M7 393v70h415v-70q-125 -228 -195 -372q-24 -47 -50 -104.5l-40 -90.5l-14 -34h-88q64 147 117 253l91 177.5t87 170.5h-323z" />
    <glyph glyph-name="eight.os" horiz-adv-x="495" 
d="M427 545q0 -37 -21 -73t-41.5 -55t-56.5 -48q46 -34 73 -57t52.5 -62t25.5 -78q0 -86 -64 -136t-153 -50q-52 0 -96 15t-75.5 53.5t-31.5 95.5q0 33 13 63.5t40 58.5t46.5 44.5t54.5 42.5q-26 20 -44 35.5t-39 39t-32 49.5t-11 54q0 78 56 117.5t133 39.5q91 0 131 -46
t40 -103zM381 170q0 22 -11 43t-33 42t-41 35.5t-49 35.5q-73 -56 -96 -82q-35 -42 -35 -85q0 -54 39.5 -83t91.5 -29q59 0 96.5 34.5t37.5 88.5zM143 536q0 -19 9 -37t30.5 -37.5t33 -28l41.5 -29.5q30 23 48 38.5t34.5 43t16.5 55.5q0 33 -24 61.5t-76 28.5
q-50 0 -81.5 -23.5t-31.5 -71.5z" />
    <glyph glyph-name="nine.os" horiz-adv-x="514" 
d="M88 -222l10 60q28 -4 67 -4q90 0 150.5 79t66.5 228q-65 -80 -155 -80t-135.5 57.5t-43.5 148.5t56 150.5t147 59.5q97 0 154.5 -74.5t57.5 -223.5q0 -199 -84.5 -304.5t-213.5 -105.5q-54 0 -77 9zM250 414q-56 0 -89.5 -42t-34.5 -104q-1 -61 27.5 -100.5t90.5 -39.5
q71 0 139 82q-6 90 -39.5 147t-93.5 57z" />
    <glyph glyph-name="e.sc" horiz-adv-x="421" 
d="M65 0v513h309v-63h-235v-160h189v-59h-189v-167h249v-64h-323z" />
    <glyph glyph-name="d.sc" horiz-adv-x="566" 
d="M65 0v514h201q126 0 195 -68.5t69 -185.5q0 -118 -69.5 -189t-194.5 -71h-201zM254 448h-113v-381h113q97 0 146.5 52.5t49.5 140.5t-49 138t-147 50z" />
    <glyph glyph-name="b.sc" horiz-adv-x="470" 
d="M65 0v514h178q85 0 122.5 -37t37.5 -86q0 -43 -27 -74t-67 -43v-1q56 -3 93.5 -36t37.5 -92q0 -61 -48.5 -103t-140.5 -42h-186zM141 240v-179h102q55 0 87 24t32 66q0 38 -29 63.5t-94 25.5h-98zM141 454v-156h98q41 4 64 27t23 58q0 29 -21.5 50t-71.5 21h-92z" />
    <glyph glyph-name="h.sc" horiz-adv-x="566" 
d="M422 0v222h-280v-222h-77v513h77v-225h280v225h79v-513h-79z" />
    <glyph glyph-name="i.sc" horiz-adv-x="208" 
d="M65 0v513h77v-513h-77z" />
    <glyph glyph-name="j.sc" horiz-adv-x="311" 
d="M18 0l-2 66q28 -10 63 -10q51 0 71 21t20 67v371h76v-388q0 -69 -34.5 -103.5t-113.5 -34.5q-20 0 -40 2.5t-30 5.5z" />
    <glyph glyph-name="k.sc" horiz-adv-x="451" 
d="M65 0v513h77v-513h-77zM454 0h-93l-182 249v14l163 251h88l-171 -253z" />
    <glyph glyph-name="l.sc" horiz-adv-x="401" 
d="M65 0v513h77v-447h243v-66h-320z" />
    <glyph glyph-name="c.sc" horiz-adv-x="482" 
d="M444 503l-5 -65q-65 15 -126 15q-98 0 -147.5 -55.5t-49.5 -142.5q0 -88 48.5 -141.5t147.5 -53.5q70 0 138 17l4 -67q-62 -21 -157 -21q-128 1 -194.5 75t-66.5 191q0 118 69.5 193.5t197.5 75.5q90 0 141 -21z" />
    <glyph glyph-name="m.sc" horiz-adv-x="727" 
d="M592 0l-13 417l-174 -417h-86l-173 417l-15 -417h-74l18 513h118l175 -427l176 427h107l19 -513h-78z" />
    <glyph glyph-name="n.sc" horiz-adv-x="573" 
d="M416 0l-275 407v-407h-76v514h92l275 -407v407h75v-514h-91z" />
    <glyph glyph-name="u.sc" horiz-adv-x="544" 
d="M484 514v-330q0 -93 -57.5 -144t-155.5 -51q-100 0 -155.5 49.5t-55.5 141.5v334h77v-334q0 -63 37.5 -94t98.5 -31q58 0 97 32t39 96v331h75z" />
    <glyph glyph-name="t.sc" horiz-adv-x="447" 
d="M438 448h-176v-448h-78v448h-175v65h429v-65z" />
    <glyph glyph-name="r.sc" horiz-adv-x="477" 
d="M458 0h-86l-112 199h-119v-199h-76v514h175q183 0 183 -147q0 -99 -94 -140zM141 449v-189h133q28 10 49 36.5t21 63.5q0 89 -111 89h-92z" />
    <glyph glyph-name="q.sc" horiz-adv-x="589" 
d="M553 -152l-303 50l12 62l303 -44zM294 524q122 0 190.5 -75.5t68.5 -192.5q0 -116 -68.5 -191.5t-190.5 -75.5t-190 75.5t-68 191.5q0 117 68 192.5t190 75.5zM473 256q0 87 -47 143.5t-132 56.5t-131.5 -56.5t-46.5 -143.5q0 -86 46.5 -142t131.5 -56t132 56t47 142z
" />
    <glyph glyph-name="p.sc" horiz-adv-x="457" 
d="M65 0v514h180q87 0 139 -38.5t52 -123.5q0 -75 -49.5 -121.5t-136.5 -46.5h-109v-184h-76zM240 448h-99v-198h104q53 0 81.5 30.5t28.5 71.5q0 96 -115 96z" />
    <glyph glyph-name="o.sc" horiz-adv-x="589" 
d="M294 524q122 0 190.5 -75.5t68.5 -192.5q0 -116 -68 -191.5t-191 -75.5q-122 0 -190 75t-68 192t68 192.5t190 75.5zM473 256q0 87 -47 143.5t-132 56.5t-131.5 -56.5t-46.5 -143.5q0 -86 46.5 -142.5t131.5 -56.5t132 56.5t47 142.5z" />
    <glyph glyph-name="z.sc" horiz-adv-x="465" 
d="M411 448l-281 -381h301v-67h-397v67l280 381h-265v65h362v-65z" />
    <glyph glyph-name="f.sc" horiz-adv-x="397" 
d="M335 221h-194v-221h-76v513h316v-63h-240v-170h194v-59z" />
    <glyph glyph-name="paragraph.sc" horiz-adv-x="461" 
d="M256 514v-436q-85 0 -167 45q-44 70 -45 172.5t42 179.5q85 35 170 39zM103 -160l7 59l86 -8q65 0 93 30.5t28 88.5v504h74v-522q0 -165 -181 -165q-70 0 -107 13zM202 143v307q-43 -8 -72 -20q-28 -56 -28 -130q0 -77 31 -135q30 -14 69 -22z" />
    <glyph glyph-name="ordmasculine.sc" horiz-adv-x="355" 
d="M177 524q74 0 115.5 -45.5t41.5 -115.5t-41.5 -115.5t-115.5 -45.5q-73 0 -114.5 45.5t-41.5 115.5t41.5 115.5t114.5 45.5zM275 363q0 51 -26 81.5t-72 30.5t-71.5 -30.5t-25.5 -81.5t25 -81.5t72 -30.5t72.5 30.5t25.5 81.5z" />
    <glyph glyph-name="g.sc" horiz-adv-x="519" 
d="M410 65v165h71v-217q-72 -24 -180 -24q-130 1 -197.5 74t-67.5 189q0 119 72 195.5t202 76.5q97 0 157 -22l-9 -63q-88 16 -141 16q-98 0 -150 -56.5t-52 -144.5q0 -89 49 -143t147 -54q49 0 99 8z" />
    <glyph glyph-name="ampersand.sc" horiz-adv-x="597" 
d="M635 -30q-19 -39 -28 -51q-94 33 -237 148q-76 -76 -179 -76q-70 0 -117.5 31.5t-47.5 95.5q0 48 34 85t90 74q-61 67 -61 129q0 51 39.5 84.5t96.5 33.5q62 0 93 -32t31 -81q0 -73 -105 -142q100 -97 122 -115q16 21 38 64q44 83 108 83q42 0 75 -19q-1 -5 -18 -51
q-22 11 -49 11q-22 0 -36 -16t-34 -53t-37 -59q135 -105 222 -144zM189 234q-89 -61 -85 -108q3 -37 31.5 -55.5t64.5 -18.5q66 0 121 55q-29 25 -55 50.5l-48.5 48zM208 310q78 49 78 98q0 62 -59 62q-29 0 -50.5 -19t-19.5 -52q1 -35 51 -89z" />
    <glyph glyph-name="perthousand.sc" horiz-adv-x="1009" 
d="M718 149q0 71 30 116t89 45t88 -44.5t29 -116.5t-29 -116t-88 -44t-89 44.5t-30 115.5zM837 258q-54 0 -54 -109t54 -109q30 0 41 27t11 82t-11.5 82t-40.5 27zM55 362q0 71 30 116t89 45t88 -44.5t29 -116.5q0 -71 -29 -115.5t-88 -44.5t-89 44.5t-30 115.5zM174 471
q-30 0 -42 -27.5t-12 -81.5q0 -108 54 -108q30 0 41 26.5t11 81.5t-11.5 82t-40.5 27zM438 149q0 71 30.5 116t89.5 45t87.5 -44.5t28.5 -116.5t-28.5 -116t-87.5 -44t-89.5 44.5t-30.5 115.5zM558 258q-30 0 -42 -27.5t-12 -81.5q0 -109 54 -109q29 0 40.5 27t11.5 82
t-11.5 82t-40.5 27zM241 0l191 514h65l-192 -514h-64z" />
    <glyph glyph-name="v.sc" horiz-adv-x="497" 
d="M307 0h-120l-175 514h86l153 -445l155 445h79z" />
    <glyph glyph-name="w.sc" horiz-adv-x="791" 
d="M278 0h-116l-150 514h85l128 -439l133 439h83l129 -437l130 437h79l-155 -514h-114l-115 381z" />
    <glyph glyph-name="x.sc" horiz-adv-x="482" 
d="M473 0h-89l-149 217l-145 -217h-82l188 279l-160 235h92l123 -184l122 184h83l-166 -247z" />
    <glyph glyph-name="y.sc" horiz-adv-x="450" 
d="M12 514h89l121 -216l130 216h85l-178 -289v-225h-77v221z" />
    <glyph glyph-name="dotlessi.sc" horiz-adv-x="208" 
d="M65 0v513h77v-513h-77z" />
    <glyph glyph-name="fi.sc" horiz-adv-x="604" 
d="M335 221h-194v-221h-76v513h316v-63h-240v-170h194v-59zM462 0v513h77v-513h-77z" />
    <glyph glyph-name="fl.sc" horiz-adv-x="798" 
d="M335 221h-194v-221h-76v513h316v-63h-240v-170h194v-59zM462 0v513h77v-447h243v-66h-320z" />
    <glyph glyph-name="percent.sc" horiz-adv-x="729" 
d="M55 362q0 71 30 116t89 45t88 -44.5t29 -116.5q0 -71 -29 -115.5t-88 -44.5t-89 44.5t-30 115.5zM174 471q-30 0 -42 -27.5t-12 -81.5q0 -108 54 -108q30 0 41 26.5t11 81.5t-11.5 82t-40.5 27zM438 149q0 71 30.5 116t89.5 45t87.5 -44.5t28.5 -116.5t-28.5 -116
t-87.5 -44t-89.5 44.5t-30.5 115.5zM558 258q-30 0 -42 -27.5t-12 -81.5q0 -109 54 -109q29 0 40.5 27t11.5 82t-11.5 82t-40.5 27zM241 0l191 514h65l-192 -514h-64z" />
    <glyph glyph-name="lslash.sc" horiz-adv-x="401" 
d="M247 285l-105 -56v-163h243v-66h-320v188l-85 -45v75l85 45v250h77v-209l105 56v-75z" />
    <glyph glyph-name="scaron.sc" horiz-adv-x="426" 
d="M226 570h-32l-138 144l34 39l120 -116l121 116l33 -39zM41 6l4 65q71 -16 142 -16q57 0 87.5 23t30.5 55q0 46 -49 75q-13 8 -43.5 22.5t-41.5 21.5q-27 14 -41 22.5t-34 25.5t-29.5 39t-9.5 49q0 62 46 99t121 37q36 0 70.5 -5t51.5 -11l16 -5l-4 -62q-62 19 -122 19
q-45 0 -74.5 -18.5t-29.5 -49.5q0 -34 53 -65q5 -3 87 -44q54 -27 83 -60.5t29 -86.5q0 -62 -48 -104.5t-142 -42.5q-37 0 -75 4.5t-58 8.5z" />
    <glyph glyph-name="zcaron.sc" horiz-adv-x="465" 
d="M411 448l-281 -381h301v-67h-397v67l280 381h-265v65h362v-65zM247 570h-32l-138 144l34 39l120 -116l121 116l33 -39z" />
    <glyph glyph-name="ntilde.sc" horiz-adv-x="573" 
d="M416 0l-275 407v-407h-76v514h92l275 -407v407h75v-514h-91zM146 620l-29 39q4 6 12.5 14.5t35.5 23t56 14.5q20 0 34 -2.5t34.5 -10.5t31.5 -11q34 -8 51 -1t34 31l37 -33q-1 -3 -3 -7t-10 -14.5t-17 -19t-24.5 -15t-33.5 -6.5q-30 0 -68 14.5t-63 14.5
q-20 0 -39.5 -7.5t-28.5 -15.5z" />
    <glyph glyph-name="ccedilla.sc" horiz-adv-x="482" 
d="M444 503l-5 -65q-65 15 -126 15q-98 0 -147.5 -55.5t-49.5 -142.5q0 -88 48.5 -141.5t147.5 -53.5q70 0 138 17l4 -67q-62 -21 -157 -21q-128 1 -194.5 75t-66.5 191q0 118 69.5 193.5t197.5 75.5q90 0 141 -21zM144 -202l8 48q40 -16 67 -16q35 0 35 23q0 10 -13 35
t-13 38t4.5 24.5t9.5 17.5l4 5h53q-13 -15 -13 -37q0 -26 16 -52.5t16 -47.5q0 -25 -20.5 -41t-59.5 -16q-25 0 -48.5 4.5t-34.5 9.5z" />
    <glyph glyph-name="oslash.sc" horiz-adv-x="589" 
d="M516 514h40l-67 -71q64 -73 64 -187q0 -116 -68 -191.5t-191 -75.5q-110 0 -177 62l-49 -51h-43l70 74q-59 71 -59 182q0 117 68 192.5t190 75.5q106 0 174 -60zM473 256q0 78 -38 131l-266 -281q46 -49 125 -49q85 0 132 56.5t47 142.5zM116 256q0 -75 34 -125l266 278
q-47 47 -122 47q-85 0 -131.5 -56.5t-46.5 -143.5z" />
    <glyph glyph-name="cent.sc" horiz-adv-x="502" 
d="M452 503l-5 -65q-65 15 -126 15q-98 0 -147.5 -55.5t-49.5 -142.5q0 -88 48.5 -141.5t147.5 -53.5q70 0 138 17l4 -67q-57 -19 -145 -21v-120h-61v124q-104 15 -158 86t-54 176q0 104 55 176t157 88v109h61v-104q87 -1 135 -21z" />
    <glyph glyph-name="ydieresis.sc" horiz-adv-x="450" 
d="M12 514h89l121 -216l130 216h85l-178 -289v-225h-77v221zM177 698q9 -15 9 -35q0 -21 -8 -37q-16 -8 -39 -8q-19 0 -33 7q-9 17 -9 38q0 18 8 34q23 10 39 10t33 -9zM339 698q9 -15 9 -35q0 -21 -8 -37q-16 -8 -39 -8q-19 0 -33 7q-10 18 -10 38q0 16 9 34q23 10 39 10
t33 -9z" />
    <glyph glyph-name="yacute.sc" horiz-adv-x="450" 
d="M12 514h89l121 -216l130 216h85l-178 -289v-225h-77v221zM192 566l-33 39l156 156l38 -47z" />
    <glyph glyph-name="iacute.sc" horiz-adv-x="208" 
d="M65 0v513h77v-513h-77zM73 566l-33 39l156 156l38 -47z" />
    <glyph glyph-name="igrave.sc" horiz-adv-x="208" 
d="M65 0v513h77v-513h-77zM179 605l-33 -39l-161 148l38 47z" />
    <glyph glyph-name="icircumflex.sc" horiz-adv-x="208" 
d="M65 0v513h77v-513h-77zM90 752h32l138 -144l-33 -39l-121 116l-120 -116l-34 39z" />
    <glyph glyph-name="idieresis.sc" horiz-adv-x="208" 
d="M65 0v513h77v-513h-77zM65 698q9 -15 9 -35q0 -21 -8 -37q-16 -8 -39 -8q-19 0 -33 7q-9 17 -9 38q0 18 8 34q23 10 39 10q17 0 33 -9zM227 698q9 -15 9 -35q0 -21 -8 -37q-16 -8 -39 -8q-19 0 -33 7q-10 18 -10 38q0 16 9 34q23 10 39 10t33 -9z" />
    <glyph glyph-name="aacute.sc" horiz-adv-x="498" 
d="M202 566l-33 39l156 156l38 -47zM192 514h117l175 -513h-85l-54 158h-198l-56 -158h-78zM247 456l-82 -234h162z" />
    <glyph glyph-name="agrave.sc" horiz-adv-x="498" 
d="M327 605l-33 -39l-161 148l38 47zM192 514h117l175 -513h-85l-54 158h-198l-56 -158h-78zM247 456l-82 -234h162z" />
    <glyph glyph-name="acircumflex.sc" horiz-adv-x="498" 
d="M231 752h32l138 -144l-33 -39l-121 116l-120 -116l-34 39zM192 514h117l175 -513h-85l-54 158h-198l-56 -158h-78zM247 456l-82 -234h162z" />
    <glyph glyph-name="adieresis.sc" horiz-adv-x="498" 
d="M202 698q9 -15 9 -35q0 -21 -8 -37q-16 -8 -39 -8q-19 0 -33 7q-9 17 -9 38q0 18 8 34q23 10 39 10q17 0 33 -9zM364 698q9 -15 9 -35q0 -21 -8 -37q-16 -8 -39 -8q-19 0 -33 7q-10 18 -10 38q0 16 9 34q23 10 39 10q17 0 33 -9zM192 514h117l175 -513h-85l-54 158h-198
l-56 -158h-78zM247 456l-82 -234h162z" />
    <glyph glyph-name="atilde.sc" horiz-adv-x="498" 
d="M112 620l-29 39q4 6 12.5 14.5t35.5 23t56 14.5q20 0 34 -2.5t34.5 -10.5t31.5 -11q34 -8 51 -1t34 31l37 -33q-1 -3 -3 -7t-10 -14.5t-17 -19t-24.5 -15t-33.5 -6.5q-30 0 -68 14.5t-63 14.5q-20 0 -39.5 -7.5t-28.5 -15.5zM192 514h117l175 -513h-85l-54 158h-198
l-56 -158h-78zM247 456l-82 -234h162z" />
    <glyph glyph-name="aring.sc" horiz-adv-x="498" 
d="M149 670q0 41 28 69.5t69 28.5q40 0 69 -29t29 -69q0 -41 -28.5 -69.5t-69.5 -28.5t-69 28.5t-28 69.5zM192 670q0 -23 15.5 -38.5t38.5 -15.5q22 0 38 16t16 38t-16 38t-38 16q-23 0 -38.5 -16t-15.5 -38zM192 514h117l175 -513h-85l-54 158h-198l-56 -158h-78zM247 456
l-82 -234h162z" />
    <glyph glyph-name="eacute.sc" horiz-adv-x="421" 
d="M65 0v513h309v-63h-235v-160h189v-59h-189v-167h249v-64h-323zM181 566l-33 39l156 156l38 -47z" />
    <glyph glyph-name="egrave.sc" horiz-adv-x="421" 
d="M65 0v513h309v-63h-235v-160h189v-59h-189v-167h249v-64h-323zM295 605l-33 -39l-161 148l38 47z" />
    <glyph glyph-name="ecircumflex.sc" horiz-adv-x="421" 
d="M65 0v513h309v-63h-235v-160h189v-59h-189v-167h249v-64h-323zM203 752h32l138 -144l-33 -39l-121 116l-120 -116l-34 39z" />
    <glyph glyph-name="edieresis.sc" horiz-adv-x="421" 
d="M65 0v513h309v-63h-235v-160h189v-59h-189v-167h249v-64h-323zM177 698q9 -15 9 -35q0 -21 -8 -37q-16 -8 -39 -8q-19 0 -33 7q-9 17 -9 38q0 18 8 34q23 10 39 10t33 -9zM339 698q9 -15 9 -35q0 -21 -8 -37q-16 -8 -39 -8q-19 0 -33 7q-10 18 -10 38q0 16 9 34
q23 10 39 10t33 -9z" />
    <glyph glyph-name="oacute.sc" horiz-adv-x="589" 
d="M294 524q122 0 190.5 -75.5t68.5 -192.5q0 -116 -68 -191.5t-191 -75.5q-122 0 -190 75t-68 192t68 192.5t190 75.5zM473 256q0 87 -47 143.5t-132 56.5t-131.5 -56.5t-46.5 -143.5q0 -86 46.5 -142.5t131.5 -56.5t132 56.5t47 142.5zM234 566l-33 39l156 156l38 -47z
" />
    <glyph glyph-name="ograve.sc" horiz-adv-x="589" 
d="M294 524q122 0 190.5 -75.5t68.5 -192.5q0 -116 -68 -191.5t-191 -75.5q-122 0 -190 75t-68 192t68 192.5t190 75.5zM473 256q0 87 -47 143.5t-132 56.5t-131.5 -56.5t-46.5 -143.5q0 -86 46.5 -142.5t131.5 -56.5t132 56.5t47 142.5zM355 605l-33 -39l-161 148l38 47z
" />
    <glyph glyph-name="ocircumflex.sc" horiz-adv-x="589" 
d="M294 524q122 0 190.5 -75.5t68.5 -192.5q0 -116 -68 -191.5t-191 -75.5q-122 0 -190 75t-68 192t68 192.5t190 75.5zM473 256q0 87 -47 143.5t-132 56.5t-131.5 -56.5t-46.5 -143.5q0 -86 46.5 -142.5t131.5 -56.5t132 56.5t47 142.5zM271 752h32l138 -144l-33 -39
l-121 116l-120 -116l-34 39z" />
    <glyph glyph-name="odieresis.sc" horiz-adv-x="589" 
d="M294 524q122 0 190.5 -75.5t68.5 -192.5q0 -116 -68 -191.5t-191 -75.5q-122 0 -190 75t-68 192t68 192.5t190 75.5zM473 256q0 87 -47 143.5t-132 56.5t-131.5 -56.5t-46.5 -143.5q0 -86 46.5 -142.5t131.5 -56.5t132 56.5t47 142.5zM250 696q9 -15 9 -35q0 -21 -8 -37
q-16 -8 -39 -8q-19 0 -33 7q-9 17 -9 38q0 18 8 34q23 10 39 10q17 0 33 -9zM412 696q9 -15 9 -35q0 -21 -8 -37q-16 -8 -39 -8q-19 0 -33 7q-10 18 -10 38q0 16 9 34q23 10 39 10q17 0 33 -9z" />
    <glyph glyph-name="otilde.sc" horiz-adv-x="589" 
d="M294 524q122 0 190.5 -75.5t68.5 -192.5q0 -116 -68 -191.5t-191 -75.5q-122 0 -190 75t-68 192t68 192.5t190 75.5zM473 256q0 87 -47 143.5t-132 56.5t-131.5 -56.5t-46.5 -143.5q0 -86 46.5 -142.5t131.5 -56.5t132 56.5t47 142.5zM156 620l-29 39q4 6 12.5 14.5
t35.5 23t56 14.5q20 0 34 -2.5t34.5 -10.5t31.5 -11q34 -8 51 -1t34 31l37 -33q-1 -3 -3 -7t-10 -14.5t-17 -19t-24.5 -15t-33.5 -6.5q-30 0 -68 14.5t-63 14.5q-20 0 -39.5 -7.5t-28.5 -15.5z" />
    <glyph glyph-name="uacute.sc" horiz-adv-x="546" 
d="M485 514v-330q0 -93 -57.5 -144t-155.5 -51q-100 0 -155.5 49.5t-55.5 141.5v334h77v-334q0 -63 37.5 -94t98.5 -31q58 0 97 32t39 96v331h75zM249 569l-33 39l156 156l38 -47z" />
    <glyph glyph-name="ugrave.sc" horiz-adv-x="546" 
d="M485 514v-330q0 -93 -57.5 -144t-155.5 -51q-100 0 -155.5 49.5t-55.5 141.5v334h77v-334q0 -63 37.5 -94t98.5 -31q58 0 97 32t39 96v331h75zM325 608l-33 -39l-161 148l38 47z" />
    <glyph glyph-name="ucircumflex.sc" horiz-adv-x="546" 
d="M485 514v-330q0 -93 -57.5 -144t-155.5 -51q-100 0 -155.5 49.5t-55.5 141.5v334h77v-334q0 -63 37.5 -94t98.5 -31q58 0 97 32t39 96v331h75zM258 755h32l138 -144l-33 -39l-121 116l-120 -116l-34 39z" />
    <glyph glyph-name="udieresis.sc" horiz-adv-x="546" 
d="M485 514v-330q0 -93 -57.5 -144t-155.5 -51q-100 0 -155.5 49.5t-55.5 141.5v334h77v-334q0 -63 37.5 -94t98.5 -31q58 0 97 32t39 96v331h75zM233 698q9 -15 9 -35q0 -21 -8 -37q-16 -8 -39 -8q-19 0 -33 7q-9 17 -9 38q0 18 8 34q23 10 39 10t33 -9zM395 698
q9 -15 9 -35q0 -21 -8 -37q-16 -8 -39 -8q-19 0 -33 7q-10 18 -10 38q0 16 9 34q23 10 39 10t33 -9z" />
    <glyph glyph-name="eth.sc" horiz-adv-x="566" 
d="M0 234v57h65v223h201q125 0 194.5 -68.5t69.5 -185.5q0 -118 -69.5 -189t-194.5 -71h-201v234h-65zM254 448h-113v-157h154v-57h-154v-167h113q97 0 146.5 52.5t49.5 140.5t-49 138t-147 50z" />
    <glyph glyph-name="germandbls.sc" horiz-adv-x="851" 
d="M467 6l3 65q71 -16 143 -16q57 0 87.5 23t30.5 55q0 45 -50 75q-13 8 -43.5 23t-41.5 21q-27 14 -41 22.5t-34 25.5t-29.5 39t-9.5 49q0 62 46.5 99t121.5 37q36 0 70 -5t50 -11l17 -5l-4 -62q-62 19 -122 19q-45 0 -74.5 -18.5t-29.5 -49.5q0 -34 54 -65q9 -6 86 -44
q54 -27 83 -60.5t29 -86.5q0 -62 -47.5 -104.5t-141.5 -42.5q-37 0 -75 4.5t-58 8.5zM44 6l4 65q70 -16 142 -16q57 0 87.5 23t30.5 55q0 45 -49 75q-13 8 -43.5 22.5t-41.5 21.5q-27 14 -41 22.5t-34 25.5t-29.5 39t-9.5 49q0 62 46 99t121 37q36 0 70 -5t51 -11l16 -5
l-4 -62q-61 19 -121 19q-45 0 -74.5 -18.5t-29.5 -49.5q0 -35 53 -65q5 -3 87 -44q53 -28 82 -61t29 -86q0 -62 -47.5 -104.5t-141.5 -42.5q-37 0 -75 4.5t-58 8.5z" />
    <glyph glyph-name="Euro.sc" horiz-adv-x="545" 
d="M331 283h-156q-1 -9 -1 -28q0 -23 3 -42h154v-43h-143q40 -110 182 -110q70 0 138 17l4 -67q-63 -21 -157 -21q-103 1 -165.5 49.5t-83.5 131.5h-81v43h73q-2 26 -2 42q0 19 1 28h-72v43h78q19 90 84.5 144t173.5 54q90 0 141 -21l-5 -65q-65 15 -127 15
q-77 0 -123.5 -34t-63.5 -93h148v-43z" />
    <glyph glyph-name="dollar.sc" horiz-adv-x="463" 
d="M67 6l3 65q71 -16 143 -16q57 0 87.5 23t30.5 55q0 29 -25.5 52t-62 40t-73 36.5t-62 51.5t-25.5 75q0 54 36 89.5t97 43.5v118h61v-117q29 -1 56.5 -6t40.5 -9l14 -4q0 -10 -2 -31l-3 -31q-61 19 -121 19q-45 0 -74.5 -18.5t-29.5 -49.5t26 -53.5t63 -37.5t73.5 -33
t62.5 -51t26 -81q0 -51 -33 -90.5t-99 -51.5v-125h-61v120q-36 0 -73 4.5t-57 8.5z" />
    <glyph glyph-name="yen.sc" horiz-adv-x="542" 
d="M48 238h177l-42 72h-135v47h108l-91 157h89l121 -216l130 216h85l-96 -157h112v-47h-141l-45 -72h186v-48h-194v-190h-77v190h-187v48z" />
    <glyph glyph-name="thorn.sc" horiz-adv-x="457" 
d="M65 0v514h76v-60h104q87 0 139 -39t52 -124q0 -75 -49.5 -121t-136.5 -46h-109v-124h-76zM240 388h-99v-199h104q53 0 81.5 30.5t28.5 71.5q0 97 -115 97z" />
    <glyph glyph-name="degree.sc" horiz-adv-x="319" 
d="M25 387q0 55 39.5 94.5t94.5 39.5q56 0 95.5 -39t39.5 -95t-39.5 -95.5t-95.5 -39.5t-95 39.5t-39 95.5zM77 388q0 -35 24 -59.5t58 -24.5t58 24.5t24 59.5q0 34 -24 58t-58 24t-58 -24t-24 -58z" />
    <glyph glyph-name="ordfeminine.sc" horiz-adv-x="299" 
d="M107 514h87l109 -308h-64l-33 95h-117l-34 -95h-60zM148 477l-46 -133h90z" />
    <glyph glyph-name="florin.sc" horiz-adv-x="435" 
d="M43 195q2 5 8 27.5t8 27.5h75q6 48 8 68q3 32 7.5 55.5t16.5 53.5t30 49t50 32t74 13q58 0 91 -19q-3 -17 -10 -61q-25 15 -70 15q-102 0 -114 -124q0 -3 -9 -82h144l-6 -55h-143q-29 -279 -40 -369h-74q32 300 40 369h-86z" />
    <glyph glyph-name="sterling.sc" horiz-adv-x="496" 
d="M464 493l-6 -60q-64 28 -126 28q-31 0 -53 -9.5t-33.5 -20.5t-20 -34.5t-10 -35t-5.5 -39.5l-4 -56h169v-51h-175q-7 -93 -34 -158h291v-57h-425v57h57q13 26 22 65.5t11 65.5l2 27h-85v51h91q4 56 5 62q2 23 4 38t8 37.5t13.5 37.5t22 32t33 27t46.5 17t63 7
q83 0 139 -31z" />
    <glyph glyph-name="zero.sc" horiz-adv-x="481" 
d="M36 256q0 122 49.5 195t156.5 73t155 -72.5t48 -195.5q0 -267 -203 -267q-107 0 -156.5 72.5t-49.5 194.5zM241 459q-63 0 -94.5 -53t-31.5 -150q0 -201 126 -201q125 0 125 201q0 203 -125 203z" />
    <glyph glyph-name="one.sc" horiz-adv-x="364" 
d="M353 0h-320v63h123v388h-123v63h201v-451h119v-63z" />
    <glyph glyph-name="two.sc" horiz-adv-x="431" 
d="M406 0h-380v65q261 196 261 300q0 43 -21.5 67.5t-80.5 24.5q-29 0 -61 -7.5t-50 -14.5l-17 -7l-7 60q60 36 149 36q54 0 90.5 -15.5t52 -41t21 -46.5t5.5 -45q0 -45 -27 -95.5t-70.5 -94.5t-75 -71t-63.5 -50h274v-65z" />
    <glyph glyph-name="three.sc" horiz-adv-x="396" 
d="M25 5v63q68 -16 125 -16q136 0 136 104q0 46 -42 70t-95 24h-35v53h35q39 0 76.5 22.5t38.5 68.5q0 65 -96 65q-29 0 -58 -4.5t-44 -8.5l-14 -5l-7 61q56 21 141 21q79 0 116 -34t37 -84q0 -29 -11 -53t-27 -37t-32 -21.5t-27 -11.5l-11 -3v-1q49 -7 89.5 -38.5
t40.5 -89.5q0 -76 -53 -118.5t-144 -42.5q-35 0 -69.5 4t-52.5 8z" />
    <glyph glyph-name="four.sc" horiz-adv-x="444" 
d="M239 513h110v-309h83v-60h-83v-143h-73v143h-255v60zM276 415l2 40l-176 -251h174v211z" />
    <glyph glyph-name="five.sc" horiz-adv-x="398" 
d="M34 -1l4 63q53 -8 92 -8q156 0 156 109q0 26 -12.5 44.5t-32 29t-51 16.5t-60.5 8t-71 2l24 252h265l-7 -65h-185q-7 -84 -13 -134q103 -5 162 -38t59 -114q0 -91 -64 -132t-160 -43q-59 0 -106 10z" />
    <glyph glyph-name="six.sc" horiz-adv-x="422" 
d="M352 515l-9 -57q-30 3 -58 3q-70 0 -117 -56t-52 -159q50 57 123 57q70 0 108 -42t37 -111q-1 -70 -45.5 -115.5t-123.5 -45.5q-81 0 -128.5 55.5t-47.5 168.5q0 148 69 229.5t176 81.5q35 0 68 -9zM217 49q41 0 66.5 28.5t25.5 70.5q0 43 -21 70.5t-67 27.5
q-57 0 -105 -57q5 -63 30 -101.5t71 -38.5z" />
    <glyph glyph-name="seven.sc" horiz-adv-x="372" 
d="M19 448v66h343v-66l-156 -272q-20 -35 -40 -79t-30 -71l-11 -26h-85q6 37 233 448h-254z" />
    <glyph glyph-name="eight.sc" horiz-adv-x="422" 
d="M362 409q0 -39 -25.5 -69.5t-68.5 -61.5q55 -36 88 -71t33 -77q0 -65 -53.5 -103t-129.5 -38q-72 0 -122.5 31t-50.5 94q0 25 10.5 47.5t30.5 42.5t37 33.5t44 31.5q-99 70 -99 134q0 59 46.5 90t113.5 31q78 0 112 -35.5t34 -79.5zM206 238q-32 -22 -47 -33.5t-33 -35
t-18 -47.5q0 -37 31 -57.5t71 -20.5q44 0 74 23t30 61q0 20 -18.5 41.5t-37.5 34.5zM217 309q76 49 76 96q0 23 -18.5 43t-58.5 20q-38 0 -62 -16.5t-24 -49.5q0 -14 7 -26.5t23.5 -26l25 -20t31.5 -20.5z" />
    <glyph glyph-name="nine.sc" horiz-adv-x="421" 
d="M70 -2l9 57q15 -3 58 -3q69 0 116.5 56t52.5 158q-50 -57 -123 -57q-70 0 -108 42t-37 112t45.5 115.5t123.5 45.5q80 0 128 -56t48 -169q0 -148 -69 -229t-176 -81q-46 0 -68 9zM205 464q-41 0 -67 -29t-26 -71t21.5 -69.5t67.5 -27.5q57 0 104 56q-4 63 -29 102t-71 39
z" />
    <glyph glyph-name="s.sc" horiz-adv-x="420" 
d="M35 6l4 65q71 -16 142 -16q57 0 87.5 23t30.5 55q0 46 -49 75q-13 8 -43.5 22.5t-41.5 21.5q-27 14 -41 22.5t-34 25.5t-29.5 39t-9.5 49q0 62 46 99t121 37q36 0 70.5 -5t51.5 -11l16 -5l-4 -62q-62 19 -122 19q-45 0 -74.5 -18.5t-29.5 -49.5q0 -34 53 -65q5 -3 87 -44
q54 -27 83 -60.5t29 -86.5q0 -62 -48 -104.5t-142 -42.5q-37 0 -75 4.5t-58 8.5z" />
    <glyph glyph-name="a.sc" horiz-adv-x="498" 
d="M192 514h117l175 -513h-85l-54 158h-198l-56 -158h-78zM247 456l-82 -234h162z" />
    <glyph glyph-name="oe.sc" horiz-adv-x="828" 
d="M294 524q116 0 179 -81v70h309v-63h-235v-160h189v-59h-189v-167h249v-64h-323v70q-49 -60 -128 -76q-37 -5 -65 -4q-115 4 -179.5 78.5t-64.5 187.5q0 117 68 192.5t190 75.5zM473 256q0 87 -47 143.5t-132 56.5t-131.5 -56.5t-46.5 -143.5q0 -86 46.5 -142.5
t131.5 -56.5t132 56.5t47 142.5z" />
    <glyph glyph-name="ae.sc" horiz-adv-x="653" 
d="M298 0v159h-151l-56 -159h-78l179 514h415v-64h-235v-160h189v-59h-189v-167h249v-64h-323zM247 456l-82 -234h133v234h-51z" />
    </font>
</defs>
</svg>
